<?xml version="1.0" encoding="UTF-8"?>
<svg width="3191px" height="1906px" viewBox="0 0 3191 1906" version="1.1" xmlns="http://www.w3.org/2000/svg" xmlns:xlink="http://www.w3.org/1999/xlink">
    <!-- Generator: Sketch 49.3 (51167) - http://www.bohemiancoding.com/sketch -->
    <title>Group</title>
    <desc>Created with Sketch.</desc>
    <defs></defs>
    <g id="Page-1" stroke="none" stroke-width="1" fill="none" fill-rule="evenodd">
        <g id="Group">
            <g id="undraw_best_place_r685" transform="translate(1162.000000, 1465.000000)" fill-rule="nonzero">
                <path d="M122.585432,433.881216 L120.927466,433.507794 C139.41405,351.29567 185.872394,276.63987 251.744231,223.291992 C352.987412,141.425685 489.280462,117.531195 612.334736,160.074345 C735.38901,202.617494 827.821291,305.58844 856.882809,432.504562 L855.226501,432.881298 C816.093271,261.058475 665.503722,141.055004 489.019006,141.055004 C314.84698,141.055004 160.739426,264.205956 122.585432,433.881216 Z" id="Shape" fill="#3F3D56"></path>
                <circle id="Oval" fill="#FF6584" cx="764.444494" cy="186.857739" r="46.1531634"></circle>
                <rect id="Rectangle-path" fill="#3F3D56" x="745.212282" y="371.379676" width="1.69945788" height="67.1285864"></rect>
                <path d="M762.595807,379.934475 C762.703994,403.407668 746.189359,422.512973 746.189359,422.512973 C746.189359,422.512973 729.499323,403.560704 729.391136,380.087511 C729.282948,356.614319 745.797583,337.509013 745.797583,337.509013 C745.797583,337.509013 762.487619,356.461248 762.595807,379.934475 Z" id="Shape" fill="#17A2B8"></path>
                <path d="M762.595807,379.934475 C762.703994,403.407668 746.189359,422.512973 746.189359,422.512973 C746.189359,422.512973 729.499323,403.560704 729.391136,380.087511 C729.282948,356.614319 745.797583,337.509013 745.797583,337.509013 C745.797583,337.509013 762.487619,356.461248 762.595807,379.934475 Z" id="Shape" fill="#000000" opacity="0.1"></path>
                <circle id="Oval" fill="#17A2B8" opacity="0.4" cx="425.732605" cy="211.363276" r="26.552245"></circle>
                <circle id="Oval" fill="#17A2B8" opacity="0.4" cx="376.591132" cy="224.044945" r="18.6262028"></circle>
                <circle id="Oval" fill="#17A2B8" opacity="0.4" cx="176.90483" cy="277.577869" r="18.6262028"></circle>
                <circle id="Oval" fill="#17A2B8" opacity="0.4" cx="727.633276" cy="209.178912" r="26.552245"></circle>
                <path d="M48.1206428,431.044073 C49.5600836,436.36494 54.4902959,439.660325 54.4902959,439.660325 C54.4902959,439.660325 57.0868296,434.328837 55.6474313,429.00797 C54.2080329,423.687103 49.2777867,420.391718 49.2777867,420.391718 C49.2777867,420.391718 46.6812529,425.723198 48.1206428,431.044073 Z" id="Shape" fill="#3F3D56"></path>
                <path d="M50.2357371,429.900559 C54.1854556,433.745455 54.6679232,439.655957 54.6679232,439.655957 C54.6679232,439.655957 48.7465871,439.332644 44.7968601,435.487748 C40.847133,431.642852 40.3646739,425.732358 40.3646739,425.732358 C40.3646739,425.732358 46.28601,426.055663 50.2357371,429.900559 Z" id="Shape" fill="#17A2B8"></path>
                <path d="M568.154755,431.044073 C569.594153,436.36494 574.524408,439.660325 574.524408,439.660325 C574.524408,439.660325 577.120942,434.328837 575.681543,429.00797 C574.242145,423.687103 569.311899,420.391718 569.311899,420.391718 C569.311899,420.391718 566.715365,425.723198 568.154755,431.044073 Z" id="Shape" fill="#3F3D56"></path>
                <path d="M570.269849,429.900559 C574.219568,433.745455 574.702035,439.655957 574.702035,439.655957 C574.702035,439.655957 568.780699,439.332644 564.830972,435.487748 C560.881245,431.642852 560.398786,425.732358 560.398786,425.732358 C560.398786,425.732358 566.320122,426.055663 570.269849,429.900559 Z" id="Shape" fill="#17A2B8"></path>
                <polygon id="Shape" fill="#3F3D56" points="57.8979809 391.047808 54.3826522 385.188927 87.1940856 357.064598 171.567071 357.064598 171.567071 365.267032 141.09919 398.079315 105.943355 405.109972"></polygon>
                <polygon id="Shape" fill="#CCCCCC" points="186.090638 373.568884 186.090638 355.234282 175.044162 355.234282 175.044162 361.015838 171.567071 357.064598 143.442743 385.188927 138.754788 389.876032 132.895907 413.313255 143.442743 439.093182 197.346997 439.093182 197.346997 386.360703"></polygon>
                <rect id="Rectangle-path" fill="#F2F2F2" x="54.3826522" y="385.188681" width="89.0599034" height="53.9046797"></rect>
                <rect id="Rectangle-path" fill="#3F3D56" x="112.388778" y="402.18037" width="18.749456" height="16.4057762"></rect>
                <rect id="Rectangle-path" fill="#CCCCCC" x="88.3660402" y="401.594448" width="16.4057762" height="37.4989036"></rect>
                <polygon id="Shape" fill="#3F3D56" points="69.6165927 407.453525 69.6165927 401.594644 62.5859354 401.594644 62.5859354 407.453525 69.0302797 407.453525"></polygon>
                <polygon id="Shape" fill="#3F3D56" points="69.0302797 412.140629 62.5859354 412.140629 62.5859354 418.00036 69.6165927 418.00036 69.6165927 412.140629"></polygon>
                <rect id="Rectangle-path" fill="#3F3D56" x="74.303944" y="401.594448" width="7.03104814" height="5.85920395"></rect>
                <rect id="Rectangle-path" fill="#3F3D56" x="74.303944" y="412.14102" width="7.03104814" height="5.85920395"></rect>
                <polygon id="Shape" fill="#3F3D56" points="168.637206 408.039838 168.637206 402.180107 161.605699 402.180107 161.605699 408.039838 168.050893 408.039838"></polygon>
                <polygon id="Shape" fill="#3F3D56" points="168.050893 412.726942 161.605699 412.726942 161.605699 418.585824 168.637206 418.585824 168.637206 412.726942"></polygon>
                <rect id="Rectangle-path" fill="#3F3D56" x="173.324497" y="402.18037" width="7.03104814" height="5.85920395"></rect>
                <rect id="Rectangle-path" fill="#3F3D56" x="173.324497" y="412.726942" width="7.03104814" height="5.85920395"></rect>
                <polygon id="Shape" fill="#3F3D56" points="396.939828 391.047808 393.4245 385.188927 426.235933 357.064598 510.608919 357.064598 510.608919 365.267032 480.141038 398.079315 444.985202 405.109972"></polygon>
                <polygon id="Shape" fill="#CCCCCC" points="525.132486 373.568884 525.132486 355.234282 514.086009 355.234282 514.086009 361.015838 510.608919 357.064598 482.48459 385.188927 477.796636 389.876032 471.937755 413.313255 482.48459 439.093182 536.388845 439.093182 536.388845 386.360703"></polygon>
                <rect id="Rectangle-path" fill="#F2F2F2" x="393.4245" y="385.188681" width="89.0599034" height="53.9046797"></rect>
                <rect id="Rectangle-path" fill="#3F3D56" x="451.430626" y="402.18037" width="18.749456" height="16.4057762"></rect>
                <rect id="Rectangle-path" fill="#CCCCCC" x="427.407888" y="401.594448" width="16.4057762" height="37.4989036"></rect>
                <polygon id="Shape" fill="#3F3D56" points="408.65844 407.453525 408.65844 401.594644 401.627783 401.594644 401.627783 407.453525 408.072127 407.453525"></polygon>
                <polygon id="Shape" fill="#3F3D56" points="408.072127 412.140629 401.627783 412.140629 401.627783 418.00036 408.65844 418.00036 408.65844 412.140629"></polygon>
                <rect id="Rectangle-path" fill="#3F3D56" x="413.345792" y="401.594448" width="7.03104814" height="5.85920395"></rect>
                <rect id="Rectangle-path" fill="#3F3D56" x="413.345792" y="412.14102" width="7.03104814" height="5.85920395"></rect>
                <polygon id="Shape" fill="#3F3D56" points="507.679053 408.039838 507.679053 402.180107 500.647546 402.180107 500.647546 408.039838 507.09274 408.039838"></polygon>
                <polygon id="Shape" fill="#3F3D56" points="507.09274 412.726942 500.647546 412.726942 500.647546 418.585824 507.679053 418.585824 507.679053 412.726942"></polygon>
                <rect id="Rectangle-path" fill="#3F3D56" x="512.366345" y="402.18037" width="7.03104814" height="5.85920395"></rect>
                <rect id="Rectangle-path" fill="#3F3D56" x="512.366345" y="412.726942" width="7.03104814" height="5.85920395"></rect>
                <polygon id="Shape" fill="#3F3D56" points="238.361714 292.613508 232.502833 287.925553 265.314266 258.629449 348.514626 258.629449 348.514626 284.410225 294.610371 320.737836"></polygon>
                <polygon id="Shape" fill="#CCCCCC" points="363.683987 275.063206 363.683987 259.214912 352.637511 259.214912 352.637511 263.096474 348.514626 258.629449 321.562074 287.925553 311.016088 294.95706 294.663054 414.431499 319.324737 439.093182 376.638954 439.093182 376.638954 289.09733"></polygon>
                <rect id="Rectangle-path" fill="#F2F2F2" x="232.502468" y="287.925885" width="89.0599034" height="151.167475"></rect>
                <rect id="Rectangle-path" fill="#CCCCCC" x="267.071769" y="402.18037" width="16.4057762" height="36.91299"></rect>
                <polygon id="Shape" fill="#3F3D56" points="249.494013 412.726942 249.494013 406.868061 242.463356 406.868061 242.463356 412.726942 248.90855 412.726942"></polygon>
                <polygon id="Shape" fill="#3F3D56" points="248.90855 417.414047 242.463356 417.414047 242.463356 423.273778 249.494013 423.273778 249.494013 417.414047"></polygon>
                <rect id="Rectangle-path" fill="#3F3D56" x="254.181517" y="406.867739" width="7.03104814" height="5.85920395"></rect>
                <rect id="Rectangle-path" fill="#3F3D56" x="254.181517" y="417.414302" width="7.03104814" height="5.85920395"></rect>
                <polygon id="Shape" fill="#3F3D56" points="297.539387 412.726942 297.539387 406.868061 290.508729 406.868061 290.508729 412.726942 296.953923 412.726942"></polygon>
                <polygon id="Shape" fill="#3F3D56" points="296.953923 417.414047 290.508729 417.414047 290.508729 423.273778 297.539387 423.273778 297.539387 417.414047"></polygon>
                <rect id="Rectangle-path" fill="#3F3D56" x="302.226993" y="406.867739" width="7.03104814" height="5.85920395"></rect>
                <rect id="Rectangle-path" fill="#3F3D56" x="302.226993" y="417.414302" width="7.03104814" height="5.85920395"></rect>
                <polygon id="Shape" fill="#3F3D56" points="346.756537 295.542524 346.756537 289.683643 339.725879 289.683643 339.725879 295.542524 346.171073 295.542524"></polygon>
                <polygon id="Shape" fill="#3F3D56" points="346.171073 300.230478 339.725879 300.230478 339.725879 306.089359 346.756537 306.089359 346.756537 300.230478"></polygon>
                <rect id="Rectangle-path" fill="#3F3D56" x="351.444313" y="289.683651" width="7.03104814" height="5.85920395"></rect>
                <rect id="Rectangle-path" fill="#3F3D56" x="351.444313" y="300.230215" width="7.03104814" height="5.85920395"></rect>
                <polygon id="Shape" fill="#3F3D56" points="346.756537 328.354807 346.756537 322.495076 339.725879 322.495076 339.725879 328.354807 346.171073 328.354807"></polygon>
                <polygon id="Shape" fill="#3F3D56" points="346.171073 333.041912 339.725879 333.041912 339.725879 338.900793 346.756537 338.900793 346.756537 333.041912"></polygon>
                <rect id="Rectangle-path" fill="#3F3D56" x="351.444313" y="322.495195" width="7.03104814" height="5.85920395"></rect>
                <rect id="Rectangle-path" fill="#3F3D56" x="351.444313" y="333.041759" width="7.03104814" height="5.85920395"></rect>
                <polygon id="Shape" fill="#3F3D56" points="346.756537 361.16624 346.756537 355.306509 339.725879 355.306509 339.725879 361.16624 346.171073 361.16624"></polygon>
                <polygon id="Shape" fill="#3F3D56" points="346.171073 365.853345 339.725879 365.853345 339.725879 371.712226 346.756537 371.712226 346.756537 365.853345"></polygon>
                <rect id="Rectangle-path" fill="#3F3D56" x="351.444313" y="355.306739" width="7.03104814" height="5.85920395"></rect>
                <rect id="Rectangle-path" fill="#3F3D56" x="351.444313" y="365.853302" width="7.03104814" height="5.85920395"></rect>
                <polygon id="Shape" fill="#3F3D56" points="346.756537 393.977673 346.756537 388.117943 339.725879 388.117943 339.725879 393.977673 346.171073 393.977673"></polygon>
                <polygon id="Shape" fill="#3F3D56" points="346.171073 398.664778 339.725879 398.664778 339.725879 404.523659 346.756537 404.523659 346.756537 398.664778"></polygon>
                <rect id="Rectangle-path" fill="#3F3D56" x="351.444313" y="388.118282" width="7.03104814" height="5.85920395"></rect>
                <rect id="Rectangle-path" fill="#3F3D56" x="351.444313" y="398.664846" width="7.03104814" height="5.85920395"></rect>
                <rect id="Rectangle-path" fill="#3F3D56" x="242.463109" y="295.542855" width="67.9667675" height="14.0620878"></rect>
                <rect id="Rectangle-path" fill="#3F3D56" x="242.463109" y="323.667031" width="67.9667675" height="14.0620878"></rect>
                <rect id="Rectangle-path" fill="#3F3D56" x="242.463109" y="351.791215" width="67.9667675" height="14.0620878"></rect>
                <rect id="Rectangle-path" fill="#3F3D56" x="242.463109" y="379.915399" width="67.9667675" height="14.0620878"></rect>
                <polygon id="Shape" fill="#3F3D56" points="580.802477 292.613508 574.943596 287.925553 607.75503 258.629449 690.955389 258.629449 690.955389 284.410225 637.051134 320.737836"></polygon>
                <polygon id="Shape" fill="#CCCCCC" points="706.12475 275.063206 706.12475 259.214912 695.078274 259.214912 695.078274 263.096474 690.955389 258.629449 664.002837 287.925553 653.456851 294.95706 637.103818 414.431499 661.765501 439.093182 719.079718 439.093182 719.079718 289.09733"></polygon>
                <rect id="Rectangle-path" fill="#F2F2F2" x="574.943231" y="287.925885" width="89.0599034" height="151.167475"></rect>
                <rect id="Rectangle-path" fill="#CCCCCC" x="609.512532" y="402.18037" width="16.4057762" height="36.91299"></rect>
                <polygon id="Shape" fill="#3F3D56" points="591.934776 412.726942 591.934776 406.868061 584.904119 406.868061 584.904119 412.726942 591.349313 412.726942"></polygon>
                <polygon id="Shape" fill="#3F3D56" points="591.349313 417.414047 584.904119 417.414047 584.904119 423.273778 591.934776 423.273778 591.934776 417.414047"></polygon>
                <rect id="Rectangle-path" fill="#3F3D56" x="596.62228" y="406.867739" width="7.03104814" height="5.85920395"></rect>
                <rect id="Rectangle-path" fill="#3F3D56" x="596.62228" y="417.414302" width="7.03104814" height="5.85920395"></rect>
                <polygon id="Shape" fill="#3F3D56" points="639.98015 412.726942 639.98015 406.868061 632.949493 406.868061 632.949493 412.726942 639.394687 412.726942"></polygon>
                <polygon id="Shape" fill="#3F3D56" points="639.394687 417.414047 632.949493 417.414047 632.949493 423.273778 639.98015 423.273778 639.98015 417.414047"></polygon>
                <rect id="Rectangle-path" fill="#3F3D56" x="644.667756" y="406.867739" width="7.03104814" height="5.85920395"></rect>
                <rect id="Rectangle-path" fill="#3F3D56" x="644.667756" y="417.414302" width="7.03104814" height="5.85920395"></rect>
                <polygon id="Shape" fill="#3F3D56" points="689.1973 295.542524 689.1973 289.683643 682.166643 289.683643 682.166643 295.542524 688.611837 295.542524"></polygon>
                <polygon id="Shape" fill="#3F3D56" points="688.611837 300.230478 682.166643 300.230478 682.166643 306.089359 689.1973 306.089359 689.1973 300.230478"></polygon>
                <rect id="Rectangle-path" fill="#3F3D56" x="693.885076" y="289.683651" width="7.03104814" height="5.85920395"></rect>
                <rect id="Rectangle-path" fill="#3F3D56" x="693.885076" y="300.230215" width="7.03104814" height="5.85920395"></rect>
                <polygon id="Shape" fill="#3F3D56" points="689.1973 328.354807 689.1973 322.495076 682.166643 322.495076 682.166643 328.354807 688.611837 328.354807"></polygon>
                <polygon id="Shape" fill="#3F3D56" points="688.611837 333.041912 682.166643 333.041912 682.166643 338.900793 689.1973 338.900793 689.1973 333.041912"></polygon>
                <rect id="Rectangle-path" fill="#3F3D56" x="693.885076" y="322.495195" width="7.03104814" height="5.85920395"></rect>
                <rect id="Rectangle-path" fill="#3F3D56" x="693.885076" y="333.041759" width="7.03104814" height="5.85920395"></rect>
                <polygon id="Shape" fill="#3F3D56" points="689.1973 361.16624 689.1973 355.306509 682.166643 355.306509 682.166643 361.16624 688.611837 361.16624"></polygon>
                <polygon id="Shape" fill="#3F3D56" points="688.611837 365.853345 682.166643 365.853345 682.166643 371.712226 689.1973 371.712226 689.1973 365.853345"></polygon>
                <rect id="Rectangle-path" fill="#3F3D56" x="693.885076" y="355.306739" width="7.03104814" height="5.85920395"></rect>
                <rect id="Rectangle-path" fill="#3F3D56" x="693.885076" y="365.853302" width="7.03104814" height="5.85920395"></rect>
                <polygon id="Shape" fill="#3F3D56" points="689.1973 393.977673 689.1973 388.117943 682.166643 388.117943 682.166643 393.977673 688.611837 393.977673"></polygon>
                <polygon id="Shape" fill="#3F3D56" points="688.611837 398.664778 682.166643 398.664778 682.166643 404.523659 689.1973 404.523659 689.1973 398.664778"></polygon>
                <rect id="Rectangle-path" fill="#3F3D56" x="693.885076" y="388.118282" width="7.03104814" height="5.85920395"></rect>
                <rect id="Rectangle-path" fill="#3F3D56" x="693.885076" y="398.664846" width="7.03104814" height="5.85920395"></rect>
                <rect id="Rectangle-path" fill="#3F3D56" x="584.903872" y="295.542855" width="67.9667675" height="14.0620878"></rect>
                <rect id="Rectangle-path" fill="#3F3D56" x="584.903872" y="323.667031" width="67.9667675" height="14.0620878"></rect>
                <rect id="Rectangle-path" fill="#3F3D56" x="584.903872" y="351.791215" width="67.9667675" height="14.0620878"></rect>
                <rect id="Rectangle-path" fill="#3F3D56" x="584.903872" y="379.915399" width="67.9667675" height="14.0620878"></rect>
                <polygon id="Shape" fill="#3F3D56" points="768.592573 292.613508 762.733692 287.925553 795.545126 258.629449 878.745485 258.629449 878.745485 284.410225 824.84123 320.737836"></polygon>
                <polygon id="Shape" fill="#CCCCCC" points="893.914846 275.063206 893.914846 259.214912 882.86837 259.214912 882.86837 263.096474 878.745485 258.629449 851.792933 287.925553 841.246947 294.95706 824.893914 414.431499 849.555597 439.093182 906.869814 439.093182 906.869814 289.09733"></polygon>
                <rect id="Rectangle-path" fill="#F2F2F2" x="762.733327" y="287.925885" width="89.0599034" height="151.167475"></rect>
                <rect id="Rectangle-path" fill="#CCCCCC" x="797.302629" y="402.18037" width="16.4057762" height="36.91299"></rect>
                <polygon id="Shape" fill="#3F3D56" points="779.724872 412.726942 779.724872 406.868061 772.694215 406.868061 772.694215 412.726942 779.139409 412.726942"></polygon>
                <polygon id="Shape" fill="#3F3D56" points="779.139409 417.414047 772.694215 417.414047 772.694215 423.273778 779.724872 423.273778 779.724872 417.414047"></polygon>
                <rect id="Rectangle-path" fill="#3F3D56" x="784.412376" y="406.867739" width="7.03104814" height="5.85920395"></rect>
                <rect id="Rectangle-path" fill="#3F3D56" x="784.412376" y="417.414302" width="7.03104814" height="5.85920395"></rect>
                <polygon id="Shape" fill="#3F3D56" points="827.770246 412.726942 827.770246 406.868061 820.739589 406.868061 820.739589 412.726942 827.184783 412.726942"></polygon>
                <polygon id="Shape" fill="#3F3D56" points="827.184783 417.414047 820.739589 417.414047 820.739589 423.273778 827.770246 423.273778 827.770246 417.414047"></polygon>
                <rect id="Rectangle-path" fill="#3F3D56" x="832.457852" y="406.867739" width="7.03104814" height="5.85920395"></rect>
                <rect id="Rectangle-path" fill="#3F3D56" x="832.457852" y="417.414302" width="7.03104814" height="5.85920395"></rect>
                <polygon id="Shape" fill="#3F3D56" points="876.987396 295.542524 876.987396 289.683643 869.956739 289.683643 869.956739 295.542524 876.401933 295.542524"></polygon>
                <polygon id="Shape" fill="#3F3D56" points="876.401933 300.230478 869.956739 300.230478 869.956739 306.089359 876.987396 306.089359 876.987396 300.230478"></polygon>
                <rect id="Rectangle-path" fill="#3F3D56" x="881.675172" y="289.683651" width="7.03104814" height="5.85920395"></rect>
                <rect id="Rectangle-path" fill="#3F3D56" x="881.675172" y="300.230215" width="7.03104814" height="5.85920395"></rect>
                <polygon id="Shape" fill="#3F3D56" points="876.987396 328.354807 876.987396 322.495076 869.956739 322.495076 869.956739 328.354807 876.401933 328.354807"></polygon>
                <polygon id="Shape" fill="#3F3D56" points="876.401933 333.041912 869.956739 333.041912 869.956739 338.900793 876.987396 338.900793 876.987396 333.041912"></polygon>
                <rect id="Rectangle-path" fill="#3F3D56" x="881.675172" y="322.495195" width="7.03104814" height="5.85920395"></rect>
                <rect id="Rectangle-path" fill="#3F3D56" x="881.675172" y="333.041759" width="7.03104814" height="5.85920395"></rect>
                <polygon id="Shape" fill="#3F3D56" points="876.987396 361.16624 876.987396 355.306509 869.956739 355.306509 869.956739 361.16624 876.401933 361.16624"></polygon>
                <polygon id="Shape" fill="#3F3D56" points="876.401933 365.853345 869.956739 365.853345 869.956739 371.712226 876.987396 371.712226 876.987396 365.853345"></polygon>
                <rect id="Rectangle-path" fill="#3F3D56" x="881.675172" y="355.306739" width="7.03104814" height="5.85920395"></rect>
                <rect id="Rectangle-path" fill="#3F3D56" x="881.675172" y="365.853302" width="7.03104814" height="5.85920395"></rect>
                <polygon id="Shape" fill="#3F3D56" points="876.987396 393.977673 876.987396 388.117943 869.956739 388.117943 869.956739 393.977673 876.401933 393.977673"></polygon>
                <polygon id="Shape" fill="#3F3D56" points="876.401933 398.664778 869.956739 398.664778 869.956739 404.523659 876.987396 404.523659 876.987396 398.664778"></polygon>
                <rect id="Rectangle-path" fill="#3F3D56" x="881.675172" y="388.118282" width="7.03104814" height="5.85920395"></rect>
                <rect id="Rectangle-path" fill="#3F3D56" x="881.675172" y="398.664846" width="7.03104814" height="5.85920395"></rect>
                <rect id="Rectangle-path" fill="#3F3D56" x="772.693969" y="295.542855" width="67.9667675" height="14.0620878"></rect>
                <rect id="Rectangle-path" fill="#3F3D56" x="772.693969" y="323.667031" width="67.9667675" height="14.0620878"></rect>
                <rect id="Rectangle-path" fill="#3F3D56" x="772.693969" y="351.791215" width="67.9667675" height="14.0620878"></rect>
                <rect id="Rectangle-path" fill="#3F3D56" x="772.693969" y="379.915399" width="67.9667675" height="14.0620878"></rect>
                <rect id="Rectangle-path" fill="#3F3D56" x="0" y="438.508262" width="966.141806" height="1.69945788"></rect>
                <rect id="Rectangle-path" fill="#3F3D56" x="214.131693" y="371.379676" width="1.69945788" height="67.1285864"></rect>
                <path d="M231.515218,379.934475 C231.623406,403.407668 215.108771,422.512973 215.108771,422.512973 C215.108771,422.512973 198.418735,403.560704 198.310548,380.087511 C198.20236,356.614319 214.716995,337.509013 214.716995,337.509013 C214.716995,337.509013 231.407031,356.461248 231.515218,379.934475 Z" id="Shape" fill="#17A2B8"></path>
                <rect id="Rectangle-path" fill="#3F3D56" x="384.077481" y="371.379676" width="1.69945788" height="67.1285864"></rect>
                <path d="M401.461007,379.934475 C401.569194,403.407668 385.054559,422.512973 385.054559,422.512973 C385.054559,422.512973 368.364523,403.560704 368.256336,380.087511 C368.148148,356.614319 384.662783,337.509013 384.662783,337.509013 C384.662783,337.509013 401.352819,356.461248 401.461007,379.934475 Z" id="Shape" fill="#17A2B8"></path>
                <rect id="Rectangle-path" fill="#3F3D56" x="723.119329" y="371.379676" width="1.69945788" height="67.1285864"></rect>
                <path d="M740.502854,379.934475 C740.611042,403.407668 724.096407,422.512973 724.096407,422.512973 C724.096407,422.512973 707.406371,403.560704 707.298183,380.087511 C707.189996,356.614319 723.704631,337.509013 723.704631,337.509013 C723.704631,337.509013 740.394667,356.461248 740.502854,379.934475 Z" id="Shape" fill="#17A2B8"></path>
                <ellipse id="Oval" fill="#17A2B8" cx="499.215753" cy="138.930682" rx="32.2896998" ry="7.26518245"></ellipse>
                <path d="M535.754097,37.3880734 C535.754097,58.036937 498.366024,116.412865 498.366024,116.412865 C498.366024,116.412865 460.977951,58.036937 460.977951,37.3880734 C460.977951,16.7392106 477.717161,0 498.366024,0 C519.014887,0 535.754097,16.7392106 535.754097,37.3880734 Z" id="Shape" fill="#17A2B8"></path>
                <circle id="Oval" fill="#F2F2F2" cx="498.366024" cy="37.3880734" r="21.2432235"></circle>
            </g>
            <g id="undraw_aircraft_fbvl-(1)" transform="translate(1042.000000, 0.000000)" fill-rule="nonzero">
                <path d="M1736.58329,803.042852 C1716.84717,810.332777 1682.1827,816.326716 1642.06403,821.146167 C1532.98003,834.268032 1383.49456,838.925485 1383.49456,838.925485 C1383.49456,838.925485 615.038221,902.813581 39.0949311,665.202513 C39.0949311,665.202513 -44.6775365,621.179464 33.0347092,561.92857 C45.0013021,553.074939 57.7231317,545.295915 71.0525013,538.681808 L72.0019361,537.730068 C80.8413362,529.540727 90.39397,522.160629 100.545581,515.678044 C130.382074,496.339492 180.762719,473.416726 242.092165,483.80487 L1754.76396,729.05011 C1754.76396,729.05011 1810.01298,775.84738 1736.58329,803.042852 Z" id="Shape" fill="#3F3D56"></path>
                <path d="M1435.02467,689.148582 L1751.94484,465.213829 L1891.62343,489.274433 L1754.85608,726.095199 C1754.85608,726.095199 1438.66371,728.611999 1435.02467,689.148582 Z" id="Shape" fill="#3F3D56"></path>
                <polygon id="Shape" fill="#3F3D56" points="638.745972 554.055082 1269.37852 376.601671 1371.027 397.919587 1086.15679 526.4958 997.131069 626.438728"></polygon>
                <path d="M1641.78637,819.961493 C1532.72082,833.059747 1383.26062,837.708819 1383.26062,837.708819 C1383.26062,837.708819 614.934224,901.481954 39.0883205,664.298445 C39.0883205,664.298445 -44.669982,620.354611 33.0291233,561.210334 L33.2916885,562.301855 C33.2916885,562.301855 157.545626,646.348986 751.225766,716.509541 L1641.78637,819.961493 Z" id="Shape" fill="#17A2B8"></path>
                <path d="M1540.99801,814.618579 L1823.19259,930.427659 L1894.08488,922.524197 L1725.29371,795.012306 C1725.29371,795.012306 1521.12715,751.228347 1540.99801,814.618579 Z" id="Shape" fill="#3F3D56"></path>
                <path d="M136.482313,575.977377 C122.939767,576.202468 91.909851,553.34553 72.6127406,537.95751 C81.5105191,529.68203 91.1262416,522.224303 101.344898,515.67353 C116.900524,527.685189 144.575305,547.124841 159.968258,546.367718 C182.193487,545.446892 156.877467,575.609047 136.482313,575.977377 Z" id="Shape" fill="#17A2B8"></path>
                <path d="M1416.5638,1213.84937 L1235.45531,1223.34007 L726.258162,879.489326 L631.73339,815.644628 L585.824822,784.622783 C671.964006,711.773049 1023.41107,812.244974 1023.41107,812.244974 C1030.13975,817.931301 1032.28161,827.38153 1031.97851,837.823325 C1031.39253,857.371337 1022.2189,880.319003 1018.68281,888.575306 C1017.83415,890.59891 1017.30879,891.67142 1017.30879,891.67142 L1416.5638,1213.84937 Z" id="Shape" fill="#3F3D56"></path>
                <path d="M820.149298,1035.35447 L788.732282,1055.32165 L807.764326,1020.56171 C802.375168,1016.24312 795.706881,1013.85122 788.813097,1013.76394 L788.308,1013.76394 C786.129048,1013.80673 783.950915,1013.64368 781.802354,1013.27693 L771.175119,1020.05441 L775.72099,1011.73475 C768.192212,1009.08068 761.688112,1004.11036 757.13343,997.530454 L738.121589,1009.70556 L750.122687,987.749781 C739.010559,974.336867 724.019288,966.118667 707.512727,966.118667 C687.733139,966.118667 670.115365,977.928525 658.740587,996.353526 C651.873876,1007.58584 639.530367,1014.24937 626.414396,1013.80452 L625.363794,1013.80452 C603.523412,1013.80452 585.824822,1038.66204 585.824822,1069.34332 C585.824822,1100.0246 603.523412,1124.88212 625.363794,1124.88212 C630.162829,1124.86681 634.885676,1123.67573 639.122629,1121.41221 C654.171807,1114.07968 671.664345,1113.73854 686.985596,1120.47878 C699.933711,1126.28226 714.728073,1126.28226 727.676189,1120.47878 C742.867065,1113.86627 760.167335,1114.19942 775.09467,1121.39192 C779.305854,1123.59914 783.98219,1124.76114 788.732282,1124.78066 C810.572664,1124.78066 828.271254,1099.92314 828.271254,1069.24186 C828.42833,1057.44161 825.6358,1045.79028 820.149298,1035.35447 Z" id="Shape" fill="#F2F2F2"></path>
                <path d="M761.818414,1115.56336 C750.350501,1113.39759 738.496467,1114.68168 727.761034,1119.25264 C714.756047,1125.06465 699.88498,1125.06465 686.879993,1119.25264 C671.483245,1112.5001 653.891639,1112.84105 638.769121,1120.18509 C634.500333,1122.43954 629.748156,1123.62885 624.918714,1123.65139 C605.422539,1123.65139 589.196036,1104.0293 585.824822,1078.16382 C589.725796,1075.33618 593.036944,1071.77643 595.572909,1067.68384 C607.006603,1049.29826 624.715629,1037.50068 644.597665,1037.50068 C664.479701,1037.50068 682.00595,1049.05501 693.419335,1067.29869 C700.347315,1078.48322 712.6382,1085.22871 725.811417,1085.07615 L726.319129,1085.07615 C741.834835,1085.0356 755.279072,1097.44131 761.818414,1115.56336 Z" id="Shape" fill="#000000" opacity="0.03"></path>
                <path d="M1708.73233,1008.27853 L1677.31531,1028.24571 L1696.34736,993.485769 C1690.9582,989.167184 1684.28991,986.775282 1677.39613,986.687998 L1676.89103,986.687998 C1674.71208,986.73079 1672.53394,986.567738 1670.38538,986.200994 L1659.75815,992.978472 L1664.30402,984.658813 C1656.77524,982.004743 1650.27114,977.03442 1645.71646,970.454517 L1626.70462,982.629628 L1638.70572,960.673844 C1627.59359,947.26093 1612.60232,939.04273 1596.09576,939.04273 C1576.31617,939.04273 1558.69839,950.852588 1547.32362,969.277589 C1540.4569,980.509903 1528.1134,987.173431 1514.99742,986.728582 L1513.94682,986.728582 C1492.10644,986.728582 1474.40785,1011.5861 1474.40785,1042.26738 C1474.40785,1072.94866 1492.10644,1097.80618 1513.94682,1097.80618 C1518.74586,1097.79087 1523.4687,1096.59979 1527.70566,1094.33627 C1542.75484,1087.00374 1560.24737,1086.6626 1575.56862,1093.40285 C1588.51674,1099.20632 1603.3111,1099.20632 1616.25922,1093.40285 C1631.45009,1086.79034 1648.75036,1087.12349 1663.6777,1094.31598 C1667.88888,1096.5232 1672.56522,1097.6852 1677.31531,1097.70472 C1699.15569,1097.70472 1716.85428,1072.8472 1716.85428,1042.16592 C1717.01136,1030.36567 1714.21883,1018.71435 1708.73233,1008.27853 Z" id="Shape" fill="#F2F2F2"></path>
                <path d="M1650.40144,1089.71815 C1638.93353,1087.55238 1627.0795,1088.83647 1616.34406,1093.40743 C1603.33908,1099.21944 1588.46801,1099.21944 1575.46302,1093.40743 C1560.06627,1086.65489 1542.47467,1086.99584 1527.35215,1094.33988 C1523.08336,1096.59432 1518.33118,1097.78364 1513.50174,1097.80618 C1494.00557,1097.80618 1477.77906,1078.18409 1474.40785,1052.31861 C1478.30882,1049.49097 1481.61997,1045.93122 1484.15594,1041.83862 C1495.58963,1023.45305 1513.29866,1011.65547 1533.18069,1011.65547 C1553.06273,1011.65547 1570.58898,1023.2098 1582.00236,1041.45348 C1588.94906,1052.66924 1601.28678,1059.41928 1614.49599,1059.23093 L1615.0037,1059.23093 C1630.41786,1059.19039 1643.8621,1071.59609 1650.40144,1089.71815 Z" id="Shape" fill="#000000" opacity="0.03"></path>
                <path d="M1708.73099,346.148718 L1677.31415,366.115879 L1696.34609,331.355974 C1690.95696,327.037395 1684.28871,324.645495 1677.39497,324.558211 L1676.88987,324.558211 C1674.71093,324.601003 1672.53281,324.437951 1670.38426,324.071207 L1659.75709,330.848678 L1664.30293,322.529028 C1656.7742,319.874961 1650.27014,314.904644 1645.71548,308.324747 L1626.70375,320.499845 L1638.70478,298.544085 C1627.59271,285.131185 1612.60153,276.912994 1596.09506,276.912994 C1576.31559,276.912994 1558.69791,288.722839 1547.3232,307.147821 C1540.45653,318.380122 1528.11309,325.043643 1514.99719,324.598795 L1513.9466,324.598795 C1492.10634,324.598795 1474.40785,349.456287 1474.40785,380.137534 C1474.40785,410.818781 1492.10634,435.676273 1513.9466,435.676273 C1518.7456,435.660965 1523.46842,434.469889 1527.70535,432.20637 C1542.75445,424.873844 1560.24688,424.532704 1575.56805,431.272946 C1588.50174,437.108716 1603.29602,437.145604 1616.25841,431.374405 C1631.4492,424.761901 1648.74937,425.09505 1663.67662,432.287537 C1667.88778,434.494758 1672.56409,435.656755 1677.31415,435.676273 C1699.15441,435.676273 1716.8529,410.818781 1716.8529,380.137534 C1717.02694,368.303062 1714.23393,356.614776 1708.73099,346.148718 Z" id="Shape" fill="#F2F2F2"></path>
                <path d="M1650.40144,427.588412 C1638.93353,425.422641 1627.0795,426.706733 1616.34406,431.27769 C1603.33908,437.089705 1588.46801,437.089705 1575.46302,431.27769 C1560.06627,424.52515 1542.47467,424.866099 1527.35215,432.210144 C1523.08336,434.464589 1518.33118,435.653901 1513.50174,435.676443 C1494.00557,435.676443 1477.77906,416.054352 1474.40785,390.188869 C1478.30882,387.361235 1481.61997,383.801485 1484.15594,379.708889 C1495.58963,361.323314 1513.29866,349.525734 1533.18069,349.525734 C1553.06273,349.525734 1570.58898,361.080065 1582.00236,379.323744 C1588.94906,390.539504 1601.28678,397.289542 1614.49599,397.101196 L1615.0037,397.101196 C1630.41786,397.060655 1643.8621,409.466357 1650.40144,427.588412 Z" id="Shape" fill="#000000" opacity="0.03"></path>
                <path d="M411.846558,274.238383 L396.059062,284.147244 L405.633414,266.912688 C402.927619,264.758265 399.570949,263.564544 396.099804,263.522283 L395.855352,263.522283 C394.757167,263.533512 393.659998,263.452498 392.575627,263.280111 L387.238435,266.630154 L389.519983,262.593958 C385.732743,261.279498 382.460673,258.814787 380.169711,255.550796 L370.615729,261.60509 L376.727018,250.727542 C371.580642,244.133631 363.707907,240.189492 355.296765,239.991261 C345.355736,239.991261 336.494367,245.843745 330.85161,254.985729 C327.393888,260.573041 321.165937,263.881633 314.55484,263.643369 L314.025195,263.643369 C303.045246,263.643369 294.143136,275.994128 294.143136,291.210587 C294.143136,306.427045 303.045246,318.757624 314.025195,318.757624 C316.440053,318.749865 318.81688,318.1612 320.951322,317.042241 C328.519331,313.392455 337.324198,313.222723 345.0298,316.578078 C351.514261,319.433481 358.916302,319.433481 365.400763,316.578078 C373.042984,313.293685 381.749018,313.463088 389.25516,317.042241 C391.37153,318.127287 393.716874,318.701239 396.099804,318.717262 C407.079753,318.717262 415.981863,306.386683 415.981863,291.170225 C416.059142,285.27196 414.637047,279.44925 411.846558,274.238383 Z" id="Shape" fill="#F2F2F2"></path>
                <path d="M381.524569,314.754867 C375.829306,313.658185 369.937871,314.302201 364.610078,316.603856 C361.42657,318.017216 357.985881,318.750616 354.505842,318.757624 C350.98624,318.756589 347.507248,318.001588 344.300563,316.5429 C336.65183,313.179351 327.920784,313.357597 320.414149,317.030546 C318.303946,318.156999 315.952636,318.749772 313.563477,318.757624 C303.883619,318.757624 295.820439,308.943758 294.143136,296.021151 C296.074013,294.596766 297.719597,292.818125 298.993169,290.778962 C304.651541,281.574653 313.442226,275.682269 323.243335,275.682269 C333.044444,275.682269 341.794713,281.513697 347.493502,290.596095 C350.948546,296.214673 357.091267,299.588414 363.66028,299.475307 L363.92299,299.475307 C371.541584,299.475307 378.271005,305.692788 381.524569,314.754867 Z" id="Shape" fill="#000000" opacity="0.03"></path>
                <path d="M1806.25732,1262.51009 L1790.46983,1272.41895 L1800.04418,1255.18439 C1797.33838,1253.02997 1793.98171,1251.83625 1790.51057,1251.79399 L1790.26612,1251.79399 C1789.16793,1251.80522 1788.07076,1251.7242 1786.98639,1251.55182 L1781.6492,1254.90186 L1783.93075,1250.86566 C1780.14351,1249.5512 1776.87144,1247.08649 1774.58047,1243.8225 L1765.02649,1249.8768 L1771.13778,1238.99925 C1765.99141,1232.40534 1758.11867,1228.4612 1749.70753,1228.26297 C1739.7665,1228.26297 1730.90513,1234.11545 1725.26237,1243.25744 C1721.80465,1248.84475 1715.5767,1252.15334 1708.9656,1251.91508 L1708.43596,1251.91508 C1697.45601,1251.91508 1688.5539,1264.26583 1688.5539,1279.48229 C1688.5539,1294.69875 1697.45601,1307.02933 1708.43596,1307.02933 C1710.85082,1307.02157 1713.22764,1306.43291 1715.36209,1305.31395 C1722.93009,1301.66416 1731.73496,1301.49443 1739.44056,1304.84978 C1745.92502,1307.70519 1753.32707,1307.70519 1759.81153,1304.84978 C1767.45375,1301.56539 1776.15978,1301.73479 1783.66592,1305.31395 C1785.78229,1306.39899 1788.12764,1306.97295 1790.51057,1306.98897 C1801.49052,1306.98897 1810.39263,1294.65839 1810.39263,1279.44193 C1810.46991,1273.54367 1809.04781,1267.72096 1806.25732,1262.51009 Z" id="Shape" fill="#F2F2F2"></path>
                <path d="M1775.93533,1303.02657 C1770.24007,1301.92989 1764.34863,1302.57391 1759.02084,1304.87556 C1755.83733,1306.28892 1752.39664,1307.02232 1748.91661,1307.02933 C1745.397,1307.0283 1741.91801,1306.27329 1738.71133,1304.81461 C1731.06259,1301.45106 1722.33155,1301.6293 1714.82491,1305.30225 C1712.71471,1306.4287 1710.3634,1307.02148 1707.97424,1307.02933 C1698.29438,1307.02933 1690.2312,1297.21546 1688.5539,1284.29286 C1690.48478,1282.86847 1692.13036,1281.08983 1693.40393,1279.05067 C1699.0623,1269.84636 1707.85299,1263.95398 1717.6541,1263.95398 C1727.45521,1263.95398 1736.20548,1269.7854 1741.90427,1278.8678 C1745.35931,1284.48638 1751.50203,1287.86012 1758.07104,1287.74701 L1758.33375,1287.74701 C1765.95235,1287.74701 1772.68177,1293.96449 1775.93533,1303.02657 Z" id="Shape" fill="#000000" opacity="0.03"></path>
                <path d="M351.541061,1314.20052 L335.753565,1324.10938 L345.327918,1306.87482 C342.622122,1304.7204 339.265452,1303.52668 335.794307,1303.48442 L335.549856,1303.48442 C334.451671,1303.49564 333.354501,1303.41463 332.270131,1303.24224 L326.932939,1306.59229 L329.214486,1302.55609 C325.427247,1301.24163 322.155177,1298.77692 319.864214,1295.51293 L310.310233,1301.56722 L316.421522,1290.68967 C311.275145,1284.09576 303.402411,1280.15162 294.991269,1279.95339 C285.050239,1279.95339 276.188871,1285.80588 270.546114,1294.94786 C267.088391,1300.53517 260.86044,1303.84376 254.249344,1303.6055 L253.719699,1303.6055 C242.73975,1303.6055 233.837639,1315.95626 233.837639,1331.17272 C233.837639,1346.38918 242.73975,1358.71976 253.719699,1358.71976 C256.134556,1358.712 258.511384,1358.12333 260.645826,1357.00437 C268.213835,1353.35459 277.018702,1353.18485 284.724304,1356.54021 C291.208765,1359.39561 298.610806,1359.39561 305.095267,1356.54021 C312.737487,1353.25582 321.443521,1353.42522 328.949664,1357.00437 C331.066033,1358.08942 333.411377,1358.66337 335.794307,1358.67939 C346.774256,1358.67939 355.676367,1346.34882 355.676367,1331.13236 C355.753646,1325.23409 354.331551,1319.41138 351.541061,1314.20052 Z" id="Shape" fill="#F2F2F2"></path>
                <path d="M321.219073,1355.94772 C315.523809,1354.85104 309.632374,1355.49506 304.304581,1357.79671 C301.121073,1359.21007 297.680385,1359.94347 294.200345,1359.95048 C290.680743,1359.94945 287.201752,1359.19444 283.995067,1357.73576 C276.346334,1354.37221 267.615287,1354.55045 260.108653,1358.2234 C257.99845,1359.34985 255.647139,1359.94263 253.257981,1359.95048 C243.578123,1359.95048 235.514942,1350.13661 233.837639,1337.21401 C235.768516,1335.78962 237.414101,1334.01098 238.687672,1331.97182 C244.346045,1322.76751 253.13673,1316.87513 262.937839,1316.87513 C272.738948,1316.87513 281.489216,1322.70655 287.188006,1331.78895 C290.643049,1337.40753 296.785771,1340.78127 303.354783,1340.66816 L303.617493,1340.66816 C311.236087,1340.66816 317.965509,1346.88564 321.219073,1355.94772 Z" id="Shape" fill="#000000" opacity="0.03"></path>
                <path d="M1073.67719,69.2357246 L1042.26035,89.2028855 L1061.29229,54.4429804 C1055.90316,50.1244009 1049.23491,47.7325015 1042.34117,47.6452173 L1041.83607,47.6452173 C1039.65713,47.6880095 1037.47901,47.5249574 1035.33046,47.1582133 L1024.70329,53.9356846 L1029.24913,45.6160342 C1021.7204,42.9619669 1015.21634,37.99165 1010.66168,31.4117531 L991.649949,43.5868512 L1003.65098,21.631091 C992.538914,8.21819122 977.547729,0 961.041262,0 C941.261787,0 923.644113,11.8098452 912.2694,30.234827 C905.402729,41.4671283 893.05929,48.1306494 879.943394,47.6858009 L878.892798,47.6858009 C857.05254,47.6858009 839.354052,72.5432929 839.354052,103.22454 C839.354052,133.905787 857.05254,158.763279 878.892798,158.763279 C883.691806,158.747971 888.414626,157.556895 892.651555,155.293376 C907.700646,147.96085 925.193085,147.61971 940.514248,154.359952 C953.44794,160.195722 968.242226,160.232611 981.204608,154.461411 C996.395398,147.848907 1013.69557,148.182057 1028.62282,155.374544 C1032.83398,157.581764 1037.51029,158.743761 1042.26035,158.763279 C1064.10061,158.763279 1081.7991,133.905787 1081.7991,103.22454 C1081.97314,91.3900681 1079.18013,79.7017822 1073.67719,69.2357246 Z" id="Shape" fill="#F2F2F2"></path>
                <path d="M1015.34764,150.675418 C1003.87973,148.509647 992.025697,149.793739 981.290264,154.364696 C968.285277,160.176711 953.414209,160.176711 940.409223,154.364696 C925.012475,147.612156 907.420869,147.953105 892.298351,155.297151 C888.029563,157.551595 883.277386,158.740908 878.447943,158.76345 C858.951769,158.76345 842.725265,139.141359 839.354052,113.275875 C843.255026,110.448242 846.566173,106.888491 849.102139,102.795895 C860.535833,84.41032 878.244858,72.6127406 898.126895,72.6127406 C918.008931,72.6127406 935.535179,84.167071 946.948565,102.410751 C953.895258,113.626511 966.232976,120.376549 979.442189,120.188203 L979.949902,120.188203 C995.364065,120.147661 1008.8083,132.553363 1015.34764,150.675418 Z" id="Shape" fill="#000000" opacity="0.03"></path>
                <path d="M2144.70654,415.771691 L2128.91904,425.680552 L2138.49339,408.445996 C2135.7876,406.291573 2132.43093,405.097852 2128.95978,405.055591 L2128.71533,405.055591 C2127.61715,405.066819 2126.51998,404.985805 2125.43561,404.813419 L2120.09841,408.163462 L2122.37996,404.127266 C2118.59272,402.812806 2115.32065,400.348095 2113.02969,397.084104 L2103.47571,403.138398 L2109.587,392.26085 C2104.44062,385.666938 2096.56789,381.7228 2088.15674,381.524569 C2078.21571,381.524569 2069.35435,387.377053 2063.71159,396.519037 C2060.25387,402.106349 2054.02592,405.414941 2047.41482,405.176677 L2046.88517,405.176677 C2035.90522,405.176677 2027.00311,417.527436 2027.00311,432.743895 C2027.00311,447.960353 2035.90522,460.290932 2046.88517,460.290932 C2049.30003,460.283173 2051.67686,459.694508 2053.8113,458.575548 C2061.37931,454.925763 2070.18418,454.756031 2077.88978,458.111386 C2084.37424,460.966788 2091.77628,460.966788 2098.26074,458.111386 C2105.90296,454.826993 2114.609,454.996396 2122.11514,458.575548 C2124.23151,459.660595 2126.57685,460.234547 2128.95978,460.25057 C2139.93973,460.25057 2148.84184,447.919991 2148.84184,432.703533 C2148.91912,426.805267 2147.49703,420.982558 2144.70654,415.771691 Z" id="Shape" fill="#F2F2F2"></path>
                <path d="M2114.38455,456.288175 C2108.68269,455.191493 2102.78444,455.835509 2097.45047,458.137164 C2094.26328,459.550524 2090.81861,460.283924 2087.33454,460.290932 C2083.84498,460.27554 2080.39792,459.520861 2077.21861,458.076208 C2069.56102,454.712659 2060.81987,454.890905 2053.30454,458.563854 C2051.19189,459.690306 2048.83786,460.28308 2046.44594,460.290932 C2036.75487,460.290932 2028.68236,450.477066 2027.00311,437.554459 C2028.93623,436.130074 2030.58372,434.351433 2031.85876,432.31227 C2037.52368,423.107961 2046.32455,417.215577 2056.137,417.215577 C2065.94946,417.215577 2074.70986,423.047005 2080.41524,432.129403 C2083.85567,437.71661 2089.9588,441.085787 2096.49958,441.008615 L2096.76259,441.008615 C2104.39001,441.008615 2111.12722,447.226095 2114.38455,456.288175 Z" id="Shape" fill="#000000" opacity="0.03"></path>
            </g>
            <g id="undraw_travelers_qlt1" transform="translate(0.000000, 222.000000)">
                <ellipse id="Oval" fill="#3F3D56" fill-rule="nonzero" cx="456.827246" cy="93.8067555" rx="86.4998335" ry="75.6663821"></ellipse>
                <ellipse id="Oval" fill="#3F3D56" fill-rule="nonzero" cx="629.826913" cy="349.898954" rx="124.561504" ry="139.695544"></ellipse>
                <ellipse id="Oval" fill="#3F3D56" fill-rule="nonzero" cx="1025.11458" cy="1588.7251" rx="31.1294764" ry="34.9116619"></ellipse>
                <ellipse id="Oval" fill="#3F3D56" fill-rule="nonzero" cx="862.513209" cy="1588.7251" rx="31.1294764" ry="34.9116619"></ellipse>
                <rect id="Rectangle-path" fill="#3F3D56" fill-rule="nonzero" x="897.108782" y="746.689061" width="13.8425893" height="428.792464"></rect>
                <rect id="Rectangle-path" fill="#3F3D56" fill-rule="nonzero" x="971.488175" y="746.689061" width="13.8425893" height="428.792464"></rect>
                <path d="M900.487682,758.326282 L897.021585,746.689061 C897.021585,746.689061 935.083256,696.252955 988.709665,736.909884 L985.243567,754.390163 L971.400978,754.390163 C971.400978,754.390163 948.925845,733.242692 910.864174,757.39726 L900.487682,758.326282 Z" id="Shape" fill="#3F3D56" fill-rule="nonzero"></path>
                <rect id="Rectangle-path" fill="#FBBEBE" fill-rule="nonzero" x="543.327079" y="685.569205" width="124.561504" height="178.494428"></rect>
                <rect id="Rectangle-path" fill="#FBBEBE" fill-rule="nonzero" x="716.326746" y="635.108651" width="38.0616707" height="85.3722153"></rect>
                <path d="M559.763792,1553.81344 L544.199053,1606.20538 C544.199053,1606.20538 537.266859,1645.00426 559.763792,1646.93565 C582.260724,1648.86704 618.622045,1641.11704 618.622045,1641.11704 C618.622045,1641.11704 623.810291,1623.66121 618.622045,1608.13676 C613.433799,1592.61232 597.869061,1549.92621 597.869061,1549.92621 L559.763792,1553.81344 Z" id="Shape" fill="#3C354C" fill-rule="nonzero"></path>
                <path d="M677.393101,1555.74482 C677.393101,1555.74482 653.17402,1623.66121 672.204855,1635.29843 C691.235691,1646.93565 717.19872,1637.22982 737.951705,1646.93565 C758.704689,1656.64148 815.797195,1633.36704 815.797195,1633.36704 C815.797195,1633.36704 822.729389,1612.02399 784.667719,1606.20538 C784.667719,1606.20538 743.248947,1571.26927 743.248947,1563.51927 C743.248947,1555.76927 719.029866,1555.74482 719.029866,1555.74482 L677.393101,1555.74482 Z" id="Shape" fill="#3C354C" fill-rule="nonzero"></path>
                <path d="M672.204855,781.625171 C672.204855,781.625171 530.356464,814.605445 513.069577,804.899612 C495.78269,795.193779 478.474003,936.918502 478.474003,936.918502 C478.474003,936.918502 471.541809,1022.29072 495.760891,1136.75598 C519.979972,1251.22125 495.760891,1307.50041 495.760891,1307.50041 C495.760891,1307.50041 499.226988,1416.14707 525.190017,1466.60762 C551.153047,1517.06818 551.131248,1563.61706 551.131248,1563.61706 C551.131248,1563.61706 601.26976,1569.43567 603.035508,1555.84261 C603.035508,1555.84261 582.260724,1501.51929 585.726821,1451.08318 C589.192918,1400.64708 575.350329,1303.61319 575.350329,1303.61319 C575.350329,1303.61319 597.847262,1181.37348 594.381164,1134.92239 C590.915067,1088.4713 606.501605,989.408234 615.134149,1006.86407 C623.766693,1024.3199 646.285424,1109.69211 646.285424,1127.17239 C646.285424,1144.65267 655.005166,1261.02488 660.128014,1268.79932 C665.250862,1276.57377 663.572311,1299.84821 661.850163,1311.48543 C660.128014,1323.12265 660.128014,1410.42625 668.760558,1456.99958 C677.393101,1503.57291 670.504506,1555.94041 672.226655,1563.71485 C673.948804,1571.4893 724.130915,1565.64624 725.853064,1552.05318 C725.853064,1552.05318 732.785258,1468.6368 736.251355,1456.99958 C739.717452,1445.36236 741.352404,1297.69679 741.352404,1297.69679 C741.352404,1297.69679 744.796702,1183.23152 748.262799,1171.5943 C751.728896,1159.95708 756.98254,909.659046 734.420209,880.663786 C711.857879,851.668526 720.57762,777.83574 720.57762,777.83574 L672.204855,781.625171 Z" id="Shape" fill="#3F3D56" fill-rule="nonzero"></path>
                <path d="M555.600115,443.632365 C549.191105,457.176525 542.738497,470.842925 538.727416,485.536139 C534.716335,500.229352 533.321176,516.144963 537.092464,530.91152 C539.790622,540.134966 543.542229,548.927819 548.253733,557.070819 C552.001127,564.852955 556.753914,571.970931 562.357915,578.193841 C575.437526,591.591313 594.446562,594.280587 612.104039,596.38311 C615.132552,596.950612 618.228047,596.892614 621.237968,596.211975 C623.652195,595.425421 625.88413,594.057053 627.777774,592.202512 C635.516544,584.868129 639.02624,573.670972 641.860156,562.864981 C648.600863,537.166019 653.427826,510.883888 656.291328,484.289294 C656.956223,480.084454 656.956223,475.781203 656.291328,471.576364 C654.765373,464.241981 649.533528,458.54561 645.740441,452.238041 C641.197249,444.700848 638.601868,435.901009 638.241463,426.812181 C638.088868,422.387103 638.241463,417.497515 635.756337,414.123699 C634.103138,412.287179 632.097328,410.899003 629.892311,410.06534 C619.581217,405.175752 609.291922,400.286163 598.959029,395.592158 C592.724414,392.707301 581.519546,385.030647 574.97974,390.70257 C569.377306,395.592158 572.080426,406.936003 569.682497,413.732531 C565.998407,424.049563 560.221578,433.853188 555.600115,443.632365 Z" id="Shape" fill="#FBBEBE" fill-rule="nonzero"></path>
                <path d="M555.600115,443.632365 C549.191105,457.176525 542.738497,470.842925 538.727416,485.536139 C534.716335,500.229352 533.321176,516.144963 537.092464,530.91152 C539.790622,540.134966 543.542229,548.927819 548.253733,557.070819 C552.001127,564.852955 556.753914,571.970931 562.357915,578.193841 C575.437526,591.591313 594.446562,594.280587 612.104039,596.38311 C615.132552,596.950612 618.228047,596.892614 621.237968,596.211975 C623.652195,595.425421 625.88413,594.057053 627.777774,592.202512 C635.516544,584.868129 639.02624,573.670972 641.860156,562.864981 C648.600863,537.166019 653.427826,510.883888 656.291328,484.289294 C656.956223,480.084454 656.956223,475.781203 656.291328,471.576364 C654.765373,464.241981 649.533528,458.54561 645.740441,452.238041 C641.197249,444.700848 638.601868,435.901009 638.241463,426.812181 C638.088868,422.387103 638.241463,417.497515 635.756337,414.123699 C634.103138,412.287179 632.097328,410.899003 629.892311,410.06534 C619.581217,405.175752 609.291922,400.286163 598.959029,395.592158 C592.724414,392.707301 581.519546,385.030647 574.97974,390.70257 C569.377306,395.592158 572.080426,406.936003 569.682497,413.732531 C565.998407,424.049563 560.221578,433.853188 555.600115,443.632365 Z" id="Shape" fill="#000000" fill-rule="nonzero" opacity="0.1"></path>
                <ellipse id="Oval" fill="#FBBEBE" fill-rule="nonzero" cx="623.766693" cy="379.994371" rx="60.5586032" ry="67.9163844"></ellipse>
                <path d="M645.021062,551.276656 C633.554602,555.897317 621.717553,559.882332 609.531715,560.371291 C600.403061,560.47377 591.294869,559.382547 582.39152,557.119714 C563.995858,553.016313 545.929591,547.235549 528.372723,539.835019 C524.623234,548.122872 523.620464,557.584225 523.293474,566.874444 C522.356101,594.965129 527.348153,622.835784 529.266496,650.877574 C531.686225,686.522674 529.266496,722.950109 537.441254,757.470604 C537.913265,751.604046 539.948992,746.032686 543.283481,741.481649 C546.062612,738.123372 549.383785,735.385848 553.07139,733.413828 C569.569616,723.849174 588.568519,721.196604 606.6542,725.932758 C617.139689,728.719823 628.279159,733.927235 638.219664,729.257678 C644.149088,726.446164 648.44356,720.529762 651.735263,714.319985 C657.323767,703.115082 661.310632,690.996475 663.550512,678.405957 C670.090318,646.036881 670.962292,612.567648 671.747069,579.367342 C671.965062,570.492739 675.365762,544.113409 668.804156,537.610256 C664.204493,533.087387 662.852933,539.541644 659.539431,542.91546 C655.229049,546.731713 650.29807,549.571486 645.021062,551.276656 Z" id="Shape" fill="#F2F2F2" fill-rule="nonzero"></path>
                <path d="M559.785591,434.684418 C555.752711,431.139467 549.779688,432.239624 545.33262,435.246721 C540.885552,438.253818 537.288658,442.409968 532.776192,445.148138 C520.263364,452.751448 503.456062,447.177317 491.575415,456.027472 C480.414146,464.36422 478.495803,481.526676 477.623829,496.537713 C475.443893,534.676503 473.569149,573.084221 465.394392,610.196198 C463.214456,619.975375 460.598534,629.999031 461.426909,640.071583 C462.079249,645.826144 463.292744,651.483034 465.045602,656.940664 L475.770884,694.517151 C480.741136,711.972982 485.776787,729.697741 486.299971,748.00925 C486.823156,766.320759 482.98647,783.727694 479.171583,801.207973 C471.632012,835.645591 466.72392,870.741367 464.500618,906.114094 C463.824838,917.824659 463.541447,930.04863 467.770521,940.781277 C472.130392,952.002882 480.980929,960.339631 490.311052,966.671648 C499.641175,973.003665 509.777875,977.893253 518.911804,984.616438 C537.24506,998.13615 551.959623,1019.43031 573.410187,1024.97999 C583.241695,1027.42478 593.53099,1026.44687 603.427896,1024.29545 C603.427896,1024.29545 597.825462,738.939063 582.238925,698.184343 C566.652387,657.429623 552.831597,480.89103 552.831597,475.072419 C552.831597,469.253809 559.785591,434.684418 559.785591,434.684418 Z" id="Shape" fill="#17A2B8" fill-rule="nonzero"></path>
                <path d="M643.974693,444.023532 C643.974693,444.023532 725.831264,444.023532 737.951705,492.52825 C750.072145,541.032968 703.356131,620.586573 703.356131,620.586573 C703.356131,620.586573 722.386966,777.737948 731.01951,793.262391 C739.652054,808.786835 736.229556,839.713482 736.229556,839.713482 C742.497298,861.001887 743.684788,883.759949 739.673854,905.722927 C732.763459,940.634589 706.800429,1002.73236 706.800429,1002.73236 C706.800429,1002.73236 672.204855,1002.73236 663.550512,1026.0068 C654.896169,1049.28125 653.17402,925.110145 653.17402,925.110145 C653.17402,925.110145 622.044544,698.110999 623.766693,684.542391 C625.488841,670.973783 634.143185,558.415455 637.609282,527.366568 C641.075379,496.317681 648.617955,455.660753 643.974693,444.023532 Z" id="Shape" fill="#17A2B8" fill-rule="nonzero"></path>
                <path d="M706.800429,475.072419 C706.800429,475.072419 746.606048,488.641027 746.606048,504.165471 C746.606048,519.689914 758.791886,603.106294 758.791886,630.267959 C758.791886,657.429623 753.60364,661.316846 758.791886,671.022679 C763.980132,680.728512 703.443329,676.841289 703.443329,676.841289 L692.434655,566.263245 L706.800429,475.072419 Z" id="Shape" fill="#17A2B8" fill-rule="nonzero"></path>
                <path d="M471.52001,614.767963 C471.52001,614.767963 549.387299,620.586573 563.229889,608.924905 C577.072478,597.263236 635.887133,624.449348 641.075379,639.973792 C646.263625,655.498235 558.019843,657.429623 544.199053,657.429623 C530.378263,657.429623 464.609615,680.728512 464.609615,680.728512 L471.52001,614.767963 Z" id="Shape" fill="#A0616A" fill-rule="nonzero"></path>
                <path d="M311.229366,1518.53505 C311.229366,1518.53505 274.933443,1621.21641 293.789883,1633.44038 C312.646324,1645.66436 511.478224,1636.96089 511.478224,1636.96089 C511.478224,1636.96089 544.591442,1613.97982 506.747765,1598.03976 C506.747765,1598.03976 475.182301,1596.27951 454.690909,1582.12415 C434.199517,1567.96879 410.50362,1541.44278 410.50362,1541.44278 C410.50362,1541.44278 408.934067,1502.52165 396.312241,1511.37181 C388.677717,1517.01147 383.523419,1526.00637 382.120862,1536.13757 L311.229366,1518.53505 Z" id="Shape" fill="#3F3D56" fill-rule="nonzero"></path>
                <path d="M311.229366,1518.53505 C311.229366,1518.53505 274.933443,1621.21641 293.789883,1633.44038 C312.646324,1645.66436 511.478224,1636.96089 511.478224,1636.96089 C511.478224,1636.96089 544.591442,1613.97982 506.747765,1598.03976 C506.747765,1598.03976 475.182301,1596.27951 454.690909,1582.12415 C434.199517,1567.96879 410.50362,1541.44278 410.50362,1541.44278 C410.50362,1541.44278 408.934067,1502.52165 396.312241,1511.37181 C388.677717,1517.01147 383.523419,1526.00637 382.120862,1536.13757 L311.229366,1518.53505 Z" id="Shape" fill="#000000" fill-rule="nonzero" opacity="0.1"></path>
                <path d="M255.226827,1549.92621 C255.226827,1549.92621 215.443008,1662.38675 236.195992,1676.0287 C256.948976,1689.67065 474.942508,1679.91592 474.942508,1679.91592 C474.942508,1679.91592 511.28203,1654.71009 469.754262,1637.22982 C469.754262,1637.22982 435.158689,1635.29843 412.661756,1619.77398 C390.164824,1604.24954 364.223593,1575.08315 364.223593,1575.08315 C364.223593,1575.08315 362.501444,1532.39704 348.658855,1542.10287 C340.282088,1548.28415 334.627879,1558.15118 333.094117,1569.26454 L255.226827,1549.92621 Z" id="Shape" fill="#3F3D56" fill-rule="nonzero"></path>
                <path d="M459.421369,835.948499 L435.202287,1080.42792 C435.202287,1080.42792 426.482546,1196.84903 400.606714,1222.05486 C400.606714,1222.05486 400.606714,1258.92235 391.886973,1270.55957 L379.766532,1423.84817 C379.766532,1423.84817 397.075219,1480.07844 395.35307,1489.85762 C393.630921,1499.6368 402.263465,1530.58789 400.541316,1534.47511 C398.819167,1538.36234 317.48578,1534.47511 317.48578,1534.47511 L334.794466,1222.10375 L388.420875,787.517125 L459.421369,835.948499 Z" id="Shape" fill="#3C354C" fill-rule="nonzero"></path>
                <path d="M459.421369,835.948499 L435.202287,1080.42792 C435.202287,1080.42792 426.482546,1196.84903 400.606714,1222.05486 C400.606714,1222.05486 400.606714,1258.92235 391.886973,1270.55957 L379.766532,1423.84817 C379.766532,1423.84817 397.075219,1480.07844 395.35307,1489.85762 C393.630921,1499.6368 402.263465,1530.58789 400.541316,1534.47511 C398.819167,1538.36234 317.48578,1534.47511 317.48578,1534.47511 L334.794466,1222.10375 L388.420875,787.517125 L459.421369,835.948499 Z" id="Shape" fill="#000000" fill-rule="nonzero" opacity="0.1"></path>
                <path d="M416.171452,828.174053 C416.171452,828.174053 397.140617,1028.01154 388.486273,1070.69764 C383.045348,1098.80759 379.575908,1127.35228 378.109781,1156.06986 C378.109781,1156.06986 376.387632,1218.16763 360.801095,1235.62346 C351.607706,1245.83601 346.603133,1259.86756 346.980305,1274.37345 C346.980305,1274.37345 331.393767,1470.32371 340.048111,1493.6226 C348.702454,1516.92149 357.356797,1536.30871 348.767852,1551.8087 C340.178907,1567.3087 244.959332,1567.33315 244.959332,1555.69593 C244.959332,1544.05871 244.959332,1534.35287 239.771086,1528.53426 C234.58284,1522.71565 239.771086,1485.84816 239.771086,1485.84816 C239.771086,1485.84816 219.018102,1313.17234 238.048937,1262.73623 C257.079772,1212.30013 265.734116,1074.48707 265.734116,1074.48707 C265.734116,1074.48707 251.891526,917.3357 234.58284,892.105423 C217.274153,866.875146 238.048937,777.640156 238.048937,777.640156 L416.171452,828.174053 Z" id="Shape" fill="#3C354C" fill-rule="nonzero"></path>
                <path d="M367.471697,207.58748 C369.477237,212.721548 374.294894,215.581957 378.676564,218.295679 C404.072811,233.991258 425.32718,256.752292 446.254559,279.2444 C441.031074,259.37129 442.148854,238.077579 449.415466,219.029117 C451.900592,212.550412 455.192294,205.558301 453.404747,198.786221 C452.074987,193.896632 448.303699,190.180545 444.685006,187.002312 C436.139859,179.59085 427.208056,172.757735 417.9372,166.539385 C411.397394,162.187651 398.143387,150.623774 390.709807,151.870619 C390.317419,163.141121 390.121225,173.213673 385.717756,183.652944 C384.627788,186.244426 368.234674,209.543315 367.471697,207.58748 Z" id="Shape" fill="#A0616A" fill-rule="nonzero"></path>
                <ellipse id="Oval" fill="#A0616A" fill-rule="nonzero" cx="455.955272" cy="152.970776" rx="70.9350953" ry="79.553605"></ellipse>
                <path d="M459.421369,341.195486 C459.421369,341.195486 471.52001,273.279102 436.924436,250.00466 C402.328863,226.730219 362.545043,199.568555 362.545043,199.568555 C362.545043,199.568555 350.424603,197.612719 345.236357,226.730219 C345.236357,226.730219 246.637882,248.073273 236.239591,352.832707 C225.841299,457.59214 243.171785,610.88074 243.171785,610.88074 C243.171785,610.88074 227.607047,744.757673 208.576211,816.536833 C208.576211,816.536833 192.989674,832.061276 262.20262,808.786835 C331.415567,785.512394 452.489174,874.79628 452.489174,874.79628 C452.489174,874.79628 464.609615,861.203224 464.609615,851.497391 C464.609615,841.791557 478.452204,785.487946 478.452204,785.487946 C478.452204,785.487946 490.550845,546.851579 495.739091,519.689914 C500.927337,492.52825 474.986107,345.082709 459.421369,341.195486 Z" id="Shape" fill="#3F3D56" fill-rule="nonzero"></path>
                <path d="M352.168551,475.072419 C352.168551,475.072419 447.300928,412.974645 428.270093,333.42104 C409.239258,253.867435 367.733289,228.661607 367.733289,228.661607 C367.733289,228.661607 300.264291,203.43133 243.171785,284.891874 L246.637882,321.759372 C246.637882,321.759372 308.918634,180.132441 376.387632,269.367431 C443.856631,358.602421 352.168551,475.072419 352.168551,475.072419 Z" id="Shape" fill="#17A2B8" fill-rule="nonzero"></path>
                <path d="M250.08218,288.803545 L250.08218,606.944621 L232.402904,715.469038 L224.14095,766.051831 L163.669544,766.051831 L78.9136586,731.115721 L78.9136586,496.415473 C78.9136586,496.415473 149.826955,339.239651 172.323887,310.146599 C194.82082,281.053547 250.08218,288.803545 250.08218,288.803545 Z" id="Shape" fill="#17A2B8" fill-rule="nonzero"></path>
                <polygon id="Shape" fill="#000000" fill-rule="nonzero" opacity="0.1" points="232.381105 715.493486 224.14095 766.076279 163.582346 766.076279 78.8264612 731.164617"></polygon>
                <polygon id="Shape" fill="#17A2B8" fill-rule="nonzero" points="229.329196 647.723789 378.109781 443.999084 246.616083 655.498235 232.773494 659.36101"></polygon>
                <path d="M439.235168,161.185285 C443.268048,158.129292 448.325498,157.56699 453.164954,157.029135 C458.004411,156.49128 463.061861,155.757842 466.920346,152.432922 C473.612748,146.663207 474.114133,135.514945 479.018987,127.813844 C486.103777,116.641134 500.251557,115.296497 512.480994,115.834352 C519.958173,116.176623 528.002134,116.69003 534.280348,112.16716 C540.558561,107.644291 543.65407,98.720792 545.834005,90.4818353 C548.428128,80.7026583 550.084879,68.7720623 543.65407,61.5354714 C539.294199,56.4991952 532.231208,55.4968296 527.304555,51.071752 C522.377901,46.6466744 520.088969,39.0433642 517.320451,32.4179718 C514.15973,24.3244248 509.161184,17.3023446 502.823881,12.0528357 C493.537357,4.71845291 481.678508,3.20268047 470.364644,3.32492018 C459.05078,3.4471599 447.693317,5.13406793 436.46665,3.56939961 C427.267323,2.2981066 418.089795,-1.12460536 408.934067,0.391167081 C397.249613,2.32255454 387.5925,12.2239713 381.815671,23.7878481 C376.038843,35.3517249 373.597315,48.5536139 371.199386,61.5110234 L364.65958,96.7894045 C362.65404,107.742083 360.6267,118.963688 362.174454,129.98971 C365.400758,152.872985 383.450623,171.062254 384.693186,194.16556 C387.103888,181.200155 395.163678,170.461699 406.14375,165.585915 C407.496245,164.845037 409.030127,164.630006 410.50362,164.974716 C412.291167,165.634811 413.337536,167.639542 414.471102,169.32645 C417.435814,173.751528 426.744138,180.450264 431.910585,177.320927 C436.837239,174.509414 433.305744,165.708154 439.235168,161.185285 Z" id="Shape" fill="#3F3D56" fill-rule="nonzero"></path>
                <path d="M891.920536,1148.31986 C891.920536,1148.31986 845.204522,1150.25125 838.294127,1210.39319 C831.383732,1270.53513 838.294127,1549.92621 838.294127,1549.92621 C838.294127,1549.92621 891.920536,1594.54371 957.667386,1588.7251 C1023.41423,1582.90649 1128.9231,1561.56343 1128.9231,1561.56343 L1128.9231,1233.961 C1128.9231,1185.06512 1092.56178,1145.19052 1049.00668,1148.00204 C1047.98211,1148.00204 1046.82674,1148.14873 1045.88937,1148.27096 L891.920536,1148.31986 Z" id="Shape" fill="#3C354C" fill-rule="nonzero"></path>
                <ellipse id="Oval" fill="#3F3D56" fill-rule="nonzero" cx="959.389534" cy="1598.43093" rx="31.1294764" ry="34.9116619"></ellipse>
                <ellipse id="Oval" fill="#3F3D56" fill-rule="nonzero" cx="1128.9231" cy="1582.90649" rx="31.1294764" ry="34.9116619"></ellipse>
                <path d="M260.480471,523.577137 C260.480471,523.577137 248.360031,608.924905 298.520343,601.174907 C298.520343,601.174907 324.483372,597.287684 327.94947,601.174907 C331.415567,605.06213 459.421369,579.831853 476.730055,558.488799 C476.730055,558.488799 497.483039,550.738801 507.859532,562.376022 C518.236024,574.013243 622.044544,585.650463 590.936867,550.714354 C559.82919,515.778244 511.369227,508.028246 511.369227,508.028246 L445.622378,511.891021 C445.622378,511.891021 411.026805,523.552689 390.27382,511.891021 C369.520836,500.229352 310.640783,504.263263 310.640783,504.263263 L260.480471,523.577137 Z" id="Shape" fill="#A0616A" fill-rule="nonzero"></path>
                <path d="M331.393767,253.891883 C331.393767,253.891883 253.548277,263.67106 253.548277,389.700204 L253.548277,550.714354 C253.548277,550.714354 296.798194,529.3713 305.452537,531.302687 C314.10688,533.234075 348.702454,506.07241 348.702454,506.07241 C348.702454,506.07241 388.486273,401.337425 385.020176,372.244373 C381.554079,343.151321 383.298027,257.754658 331.393767,253.891883 Z" id="Shape" fill="#3F3D56" fill-rule="nonzero"></path>
                <polygon id="Shape" fill="#3F3D56" fill-rule="nonzero" points="687.769594 566.238797 609.924103 628.336571 658.362266 634.155181 725.831264 570.12602"></polygon>
                <path d="M748.328197,659.385458 C748.328197,659.385458 767.359032,725.394903 741.417802,744.757673 C715.476571,764.120444 672.204855,676.841289 672.204855,676.841289 C672.204855,676.841289 625.488841,614.767963 656.640117,601.174907 C687.791393,587.581851 700.500416,646.77032 700.500416,646.77032 L741.352404,686.547122 L748.328197,659.385458 Z" id="Shape" fill="#FBBEBE" fill-rule="nonzero"></path>
                <ellipse id="Oval" fill="#3F3D56" fill-rule="nonzero" cx="629.826913" cy="329.533817" rx="69.1911471" ry="49.4826357"></ellipse>
                <ellipse id="Oval" fill="#3F3D56" fill-rule="nonzero" cx="641.925554" cy="210.227858" rx="50.1603117" ry="56.2547158"></ellipse>
                <ellipse id="Oval" fill="#3F3D56" fill-rule="nonzero" cx="455.955272" cy="103.512589" rx="66.597024" ry="38.7988848"></ellipse>
                <ellipse id="Oval" fill="#3F3D56" fill-rule="nonzero" cx="393.674519" cy="110.284669" rx="23.3471073" ry="65.0070792"></ellipse>
                <path d="M46.1492307,1644.85757 C52.6890367,1631.38676 45.2772566,1614.8844 36.8191076,1602.85601 C28.3609585,1590.82762 18.0280651,1578.40807 18.2460586,1563.03031 C18.5730489,1541.02716 39.3914312,1528.0453 56.0243377,1516.38364 C68.369489,1507.7289 79.7556378,1497.46238 89.9441313,1485.79926 C94.2197246,1481.32034 97.7483911,1476.02174 100.364222,1470.15258 C103.80852,1461.5469 103.721323,1451.76772 103.503329,1442.33082 C102.776684,1410.93966 101.388792,1379.5811 99.3396525,1348.25513" id="Shape" stroke="#3F3D56" stroke-width="4"></path>
                <path d="M130.970514,1346.51933 C130.499461,1334.83985 124.745267,1324.23797 115.710967,1318.4042 L108.86597,1333.61082 L109.083963,1315.22596 C96.3530863,1311.03199 82.6646433,1316.54379 75.2199009,1328.86169 C67.7751585,1341.17959 68.2801631,1357.48081 76.4692401,1369.18955 C84.6583171,1380.89828 98.6548474,1385.33134 111.095485,1380.15656 C123.536122,1374.98178 131.569955,1361.38503 130.970514,1346.51933 Z" id="Shape" fill="#57B894" fill-rule="nonzero"></path>
                <path d="M76.472131,1578.77478 C69.8580622,1593.15174 55.1717037,1600.37185 41.2623652,1596.08463 C27.3530267,1591.79741 18.0196869,1577.1738 18.8861779,1561.02529 C19.7526689,1544.87679 30.5823308,1531.61394 44.8497183,1529.22833 C59.1171058,1526.84271 72.9254482,1535.98588 77.9544871,1551.14861 L58.8364543,1568.57999 L79.8728301,1563.10365 C79.8778806,1568.55785 78.7114161,1573.93316 76.472131,1578.77478 Z" id="Shape" fill="#57B894" fill-rule="nonzero"></path>
                <path d="M61.2125838,1512.15414 C53.1015782,1512.59874 45.1670307,1509.39966 39.165063,1503.26496 C33.1630952,1497.13025 29.5886815,1488.56584 29.2329326,1479.46724 C28.9915631,1474.09865 29.8958407,1468.74296 31.8706544,1463.84501 C35.5787566,1454.5614 42.7629049,1447.59656 51.4900723,1444.82451 L51.3374768,1458.97987 L58.2478718,1443.60211 C66.3588773,1443.15752 74.2934248,1446.35659 80.2953926,1452.4913 C86.2973603,1458.626 89.871774,1467.19041 90.2275229,1476.28901 C90.4066168,1480.24832 89.9638964,1484.21213 88.9195617,1487.99957 C85.1478003,1501.7966 74.0651403,1511.45832 61.2125838,1512.15414 Z" id="Shape" fill="#57B894" fill-rule="nonzero"></path>
                <path d="M135.570178,1456.73066 C122.695964,1457.26134 110.911164,1448.6685 106.119573,1435.25686 C101.327983,1421.84522 104.561706,1406.50364 114.200755,1396.91775 C123.839804,1387.33185 137.807935,1385.56643 149.107576,1392.50591 L143.701336,1409.13051 L154.819006,1397.15102 C164.012268,1406.47968 167.259991,1421.11851 163.036571,1434.19099 C158.81315,1447.26346 147.957958,1456.17153 135.570178,1456.73066 Z" id="Shape" fill="#57B894" fill-rule="nonzero"></path>
                <path d="M126.850436,1355.66286 C119.809245,1356.54299 112.92065,1359.01223 105.83586,1359.50119 C98.75107,1359.99015 90.9687009,1358.08321 86.4998335,1351.89788 C84.0801053,1348.57296 82.8593415,1344.36791 80.8320017,1340.74962 C78.898429,1337.37168 76.2563514,1334.57647 73.13683,1332.60845 C68.0560481,1344.41953 69.4392494,1358.44799 76.6982799,1368.72876 C83.9573103,1379.00952 95.8158927,1383.73504 107.231614,1380.89596 C118.647335,1378.05687 127.613091,1368.15236 130.316533,1355.39393 C129.161168,1355.44283 128.005802,1355.54062 126.850436,1355.66286 Z" id="Shape" fill="#000000" fill-rule="nonzero" opacity="0.1"></path>
                <path d="M135.570178,1456.73066 C124.864158,1457.2543 114.691711,1451.46904 108.742294,1441.47314 C102.792877,1431.47724 101.930538,1418.72243 106.468041,1407.83477 C108.908034,1409.66647 111.004,1412.01709 112.637258,1414.75354 C114.817193,1418.44518 116.125155,1422.69912 118.697478,1426.09738 C123.449737,1432.38051 131.602695,1434.43413 138.970877,1434.04297 C146.339058,1433.6518 153.489246,1431.32924 160.77023,1430.57136 C161.794799,1430.57136 162.841168,1430.37577 163.865738,1430.35133 C160.752095,1445.24933 149.199478,1456.01958 135.570178,1456.73066 Z" id="Shape" fill="#000000" fill-rule="nonzero" opacity="0.1"></path>
                <path d="M61.2125838,1512.15414 C53.1015782,1512.59874 45.1670307,1509.39966 39.165063,1503.26496 C33.1630952,1497.13025 29.5886815,1488.56584 29.2329326,1479.46724 C28.9915631,1474.09865 29.8958407,1468.74296 31.8706544,1463.84501 C34.4137962,1465.6972 36.6307633,1468.05921 38.4104603,1470.81267 C40.7865898,1474.57765 42.2689459,1478.90494 44.9502663,1482.37655 C50.116713,1488.8308 58.7928556,1491.10446 66.6188234,1490.88443 C74.4447912,1490.6644 81.4859823,1488.61077 89.0067591,1487.97513 C85.2317817,1501.81432 74.1036051,1511.49506 61.2125838,1512.15414 Z" id="Shape" fill="#000000" fill-rule="nonzero" opacity="0.1"></path>
                <path d="M76.472131,1578.77478 C72.0134101,1589.94609 62.5792225,1597.6011 51.7233353,1598.85624 C40.8674481,1600.11138 30.2391288,1594.77596 23.8419625,1584.85979 C17.4447962,1574.94362 16.2506646,1561.9532 20.7093855,1550.78189 C23.2251334,1552.63802 25.486861,1554.89454 27.4235863,1557.48063 C30.3229003,1561.46564 32.2412434,1565.96406 35.5983438,1569.7046 C41.8547581,1576.59892 51.9478587,1579.48378 60.9509916,1579.70381 C66.1362916,1579.72739 71.3185252,1579.4172 76.472131,1578.77478 Z" id="Shape" fill="#000000" fill-rule="nonzero" opacity="0.1"></path>
                <path d="M0,1629.35758 C0,1629.35758 24.1536833,1628.52635 31.4346673,1622.70774 C38.7156513,1616.88913 68.4935678,1609.94591 70.3901115,1619.28503 C72.2866552,1628.62414 106.664235,1665.73612 79.4150437,1665.8828 C52.1658522,1666.02949 16.0661233,1661.11546 8.80693869,1656.10363 C1.54775408,1651.0918 0,1629.35758 0,1629.35758 Z" id="Shape" fill="#656380" fill-rule="nonzero"></path>
                <path d="M79.8946295,1662.63123 C52.6236386,1662.87571 16.5457091,1657.86388 9.28652446,1652.85205 C3.74948875,1649.08707 1.54775408,1635.51846 0.806576069,1629.25979 L0,1629.25979 C0,1629.25979 1.52595472,1651.0918 8.71974128,1656.15252 C15.9135278,1661.21325 52.0568554,1666.12728 79.3278463,1665.9317 C87.1974128,1665.9317 89.9005326,1662.72902 89.7697365,1658.05946 C88.7451669,1660.82208 85.7586555,1662.58233 79.8946295,1662.63123 Z" id="Shape" fill="#000000" fill-rule="nonzero" opacity="0.2"></path>
            </g>
        </g>
    </g>
</svg>