<svg xmlns="http://www.w3.org/2000/svg" xmlns:xlink="http://www.w3.org/1999/xlink" id="Layer_1" x="0" y="0" version="1.0" viewBox="0 0 306 113.7" xml:space="preserve"><style>.st0{fill:#27b6ea}.st1{fill:#6d6f71}</style><switch><g><path d="M103.6 110.6z" class="st0"/><g><g><g><path d="M282.9 0c-12.8 0-23.1 10.4-23.1 23.1 0 12.8 10.4 23.2 23.1 23.2 12.8 0 23.1-10.4 23.1-23.2C306 10.4 295.7 0 282.9 0zm0 37c-7.6 0-13.8-6.2-13.8-13.8 0-7.6 6.2-13.8 13.8-13.8 7.6 0 13.8 6.2 13.8 13.8 0 7.6-6.2 13.8-13.8 13.8z" class="st0"/></g></g><path d="M10 95.4c-.5 0-1-.1-.7-.8 1.2-2.9 2.2-5.9 3.6-8.6.4-.7.9-1.1 1.7-1.2 3-.4 5.9-.7 8.9-.6 1.2.1 2.4.1 3.6.1.8 0 1.2-.5.9-1.1-.4-.8-.9-1.6-1.9-1.9-1.9-.5-11.8.8-13.1 0-.4-.3-1-.1-1.2.3-.4.8-1.1.8-1.8 1l-3 .6c-.8.2-1.5.5-1.8 1.3-.4 1.1.1 1.7 1.2 1.6.6 0 1.2-.2 1.7-.3 1-.2 1.3.2.9 1.1-1.4 3.3-1.8 7-4.2 9.8-.1.1-.1.2-.1.3-.1 2.1-1.2 3.8-1.9 5.7-.8 2.3-1.6 4.7-2.4 7-.2.8-.4 1.5-.4 2.3-.1.8.9 1.7 1.7 1.8.8.1 1-.5 1.1-1.1 1.1-4.7 2.9-9.2 4.9-13.6.3-.6.5-.7 1.2-.7 1.6.1 3.2.1 4.8 0 2.2-.1 4.4-.1 6.5-.7 1.1-.3 1.4-.8 1.1-1.9-.2-.9-.8-1.2-1.8-1-1.5.2-7.8.5-9.5.6zM126.7 108.5c-.1 0-.2-.1-.3-.1-.7 0-.9-.4-1-1-.3-1.6-.2-3.2-.3-4.8-.1-2.5-2.1-3.6-4.3-2.5-.9.4-1.6 1.1-2.4 1.7-.7.5-1.2 1.1-2.1 1.5 0-.3.3-1.1.4-1.3 1.1-1.8-.1-5.2-3.2-4.4-.7.1-1.4.5-1.9.9-1.7 1.3-3.5 2.4-5.2 4 .1-.6.3-.9.4-1.3.6-1.4 1.2-2.9 1.6-4.4.4-1.5-.3-2.7-1.8-3.1-1.3.2-1.8.6-2.1 1.9-.1.6-2.6 8.4-3.4 11.8-.2 1 0 1.9.6 2.7.5.7 1 1.2 2 .7.5-.1.8-.4 1-.7 1.6-2.2 3.7-4 5.6-5.9.8-.7 1.5-1.6 2.6-2 .1.5-.1.8-.2 1.1-.6 1.4-1.1 2.9-1.6 4.4-.4 1.2-.3 1.7.7 2.3.6.4 1.3.7 2 .2 1.2-.9 2.3-1.9 3.4-3.1 1-1 2.1-1.9 3.2-2.8.3-.2.7-.7 1.1-.5.5.2.2.8.2 1.2v2.1c-.1 2.1 1.5 3.4 2.1 3.7.9.2 1.8.5 2.8.2.7-.2 1.4-.5 1.4-1.3.1-1-.7-1-1.3-1.2zM153.5 91.8c-1.4-.2-2.8.1-4.1.2-.6 0-.8-.2-.4-.8.7-1.2 1.4-2.3 2-3.5.6-1.1.4-1.7-.4-2.2-.9-.6-1.7-.4-2.3.4-.5.7-1 1.3-1.5 2-.6.9-1.4 1.8-1.7 2.9-.3.8-.8 1.2-1.7 1.2-.5 0-1.1.1-1.6.2-.8.1-1.6 1-1.6 1.7s.5 1.1 1.1 1.3c.1 0 .2.1.3.2.7.3.9.7.5 1.4-.3.5-.3 1.1-.5 1.6-.2 1.1-1.9 5.9-2.1 7.3-1.6 7.6 3.7 7 6.1 6.7 2.2-.3 3.9-1.4 5.7-2.5.6-.1.8-.6 1.1-1.1 0-.1.1-.2.1-.3.1-.7.1-1.4-.7-1.8-.4-.2-.8 0-1.2.2-.6.3-1.2.7-1.8 1.1-1.4.9-3 1-4.6.9-.9-.1-1.2-.5-1.1-1.4.2-1.8.5-3.7 1.1-5.4.2-.8 1.6-4.2 2.1-5.1.4-.9 1.1-1.3 2.1-1.4 1.6-.2 3.2-.2 4.8-.4 1.4-.2 1.9-1 1.3-2.4-.3-.4-.6-.7-1-1zM239.6 96.6c-.7-.4-1.4-.3-2 .4-.5.6-.9 1.1-1.4 1.7-1.7 2.2-3.2 4.5-5.1 6.6-.7.7-1.1.7-1.4-.3-.3-1.1-.6-2.3-.8-3.5-.3-1.9-.5-3.7-1.3-5.5-.2-.5-.5-.9-1.1-.9-.7 0-1.2.3-1.5.9-.2.5-.2 1-.1 1.5.5 2.1.9 4.2 1.5 6.3.4 1.7.8 3.4 1.5 5 .6 1.4 1.5 1.6 2.8.8.6-.4 2.5-2.3 2.9-2.7 2.4-2.6 4.2-5.6 5.8-8.6.4-.6 1-1.2.2-1.7zM35.9 95.5c-.7 0-1.4.3-2.1.6-1.8.7-5.7 3.6-6 4.1-.4-.4 1.1-3.9 1.7-5.3.2-.9-.2-1.5-1-1.8-.8-.3-1.4.1-1.8.7-.3.4-.5.9-.7 1.3-.7 1.6-1.3 3.2-2 4.8-1.2 3-1.9 6.1-2.2 9.4-.1.9.9 2.3 1.8 2.3 1 .1 1.3-.8 1.6-1.5.2-.3.3-.7.3-1 .5-3 2-5.4 4.5-7.2 2.4-1.8 4.9-3.5 8.1-3.8.4 0 .9-.1.7-.7-.3-1.1-1.6-2-2.9-1.9zM87.5 81.1c-.9-.5-1.7-.1-2.4 1.2-.2.3-.3.6-.4.9-1.1 2.3-4.3 10.3-4.7 12-.4 1.4-.5 1.5-1.9.9-4-1.7-7.7 2.9-8.2 3.7-1.5 2.2-2.7 4.5-2.7 7.3 0 1 .1 1.9.8 2.7 1.5 1.4 3.2 1.4 4.9.6 1.6-.6 2.8-1.7 4.1-2.8.2-.2.4-.5.7-.4.3.2.1.5.1.8-.1 1.6.3 3.2.8 4.7.3.9 1.1 1.1 2 .9.8-.2.9-.7.8-1.4-.5-4.1-.1-8.2.9-12.2.5-2.1 1.1-4.3 2.1-6.3v-.3c1.1-3.1 2.3-6.3 3.9-9.2.8-1.1.3-2.5-.8-3.1zm-10.3 23.5c-1.2 1.1-2.5 2.1-3.9 2.8l-.6.3c-.7.2-1.5.6-2.1 0-.5-.5-.1-1.2.1-1.8.6-2.3 1.7-4.3 3.5-5.9.5-.5 1.1-.9 1.9-1.1 1.5-.4 2.7.7 2.7 2.3 0 1.5-.7 2.5-1.6 3.4zM205.5 108.4c-1-.1-1.2-.7-1.2-1.6-.1-1.6-.3-3.2-.3-4.8 0-1.5-1.7-2.7-3.2-2.4-1.1.3-1.9.9-2.8 1.6-.8.6-1.6 1.4-2.6 1.9 0-.9.3-1.6.6-2.3.4-1.3-.4-2-1.2-2.8-.7-.6-1.4-.7-2.3-.3-1.4.7-2.7 1.4-3.9 2.3-1.2.9-2.3 1.9-3.5 2.9-.2-.4 0-.7.1-.9.6-1.5 1.2-3 1.7-4.6.3-.9.6-1.7.1-2.6-.4-.8-1-1.1-1.9-1-.8.1-1.3.7-1.3 1.5 0 .7-.2 1.3-.5 1.9-1.5 3.1-2.1 6.4-2.8 9.7-.5 2 .4 3.4 2.1 3.7.5-.2.9-.4 1.2-.9 1.6-2.3 3.8-4.1 5.7-6.1.6-.7 1.3-1.3 2.3-1.7 0 .5-.2.9-.3 1.3-.7 1.4-1.1 2.9-1.6 4.4-.4 1.1 0 1.8 1.1 2.5.8.5 1.5.1 2.1-.4.5-.4 2.4-2.5 2.7-2.7.1-.1.2-.1.2-.2 1-.9 1.9-1.9 3.1-2.6.4-.3.8-.9 1.3-.6.4.2.2.9.2 1.3-.1 1.7 0 3.3.8 4.8 1 1.3 3.2 1.7 4.8.9 1.2-1.2 1-1.6-.5-2.1-.1 0-.2-.1-.2-.1zM98.1 94.4c-.4-.1-4.6-1.5-9.7 4.9-.1.2-.1.3-.2.5-1.4 1.8-2.1 3.9-2.5 6-.5 2.5.4 4.5 2.5 5.9 2.6.4 4.9-1 5.6-1.3 4.2-2.7 6.6-6.5 7-11.4.2-2.1-.6-3.8-2.7-4.6zm-4.4 12.2c-.7.8-1.5 1.5-2.4 2.1-.7.4-1.4.7-2.1.2-.7-.5-.7-1.2-.5-2 1-3.4 2.8-6.5 5.4-8.9.2-.2.4-.3.6-.4 1.7-.9 2.6-.4 2.6 2.1-.2 2.4-1.8 4.8-3.6 6.9zM167.3 94.4c-.4-.1-4.6-1.5-9.7 4.9-.1.2-.1.3-.2.5-1.4 1.8-2.1 3.9-2.5 6-.5 2.5 0 5.1 2.5 5.9 2.6.4 4.3-.3 5.6-1.3 4.2-2.7 6.6-6.5 7-11.4.2-2.1-.6-3.8-2.7-4.6zm-4.4 12.2c-.7.8-1.5 1.5-2.4 2.1-.7.4-1.4.7-2.1.2-.7-.5-.7-1.2-.5-2 1-3.4 2.8-6.5 5.4-8.9.2-.2.4-.3.6-.4 1.7-.9 2.6-.4 2.6 2.1-.2 2.4-1.8 4.8-3.6 6.9zM220.2 94.4c-.4-.1-4.6-1.5-9.7 4.9-.1.2-.1.3-.2.5-1.4 1.8-2.1 3.9-2.5 6-.5 2.5 0 5.1 2.5 5.9 2.6.4 4.3-.3 5.6-1.3 4.2-2.7 6.6-6.5 7-11.4.2-2.1-.6-3.8-2.7-4.6zm-4.5 12.2c-.7.8-1.5 1.5-2.4 2.1-.7.4-1.4.7-2.1.2-.7-.5-.7-1.2-.5-2 1-3.4 2.8-6.5 5.4-8.9.2-.2.4-.3.6-.4 1.7-.9 2.6-.4 2.6 2.1-.1 2.4-1.7 4.8-3.6 6.9zM45.8 93.8c-2 .7-3.5 2.2-4.8 3.7-1.1 1.7-2.2 3.5-2.5 5.6-.5 3.6 0 7.2 4.1 8.8 1.2.3 2.3.3 3.4-.3 1.4-.8 2.6-1.8 3.7-3 .5-.6.5-1.1-.1-1.7-.7-.8-1.3-.4-1.9.1-.7.5-1.2 1.1-2 1.5-2 1-3.8-.2-3.8-2.4 0-.6 0-1.2.2-1.7.3-1.2.5-1.4 1.6-.9.5.2 1 .3 1.6.3 2.4 0 4.4-.9 5.7-3 .3-.5.7-.9 1-1.4.4-.6.6-1.3.5-2.1-.7-3.1-3.7-4.5-6.7-3.5zm3 4.6c-.9 1.4-2.2 2.2-3.9 2.1h-.3c-.5 0-1.1 0-1.3-.4-.3-.5.3-.8.6-1.2.6-.8 1.4-1.5 2.2-2.1.6-.4 1.2-.6 1.9-.5 1.1.3 1.5 1.2.8 2.1zM60.4 93.9c-4.7 1.9-8.9 8-6.8 14.7.1.2.3.4.4.6 1.3 2.3 4.7 4 7.6 1.7 1-.8 1.9-1.7 2.8-2.5.3-1.3-.3-1.8-1.7-1.5-.3 0-.5.2-.7.4-1.8 1.5-3.2 2.1-5.6.5-.8-1.4-.3-2.7 0-4.1.2-1.1.6-1.2 1.6-.8 1 .5 2 .6 3.1.4 2.7-.5 4.4-2.4 5.7-4.7.2-.4.3-.9.2-1.5-.6-3-3.7-4.4-6.6-3.2zm3.2 4.5c-1 1.4-2.2 2.2-3.9 2.2h-.2c-.5 0-1.2.1-1.5-.4-.3-.6.4-1 .7-1.4.7-.8 1.4-1.5 2.3-2.1.5-.3 1.1-.4 1.7-.3 1.1.2 1.6 1.1.9 2zM247.1 93.9c-4.7 1.9-8.9 8-6.8 14.7.1.2.3.4.4.6 1.3 2.3 4.7 4 7.6 1.7 1-.8 1.9-1.7 2.8-2.5.3-1.3-.3-1.8-1.7-1.5-.3 0-.5.2-.7.4-1.8 1.5-3.2 2.1-5.6.5-.8-1.4-.3-2.7 0-4.1.2-1.1.6-1.2 1.6-.8 1 .5 2 .6 3.1.4 2.7-.5 4.4-2.4 5.7-4.7.2-.4.3-.9.2-1.5-.6-3-3.7-4.4-6.6-3.2zm3.2 4.5c-1 1.4-2.2 2.2-3.9 2.2h-.2c-.5 0-1.2.1-1.5-.4-.3-.6.4-1 .7-1.4.7-.8 1.4-1.5 2.3-2.1.5-.3 1.1-.4 1.7-.3 1.1.2 1.6 1.1.9 2z" class="st0"/><path d="M25.4 51.6c0-6.8 5-12.1 12.2-11.8v-4c-5.9-.3-10.4 2.9-12.4 8.1h-.1v-7.7h-3.7V69h4V51.6zM83.8 69L96 36.3h-4.1L81.7 65h-.1L71.3 36.3h-4.4L79.5 69zM110.6 70c8.3 0 12.6-4.3 14.3-11.8h-4c-1.3 5-4.5 8.4-10.3 8.4-7.7 0-10.7-7.1-10.8-12.9H125c.3-9.2-3.9-18.4-14.4-18.4-10.4 0-14.8 8.7-14.8 17.3 0 9.4 4.4 17.4 14.8 17.4zm0-31.3c6.5 0 10.2 5.7 10.4 11.7H99.8c.6-6 4.2-11.7 10.8-11.7zM130.5 23.7h4v45.4h-4zM154 66.6c-5.3 0-9.3-2.8-9.7-8.2h-4c.6 8 5.8 11.6 13.5 11.6 6.1 0 13.2-2.7 13.2-9.8 0-5.7-4.8-8.4-9.3-9.1l-5.3-1.2c-2.7-.7-6.8-2-6.8-5.5 0-4.3 4.2-5.7 7.7-5.7 4.6 0 8.4 2.2 8.6 7.2h4c-.3-7.1-5.5-10.6-12-10.6-5.8 0-12.3 2.5-12.3 9.2 0 5.6 3.9 7.4 9.1 8.8l5.1 1.1c3.6.9 7.2 2.2 7.2 6-.1 4.6-5.3 6.2-9 6.2zM204.8 49.8c-8.6 1-17.6 1.3-17.6 10.6 0 6.6 5 9.6 11 9.6 6.1 0 9-2.3 11.7-6.3 0 0 .1 0 .1.4v5h4V45.8c0-8.8-6.3-10.6-12-10.6-7.5 0-12.9 3.3-13.3 11h4c.1-5.3 3.8-7.6 8.8-7.6 4.7 0 8.6 1.3 8.6 6.7-.1 3.7-2 4.2-5.3 4.5zm5.2 1.3v5.2c.1 6.4-5.3 10.3-11.4 10.3-3.8 0-7.3-2.5-7.3-6.5 0-6.4 8.5-6.4 15.2-7.6 1.1-.2 2.9-.5 3.4-1.5h.1zM56.2 49.8c-8.6 1-17.6 1.3-17.6 10.6 0 6.6 5 9.6 11 9.6 6.1 0 9-2.3 11.7-6.3 0 0 .1 0 .1.4v5h4V45.8c0-8.8-6.3-10.6-12.1-10.6-7.5 0-12.9 3.3-13.3 11h4c.1-5.3 3.8-7.6 8.8-7.6 4.7 0 8.6 1.3 8.6 6.7 0 3.7-1.9 4.2-5.2 4.5zm5.2 1.3v5.2c.1 6.4-5.3 10.3-11.4 10.3-3.7 0-7.3-2.5-7.3-6.5 0-6.4 8.5-6.4 15.3-7.6 1.1-.2 2.9-.5 3.4-1.5zM236.9 39.8v-4c-5.9-.3-10.4 2.9-12.4 8.1h-.1v-7.7h-3.7V69h4V51.6c0-6.8 4.9-12.2 12.2-11.8zM254.2 39.6v-3.4h-6.7v-9.9h-4V62c-.1 5.6 1.8 7.4 7.1 7.4 1.2 0 2.4-.1 3.6-.1v-3.4c-1.1.1-2.3.2-3.4.2-2.9-.2-3.2-1.7-3.2-4.3V39.6h6.6zM183.1 65.9c-1.1.1-2.3.2-3.4.2-2.9-.2-3.2-1.7-3.2-4.3V39.6h6.7v-3.4h-6.7v-9.9h-4V62c-.1 5.6 1.8 7.4 7.1 7.4 1.2 0 2.3-.1 3.6-.1v-3.4zM11.3 69.4c1.2 0 2.3-.1 3.5-.1v-3.4c-1.1.1-2.2.1-3.3.1-2.9-.2-3.2-1.7-3.2-4.3V39.6H15v-3.4H8.2v-9.9h-4V62c0 5.6 1.8 7.4 7.1 7.4z" class="st1"/></g></g></switch></svg>