<?xml version="1.0" encoding="UTF-8"?>
<svg width="2948px" height="1178px" viewBox="0 0 2948 1178" version="1.1" xmlns="http://www.w3.org/2000/svg" xmlns:xlink="http://www.w3.org/1999/xlink">
    <!-- Generator: Sketch 49.3 (51167) - http://www.bohemiancoding.com/sketch -->
    <title>Group</title>
    <desc>Created with Sketch.</desc>
    <defs></defs>
    <g id="Page-1" stroke="none" stroke-width="1" fill="none" fill-rule="evenodd">
        <g id="Group">
            <g id="undraw_aircraft_fbvl-(1)" transform="translate(1088.000000, 0.000000)" fill-rule="nonzero">
                <path d="M1503.98467,695.224781 C1486.89201,701.526991 1456.87051,706.708809 1422.12535,710.87527 C1327.65211,722.219249 1198.18877,726.245661 1198.18877,726.245661 C1198.18877,726.245661 532.659769,781.477533 33.8585412,576.060486 C33.8585412,576.060486 -38.6934103,538.002137 28.6100277,486.779171 C38.9738106,479.125123 49.9916735,472.400081 61.5357024,466.682123 L62.3579695,465.859334 C70.013417,458.77957 78.2865674,452.399405 87.078468,446.795148 C112.918649,430.076784 156.551292,410.259833 209.666248,419.240483 L1519.73021,631.257345 C1519.73021,631.257345 1567.57915,671.714035 1503.98467,695.224781 Z" id="Shape" fill="#3F3D56"></path>
                <path d="M1242,596.969417 L1516.85924,403 L1638,423.840987 L1519.3841,628.972103 C1519.3841,628.972103 1245.15608,631.152123 1242,596.969417 Z" id="Shape" fill="#3F3D56"></path>
                <polygon id="Shape" fill="#3F3D56" points="553 480.130019 1098.99399 326 1187 344.516019 940.362844 456.19296 863.285454 543"></polygon>
                <path d="M1421,709.895113 C1326.60152,721.228918 1197.24063,725.251719 1197.24063,725.251719 C1197.24063,725.251719 532.238266,780.434055 33.8317484,575.20124 C33.8317484,575.20124 -38.6627916,537.177025 28.5873881,486 L28.8146438,486.944484 C28.8146438,486.944484 136.358992,559.66973 650.20141,620.379045 L1421,709.895113 Z" id="Shape" fill="#24C3D5"></path>
                <path d="M1334.17948,705.731316 L1578.59778,806 L1640,799.157102 L1493.80424,688.756004 C1493.80424,688.756004 1316.96864,650.847405 1334.17948,705.731316 Z" id="Shape" fill="#3F3D56"></path>
                <path d="M118.222578,498.998577 C106.513493,499.192668 79.6845676,479.483672 63,466.214948 C70.6931511,459.079197 79.0070473,452.648576 87.8422487,447 C101.291874,457.357368 125.2199,474.11972 138.528875,473.46687 C157.745137,472.672864 135.856531,498.680975 118.222578,498.998577 Z" id="Shape" fill="#17A2B8"></path>
                <path d="M1226,1051.77851 L1069.2516,1060 L628.54428,762.132995 L546.733612,706.826357 L507,679.953116 C581.552988,616.845699 885.72848,703.881344 885.72848,703.881344 C891.552112,708.807229 893.405881,716.993663 893.143556,726.039059 C892.636392,742.972883 884.696665,762.851719 881.636198,770.003893 C880.901686,771.756876 880.446988,772.685958 880.446988,772.685958 L1226,1051.77851 Z" id="Shape" fill="#3F3D56"></path>
                <path d="M709.959744,896.744888 L682.747949,913.974949 L699.232522,883.979934 C694.564712,880.253345 688.788987,878.189327 682.817947,878.114008 L682.380458,878.114008 C680.493162,878.150934 678.606576,878.010234 676.745604,877.693763 L667.540843,883.542178 L671.478241,876.362986 C664.957203,874.072738 659.323687,869.783752 655.378658,864.105828 L638.911584,874.611963 L649.306315,855.6659 C639.681564,844.091641 626.6969,837 612.399771,837 C595.267714,837 580.008109,847.190951 570.155864,863.090235 C564.208275,872.782812 553.516966,878.532897 542.15659,878.149029 L541.246613,878.149029 C522.329603,878.149029 507,899.599054 507,926.074514 C507,952.549974 522.329603,974 541.246613,974 C545.403289,973.98679 549.493975,972.958987 553.163805,971.005752 C566.198624,964.678368 581.349756,964.383992 594.620231,970.200281 C605.835219,975.208207 618.64933,975.208207 629.864318,970.200281 C643.02187,964.49422 658.006469,964.781701 670.935755,970.988241 C674.583264,972.892896 678.633665,973.895606 682.747949,973.912449 C701.664959,973.912449 716.994562,952.462423 716.994562,925.986963 C717.130614,915.804305 714.711868,905.750153 709.959744,896.744888 Z" id="Shape" fill="#F2F2F2"></path>
                <path d="M660,965.958824 C650.030372,964.073374 639.72507,965.191263 630.392222,969.170588 C619.08634,974.230339 606.158179,974.230339 594.852296,969.170588 C581.467136,963.292047 566.173876,963.588867 553.027117,969.982353 C549.316047,971.944999 545.184743,972.980376 540.986268,973 C524.037272,973 509.930764,955.917647 507,933.4 C510.391311,930.938354 513.269856,927.839351 515.474498,924.276471 C525.414378,908.270588 540.809716,898 558.094161,898 C575.378606,898 590.615047,908.058824 600.537272,923.941176 C606.56011,933.67806 617.245189,939.550469 628.697323,939.417647 L629.138703,939.417647 C642.627279,939.382353 654.315024,950.182353 660,965.958824 Z" id="Shape" fill="#000000" opacity="0.03"></path>
                <path d="M1479.95974,872.744888 L1452.74795,889.974949 L1469.23252,859.979934 C1464.56471,856.253345 1458.78899,854.189327 1452.81795,854.114008 L1452.38046,854.114008 C1450.49316,854.150934 1448.60658,854.010234 1446.7456,853.693763 L1437.54084,859.542178 L1441.47824,852.362986 C1434.9572,850.072738 1429.32369,845.783752 1425.37866,840.105828 L1408.91158,850.611963 L1419.30631,831.6659 C1409.68156,820.091641 1396.6969,813 1382.39977,813 C1365.26771,813 1350.00811,823.190951 1340.15586,839.090235 C1334.20827,848.782812 1323.51697,854.532897 1312.15659,854.149029 L1311.24661,854.149029 C1292.3296,854.149029 1277,875.599054 1277,902.074514 C1277,928.549974 1292.3296,950 1311.24661,950 C1315.40329,949.98679 1319.49397,948.958987 1323.1638,947.005752 C1336.19862,940.678368 1351.34976,940.383992 1364.62023,946.200281 C1375.83522,951.208207 1388.64933,951.208207 1399.86432,946.200281 C1413.02187,940.49422 1428.00647,940.781701 1440.93575,946.988241 C1444.58326,948.892896 1448.63367,949.895606 1452.74795,949.912449 C1471.66496,949.912449 1486.99456,928.462423 1486.99456,901.986963 C1487.13061,891.804305 1484.71187,881.750153 1479.95974,872.744888 Z" id="Shape" fill="#F2F2F2"></path>
                <path d="M1430,943.958824 C1420.03037,942.073374 1409.72507,943.191263 1400.39222,947.170588 C1389.08634,952.230339 1376.15818,952.230339 1364.8523,947.170588 C1351.46714,941.292047 1336.17388,941.588867 1323.02712,947.982353 C1319.31605,949.944999 1315.18474,950.980376 1310.98627,951 C1294.03727,951 1279.93076,933.917647 1277,911.4 C1280.39131,908.938354 1283.26986,905.839351 1285.4745,902.276471 C1295.41438,886.270588 1310.80972,876 1328.09416,876 C1345.37861,876 1360.61505,886.058824 1370.53727,901.941176 C1376.57638,911.705252 1387.30217,917.581615 1398.7856,917.417647 L1399.22698,917.417647 C1412.62728,917.382353 1424.31502,928.182353 1430,943.958824 Z" id="Shape" fill="#000000" opacity="0.03"></path>
                <path d="M1479.95858,298.744823 L1452.74695,315.974866 L1469.23142,285.979883 C1464.56364,282.253299 1458.78795,280.189283 1452.81694,280.113964 L1452.37946,280.113964 C1450.49217,280.15089 1448.6056,280.01019 1446.74463,279.693719 L1437.53993,285.542128 L1441.4773,278.362943 C1434.9563,276.072698 1429.32282,271.783717 1425.37781,266.105799 L1408.91083,276.611923 L1419.3055,257.66588 C1409.68081,246.091633 1396.69622,239 1382.39917,239 C1365.26721,239 1350.00769,249.19094 1340.1555,265.090207 C1334.20795,274.782774 1323.5167,280.532853 1312.15639,280.148984 L1311.24642,280.148984 C1292.32952,280.148984 1277,301.598987 1277,328.074419 C1277,354.54985 1292.32952,375.999853 1311.24642,375.999853 C1315.40307,375.986643 1319.49373,374.958841 1323.16354,373.005608 C1336.19829,366.678231 1351.34933,366.383855 1364.61973,372.200138 C1375.82223,377.235935 1388.63627,377.267767 1399.86362,372.287689 C1413.02109,366.581634 1428.00561,366.869115 1440.93482,373.075649 C1444.58231,374.980301 1448.63268,375.983011 1452.74695,375.999853 C1471.66385,375.999853 1486.99336,354.54985 1486.99336,328.074419 C1487.14411,317.862228 1484.72494,307.776184 1479.95858,298.744823 Z" id="Shape" fill="#F2F2F2"></path>
                <path d="M1430,369.958824 C1420.03037,368.073374 1409.72507,369.191263 1400.39222,373.170588 C1389.08634,378.230339 1376.15818,378.230339 1364.8523,373.170588 C1351.46714,367.292047 1336.17388,367.588867 1323.02712,373.982353 C1319.31605,375.944999 1315.18474,376.980376 1310.98627,377 C1294.03727,377 1279.93076,359.917647 1277,337.4 C1280.39131,334.938354 1283.26986,331.839351 1285.4745,328.276471 C1295.41438,312.270588 1310.80972,302 1328.09416,302 C1345.37861,302 1360.61505,312.058824 1370.53727,327.941176 C1376.57638,337.705252 1387.30217,343.581615 1398.7856,343.417647 L1399.22698,343.417647 C1412.62728,343.382353 1424.31502,354.182353 1430,369.958824 Z" id="Shape" fill="#000000" opacity="0.03"></path>
                <path d="M356.433726,237.000769 L342.828475,245.681015 L351.079401,230.583397 C348.747618,228.696105 345.854928,227.650395 342.863586,227.613374 L342.652924,227.613374 C341.706537,227.62321 340.761025,227.552242 339.826543,227.40123 L335.22709,230.335895 L337.193268,226.800154 C333.929524,225.648675 331.10974,223.489568 329.135449,220.630284 L320.902078,225.933897 L326.168627,216.405073 C321.733614,210.628751 314.949098,207.173652 307.700596,207 C299.133677,207 291.497182,212.126826 286.634402,220.135281 C283.654627,225.029813 278.287542,227.928168 272.590272,227.719447 L272.133838,227.719447 C262.671606,227.719447 255,238.538816 255,251.868563 C255,265.198309 262.671606,276 272.133838,276 C274.214899,275.993203 276.263187,275.477527 278.102593,274.49731 C284.624505,271.300067 292.212309,271.15138 298.852795,274.090699 C304.440933,276.592056 310.819818,276.592056 316.407957,274.090699 C322.993822,271.213543 330.496454,271.361942 336.965051,274.49731 C338.788883,275.447819 340.810039,275.950607 342.863586,275.964643 C352.325818,275.964643 359.997424,265.162952 359.997424,251.833205 C360.06402,246.666275 358.838496,241.565532 356.433726,237.000769 Z" id="Shape" fill="#F2F2F2"></path>
                <path d="M331,272.561792 C326.046545,271.619787 320.922469,272.172971 316.288622,274.15 C313.519766,275.36402 310.527227,275.993981 307.500463,276 C304.439288,275.999111 301.413436,275.350595 298.624422,274.097642 C291.971936,271.208488 284.378109,271.361594 277.849214,274.516509 C276.013865,275.484087 273.968812,275.993256 271.890842,276 C263.471785,276 256.458834,267.570283 255,256.470283 C256.67938,255.246793 258.110628,253.719012 259.218316,251.967453 C264.139685,244.061321 271.785384,239 280.309898,239 C288.834413,239 296.444958,244.008962 301.40148,251.810377 C304.406504,256.63651 309.749136,259.534419 315.462535,259.437264 L315.691027,259.437264 C322.317299,259.437264 328.170213,264.77783 331,272.561792 Z" id="Shape" fill="#000000" opacity="0.03"></path>
                <path d="M1564.43373,1094.00077 L1550.82848,1102.68101 L1559.0794,1087.5834 C1556.74762,1085.6961 1553.85493,1084.6504 1550.86359,1084.61337 L1550.65292,1084.61337 C1549.70654,1084.62321 1548.76102,1084.55224 1547.82654,1084.40123 L1543.22709,1087.3359 L1545.19327,1083.80015 C1541.92952,1082.64868 1539.10974,1080.48957 1537.13545,1077.63028 L1528.90208,1082.9339 L1534.16863,1073.40507 C1529.73361,1067.62875 1522.9491,1064.17365 1515.7006,1064 C1507.13368,1064 1499.49718,1069.12683 1494.6344,1077.13528 C1491.65463,1082.02981 1486.28754,1084.92817 1480.59027,1084.71945 L1480.13384,1084.71945 C1470.67161,1084.71945 1463,1095.53882 1463,1108.86856 C1463,1122.19831 1470.67161,1133 1480.13384,1133 C1482.2149,1132.9932 1484.26319,1132.47753 1486.10259,1131.49731 C1492.6245,1128.30007 1500.21231,1128.15138 1506.85279,1131.0907 C1512.44093,1133.59206 1518.81982,1133.59206 1524.40796,1131.0907 C1530.99382,1128.21354 1538.49645,1128.36194 1544.96505,1131.49731 C1546.78888,1132.44782 1548.81004,1132.95061 1550.86359,1132.96464 C1560.32582,1132.96464 1567.99742,1122.16295 1567.99742,1108.83321 C1568.06402,1103.66627 1566.8385,1098.56553 1564.43373,1094.00077 Z" id="Shape" fill="#F2F2F2"></path>
                <path d="M1539,1128.56179 C1534.04654,1127.61979 1528.92247,1128.17297 1524.28862,1130.15 C1521.51977,1131.36402 1518.52723,1131.99398 1515.50046,1132 C1512.43929,1131.99911 1509.41344,1131.3506 1506.62442,1130.09764 C1499.97194,1127.20849 1492.37811,1127.36159 1485.84921,1130.51651 C1484.01386,1131.48409 1481.96881,1131.99326 1479.89084,1132 C1471.47179,1132 1464.45883,1123.57028 1463,1112.47028 C1464.67938,1111.24679 1466.11063,1109.71901 1467.21832,1107.96745 C1472.13969,1100.06132 1479.78538,1095 1488.3099,1095 C1496.83441,1095 1504.44496,1100.00896 1509.40148,1107.81038 C1512.4065,1112.63651 1517.74914,1115.53442 1523.46253,1115.43726 L1523.69103,1115.43726 C1530.3173,1115.43726 1536.17021,1120.77783 1539,1128.56179 Z" id="Shape" fill="#000000" opacity="0.03"></path>
                <path d="M304.433726,1139.00077 L290.828475,1147.68101 L299.079401,1132.5834 C296.747618,1130.6961 293.854928,1129.6504 290.863586,1129.61337 L290.652924,1129.61337 C289.706537,1129.62321 288.761025,1129.55224 287.826543,1129.40123 L283.22709,1132.3359 L285.193268,1128.80015 C281.929524,1127.64868 279.10974,1125.48957 277.135449,1122.63028 L268.902078,1127.9339 L274.168627,1118.40507 C269.733614,1112.62875 262.949098,1109.17365 255.700596,1109 C247.133677,1109 239.497182,1114.12683 234.634402,1122.13528 C231.654627,1127.02981 226.287542,1129.92817 220.590272,1129.71945 L220.133838,1129.71945 C210.671606,1129.71945 203,1140.53882 203,1153.86856 C203,1167.19831 210.671606,1178 220.133838,1178 C222.214899,1177.9932 224.263187,1177.47753 226.102593,1176.49731 C232.624505,1173.30007 240.212309,1173.15138 246.852795,1176.0907 C252.440933,1178.59206 258.819818,1178.59206 264.407957,1176.0907 C270.993822,1173.21354 278.496454,1173.36194 284.965051,1176.49731 C286.788883,1177.44782 288.810039,1177.95061 290.863586,1177.96464 C300.325818,1177.96464 307.997424,1167.16295 307.997424,1153.83321 C308.06402,1148.66627 306.838496,1143.56553 304.433726,1139.00077 Z" id="Shape" fill="#F2F2F2"></path>
                <path d="M279,1174.56179 C274.046545,1173.61979 268.922469,1174.17297 264.288622,1176.15 C261.519766,1177.36402 258.527227,1177.99398 255.500463,1178 C252.439288,1177.99911 249.413436,1177.3506 246.624422,1176.09764 C239.971936,1173.20849 232.378109,1173.36159 225.849214,1176.51651 C224.013865,1177.48409 221.968812,1177.99326 219.890842,1178 C211.471785,1178 204.458834,1169.57028 203,1158.47028 C204.67938,1157.24679 206.110628,1155.71901 207.218316,1153.96745 C212.139685,1146.06132 219.785384,1141 228.309898,1141 C236.834413,1141 244.444958,1146.00896 249.40148,1153.81038 C252.406504,1158.63651 257.749136,1161.53442 263.462535,1161.43726 L263.691027,1161.43726 C270.317299,1161.43726 276.170213,1166.77783 279,1174.56179 Z" id="Shape" fill="#000000" opacity="0.03"></path>
                <path d="M929.958585,59.7448234 L902.746945,76.9748663 L919.231424,46.9798831 C914.56364,43.2532987 908.787948,41.1892833 902.816943,41.1139641 L902.379457,41.1139641 C900.492171,41.1508903 898.605596,41.0101896 896.744635,40.6937191 L887.539926,46.542128 L891.477301,39.3629434 C884.9563,37.0726983 879.322818,32.7837172 875.37781,27.1057991 L858.910831,37.6119228 L869.305502,18.6658798 C859.680806,7.09163349 846.696217,0 832.399169,0 C815.26721,0 800.007692,10.19094 790.155504,26.0902072 C784.207948,35.7827736 773.5167,41.5328527 762.156389,41.1489845 L761.246418,41.1489845 C742.329515,41.1489845 727,62.598987 727,89.0744187 C727,115.54985 742.329515,136.999853 761.246418,136.999853 C765.40307,136.986643 769.493732,135.958841 773.163541,134.005608 C786.198286,127.678231 801.349331,127.383855 814.619731,133.200138 C825.822225,138.235935 838.636271,138.267767 849.863617,133.287689 C863.021093,127.581634 878.005607,127.869115 890.934818,134.075649 C894.582307,135.980301 898.632685,136.983011 902.746945,136.999853 C921.663847,136.999853 936.993363,115.54985 936.993363,89.0744187 C937.144108,78.8622277 934.724945,68.7761836 929.958585,59.7448234 Z" id="Shape" fill="#F2F2F2"></path>
                <path d="M880,130.958824 C870.030372,129.073374 859.72507,130.191263 850.392222,134.170588 C839.08634,139.230339 826.158179,139.230339 814.852296,134.170588 C801.467136,128.292047 786.173876,128.588867 773.027117,134.982353 C769.316047,136.944999 765.184743,137.980376 760.986268,138 C744.037272,138 729.930764,120.917647 727,98.4 C730.391311,95.9383543 733.269856,92.8393513 735.474498,89.2764706 C745.414378,73.2705882 760.809716,63 778.094161,63 C795.378606,63 810.615047,73.0588235 820.537272,88.9411765 C826.576379,98.7052518 837.302172,104.581615 848.785599,104.417647 L849.226979,104.417647 C862.627279,104.382353 874.315024,115.182353 880,130.958824 Z" id="Shape" fill="#000000" opacity="0.03"></path>
                <path d="M1856.43373,361.000769 L1842.82848,369.681015 L1851.0794,354.583397 C1848.74762,352.696105 1845.85493,351.650395 1842.86359,351.613374 L1842.65292,351.613374 C1841.70654,351.62321 1840.76102,351.552242 1839.82654,351.40123 L1835.22709,354.335895 L1837.19327,350.800154 C1833.92952,349.648675 1831.10974,347.489568 1829.13545,344.630284 L1820.90208,349.933897 L1826.16863,340.405073 C1821.73361,334.628751 1814.9491,331.173652 1807.7006,331 C1799.13368,331 1791.49718,336.126826 1786.6344,344.135281 C1783.65463,349.029813 1778.28754,351.928168 1772.59027,351.719447 L1772.13384,351.719447 C1762.67161,351.719447 1755,362.538816 1755,375.868563 C1755,389.198309 1762.67161,400 1772.13384,400 C1774.2149,399.993203 1776.26319,399.477527 1778.10259,398.49731 C1784.6245,395.300067 1792.21231,395.15138 1798.85279,398.090699 C1804.44093,400.592056 1810.81982,400.592056 1816.40796,398.090699 C1822.99382,395.213543 1830.49645,395.361942 1836.96505,398.49731 C1838.78888,399.447819 1840.81004,399.950607 1842.86359,399.964643 C1852.32582,399.964643 1859.99742,389.162952 1859.99742,375.833205 C1860.06402,370.666275 1858.8385,365.565532 1856.43373,361.000769 Z" id="Shape" fill="#F2F2F2"></path>
                <path d="M1831,394.561792 C1826.04081,393.619787 1820.9108,394.172971 1816.27159,396.15 C1813.49953,397.36402 1810.50353,397.993981 1807.47326,398 C1804.43821,397.986779 1801.44013,397.33854 1798.67492,396.097642 C1792.01474,393.208488 1784.41212,393.361594 1777.87567,396.516509 C1776.03819,397.484087 1773.99077,397.993256 1771.9104,398 C1763.48159,398 1756.46052,389.570283 1755,378.470283 C1756.68132,377.246793 1758.11423,375.719012 1759.2232,373.967453 C1764.15027,366.061321 1771.80482,361 1780.3392,361 C1788.87358,361 1796.49294,366.008962 1801.4552,373.810377 C1804.44751,378.609564 1809.75571,381.503552 1815.44455,381.437264 L1815.6733,381.437264 C1822.30725,381.437264 1828.16694,386.77783 1831,394.561792 Z" id="Shape" fill="#000000" opacity="0.03"></path>
            </g>
            <g id="undraw_best_place_r685" transform="translate(852.000000, 737.000000)" fill-rule="nonzero">
                <path d="M122.585432,433.881216 L120.927466,433.507794 C139.41405,351.29567 185.872394,276.63987 251.744231,223.291992 C352.987412,141.425685 489.280462,117.531195 612.334736,160.074345 C735.38901,202.617494 827.821291,305.58844 856.882809,432.504562 L855.226501,432.881298 C816.093271,261.058475 665.503722,141.055004 489.019006,141.055004 C314.84698,141.055004 160.739426,264.205956 122.585432,433.881216 Z" id="Shape" fill="#3F3D56"></path>
                <circle id="Oval" fill="#FF6584" cx="764.444494" cy="186.857739" r="46.1531634"></circle>
                <rect id="Rectangle-path" fill="#3F3D56" x="745.212282" y="371.379676" width="1.69945788" height="67.1285864"></rect>
                <path d="M762.595807,379.934475 C762.703994,403.407668 746.189359,422.512973 746.189359,422.512973 C746.189359,422.512973 729.499323,403.560704 729.391136,380.087511 C729.282948,356.614319 745.797583,337.509013 745.797583,337.509013 C745.797583,337.509013 762.487619,356.461248 762.595807,379.934475 Z" id="Shape" fill="#17A2B8"></path>
                <path d="M762.595807,379.934475 C762.703994,403.407668 746.189359,422.512973 746.189359,422.512973 C746.189359,422.512973 729.499323,403.560704 729.391136,380.087511 C729.282948,356.614319 745.797583,337.509013 745.797583,337.509013 C745.797583,337.509013 762.487619,356.461248 762.595807,379.934475 Z" id="Shape" fill="#000000" opacity="0.1"></path>
                <circle id="Oval" fill="#17A2B8" opacity="0.4" cx="425.732605" cy="211.363276" r="26.552245"></circle>
                <circle id="Oval" fill="#17A2B8" opacity="0.4" cx="376.591132" cy="224.044945" r="18.6262028"></circle>
                <circle id="Oval" fill="#17A2B8" opacity="0.4" cx="176.90483" cy="277.577869" r="18.6262028"></circle>
                <circle id="Oval" fill="#17A2B8" opacity="0.4" cx="727.633276" cy="209.178912" r="26.552245"></circle>
                <path d="M48.1206428,431.044073 C49.5600836,436.36494 54.4902959,439.660325 54.4902959,439.660325 C54.4902959,439.660325 57.0868296,434.328837 55.6474313,429.00797 C54.2080329,423.687103 49.2777867,420.391718 49.2777867,420.391718 C49.2777867,420.391718 46.6812529,425.723198 48.1206428,431.044073 Z" id="Shape" fill="#3F3D56"></path>
                <path d="M50.2357371,429.900559 C54.1854556,433.745455 54.6679232,439.655957 54.6679232,439.655957 C54.6679232,439.655957 48.7465871,439.332644 44.7968601,435.487748 C40.847133,431.642852 40.3646739,425.732358 40.3646739,425.732358 C40.3646739,425.732358 46.28601,426.055663 50.2357371,429.900559 Z" id="Shape" fill="#17A2B8"></path>
                <path d="M568.154755,431.044073 C569.594153,436.36494 574.524408,439.660325 574.524408,439.660325 C574.524408,439.660325 577.120942,434.328837 575.681543,429.00797 C574.242145,423.687103 569.311899,420.391718 569.311899,420.391718 C569.311899,420.391718 566.715365,425.723198 568.154755,431.044073 Z" id="Shape" fill="#3F3D56"></path>
                <path d="M570.269849,429.900559 C574.219568,433.745455 574.702035,439.655957 574.702035,439.655957 C574.702035,439.655957 568.780699,439.332644 564.830972,435.487748 C560.881245,431.642852 560.398786,425.732358 560.398786,425.732358 C560.398786,425.732358 566.320122,426.055663 570.269849,429.900559 Z" id="Shape" fill="#17A2B8"></path>
                <polygon id="Shape" fill="#3F3D56" points="57.8979809 391.047808 54.3826522 385.188927 87.1940856 357.064598 171.567071 357.064598 171.567071 365.267032 141.09919 398.079315 105.943355 405.109972"></polygon>
                <polygon id="Shape" fill="#CCCCCC" points="186.090638 373.568884 186.090638 355.234282 175.044162 355.234282 175.044162 361.015838 171.567071 357.064598 143.442743 385.188927 138.754788 389.876032 132.895907 413.313255 143.442743 439.093182 197.346997 439.093182 197.346997 386.360703"></polygon>
                <rect id="Rectangle-path" fill="#F2F2F2" x="54.3826522" y="385.188681" width="89.0599034" height="53.9046797"></rect>
                <rect id="Rectangle-path" fill="#3F3D56" x="112.388778" y="402.18037" width="18.749456" height="16.4057762"></rect>
                <rect id="Rectangle-path" fill="#CCCCCC" x="88.3660402" y="401.594448" width="16.4057762" height="37.4989036"></rect>
                <polygon id="Shape" fill="#3F3D56" points="69.6165927 407.453525 69.6165927 401.594644 62.5859354 401.594644 62.5859354 407.453525 69.0302797 407.453525"></polygon>
                <polygon id="Shape" fill="#3F3D56" points="69.0302797 412.140629 62.5859354 412.140629 62.5859354 418.00036 69.6165927 418.00036 69.6165927 412.140629"></polygon>
                <rect id="Rectangle-path" fill="#3F3D56" x="74.303944" y="401.594448" width="7.03104814" height="5.85920395"></rect>
                <rect id="Rectangle-path" fill="#3F3D56" x="74.303944" y="412.14102" width="7.03104814" height="5.85920395"></rect>
                <polygon id="Shape" fill="#3F3D56" points="168.637206 408.039838 168.637206 402.180107 161.605699 402.180107 161.605699 408.039838 168.050893 408.039838"></polygon>
                <polygon id="Shape" fill="#3F3D56" points="168.050893 412.726942 161.605699 412.726942 161.605699 418.585824 168.637206 418.585824 168.637206 412.726942"></polygon>
                <rect id="Rectangle-path" fill="#3F3D56" x="173.324497" y="402.18037" width="7.03104814" height="5.85920395"></rect>
                <rect id="Rectangle-path" fill="#3F3D56" x="173.324497" y="412.726942" width="7.03104814" height="5.85920395"></rect>
                <polygon id="Shape" fill="#3F3D56" points="396.939828 391.047808 393.4245 385.188927 426.235933 357.064598 510.608919 357.064598 510.608919 365.267032 480.141038 398.079315 444.985202 405.109972"></polygon>
                <polygon id="Shape" fill="#CCCCCC" points="525.132486 373.568884 525.132486 355.234282 514.086009 355.234282 514.086009 361.015838 510.608919 357.064598 482.48459 385.188927 477.796636 389.876032 471.937755 413.313255 482.48459 439.093182 536.388845 439.093182 536.388845 386.360703"></polygon>
                <rect id="Rectangle-path" fill="#F2F2F2" x="393.4245" y="385.188681" width="89.0599034" height="53.9046797"></rect>
                <rect id="Rectangle-path" fill="#3F3D56" x="451.430626" y="402.18037" width="18.749456" height="16.4057762"></rect>
                <rect id="Rectangle-path" fill="#CCCCCC" x="427.407888" y="401.594448" width="16.4057762" height="37.4989036"></rect>
                <polygon id="Shape" fill="#3F3D56" points="408.65844 407.453525 408.65844 401.594644 401.627783 401.594644 401.627783 407.453525 408.072127 407.453525"></polygon>
                <polygon id="Shape" fill="#3F3D56" points="408.072127 412.140629 401.627783 412.140629 401.627783 418.00036 408.65844 418.00036 408.65844 412.140629"></polygon>
                <rect id="Rectangle-path" fill="#3F3D56" x="413.345792" y="401.594448" width="7.03104814" height="5.85920395"></rect>
                <rect id="Rectangle-path" fill="#3F3D56" x="413.345792" y="412.14102" width="7.03104814" height="5.85920395"></rect>
                <polygon id="Shape" fill="#3F3D56" points="507.679053 408.039838 507.679053 402.180107 500.647546 402.180107 500.647546 408.039838 507.09274 408.039838"></polygon>
                <polygon id="Shape" fill="#3F3D56" points="507.09274 412.726942 500.647546 412.726942 500.647546 418.585824 507.679053 418.585824 507.679053 412.726942"></polygon>
                <rect id="Rectangle-path" fill="#3F3D56" x="512.366345" y="402.18037" width="7.03104814" height="5.85920395"></rect>
                <rect id="Rectangle-path" fill="#3F3D56" x="512.366345" y="412.726942" width="7.03104814" height="5.85920395"></rect>
                <polygon id="Shape" fill="#3F3D56" points="238.361714 292.613508 232.502833 287.925553 265.314266 258.629449 348.514626 258.629449 348.514626 284.410225 294.610371 320.737836"></polygon>
                <polygon id="Shape" fill="#CCCCCC" points="363.683987 275.063206 363.683987 259.214912 352.637511 259.214912 352.637511 263.096474 348.514626 258.629449 321.562074 287.925553 311.016088 294.95706 294.663054 414.431499 319.324737 439.093182 376.638954 439.093182 376.638954 289.09733"></polygon>
                <rect id="Rectangle-path" fill="#F2F2F2" x="232.502468" y="287.925885" width="89.0599034" height="151.167475"></rect>
                <rect id="Rectangle-path" fill="#CCCCCC" x="267.071769" y="402.18037" width="16.4057762" height="36.91299"></rect>
                <polygon id="Shape" fill="#3F3D56" points="249.494013 412.726942 249.494013 406.868061 242.463356 406.868061 242.463356 412.726942 248.90855 412.726942"></polygon>
                <polygon id="Shape" fill="#3F3D56" points="248.90855 417.414047 242.463356 417.414047 242.463356 423.273778 249.494013 423.273778 249.494013 417.414047"></polygon>
                <rect id="Rectangle-path" fill="#3F3D56" x="254.181517" y="406.867739" width="7.03104814" height="5.85920395"></rect>
                <rect id="Rectangle-path" fill="#3F3D56" x="254.181517" y="417.414302" width="7.03104814" height="5.85920395"></rect>
                <polygon id="Shape" fill="#3F3D56" points="297.539387 412.726942 297.539387 406.868061 290.508729 406.868061 290.508729 412.726942 296.953923 412.726942"></polygon>
                <polygon id="Shape" fill="#3F3D56" points="296.953923 417.414047 290.508729 417.414047 290.508729 423.273778 297.539387 423.273778 297.539387 417.414047"></polygon>
                <rect id="Rectangle-path" fill="#3F3D56" x="302.226993" y="406.867739" width="7.03104814" height="5.85920395"></rect>
                <rect id="Rectangle-path" fill="#3F3D56" x="302.226993" y="417.414302" width="7.03104814" height="5.85920395"></rect>
                <polygon id="Shape" fill="#3F3D56" points="346.756537 295.542524 346.756537 289.683643 339.725879 289.683643 339.725879 295.542524 346.171073 295.542524"></polygon>
                <polygon id="Shape" fill="#3F3D56" points="346.171073 300.230478 339.725879 300.230478 339.725879 306.089359 346.756537 306.089359 346.756537 300.230478"></polygon>
                <rect id="Rectangle-path" fill="#3F3D56" x="351.444313" y="289.683651" width="7.03104814" height="5.85920395"></rect>
                <rect id="Rectangle-path" fill="#3F3D56" x="351.444313" y="300.230215" width="7.03104814" height="5.85920395"></rect>
                <polygon id="Shape" fill="#3F3D56" points="346.756537 328.354807 346.756537 322.495076 339.725879 322.495076 339.725879 328.354807 346.171073 328.354807"></polygon>
                <polygon id="Shape" fill="#3F3D56" points="346.171073 333.041912 339.725879 333.041912 339.725879 338.900793 346.756537 338.900793 346.756537 333.041912"></polygon>
                <rect id="Rectangle-path" fill="#3F3D56" x="351.444313" y="322.495195" width="7.03104814" height="5.85920395"></rect>
                <rect id="Rectangle-path" fill="#3F3D56" x="351.444313" y="333.041759" width="7.03104814" height="5.85920395"></rect>
                <polygon id="Shape" fill="#3F3D56" points="346.756537 361.16624 346.756537 355.306509 339.725879 355.306509 339.725879 361.16624 346.171073 361.16624"></polygon>
                <polygon id="Shape" fill="#3F3D56" points="346.171073 365.853345 339.725879 365.853345 339.725879 371.712226 346.756537 371.712226 346.756537 365.853345"></polygon>
                <rect id="Rectangle-path" fill="#3F3D56" x="351.444313" y="355.306739" width="7.03104814" height="5.85920395"></rect>
                <rect id="Rectangle-path" fill="#3F3D56" x="351.444313" y="365.853302" width="7.03104814" height="5.85920395"></rect>
                <polygon id="Shape" fill="#3F3D56" points="346.756537 393.977673 346.756537 388.117943 339.725879 388.117943 339.725879 393.977673 346.171073 393.977673"></polygon>
                <polygon id="Shape" fill="#3F3D56" points="346.171073 398.664778 339.725879 398.664778 339.725879 404.523659 346.756537 404.523659 346.756537 398.664778"></polygon>
                <rect id="Rectangle-path" fill="#3F3D56" x="351.444313" y="388.118282" width="7.03104814" height="5.85920395"></rect>
                <rect id="Rectangle-path" fill="#3F3D56" x="351.444313" y="398.664846" width="7.03104814" height="5.85920395"></rect>
                <rect id="Rectangle-path" fill="#3F3D56" x="242.463109" y="295.542855" width="67.9667675" height="14.0620878"></rect>
                <rect id="Rectangle-path" fill="#3F3D56" x="242.463109" y="323.667031" width="67.9667675" height="14.0620878"></rect>
                <rect id="Rectangle-path" fill="#3F3D56" x="242.463109" y="351.791215" width="67.9667675" height="14.0620878"></rect>
                <rect id="Rectangle-path" fill="#3F3D56" x="242.463109" y="379.915399" width="67.9667675" height="14.0620878"></rect>
                <polygon id="Shape" fill="#3F3D56" points="580.802477 292.613508 574.943596 287.925553 607.75503 258.629449 690.955389 258.629449 690.955389 284.410225 637.051134 320.737836"></polygon>
                <polygon id="Shape" fill="#CCCCCC" points="706.12475 275.063206 706.12475 259.214912 695.078274 259.214912 695.078274 263.096474 690.955389 258.629449 664.002837 287.925553 653.456851 294.95706 637.103818 414.431499 661.765501 439.093182 719.079718 439.093182 719.079718 289.09733"></polygon>
                <rect id="Rectangle-path" fill="#F2F2F2" x="574.943231" y="287.925885" width="89.0599034" height="151.167475"></rect>
                <rect id="Rectangle-path" fill="#CCCCCC" x="609.512532" y="402.18037" width="16.4057762" height="36.91299"></rect>
                <polygon id="Shape" fill="#3F3D56" points="591.934776 412.726942 591.934776 406.868061 584.904119 406.868061 584.904119 412.726942 591.349313 412.726942"></polygon>
                <polygon id="Shape" fill="#3F3D56" points="591.349313 417.414047 584.904119 417.414047 584.904119 423.273778 591.934776 423.273778 591.934776 417.414047"></polygon>
                <rect id="Rectangle-path" fill="#3F3D56" x="596.62228" y="406.867739" width="7.03104814" height="5.85920395"></rect>
                <rect id="Rectangle-path" fill="#3F3D56" x="596.62228" y="417.414302" width="7.03104814" height="5.85920395"></rect>
                <polygon id="Shape" fill="#3F3D56" points="639.98015 412.726942 639.98015 406.868061 632.949493 406.868061 632.949493 412.726942 639.394687 412.726942"></polygon>
                <polygon id="Shape" fill="#3F3D56" points="639.394687 417.414047 632.949493 417.414047 632.949493 423.273778 639.98015 423.273778 639.98015 417.414047"></polygon>
                <rect id="Rectangle-path" fill="#3F3D56" x="644.667756" y="406.867739" width="7.03104814" height="5.85920395"></rect>
                <rect id="Rectangle-path" fill="#3F3D56" x="644.667756" y="417.414302" width="7.03104814" height="5.85920395"></rect>
                <polygon id="Shape" fill="#3F3D56" points="689.1973 295.542524 689.1973 289.683643 682.166643 289.683643 682.166643 295.542524 688.611837 295.542524"></polygon>
                <polygon id="Shape" fill="#3F3D56" points="688.611837 300.230478 682.166643 300.230478 682.166643 306.089359 689.1973 306.089359 689.1973 300.230478"></polygon>
                <rect id="Rectangle-path" fill="#3F3D56" x="693.885076" y="289.683651" width="7.03104814" height="5.85920395"></rect>
                <rect id="Rectangle-path" fill="#3F3D56" x="693.885076" y="300.230215" width="7.03104814" height="5.85920395"></rect>
                <polygon id="Shape" fill="#3F3D56" points="689.1973 328.354807 689.1973 322.495076 682.166643 322.495076 682.166643 328.354807 688.611837 328.354807"></polygon>
                <polygon id="Shape" fill="#3F3D56" points="688.611837 333.041912 682.166643 333.041912 682.166643 338.900793 689.1973 338.900793 689.1973 333.041912"></polygon>
                <rect id="Rectangle-path" fill="#3F3D56" x="693.885076" y="322.495195" width="7.03104814" height="5.85920395"></rect>
                <rect id="Rectangle-path" fill="#3F3D56" x="693.885076" y="333.041759" width="7.03104814" height="5.85920395"></rect>
                <polygon id="Shape" fill="#3F3D56" points="689.1973 361.16624 689.1973 355.306509 682.166643 355.306509 682.166643 361.16624 688.611837 361.16624"></polygon>
                <polygon id="Shape" fill="#3F3D56" points="688.611837 365.853345 682.166643 365.853345 682.166643 371.712226 689.1973 371.712226 689.1973 365.853345"></polygon>
                <rect id="Rectangle-path" fill="#3F3D56" x="693.885076" y="355.306739" width="7.03104814" height="5.85920395"></rect>
                <rect id="Rectangle-path" fill="#3F3D56" x="693.885076" y="365.853302" width="7.03104814" height="5.85920395"></rect>
                <polygon id="Shape" fill="#3F3D56" points="689.1973 393.977673 689.1973 388.117943 682.166643 388.117943 682.166643 393.977673 688.611837 393.977673"></polygon>
                <polygon id="Shape" fill="#3F3D56" points="688.611837 398.664778 682.166643 398.664778 682.166643 404.523659 689.1973 404.523659 689.1973 398.664778"></polygon>
                <rect id="Rectangle-path" fill="#3F3D56" x="693.885076" y="388.118282" width="7.03104814" height="5.85920395"></rect>
                <rect id="Rectangle-path" fill="#3F3D56" x="693.885076" y="398.664846" width="7.03104814" height="5.85920395"></rect>
                <rect id="Rectangle-path" fill="#3F3D56" x="584.903872" y="295.542855" width="67.9667675" height="14.0620878"></rect>
                <rect id="Rectangle-path" fill="#3F3D56" x="584.903872" y="323.667031" width="67.9667675" height="14.0620878"></rect>
                <rect id="Rectangle-path" fill="#3F3D56" x="584.903872" y="351.791215" width="67.9667675" height="14.0620878"></rect>
                <rect id="Rectangle-path" fill="#3F3D56" x="584.903872" y="379.915399" width="67.9667675" height="14.0620878"></rect>
                <polygon id="Shape" fill="#3F3D56" points="768.592573 292.613508 762.733692 287.925553 795.545126 258.629449 878.745485 258.629449 878.745485 284.410225 824.84123 320.737836"></polygon>
                <polygon id="Shape" fill="#CCCCCC" points="893.914846 275.063206 893.914846 259.214912 882.86837 259.214912 882.86837 263.096474 878.745485 258.629449 851.792933 287.925553 841.246947 294.95706 824.893914 414.431499 849.555597 439.093182 906.869814 439.093182 906.869814 289.09733"></polygon>
                <rect id="Rectangle-path" fill="#F2F2F2" x="762.733327" y="287.925885" width="89.0599034" height="151.167475"></rect>
                <rect id="Rectangle-path" fill="#CCCCCC" x="797.302629" y="402.18037" width="16.4057762" height="36.91299"></rect>
                <polygon id="Shape" fill="#3F3D56" points="779.724872 412.726942 779.724872 406.868061 772.694215 406.868061 772.694215 412.726942 779.139409 412.726942"></polygon>
                <polygon id="Shape" fill="#3F3D56" points="779.139409 417.414047 772.694215 417.414047 772.694215 423.273778 779.724872 423.273778 779.724872 417.414047"></polygon>
                <rect id="Rectangle-path" fill="#3F3D56" x="784.412376" y="406.867739" width="7.03104814" height="5.85920395"></rect>
                <rect id="Rectangle-path" fill="#3F3D56" x="784.412376" y="417.414302" width="7.03104814" height="5.85920395"></rect>
                <polygon id="Shape" fill="#3F3D56" points="827.770246 412.726942 827.770246 406.868061 820.739589 406.868061 820.739589 412.726942 827.184783 412.726942"></polygon>
                <polygon id="Shape" fill="#3F3D56" points="827.184783 417.414047 820.739589 417.414047 820.739589 423.273778 827.770246 423.273778 827.770246 417.414047"></polygon>
                <rect id="Rectangle-path" fill="#3F3D56" x="832.457852" y="406.867739" width="7.03104814" height="5.85920395"></rect>
                <rect id="Rectangle-path" fill="#3F3D56" x="832.457852" y="417.414302" width="7.03104814" height="5.85920395"></rect>
                <polygon id="Shape" fill="#3F3D56" points="876.987396 295.542524 876.987396 289.683643 869.956739 289.683643 869.956739 295.542524 876.401933 295.542524"></polygon>
                <polygon id="Shape" fill="#3F3D56" points="876.401933 300.230478 869.956739 300.230478 869.956739 306.089359 876.987396 306.089359 876.987396 300.230478"></polygon>
                <rect id="Rectangle-path" fill="#3F3D56" x="881.675172" y="289.683651" width="7.03104814" height="5.85920395"></rect>
                <rect id="Rectangle-path" fill="#3F3D56" x="881.675172" y="300.230215" width="7.03104814" height="5.85920395"></rect>
                <polygon id="Shape" fill="#3F3D56" points="876.987396 328.354807 876.987396 322.495076 869.956739 322.495076 869.956739 328.354807 876.401933 328.354807"></polygon>
                <polygon id="Shape" fill="#3F3D56" points="876.401933 333.041912 869.956739 333.041912 869.956739 338.900793 876.987396 338.900793 876.987396 333.041912"></polygon>
                <rect id="Rectangle-path" fill="#3F3D56" x="881.675172" y="322.495195" width="7.03104814" height="5.85920395"></rect>
                <rect id="Rectangle-path" fill="#3F3D56" x="881.675172" y="333.041759" width="7.03104814" height="5.85920395"></rect>
                <polygon id="Shape" fill="#3F3D56" points="876.987396 361.16624 876.987396 355.306509 869.956739 355.306509 869.956739 361.16624 876.401933 361.16624"></polygon>
                <polygon id="Shape" fill="#3F3D56" points="876.401933 365.853345 869.956739 365.853345 869.956739 371.712226 876.987396 371.712226 876.987396 365.853345"></polygon>
                <rect id="Rectangle-path" fill="#3F3D56" x="881.675172" y="355.306739" width="7.03104814" height="5.85920395"></rect>
                <rect id="Rectangle-path" fill="#3F3D56" x="881.675172" y="365.853302" width="7.03104814" height="5.85920395"></rect>
                <polygon id="Shape" fill="#3F3D56" points="876.987396 393.977673 876.987396 388.117943 869.956739 388.117943 869.956739 393.977673 876.401933 393.977673"></polygon>
                <polygon id="Shape" fill="#3F3D56" points="876.401933 398.664778 869.956739 398.664778 869.956739 404.523659 876.987396 404.523659 876.987396 398.664778"></polygon>
                <rect id="Rectangle-path" fill="#3F3D56" x="881.675172" y="388.118282" width="7.03104814" height="5.85920395"></rect>
                <rect id="Rectangle-path" fill="#3F3D56" x="881.675172" y="398.664846" width="7.03104814" height="5.85920395"></rect>
                <rect id="Rectangle-path" fill="#3F3D56" x="772.693969" y="295.542855" width="67.9667675" height="14.0620878"></rect>
                <rect id="Rectangle-path" fill="#3F3D56" x="772.693969" y="323.667031" width="67.9667675" height="14.0620878"></rect>
                <rect id="Rectangle-path" fill="#3F3D56" x="772.693969" y="351.791215" width="67.9667675" height="14.0620878"></rect>
                <rect id="Rectangle-path" fill="#3F3D56" x="772.693969" y="379.915399" width="67.9667675" height="14.0620878"></rect>
                <rect id="Rectangle-path" fill="#3F3D56" x="0" y="438.508262" width="966.141806" height="1.69945788"></rect>
                <rect id="Rectangle-path" fill="#3F3D56" x="214.131693" y="371.379676" width="1.69945788" height="67.1285864"></rect>
                <path d="M231.515218,379.934475 C231.623406,403.407668 215.108771,422.512973 215.108771,422.512973 C215.108771,422.512973 198.418735,403.560704 198.310548,380.087511 C198.20236,356.614319 214.716995,337.509013 214.716995,337.509013 C214.716995,337.509013 231.407031,356.461248 231.515218,379.934475 Z" id="Shape" fill="#17A2B8"></path>
                <rect id="Rectangle-path" fill="#3F3D56" x="384.077481" y="371.379676" width="1.69945788" height="67.1285864"></rect>
                <path d="M401.461007,379.934475 C401.569194,403.407668 385.054559,422.512973 385.054559,422.512973 C385.054559,422.512973 368.364523,403.560704 368.256336,380.087511 C368.148148,356.614319 384.662783,337.509013 384.662783,337.509013 C384.662783,337.509013 401.352819,356.461248 401.461007,379.934475 Z" id="Shape" fill="#17A2B8"></path>
                <rect id="Rectangle-path" fill="#3F3D56" x="723.119329" y="371.379676" width="1.69945788" height="67.1285864"></rect>
                <path d="M740.502854,379.934475 C740.611042,403.407668 724.096407,422.512973 724.096407,422.512973 C724.096407,422.512973 707.406371,403.560704 707.298183,380.087511 C707.189996,356.614319 723.704631,337.509013 723.704631,337.509013 C723.704631,337.509013 740.394667,356.461248 740.502854,379.934475 Z" id="Shape" fill="#17A2B8"></path>
                <ellipse id="Oval" fill="#17A2B8" cx="499.215753" cy="138.930682" rx="32.2896998" ry="7.26518245"></ellipse>
                <path d="M535.754097,37.3880734 C535.754097,58.036937 498.366024,116.412865 498.366024,116.412865 C498.366024,116.412865 460.977951,58.036937 460.977951,37.3880734 C460.977951,16.7392106 477.717161,0 498.366024,0 C519.014887,0 535.754097,16.7392106 535.754097,37.3880734 Z" id="Shape" fill="#17A2B8"></path>
                <circle id="Oval" fill="#F2F2F2" cx="498.366024" cy="37.3880734" r="21.2432235"></circle>
            </g>
            <g id="undraw_travelers_qlt1" transform="translate(0.000000, 190.000000)">
                <ellipse id="Oval" fill="#3F3D56" fill-rule="nonzero" cx="269" cy="54" rx="51" ry="44"></ellipse>
                <ellipse id="Oval" fill="#3F3D56" fill-rule="nonzero" cx="371" cy="206" rx="73" ry="82"></ellipse>
                <ellipse id="Oval" fill="#3F3D56" fill-rule="nonzero" cx="604.5" cy="933" rx="18.5" ry="21"></ellipse>
                <ellipse id="Oval" fill="#3F3D56" fill-rule="nonzero" cx="508.5" cy="933" rx="18.5" ry="21"></ellipse>
                <rect id="Rectangle-path" fill="#3F3D56" fill-rule="nonzero" x="528" y="438" width="9" height="251"></rect>
                <rect id="Rectangle-path" fill="#3F3D56" fill-rule="nonzero" x="573" y="438" width="9" height="251"></rect>
                <path d="M530.041369,445 L528,438.128492 C528,438.128492 550.416548,408.347148 582,432.354116 L579.958631,442.675814 L571.805991,442.675814 C571.805991,442.675814 558.569187,430.188725 536.152639,444.451434 L530.041369,445 Z" id="Shape" fill="#3F3D56" fill-rule="nonzero"></path>
                <rect id="Rectangle-path" fill="#FBBEBE" fill-rule="nonzero" x="320" y="402" width="73" height="105"></rect>
                <rect id="Rectangle-path" fill="#FBBEBE" fill-rule="nonzero" x="423" y="373" width="23" height="50"></rect>
                <path d="M329.593486,911.276767 L320.583417,941.963001 C320.583417,941.963001 316.570529,964.687712 329.593486,965.818935 C342.616443,966.950159 363.665175,962.410945 363.665175,962.410945 C363.665175,962.410945 366.668531,952.186973 363.665175,943.094225 C360.661819,934.001477 351.65175,909 351.65175,909 L329.593486,911.276767 Z" id="Shape" fill="#3C354C" fill-rule="nonzero"></path>
                <path d="M399.256622,912 C399.256622,912 385.177756,951.200019 396.240627,957.916797 C407.303498,964.633575 422.396144,959.031556 434.460123,964.633575 C446.524102,970.235593 479.712716,956.802037 479.712716,956.802037 C479.712716,956.802037 483.74249,944.483241 461.616748,941.124852 C461.616748,941.124852 437.539479,920.960407 437.539479,916.487259 C437.539479,912.014111 423.460613,912 423.460613,912 L399.256622,912 Z" id="Shape" fill="#3C354C" fill-rule="nonzero"></path>
                <path d="M396.155347,458.222698 C396.155347,458.222698 312.237372,477.567342 302.010393,471.874367 C291.783414,466.181392 281.543538,549.310302 281.543538,549.310302 C281.543538,549.310302 277.442429,599.385541 291.770517,666.525365 C306.098605,733.665189 291.770517,766.675841 291.770517,766.675841 C291.770517,766.675841 293.821072,830.402748 309.180885,860.000483 C324.540699,889.598219 324.527803,916.901556 324.527803,916.901556 C324.527803,916.901556 354.189912,920.314473 355.234534,912.34144 C355.234534,912.34144 342.944103,880.477986 344.994658,850.894591 C347.045212,821.311196 338.855891,764.395783 338.855891,764.395783 C338.855891,764.395783 352.16515,692.695843 350.114596,665.449865 C348.064041,638.203888 357.285088,580.098257 362.39213,590.337008 C367.499171,600.57576 380.821327,650.650998 380.821327,660.904089 C380.821327,671.157181 385.979954,739.415524 389.010648,743.97564 C392.041342,748.535756 391.048306,762.187425 390.029477,769.013259 C389.010648,775.839093 389.010648,827.047191 394.11769,854.364868 C399.224731,881.682545 395.149415,912.3988 396.168244,916.958916 C397.187073,921.519032 426.874975,918.091775 427.893804,910.118742 C427.893804,910.118742 431.994913,861.190702 434.045468,854.364868 C436.096022,847.539034 437.063265,760.925506 437.063265,760.925506 C437.063265,760.925506 439.100923,693.785682 441.151477,686.959848 C443.202032,680.134013 446.310105,533.321216 432.962156,516.31399 C419.614207,499.306764 424.772834,456 424.772834,456 L396.155347,458.222698 Z" id="Shape" fill="#3F3D56" fill-rule="nonzero"></path>
                <path d="M328.235727,259.487731 C324.450469,267.493055 320.639461,275.570629 318.270456,284.255105 C315.901451,292.939581 315.077449,302.346559 317.304829,311.074385 C318.898402,316.525935 321.114158,321.722982 323.896843,326.535931 C326.110111,331.13559 328.917178,335.342695 332.226986,339.020768 C339.952002,346.939392 351.179025,348.528896 361.607797,349.7716 C363.396483,350.107024 365.224729,350.072744 367.002434,349.67045 C368.428312,349.205555 369.746527,348.396776 370.864942,347.300643 C375.435576,342.96563 377.508456,336.34751 379.182209,329.960591 C383.163373,314.771129 386.01425,299.236982 387.705477,283.518153 C388.098174,281.032867 388.098174,278.489416 387.705477,276.00413 C386.804225,271.669117 383.714219,268.302257 381.473964,264.574146 C378.790687,260.119261 377.257815,254.918085 377.044955,249.546101 C376.95483,246.930643 377.044955,244.040635 375.577202,242.046529 C374.600797,240.961047 373.416136,240.140561 372.113819,239.647822 C366.023932,236.757813 359.946919,233.867804 353.844156,231.093396 C350.161898,229.388291 343.544134,224.850978 339.681626,228.203388 C336.372744,231.093396 337.969248,237.798216 336.552995,241.815328 C334.377115,247.913246 330.965233,253.707714 328.235727,259.487731 Z" id="Shape" fill="#FBBEBE" fill-rule="nonzero"></path>
                <path d="M328.235727,259.487731 C324.450469,267.493055 320.639461,275.570629 318.270456,284.255105 C315.901451,292.939581 315.077449,302.346559 317.304829,311.074385 C318.898402,316.525935 321.114158,321.722982 323.896843,326.535931 C326.110111,331.13559 328.917178,335.342695 332.226986,339.020768 C339.952002,346.939392 351.179025,348.528896 361.607797,349.7716 C363.396483,350.107024 365.224729,350.072744 367.002434,349.67045 C368.428312,349.205555 369.746527,348.396776 370.864942,347.300643 C375.435576,342.96563 377.508456,336.34751 379.182209,329.960591 C383.163373,314.771129 386.01425,299.236982 387.705477,283.518153 C388.098174,281.032867 388.098174,278.489416 387.705477,276.00413 C386.804225,271.669117 383.714219,268.302257 381.473964,264.574146 C378.790687,260.119261 377.257815,254.918085 377.044955,249.546101 C376.95483,246.930643 377.044955,244.040635 375.577202,242.046529 C374.600797,240.961047 373.416136,240.140561 372.113819,239.647822 C366.023932,236.757813 359.946919,233.867804 353.844156,231.093396 C350.161898,229.388291 343.544134,224.850978 339.681626,228.203388 C336.372744,231.093396 337.969248,237.798216 336.552995,241.815328 C334.377115,247.913246 330.965233,253.707714 328.235727,259.487731 Z" id="Shape" fill="#000000" fill-rule="nonzero" opacity="0.1"></path>
                <ellipse id="Oval" fill="#FBBEBE" fill-rule="nonzero" cx="368" cy="223" rx="36" ry="40"></ellipse>
                <path d="M379.651952,323.936613 C372.908931,326.649558 365.947979,328.989294 358.781916,329.276378 C353.413676,329.336547 348.057469,328.695854 342.821723,327.367269 C332.003881,324.958024 321.379745,321.563943 311.055169,317.218844 C308.850226,322.08492 308.260532,327.639999 308.068241,333.094598 C307.517005,349.587582 310.452655,365.951379 311.580765,382.415655 C313.003722,403.34409 311.580765,424.731859 316.388053,445 C316.665626,441.555547 317.862765,438.284415 319.823661,435.612348 C321.45797,433.640591 323.411035,432.033299 325.579586,430.87546 C335.281612,425.25973 346.454198,423.702317 357.089751,426.483072 C363.255898,428.119452 369.806628,431.176898 375.652289,428.435244 C379.139175,426.784511 381.664603,423.310792 383.600338,419.664824 C386.88674,413.086049 389.231275,405.970808 390.54847,398.578493 C394.3943,379.573522 394.907077,359.922612 395.368577,340.429598 C395.496771,335.21902 397.496602,319.73083 393.637953,315.912611 C390.933053,313.257083 390.138248,317.046593 388.189694,319.027474 C385.65491,321.268124 382.755175,322.935451 379.651952,323.936613 Z" id="Shape" fill="#F2F2F2" fill-rule="nonzero"></path>
                <path d="M330.21211,255.297641 C327.829113,253.220614 324.299702,253.865209 321.671965,255.627101 C319.044228,257.388993 316.918852,259.824129 314.252472,261.428454 C306.858741,265.88332 296.927441,262.617373 289.907261,267.80278 C283.312157,272.687377 282.178623,282.743055 281.66338,291.538193 C280.375274,313.884146 279.267503,336.387667 274.437104,358.131998 C273.148997,363.861729 271.60327,369.734704 272.09275,375.636328 C272.478212,379.00799 273.195257,382.322427 274.231007,385.520115 L280.56849,407.536608 C283.505373,417.764179 286.480898,428.149317 286.790044,438.878239 C287.099189,449.607162 284.832122,459.806084 282.577936,470.047979 C278.122864,490.225373 275.222711,510.788389 273.90898,531.513674 C273.509667,538.375027 273.342213,545.537192 275.84114,551.825572 C278.417352,558.400439 283.647064,563.285035 289.16016,566.995036 C294.673255,570.705038 300.66295,573.569903 306.060115,577.509094 C316.89309,585.430448 325.587808,597.906938 338.262775,601.158561 C344.072135,602.590993 350.151997,602.01802 356,600.757479 C356,600.757479 352.689567,433.563913 343.479606,409.685257 C334.269645,385.806601 326.103051,282.370623 326.103051,278.961433 C326.103051,275.552242 330.21211,255.297641 330.21211,255.297641 Z" id="Shape" fill="#A77CE7" fill-rule="nonzero"></path>
                <path d="M378.997772,260 C378.997772,260 427.432005,260 434.603625,288.527828 C441.775245,317.055656 414.133551,363.844745 414.133551,363.844745 C414.133551,363.844745 425.394027,456.272608 430.501871,465.403238 C435.609716,474.533868 433.584636,492.723235 433.584636,492.723235 C437.293236,505.243913 437.995869,518.628962 435.622614,531.546388 C431.533759,552.079522 416.171529,588.602044 416.171529,588.602044 C416.171529,588.602044 395.701456,588.602044 390.580712,602.2908 C385.459969,615.979556 384.44098,542.948892 384.44098,542.948892 C384.44098,542.948892 366.021783,409.440382 367.040772,401.460067 C368.059762,393.479752 373.180505,327.279086 375.231382,309.017826 C377.282259,290.756565 381.745173,266.844378 378.997772,260 Z" id="Shape" fill="#9364D5" fill-rule="nonzero"></path>
                <path d="M416.403225,278 C416.403225,278 439.687427,285.972163 439.687427,295.093468 C439.687427,304.214772 446.815504,353.225621 446.815504,369.184312 C446.815504,385.143004 443.780652,387.426921 446.815504,393.129531 C449.850356,398.832142 414.439497,396.548225 414.439497,396.548225 L408,331.578684 L416.403225,278 Z" id="Shape" fill="#9364D5" fill-rule="nonzero"></path>
                <path d="M278.067571,361.111969 C278.067571,361.111969 323.901523,364.542418 332.049496,357.667106 C340.197469,350.791794 374.81673,366.819775 377.870616,375.972443 C380.924502,385.125112 328.982778,386.26379 320.847637,386.26379 C312.712495,386.26379 274,400 274,400 L278.067571,361.111969 Z" id="Shape" fill="#A0616A" fill-rule="nonzero"></path>
                <path d="M183.440407,891.956814 C183.440407,891.956814 162.110553,952.031283 173.191829,959.183006 C184.273104,966.334729 301.119711,961.242702 301.119711,961.242702 C301.119711,961.242702 320.5792,947.797464 298.339784,938.471617 C298.339784,938.471617 279.789857,937.441769 267.747777,929.160075 C255.705697,920.87838 241.780441,905.359142 241.780441,905.359142 C241.780441,905.359142 240.858069,882.588057 233.44066,887.765904 C228.954115,891.065427 225.925113,896.327962 225.100879,902.255294 L183.440407,891.956814 Z" id="Shape" fill="#3F3D56" fill-rule="nonzero"></path>
                <path d="M183.440407,891.956814 C183.440407,891.956814 162.110553,952.031283 173.191829,959.183006 C184.273104,966.334729 301.119711,961.242702 301.119711,961.242702 C301.119711,961.242702 320.5792,947.797464 298.339784,938.471617 C298.339784,938.471617 279.789857,937.441769 267.747777,929.160075 C255.705697,920.87838 241.780441,905.359142 241.780441,905.359142 C241.780441,905.359142 240.858069,882.588057 233.44066,887.765904 C228.954115,891.065427 225.925113,896.327962 225.100879,902.255294 L183.440407,891.956814 Z" id="Shape" fill="#000000" fill-rule="nonzero" opacity="0.1"></path>
                <path d="M150.757806,910.38814 C150.757806,910.38814 127.297736,975.833141 139.535537,983.771905 C151.773338,991.710668 280.321665,986.034025 280.321665,986.034025 C280.321665,986.034025 301.750671,971.365809 277.262215,961.193379 C277.262215,961.193379 256.861595,960.069432 243.595408,951.035177 C230.32922,942.000921 215.03197,925.027903 215.03197,925.027903 C215.03197,925.027903 214.016438,900.187257 205.853619,905.835445 C200.913934,909.432563 197.57971,915.174557 196.675268,921.641835 L150.757806,910.38814 Z" id="Shape" fill="#3F3D56" fill-rule="nonzero"></path>
                <path d="M271,490.462953 L256.666718,634.142678 C256.666718,634.142678 251.50622,702.562963 236.192444,717.376343 C236.192444,717.376343 236.192444,739.043245 231.031946,745.8824 L223.858854,835.969588 C223.858854,835.969588 234.102442,869.015925 233.083244,874.763113 C232.064045,880.510302 237.172938,898.700156 236.15374,900.984663 C235.134542,903.269171 187,900.984663 187,900.984663 L197.243588,717.405079 L228.980648,462 L271,490.462953 Z" id="Shape" fill="#3C354C" fill-rule="nonzero"></path>
                <path d="M271,490.462953 L256.666718,634.142678 C256.666718,634.142678 251.50622,702.562963 236.192444,717.376343 C236.192444,717.376343 236.192444,739.043245 231.031946,745.8824 L223.858854,835.969588 C223.858854,835.969588 234.102442,869.015925 233.083244,874.763113 C232.064045,880.510302 237.172938,898.700156 236.15374,900.984663 C235.134542,903.269171 187,900.984663 187,900.984663 L197.243588,717.405079 L228.980648,462 L271,490.462953 Z" id="Shape" fill="#000000" fill-rule="nonzero" opacity="0.1"></path>
                <path d="M245,485.62596 C245,485.62596 233.792041,602.782515 228.69518,627.807637 C225.490819,644.287348 223.447539,661.021934 222.584083,677.85788 C222.584083,677.85788 221.569846,714.263269 212.390361,724.49691 C206.976036,730.484107 204.028659,738.710234 204.250789,747.214446 C204.250789,747.214446 195.071304,862.092081 200.168165,875.751268 C205.265026,889.410455 210.361887,900.77639 205.303542,909.863404 C200.245196,918.950418 144.166887,918.964751 144.166887,912.142324 C144.166887,905.319897 144.166887,899.629763 141.111339,896.21855 C138.05579,892.807336 141.111339,871.193428 141.111339,871.193428 C141.111339,871.193428 128.889143,769.960648 140.097102,740.392019 C151.30506,710.82339 156.401921,630.029225 156.401921,630.029225 C156.401921,630.029225 148.249512,537.897792 138.05579,523.106311 C127.862068,508.314831 140.097102,456 140.097102,456 L245,485.62596 Z" id="Shape" fill="#3C354C" fill-rule="nonzero"></path>
                <path d="M216,122.400199 C217.183235,125.380738 220.025571,127.041323 222.610681,128.616751 C237.594035,137.728683 250.133751,150.942403 262.480549,164 C259.398781,152.462839 260.058252,140.100961 264.34543,129.042542 C265.811612,125.281386 267.75366,121.222177 266.699038,117.290705 C265.914502,114.452097 263.689506,112.294754 261.554539,110.449659 C256.513048,106.146999 251.243436,102.180094 245.773788,98.5700845 C241.915414,96.0437233 234.095775,89.3304153 229.71009,90.0542604 C229.478588,96.5972519 229.362836,102.444784 226.764864,108.505213 C226.121802,110.009675 216.450144,123.535642 216,122.400199 Z" id="Shape" fill="#A0616A" fill-rule="nonzero"></path>
                <ellipse id="Oval" fill="#A0616A" fill-rule="nonzero" cx="268.5" cy="89.5" rx="41.5" ry="46.5"></ellipse>
                <path d="M270.265311,199.072491 C270.265311,199.072491 277.373778,159.243268 257.047404,145.594089 C236.721029,131.944909 213.346338,116.016088 213.346338,116.016088 C213.346338,116.016088 206.225063,114.869098 203.176747,131.944909 C203.176747,131.944909 145.245938,144.461436 139.136499,205.897081 C133.027059,267.332725 143.209458,357.228055 143.209458,357.228055 C143.209458,357.228055 134.064511,435.739512 122.883084,477.834039 C122.883084,477.834039 113.725328,486.938272 154.390886,473.289092 C195.056443,459.639913 266.192351,512 266.192351,512 C266.192351,512 273.313627,504.02842 273.313627,498.336483 C273.313627,492.644546 281.446738,459.625575 281.446738,459.625575 C281.446738,459.625575 288.555206,319.678475 291.603521,303.749653 C294.651837,287.820831 279.410258,201.352133 270.265311,199.072491 Z" id="Shape" fill="#3F3D56" fill-rule="nonzero"></path>
                <path d="M208.486434,278 C208.486434,278 264.770194,241.501439 253.510862,194.743047 C242.251531,147.984655 217.695097,133.169688 217.695097,133.169688 C217.695097,133.169688 177.777994,118.340351 144,166.219565 L146.050669,187.88879 C146.050669,187.88879 182.898217,104.646206 222.81532,157.094925 C262.732422,209.543644 208.486434,278 208.486434,278 Z" id="Shape" fill="#5CD8B5" fill-rule="nonzero"></path>
                <path d="M148,168.548268 L148,354.835107 L137.568136,418.381352 L132.693072,448 L97.0112073,448 L47,427.543234 L47,290.114997 C47,290.114997 88.8432247,198.081024 102.117804,181.045648 C115.392384,164.010273 148,168.548268 148,168.548268 Z" id="Shape" fill="#5CD8B5" fill-rule="nonzero"></path>
                <polygon id="Shape" fill="#000000" fill-rule="nonzero" opacity="0.1" points="138 420 133.116695 450 97.2282794 450 47 429.294345"></polygon>
                <polygon id="Shape" fill="#3BBEB6" fill-rule="nonzero" points="135 379.191509 223 260 145.224762 383.740039 137.037216 386"></polygon>
                <path d="M258.772968,94.6352558 C261.151565,92.8408947 264.134455,92.5107323 266.988772,92.1949248 C269.843089,91.8791172 272.825978,91.4484706 275.101717,89.4962058 C279.048903,86.1084521 279.344621,79.5626231 282.237509,75.0408333 C286.416126,68.4806494 294.760503,67.6911305 301.973438,68.0069381 C306.383486,68.2079065 311.127824,68.5093592 314.830721,65.8537048 C318.533618,63.1980505 320.359353,57.9585163 321.645081,53.120919 C323.175098,47.3789637 324.152251,40.3737782 320.359353,36.1247313 C317.787896,33.1676243 313.622136,32.5790739 310.716391,29.9808391 C307.810645,27.3826044 306.46063,22.9182341 304.827755,19.0280594 C302.963558,14.275841 300.01541,10.1527465 296.277662,7.0704375 C290.80046,2.76397102 283.806098,1.87396795 277.133168,1.94574239 C270.460238,2.01751684 263.761594,3.00800412 257.140093,2.08929128 C251.71432,1.34283709 246.301404,-0.666847265 240.901345,0.223155806 C234.009842,1.35719198 228.314065,7.17092171 224.906885,13.9607839 C221.499705,20.750646 220.05969,28.5022856 218.645389,36.1103764 L214.788204,56.8244801 C213.605334,63.2554701 212.409607,69.8443638 213.322474,76.3184184 C215.225351,89.7545938 225.871182,100.434631 226.604047,114 C228.025881,106.387215 232.779554,100.082008 239.255613,97.2191356 C240.053316,96.7841206 240.958002,96.6578628 241.82707,96.8602634 C242.881367,97.2478454 243.498516,98.4249463 244.167095,99.4154335 C245.915685,102.013668 251.405745,105.946908 254.452921,104.109482 C257.358667,102.45867 255.275787,97.2909101 258.772968,94.6352558 Z" id="Shape" fill="#3F3D56" fill-rule="nonzero"></path>
                <path d="M525.396978,673.26871 C525.396978,673.26871 497.879569,674.402024 493.809098,709.692547 C489.738627,744.983071 493.809098,908.926202 493.809098,908.926202 C493.809098,908.926202 525.396978,935.10718 564.124233,931.692894 C602.851488,928.278607 665,915.754775 665,915.754775 L665,723.521842 C665,694.830359 643.581876,671.432455 617.926354,673.082216 C617.322846,673.082216 616.642294,673.16829 616.090148,673.240019 L525.396978,673.26871 Z" id="Shape" fill="#3C354C" fill-rule="nonzero"></path>
                <ellipse id="Oval" fill="#3F3D56" fill-rule="nonzero" cx="565.5" cy="938" rx="18.5" ry="21"></ellipse>
                <ellipse id="Oval" fill="#3F3D56" fill-rule="nonzero" cx="665.5" cy="929" rx="18.5" ry="21"></ellipse>
                <path d="M153.754744,307.615987 C153.754744,307.615987 146.644856,357.214646 176.069053,352.710843 C176.069053,352.710843 191.299048,350.451838 193.332271,352.710843 C195.365495,354.969848 270.454102,340.307627 280.607432,327.90441 C280.607432,327.90441 292.781198,323.400607 298.868081,330.163415 C304.954964,336.926223 365.849369,343.68903 347.601507,323.3864 C329.353646,303.083769 300.926879,298.579966 300.926879,298.579966 L262.35957,300.824764 C262.35957,300.824764 242.065698,307.601779 229.891932,300.824764 C217.718166,294.047748 183.178941,296.391999 183.178941,296.391999 L153.754744,307.615987 Z" id="Shape" fill="#A0616A" fill-rule="nonzero"></path>
                <path d="M194.518179,149 C194.518179,149 149,154.732641 149,228.612058 L149,323 C149,323 174.289293,310.48851 179.349702,311.620707 C184.41011,312.752903 204.638995,296.830492 204.638995,296.830492 C204.638995,296.830492 227.901576,235.433902 225.874863,218.379293 C223.848151,201.324685 224.86788,151.264393 194.518179,149 Z" id="Shape" fill="#3F3D56" fill-rule="nonzero"></path>
                <polygon id="Shape" fill="#3F3D56" fill-rule="nonzero" points="404.670115 332 359 367.658747 387.417529 371 427 334.232181"></polygon>
                <path d="M441.052913,387.311674 C441.052913,387.311674 452.213841,426.006202 437.000205,437.356597 C421.786569,448.706992 396.4092,397.544227 396.4092,397.544227 C396.4092,397.544227 369.01187,361.157039 387.281019,353.188833 C405.550167,345.220626 413.00357,379.91672 413.00357,379.91672 L436.961851,403.233756 L441.052913,387.311674 Z" id="Shape" fill="#FBBEBE" fill-rule="nonzero"></path>
                <ellipse id="Oval" fill="#3F3D56" fill-rule="nonzero" cx="371.5" cy="193" rx="40.5" ry="29"></ellipse>
                <ellipse id="Oval" fill="#3F3D56" fill-rule="nonzero" cx="377.5" cy="123" rx="29.5" ry="33"></ellipse>
                <ellipse id="Oval" fill="#3F3D56" fill-rule="nonzero" cx="269" cy="60.5" rx="39" ry="22.5"></ellipse>
                <ellipse id="Oval" fill="#3F3D56" fill-rule="nonzero" cx="232" cy="64" rx="14" ry="38"></ellipse>
                <path d="M26.3484337,965 C30.1796321,957.097428 25.8376072,947.416419 20.8825906,940.36004 C15.9275739,933.30366 9.87428041,926.017804 10.001987,916.996538 C10.1935469,904.088526 22.3895286,896.472799 32.1335433,889.631553 C39.365673,884.554303 46.0359925,878.531512 52.0046926,871.689416 C54.5094529,869.061888 56.5766429,865.953495 58.1090687,862.510386 C60.1268332,857.461919 60.0757506,851.725025 59.948044,846.188922 C59.5223553,827.773492 58.7092898,809.377184 57.5088477,791" id="Shape" stroke="#3F3D56" stroke-width="4"></path>
                <path d="M77.9814834,790.096626 C77.7036599,783.272391 74.3098828,777.077789 68.981525,773.66916 L64.9444008,782.554276 L65.0729716,771.812142 C57.5644025,769.361634 49.4910688,772.582137 45.1002195,779.779397 C40.7093702,786.976657 41.0072179,796.50134 45.8370697,803.342668 C50.6669216,810.183995 58.9219627,812.774198 66.2593507,809.750613 C73.5967387,806.727029 78.3350286,798.782546 77.9814834,790.096626 Z" id="Shape" fill="#57B894" fill-rule="nonzero"></path>
                <path d="M44.9944116,926.168936 C41.0937326,934.569073 32.4323817,938.787628 24.2292821,936.282699 C16.0261825,933.77777 10.5218003,925.233513 11.0328175,915.798296 C11.5438348,906.363079 17.9306802,898.61389 26.3449409,897.220025 C34.7592017,895.826161 42.9027383,901.168319 45.8686383,910.027567 L34.5936861,920.212342 L46.9999904,917.012637 C47.0029689,920.199403 46.3150408,923.34008 44.9944116,926.168936 Z" id="Shape" fill="#57B894" fill-rule="nonzero"></path>
                <path d="M35.8736548,886.976193 C31.0924412,887.235305 26.4152447,885.370872 22.8772506,881.795542 C19.3392565,878.220213 17.2322384,873.22884 17.0225342,867.926143 C16.8802535,864.797309 17.4133002,861.675988 18.5773983,858.821444 C20.7632221,853.410923 24.998079,849.351789 30.1425029,847.736225 L30.0525521,855.986022 L34.126039,847.023807 C38.9072526,846.764695 43.5844491,848.629128 47.1224432,852.204458 C50.6604373,855.779787 52.7674554,860.77116 52.9771596,866.073857 C53.0827304,868.38136 52.821759,870.691481 52.2061526,872.898819 C49.9828035,880.93978 43.4498816,886.570663 35.8736548,886.976193 Z" id="Shape" fill="#57B894" fill-rule="nonzero"></path>
                <path d="M80.6937107,854.98641 C73.0876431,855.296503 66.1252001,850.275476 63.2943351,842.438698 C60.46347,834.60192 62.3739493,825.637427 68.068686,820.036132 C73.7634226,814.434838 82.0157745,813.403257 88.6915867,817.458178 L85.4975879,827.172376 L92.0658918,820.172439 C97.497258,825.623422 99.4160083,834.177283 96.9208173,841.81588 C94.4256262,849.454477 88.0123938,854.659697 80.6937107,854.98641 Z" id="Shape" fill="#57B894" fill-rule="nonzero"></path>
                <path d="M75.9276493,795.61653 C71.7177796,796.136355 67.5991454,797.594753 63.3632084,797.883545 C59.1272714,798.172337 54.4742575,797.046049 51.8023587,793.392834 C50.3556233,791.42905 49.6257388,788.945441 48.4136091,786.808382 C47.257542,784.813283 45.6778658,783.162363 43.8127298,782 C40.7749725,788.97593 41.6019771,797.2615 45.9420911,803.333586 C50.2822052,809.405671 57.3723532,812.196682 64.197718,810.519847 C71.0230828,808.843012 76.383634,802.99315 78,795.457694 C77.3092164,795.486574 76.6184328,795.544332 75.9276493,795.61653 Z" id="Shape" fill="#000000" fill-rule="nonzero" opacity="0.1"></path>
                <path d="M81.1017997,854.98059 C74.7081301,855.290953 68.633112,851.86203 65.0801007,845.937461 C61.5270894,840.012892 61.0120981,832.453117 63.7219095,826 C65.1790809,827.085647 66.4307987,828.478861 67.4061859,830.100753 C68.7080503,832.288788 69.489169,834.810099 71.025369,836.82425 C73.8634335,840.548256 78.7324064,841.765441 83.1327082,841.533596 C87.53301,841.301751 91.8031253,839.925173 96.1513525,839.475974 C96.7632288,839.475974 97.3881237,839.360052 98,839.345562 C96.140522,848.175608 89.2412618,854.559135 81.1017997,854.98059 Z" id="Shape" fill="#000000" fill-rule="nonzero" opacity="0.1"></path>
                <path d="M35.7357846,886.976344 C30.9894972,887.233814 26.3464672,885.381195 22.8343178,881.828521 C19.3221684,878.275847 17.2305419,873.316102 17.0223696,868.047006 C16.8811283,864.937998 17.4102811,861.836456 18.5658756,859 C20.0540365,860.072626 21.351331,861.440491 22.3927498,863.03505 C23.7831807,865.215392 24.6506056,867.72137 26.219624,869.731816 C29.2428546,873.469546 34.3198411,874.786247 38.8993339,874.658824 C43.4788267,874.531402 47.5990946,873.342124 52,872.974014 C49.7910103,880.988439 43.2791761,886.594664 35.7357846,886.976344 Z" id="Shape" fill="#000000" fill-rule="nonzero" opacity="0.1"></path>
                <path d="M44,926.242764 C41.4054417,932.72487 35.9156274,937.166657 29.598517,937.894946 C23.2814066,938.623235 17.0967195,935.527382 13.3741674,929.773564 C9.65161532,924.019747 8.95674248,916.482107 11.5513008,910 C13.0152306,911.077014 14.3313444,912.386349 15.4583373,913.886915 C17.1454667,916.199203 18.2617628,918.809394 20.2152811,920.979825 C23.8559287,924.980226 29.7291686,926.654152 34.9681494,926.781825 C37.9855088,926.795508 41.0010837,926.615525 44,926.242764 Z" id="Shape" fill="#000000" fill-rule="nonzero" opacity="0.1"></path>
                <path d="M0,956.584083 C0,956.584083 14.2434775,956.096749 18.5370889,952.685409 C22.8307003,949.27407 40.3907998,945.203396 41.5091956,950.678739 C42.6275914,956.154082 62.900122,977.912121 46.831217,977.998121 C30.7623119,978.084122 9.47422644,975.203116 5.19347012,972.264778 C0.912713809,969.326439 0,956.584083 0,956.584083 Z" id="Shape" fill="#656380" fill-rule="nonzero"></path>
                <path d="M47.1673785,976.016916 C31.0674084,976.16356 9.7680874,973.157357 5.48248384,970.151153 C2.21358502,967.892834 0.913747306,959.754088 0.476178174,956 L0,956 C0,956 0.900877626,969.095316 5.14787215,972.130848 C9.39486667,975.16638 30.7327967,978.113926 46.8327669,977.996611 C51.4787215,977.996611 53.0745618,976.075574 52.9973438,973.274672 C52.3924688,974.93175 50.6293226,975.987587 47.1673785,976.016916 Z" id="Shape" fill="#000000" fill-rule="nonzero" opacity="0.2"></path>
            </g>
        </g>
    </g>
</svg>