<?xml version="1.0" encoding="UTF-8"?>
<svg width="1900px" height="1160px" viewBox="0 0 1900 1160" version="1.1" xmlns="http://www.w3.org/2000/svg" xmlns:xlink="http://www.w3.org/1999/xlink">
    <!-- Generator: Sketch 49.3 (51167) - http://www.bohemiancoding.com/sketch -->
    <title>Group</title>
    <desc>Created with Sketch.</desc>
    <defs></defs>
    <g id="Page-1" stroke="none" stroke-width="1" fill="none" fill-rule="evenodd">
        <g id="Group">
            <g id="undraw_best_place_r685" transform="translate(550.626118, 718.872987)" fill-rule="nonzero">
                <path d="M122.585825,433.882606 L120.927854,433.509183 C139.414497,351.296795 185.872989,276.640756 251.745038,223.292708 C352.988543,141.426138 489.28203,117.531572 612.336698,160.074858 C735.391366,202.618143 827.823943,305.589419 856.885555,432.505948 L855.229241,432.882685 C816.095886,261.059312 665.505854,141.055456 489.020572,141.055456 C314.847989,141.055456 160.739941,264.206803 122.585825,433.882606 Z" id="Shape" fill="#3F3D56"></path>
                <circle id="Oval" fill="#FF6584" cx="764.446943" cy="186.858338" r="46.1533113"></circle>
                <rect id="Rectangle-path" fill="#3F3D56" x="745.214669" y="371.380866" width="1.69946333" height="67.1288014"></rect>
                <path d="M762.59825,379.935692 C762.706438,403.40896 746.19175,422.514327 746.19175,422.514327 C746.19175,422.514327 729.501661,403.561997 729.393473,380.088729 C729.285285,356.615461 745.799973,337.510094 745.799973,337.510094 C745.799973,337.510094 762.490062,356.46239 762.59825,379.935692 Z" id="Shape" fill="#17A2B8"></path>
                <path d="M762.59825,379.935692 C762.706438,403.40896 746.19175,422.514327 746.19175,422.514327 C746.19175,422.514327 729.501661,403.561997 729.393473,380.088729 C729.285285,356.615461 745.799973,337.510094 745.799973,337.510094 C745.799973,337.510094 762.490062,356.46239 762.59825,379.935692 Z" id="Shape" fill="#000000" opacity="0.1"></path>
                <circle id="Oval" fill="#17A2B8" opacity="0.4" cx="425.733969" cy="211.363953" r="26.5523301"></circle>
                <circle id="Oval" fill="#17A2B8" opacity="0.4" cx="376.592338" cy="224.045663" r="18.6262625"></circle>
                <circle id="Oval" fill="#17A2B8" opacity="0.4" cx="176.905397" cy="277.578758" r="18.6262625"></circle>
                <circle id="Oval" fill="#17A2B8" opacity="0.4" cx="727.635607" cy="209.179582" r="26.5523301"></circle>
                <path d="M48.120797,431.045454 C49.5602424,436.366338 54.4904705,439.661733 54.4904705,439.661733 C54.4904705,439.661733 57.0870125,434.330228 55.6476096,429.009344 C54.2082066,423.688461 49.2779445,420.393065 49.2779445,420.393065 C49.2779445,420.393065 46.6814025,425.724562 48.120797,431.045454 Z" id="Shape" fill="#3F3D56"></path>
                <path d="M50.235898,429.901936 C54.1856292,433.746845 54.6680984,439.657366 54.6680984,439.657366 C54.6680984,439.657366 48.7467433,439.334051 44.7970036,435.489143 C40.8472639,431.644235 40.3648032,425.733722 40.3648032,425.733722 C40.3648032,425.733722 46.2861583,426.057028 50.235898,429.901936 Z" id="Shape" fill="#17A2B8"></path>
                <path d="M568.156575,431.045454 C569.595978,436.366338 574.526249,439.661733 574.526249,439.661733 C574.526249,439.661733 577.122791,434.330228 575.683388,429.009344 C574.243985,423.688461 569.313723,420.393065 569.313723,420.393065 C569.313723,420.393065 566.717181,425.724562 568.156575,431.045454 Z" id="Shape" fill="#3F3D56"></path>
                <path d="M570.271676,429.901936 C574.221407,433.746845 574.703877,439.657366 574.703877,439.657366 C574.703877,439.657366 568.782521,439.334051 564.832782,435.489143 C560.883042,431.644235 560.400581,425.733722 560.400581,425.733722 C560.400581,425.733722 566.321936,426.057028 570.271676,429.901936 Z" id="Shape" fill="#17A2B8"></path>
                <polygon id="Shape" fill="#3F3D56" points="57.8981664 391.049061 54.3828265 385.190161 87.1943649 357.065742 171.567621 357.065742 171.567621 365.268202 141.099642 398.08059 105.943694 405.11127"></polygon>
                <polygon id="Shape" fill="#CCCCCC" points="186.091234 373.570081 186.091234 355.23542 175.044723 355.23542 175.044723 361.016995 171.567621 357.065742 143.443202 385.190161 138.755233 389.877281 132.896333 413.31458 143.443202 439.094589 197.34763 439.094589 197.34763 386.361941"></polygon>
                <rect id="Rectangle-path" fill="#F2F2F2" x="54.3828265" y="385.189915" width="89.0601887" height="53.9048524"></rect>
                <rect id="Rectangle-path" fill="#3F3D56" x="112.389138" y="402.181659" width="18.7495161" height="16.4058287"></rect>
                <rect id="Rectangle-path" fill="#CCCCCC" x="88.3663233" y="401.595735" width="16.4058287" height="37.4990237"></rect>
                <polygon id="Shape" fill="#3F3D56" points="69.6168157 407.45483 69.6168157 401.59593 62.586136 401.59593 62.586136 407.45483 69.0305009 407.45483"></polygon>
                <polygon id="Shape" fill="#3F3D56" points="69.0305009 412.14195 62.586136 412.14195 62.586136 418.001699 69.6168157 418.001699 69.6168157 412.14195"></polygon>
                <rect id="Rectangle-path" fill="#3F3D56" x="74.304182" y="401.595735" width="7.03107066" height="5.85922272"></rect>
                <rect id="Rectangle-path" fill="#3F3D56" x="74.304182" y="412.142341" width="7.03107066" height="5.85922272"></rect>
                <polygon id="Shape" fill="#3F3D56" points="168.637746 408.041145 168.637746 402.181395 161.606216 402.181395 161.606216 408.041145 168.051431 408.041145"></polygon>
                <polygon id="Shape" fill="#3F3D56" points="168.051431 412.728265 161.606216 412.728265 161.606216 418.587165 168.637746 418.587165 168.637746 412.728265"></polygon>
                <rect id="Rectangle-path" fill="#3F3D56" x="173.325053" y="402.181659" width="7.03107066" height="5.85922272"></rect>
                <rect id="Rectangle-path" fill="#3F3D56" x="173.325053" y="412.728265" width="7.03107066" height="5.85922272"></rect>
                <polygon id="Shape" fill="#3F3D56" points="396.9411 391.049061 393.42576 385.190161 426.237299 357.065742 510.610555 357.065742 510.610555 365.268202 480.142576 398.08059 444.986628 405.11127"></polygon>
                <polygon id="Shape" fill="#CCCCCC" points="525.134168 373.570081 525.134168 355.23542 514.087657 355.23542 514.087657 361.016995 510.610555 357.065742 482.486136 385.190161 477.798166 389.877281 471.939267 413.31458 482.486136 439.094589 536.390564 439.094589 536.390564 386.361941"></polygon>
                <rect id="Rectangle-path" fill="#F2F2F2" x="393.42576" y="385.189915" width="89.0601887" height="53.9048524"></rect>
                <rect id="Rectangle-path" fill="#3F3D56" x="451.432072" y="402.181659" width="18.7495161" height="16.4058287"></rect>
                <rect id="Rectangle-path" fill="#CCCCCC" x="427.409257" y="401.595735" width="16.4058287" height="37.4990237"></rect>
                <polygon id="Shape" fill="#3F3D56" points="408.65975 407.45483 408.65975 401.59593 401.62907 401.59593 401.62907 407.45483 408.073435 407.45483"></polygon>
                <polygon id="Shape" fill="#3F3D56" points="408.073435 412.14195 401.62907 412.14195 401.62907 418.001699 408.65975 418.001699 408.65975 412.14195"></polygon>
                <rect id="Rectangle-path" fill="#3F3D56" x="413.347116" y="401.595735" width="7.03107066" height="5.85922272"></rect>
                <rect id="Rectangle-path" fill="#3F3D56" x="413.347116" y="412.142341" width="7.03107066" height="5.85922272"></rect>
                <polygon id="Shape" fill="#3F3D56" points="507.68068 408.041145 507.68068 402.181395 500.64915 402.181395 500.64915 408.041145 507.094365 408.041145"></polygon>
                <polygon id="Shape" fill="#3F3D56" points="507.094365 412.728265 500.64915 412.728265 500.64915 418.587165 507.68068 418.587165 507.68068 412.728265"></polygon>
                <rect id="Rectangle-path" fill="#3F3D56" x="512.367987" y="402.181659" width="7.03107066" height="5.85922272"></rect>
                <rect id="Rectangle-path" fill="#3F3D56" x="512.367987" y="412.728265" width="7.03107066" height="5.85922272"></rect>
                <polygon id="Shape" fill="#3F3D56" points="238.362478 292.614445 232.503578 287.926476 265.315116 258.630277 348.515742 258.630277 348.515742 284.411136 294.611315 320.738864"></polygon>
                <polygon id="Shape" fill="#CCCCCC" points="363.685152 275.064088 363.685152 259.215742 352.63864 259.215742 352.63864 263.097317 348.515742 258.630277 321.563104 287.926476 311.017084 294.958005 294.663998 414.432826 319.32576 439.094589 376.640161 439.094589 376.640161 289.098256"></polygon>
                <rect id="Rectangle-path" fill="#F2F2F2" x="232.503212" y="287.926807" width="89.0601887" height="151.16796"></rect>
                <rect id="Rectangle-path" fill="#CCCCCC" x="267.072625" y="402.181659" width="16.4058287" height="36.9131082"></rect>
                <polygon id="Shape" fill="#3F3D56" points="249.494812 412.728265 249.494812 406.869365 242.464132 406.869365 242.464132 412.728265 248.909347 412.728265"></polygon>
                <polygon id="Shape" fill="#3F3D56" points="248.909347 417.415385 242.464132 417.415385 242.464132 423.275134 249.494812 423.275134 249.494812 417.415385"></polygon>
                <rect id="Rectangle-path" fill="#3F3D56" x="254.182331" y="406.869042" width="7.03107066" height="5.85922272"></rect>
                <rect id="Rectangle-path" fill="#3F3D56" x="254.182331" y="417.41564" width="7.03107066" height="5.85922272"></rect>
                <polygon id="Shape" fill="#3F3D56" points="297.54034 412.728265 297.54034 406.869365 290.50966 406.869365 290.50966 412.728265 296.954875 412.728265"></polygon>
                <polygon id="Shape" fill="#3F3D56" points="296.954875 417.415385 290.50966 417.415385 290.50966 423.275134 297.54034 423.275134 297.54034 417.415385"></polygon>
                <rect id="Rectangle-path" fill="#3F3D56" x="302.227961" y="406.869042" width="7.03107066" height="5.85922272"></rect>
                <rect id="Rectangle-path" fill="#3F3D56" x="302.227961" y="417.41564" width="7.03107066" height="5.85922272"></rect>
                <polygon id="Shape" fill="#3F3D56" points="346.757648 295.54347 346.757648 289.684571 339.726968 289.684571 339.726968 295.54347 346.172182 295.54347"></polygon>
                <polygon id="Shape" fill="#3F3D56" points="346.172182 300.23144 339.726968 300.23144 339.726968 306.09034 346.757648 306.09034 346.757648 300.23144"></polygon>
                <rect id="Rectangle-path" fill="#3F3D56" x="351.445439" y="289.684579" width="7.03107066" height="5.85922272"></rect>
                <rect id="Rectangle-path" fill="#3F3D56" x="351.445439" y="300.231177" width="7.03107066" height="5.85922272"></rect>
                <polygon id="Shape" fill="#3F3D56" points="346.757648 328.355859 346.757648 322.496109 339.726968 322.496109 339.726968 328.355859 346.172182 328.355859"></polygon>
                <polygon id="Shape" fill="#3F3D56" points="346.172182 333.042979 339.726968 333.042979 339.726968 338.901878 346.757648 338.901878 346.757648 333.042979"></polygon>
                <rect id="Rectangle-path" fill="#3F3D56" x="351.445439" y="322.496228" width="7.03107066" height="5.85922272"></rect>
                <rect id="Rectangle-path" fill="#3F3D56" x="351.445439" y="333.042826" width="7.03107066" height="5.85922272"></rect>
                <polygon id="Shape" fill="#3F3D56" points="346.757648 361.167397 346.757648 355.307648 339.726968 355.307648 339.726968 361.167397 346.172182 361.167397"></polygon>
                <polygon id="Shape" fill="#3F3D56" points="346.172182 365.854517 339.726968 365.854517 339.726968 371.713417 346.757648 371.713417 346.757648 365.854517"></polygon>
                <rect id="Rectangle-path" fill="#3F3D56" x="351.445439" y="355.307877" width="7.03107066" height="5.85922272"></rect>
                <rect id="Rectangle-path" fill="#3F3D56" x="351.445439" y="365.854475" width="7.03107066" height="5.85922272"></rect>
                <polygon id="Shape" fill="#3F3D56" points="346.757648 393.978936 346.757648 388.119186 339.726968 388.119186 339.726968 393.978936 346.172182 393.978936"></polygon>
                <polygon id="Shape" fill="#3F3D56" points="346.172182 398.666055 339.726968 398.666055 339.726968 404.524955 346.757648 404.524955 346.757648 398.666055"></polygon>
                <rect id="Rectangle-path" fill="#3F3D56" x="351.445439" y="388.119526" width="7.03107066" height="5.85922272"></rect>
                <rect id="Rectangle-path" fill="#3F3D56" x="351.445439" y="398.666123" width="7.03107066" height="5.85922272"></rect>
                <rect id="Rectangle-path" fill="#3F3D56" x="242.463886" y="295.543802" width="67.9669852" height="14.0621328"></rect>
                <rect id="Rectangle-path" fill="#3F3D56" x="242.463886" y="323.668068" width="67.9669852" height="14.0621328"></rect>
                <rect id="Rectangle-path" fill="#3F3D56" x="242.463886" y="351.792342" width="67.9669852" height="14.0621328"></rect>
                <rect id="Rectangle-path" fill="#3F3D56" x="242.463886" y="379.916616" width="67.9669852" height="14.0621328"></rect>
                <polygon id="Shape" fill="#3F3D56" points="580.804338 292.614445 574.945438 287.926476 607.756977 258.630277 690.957603 258.630277 690.957603 284.411136 637.053175 320.738864"></polygon>
                <polygon id="Shape" fill="#CCCCCC" points="706.127013 275.064088 706.127013 259.215742 695.080501 259.215742 695.080501 263.097317 690.957603 258.630277 664.004964 287.926476 653.458945 294.958005 637.105859 414.432826 661.767621 439.094589 719.082021 439.094589 719.082021 289.098256"></polygon>
                <rect id="Rectangle-path" fill="#F2F2F2" x="574.945073" y="287.926807" width="89.0601887" height="151.16796"></rect>
                <rect id="Rectangle-path" fill="#CCCCCC" x="609.514485" y="402.181659" width="16.4058287" height="36.9131082"></rect>
                <polygon id="Shape" fill="#3F3D56" points="591.936673 412.728265 591.936673 406.869365 584.905993 406.869365 584.905993 412.728265 591.351208 412.728265"></polygon>
                <polygon id="Shape" fill="#3F3D56" points="591.351208 417.415385 584.905993 417.415385 584.905993 423.275134 591.936673 423.275134 591.936673 417.415385"></polygon>
                <rect id="Rectangle-path" fill="#3F3D56" x="596.624192" y="406.869042" width="7.03107066" height="5.85922272"></rect>
                <rect id="Rectangle-path" fill="#3F3D56" x="596.624192" y="417.41564" width="7.03107066" height="5.85922272"></rect>
                <polygon id="Shape" fill="#3F3D56" points="639.9822 412.728265 639.9822 406.869365 632.951521 406.869365 632.951521 412.728265 639.396735 412.728265"></polygon>
                <polygon id="Shape" fill="#3F3D56" points="639.396735 417.415385 632.951521 417.415385 632.951521 423.275134 639.9822 423.275134 639.9822 417.415385"></polygon>
                <rect id="Rectangle-path" fill="#3F3D56" x="644.669822" y="406.869042" width="7.03107066" height="5.85922272"></rect>
                <rect id="Rectangle-path" fill="#3F3D56" x="644.669822" y="417.41564" width="7.03107066" height="5.85922272"></rect>
                <polygon id="Shape" fill="#3F3D56" points="689.199508 295.54347 689.199508 289.684571 682.168828 289.684571 682.168828 295.54347 688.614043 295.54347"></polygon>
                <polygon id="Shape" fill="#3F3D56" points="688.614043 300.23144 682.168828 300.23144 682.168828 306.09034 689.199508 306.09034 689.199508 300.23144"></polygon>
                <rect id="Rectangle-path" fill="#3F3D56" x="693.887299" y="289.684579" width="7.03107066" height="5.85922272"></rect>
                <rect id="Rectangle-path" fill="#3F3D56" x="693.887299" y="300.231177" width="7.03107066" height="5.85922272"></rect>
                <polygon id="Shape" fill="#3F3D56" points="689.199508 328.355859 689.199508 322.496109 682.168828 322.496109 682.168828 328.355859 688.614043 328.355859"></polygon>
                <polygon id="Shape" fill="#3F3D56" points="688.614043 333.042979 682.168828 333.042979 682.168828 338.901878 689.199508 338.901878 689.199508 333.042979"></polygon>
                <rect id="Rectangle-path" fill="#3F3D56" x="693.887299" y="322.496228" width="7.03107066" height="5.85922272"></rect>
                <rect id="Rectangle-path" fill="#3F3D56" x="693.887299" y="333.042826" width="7.03107066" height="5.85922272"></rect>
                <polygon id="Shape" fill="#3F3D56" points="689.199508 361.167397 689.199508 355.307648 682.168828 355.307648 682.168828 361.167397 688.614043 361.167397"></polygon>
                <polygon id="Shape" fill="#3F3D56" points="688.614043 365.854517 682.168828 365.854517 682.168828 371.713417 689.199508 371.713417 689.199508 365.854517"></polygon>
                <rect id="Rectangle-path" fill="#3F3D56" x="693.887299" y="355.307877" width="7.03107066" height="5.85922272"></rect>
                <rect id="Rectangle-path" fill="#3F3D56" x="693.887299" y="365.854475" width="7.03107066" height="5.85922272"></rect>
                <polygon id="Shape" fill="#3F3D56" points="689.199508 393.978936 689.199508 388.119186 682.168828 388.119186 682.168828 393.978936 688.614043 393.978936"></polygon>
                <polygon id="Shape" fill="#3F3D56" points="688.614043 398.666055 682.168828 398.666055 682.168828 404.524955 689.199508 404.524955 689.199508 398.666055"></polygon>
                <rect id="Rectangle-path" fill="#3F3D56" x="693.887299" y="388.119526" width="7.03107066" height="5.85922272"></rect>
                <rect id="Rectangle-path" fill="#3F3D56" x="693.887299" y="398.666123" width="7.03107066" height="5.85922272"></rect>
                <rect id="Rectangle-path" fill="#3F3D56" x="584.905746" y="295.543802" width="67.9669852" height="14.0621328"></rect>
                <rect id="Rectangle-path" fill="#3F3D56" x="584.905746" y="323.668068" width="67.9669852" height="14.0621328"></rect>
                <rect id="Rectangle-path" fill="#3F3D56" x="584.905746" y="351.792342" width="67.9669852" height="14.0621328"></rect>
                <rect id="Rectangle-path" fill="#3F3D56" x="584.905746" y="379.916616" width="67.9669852" height="14.0621328"></rect>
                <polygon id="Shape" fill="#3F3D56" points="768.595036 292.614445 762.736136 287.926476 795.547674 258.630277 878.748301 258.630277 878.748301 284.411136 824.843873 320.738864"></polygon>
                <polygon id="Shape" fill="#CCCCCC" points="893.91771 275.064088 893.91771 259.215742 882.871199 259.215742 882.871199 263.097317 878.748301 258.630277 851.795662 287.926476 841.249642 294.958005 824.896556 414.432826 849.558318 439.094589 906.872719 439.094589 906.872719 289.098256"></polygon>
                <rect id="Rectangle-path" fill="#F2F2F2" x="762.735771" y="287.926807" width="89.0601887" height="151.16796"></rect>
                <rect id="Rectangle-path" fill="#CCCCCC" x="797.305183" y="402.181659" width="16.4058287" height="36.9131082"></rect>
                <polygon id="Shape" fill="#3F3D56" points="779.72737 412.728265 779.72737 406.869365 772.696691 406.869365 772.696691 412.728265 779.141905 412.728265"></polygon>
                <polygon id="Shape" fill="#3F3D56" points="779.141905 417.415385 772.696691 417.415385 772.696691 423.275134 779.72737 423.275134 779.72737 417.415385"></polygon>
                <rect id="Rectangle-path" fill="#3F3D56" x="784.41489" y="406.869042" width="7.03107066" height="5.85922272"></rect>
                <rect id="Rectangle-path" fill="#3F3D56" x="784.41489" y="417.41564" width="7.03107066" height="5.85922272"></rect>
                <polygon id="Shape" fill="#3F3D56" points="827.772898 412.728265 827.772898 406.869365 820.742218 406.869365 820.742218 412.728265 827.187433 412.728265"></polygon>
                <polygon id="Shape" fill="#3F3D56" points="827.187433 417.415385 820.742218 417.415385 820.742218 423.275134 827.772898 423.275134 827.772898 417.415385"></polygon>
                <rect id="Rectangle-path" fill="#3F3D56" x="832.460519" y="406.869042" width="7.03107066" height="5.85922272"></rect>
                <rect id="Rectangle-path" fill="#3F3D56" x="832.460519" y="417.41564" width="7.03107066" height="5.85922272"></rect>
                <polygon id="Shape" fill="#3F3D56" points="876.990206 295.54347 876.990206 289.684571 869.959526 289.684571 869.959526 295.54347 876.404741 295.54347"></polygon>
                <polygon id="Shape" fill="#3F3D56" points="876.404741 300.23144 869.959526 300.23144 869.959526 306.09034 876.990206 306.09034 876.990206 300.23144"></polygon>
                <rect id="Rectangle-path" fill="#3F3D56" x="881.677997" y="289.684579" width="7.03107066" height="5.85922272"></rect>
                <rect id="Rectangle-path" fill="#3F3D56" x="881.677997" y="300.231177" width="7.03107066" height="5.85922272"></rect>
                <polygon id="Shape" fill="#3F3D56" points="876.990206 328.355859 876.990206 322.496109 869.959526 322.496109 869.959526 328.355859 876.404741 328.355859"></polygon>
                <polygon id="Shape" fill="#3F3D56" points="876.404741 333.042979 869.959526 333.042979 869.959526 338.901878 876.990206 338.901878 876.990206 333.042979"></polygon>
                <rect id="Rectangle-path" fill="#3F3D56" x="881.677997" y="322.496228" width="7.03107066" height="5.85922272"></rect>
                <rect id="Rectangle-path" fill="#3F3D56" x="881.677997" y="333.042826" width="7.03107066" height="5.85922272"></rect>
                <polygon id="Shape" fill="#3F3D56" points="876.990206 361.167397 876.990206 355.307648 869.959526 355.307648 869.959526 361.167397 876.404741 361.167397"></polygon>
                <polygon id="Shape" fill="#3F3D56" points="876.404741 365.854517 869.959526 365.854517 869.959526 371.713417 876.990206 371.713417 876.990206 365.854517"></polygon>
                <rect id="Rectangle-path" fill="#3F3D56" x="881.677997" y="355.307877" width="7.03107066" height="5.85922272"></rect>
                <rect id="Rectangle-path" fill="#3F3D56" x="881.677997" y="365.854475" width="7.03107066" height="5.85922272"></rect>
                <polygon id="Shape" fill="#3F3D56" points="876.990206 393.978936 876.990206 388.119186 869.959526 388.119186 869.959526 393.978936 876.404741 393.978936"></polygon>
                <polygon id="Shape" fill="#3F3D56" points="876.404741 398.666055 869.959526 398.666055 869.959526 404.524955 876.990206 404.524955 876.990206 398.666055"></polygon>
                <rect id="Rectangle-path" fill="#3F3D56" x="881.677997" y="388.119526" width="7.03107066" height="5.85922272"></rect>
                <rect id="Rectangle-path" fill="#3F3D56" x="881.677997" y="398.666123" width="7.03107066" height="5.85922272"></rect>
                <rect id="Rectangle-path" fill="#3F3D56" x="772.696444" y="295.543802" width="67.9669852" height="14.0621328"></rect>
                <rect id="Rectangle-path" fill="#3F3D56" x="772.696444" y="323.668068" width="67.9669852" height="14.0621328"></rect>
                <rect id="Rectangle-path" fill="#3F3D56" x="772.696444" y="351.792342" width="67.9669852" height="14.0621328"></rect>
                <rect id="Rectangle-path" fill="#3F3D56" x="772.696444" y="379.916616" width="67.9669852" height="14.0621328"></rect>
                <rect id="Rectangle-path" fill="#3F3D56" x="0" y="438.509667" width="966.144902" height="1.69946333"></rect>
                <rect id="Rectangle-path" fill="#3F3D56" x="214.132379" y="371.380866" width="1.69946333" height="67.1288014"></rect>
                <path d="M231.51596,379.935692 C231.624148,403.40896 215.10946,422.514327 215.10946,422.514327 C215.10946,422.514327 198.419371,403.561997 198.311183,380.088729 C198.202995,356.615461 214.717683,337.510094 214.717683,337.510094 C214.717683,337.510094 231.407772,356.46239 231.51596,379.935692 Z" id="Shape" fill="#17A2B8"></path>
                <rect id="Rectangle-path" fill="#3F3D56" x="384.078712" y="371.380866" width="1.69946333" height="67.1288014"></rect>
                <path d="M401.462293,379.935692 C401.570481,403.40896 385.055793,422.514327 385.055793,422.514327 C385.055793,422.514327 368.365703,403.561997 368.257516,380.088729 C368.149328,356.615461 384.664016,337.510094 384.664016,337.510094 C384.664016,337.510094 401.354105,356.46239 401.462293,379.935692 Z" id="Shape" fill="#17A2B8"></path>
                <rect id="Rectangle-path" fill="#3F3D56" x="723.121646" y="371.380866" width="1.69946333" height="67.1288014"></rect>
                <path d="M740.505227,379.935692 C740.613415,403.40896 724.098727,422.514327 724.098727,422.514327 C724.098727,422.514327 707.408637,403.561997 707.300449,380.088729 C707.192262,356.615461 723.706949,337.510094 723.706949,337.510094 C723.706949,337.510094 740.397039,356.46239 740.505227,379.935692 Z" id="Shape" fill="#17A2B8"></path>
                <ellipse id="Oval" fill="#17A2B8" cx="499.217352" cy="138.931127" rx="32.2898032" ry="7.26520572"></ellipse>
                <path d="M535.755814,37.3881932 C535.755814,58.037123 498.367621,116.413238 498.367621,116.413238 C498.367621,116.413238 460.979428,58.037123 460.979428,37.3881932 C460.979428,16.7392643 477.718692,0 498.367621,0 C519.01655,0 535.755814,16.7392643 535.755814,37.3881932 Z" id="Shape" fill="#17A2B8"></path>
                <circle id="Oval" fill="#F2F2F2" cx="498.367621" cy="37.3881932" r="21.2432916"></circle>
            </g>
            <g id="undraw_aircraft_fbvl-(1)" transform="translate(416.368515, 0.000000)" fill-rule="nonzero">
                <path d="M1198.99288,554.446576 C1185.36642,559.479775 1161.43296,563.618182 1133.73374,566.945686 C1058.41865,576.005443 955.209078,579.221098 955.209078,579.221098 C955.209078,579.221098 424.642141,623.331491 26.992396,459.277179 C26.992396,459.277179 -30.8468061,428.882252 22.8082242,387.973532 C31.0703442,381.860701 39.853904,376.489813 49.0569289,371.923221 L49.7124491,371.266109 C55.8154549,365.611925 62.4109,360.516468 69.4198985,356.040683 C90.0199712,342.688726 124.804387,326.862112 167.148206,334.03442 L1211.54539,503.35961 C1211.54539,503.35961 1249.69109,535.669949 1198.99288,554.446576 Z" id="Shape" fill="#3F3D56"></path>
                <path d="M990.78712,475.810314 L1209.59899,321.198569 L1306.03757,337.810782 L1211.609,501.319445 C1211.609,501.319445 993.299632,503.057124 990.78712,475.810314 Z" id="Shape" fill="#3F3D56"></path>
                <polygon id="Shape" fill="#3F3D56" points="441.010733 382.537423 876.419701 260.017889 946.601073 274.736463 749.917535 363.509609 688.451314 432.513417"></polygon>
                <path d="M1133.54204,566.127749 C1058.23968,575.171205 955.047561,578.381073 955.047561,578.381073 C955.047561,578.381073 424.570338,622.412094 26.9878319,458.652981 C26.9878319,458.652981 -30.8415902,428.312747 22.8043675,387.477639 L22.985651,388.23126 C22.985651,388.23126 108.77456,446.260098 518.670396,494.701199 L1133.54204,566.127749 Z" id="Shape" fill="#17A2B8"></path>
                <path d="M1063.95452,562.43883 L1258.79072,642.397138 L1307.73703,636.940334 L1191.19819,548.902029 C1191.19819,548.902029 1050.23504,518.672177 1063.95452,562.43883 Z" id="Shape" fill="#3F3D56"></path>
                <path d="M94.231772,397.67328 C84.8815637,397.828689 63.457513,382.047525 50.1341682,371.423143 C56.2774802,365.709485 62.9164839,360.560431 69.9717722,356.037567 C80.7118762,364.330802 99.819434,377.752562 110.447223,377.22982 C125.792235,376.594052 108.313242,397.418972 94.231772,397.67328 Z" id="Shape" fill="#17A2B8"></path>
                <path d="M978.041145,838.080589 L852.998025,844.633274 L501.43196,607.227677 L436.169022,563.147247 L404.472272,541.728769 C463.945531,491.430973 706.595871,560.800017 706.595871,560.800017 C711.241565,564.726039 712.720375,571.250781 712.511109,578.460132 C712.106529,591.956707 705.77276,607.800513 703.331329,613.50093 C702.745385,614.898091 702.382658,615.638586 702.382658,615.638586 L978.041145,838.080589 Z" id="Shape" fill="#3F3D56"></path>
                <path d="M566.257416,714.841975 L544.566099,728.627959 L557.706434,704.628579 C553.985586,701.646889 549.381586,699.995443 544.621896,699.935179 L544.273161,699.935179 C542.768742,699.964725 541.264889,699.852148 539.781454,699.598936 L532.44407,704.278325 L535.582685,698.534165 C530.384575,696.70171 525.893935,693.270039 522.749237,688.727062 L509.622851,697.13315 L517.908795,681.974172 C510.236625,672.713465 499.88617,667.039356 488.48951,667.039356 C474.833047,667.039356 462.66917,675.193261 454.815657,687.914474 C450.07466,695.669624 441.552305,700.270338 432.496617,699.9632 L431.771248,699.9632 C416.691947,699.9632 404.472272,717.125629 404.472272,738.30897 C404.472272,759.492311 416.691947,776.654741 431.771248,776.654741 C435.084656,776.644171 438.345461,775.821813 441.27079,774.259006 C451.661225,769.196388 463.738635,768.960854 474.316919,773.614539 C483.256713,777.621442 493.471216,777.621442 502.411011,773.614539 C512.89928,769.049049 524.843942,769.279066 535.150253,774.244995 C538.05779,775.768933 541.286483,776.571214 544.566099,776.58469 C559.6454,776.58469 571.865075,759.422261 571.865075,738.238919 C571.973526,730.09165 570.045473,722.047199 566.257416,714.841975 Z" id="Shape" fill="#F2F2F2"></path>
                <path d="M525.9839,770.220772 C518.066084,768.725454 509.881679,769.612033 502.469591,772.767968 C493.490531,776.78077 483.223068,776.78077 474.244007,772.767968 C463.613598,768.105798 451.467788,768.3412 441.026716,773.411765 C438.079408,774.968305 434.798352,775.789445 431.46395,775.805009 C418.003165,775.805009 406.799866,762.257287 404.472272,744.398927 C407.16563,742.446638 409.451752,739.988871 411.202664,737.163212 C419.096854,724.46922 431.323734,716.323792 445.05093,716.323792 C458.778126,716.323792 470.878811,724.301273 478.758979,736.897296 C483.542279,744.619452 492.028301,749.276758 501.123513,749.17142 L501.474054,749.17142 C512.186595,749.143428 521.468928,757.708724 525.9839,770.220772 Z" id="Shape" fill="#000000" opacity="0.03"></path>
                <path d="M1179.76368,696.147879 L1158.07236,709.933863 L1171.21269,685.934482 C1167.49185,682.952793 1162.88785,681.301347 1158.12816,681.241083 L1157.77942,681.241083 C1156.275,681.270628 1154.77115,681.158052 1153.28772,680.904839 L1145.95033,685.584228 L1149.08895,679.840068 C1143.89084,678.007613 1139.4002,674.575943 1136.2555,670.032966 L1123.12911,678.439054 L1131.41506,663.280075 C1123.74289,654.019369 1113.39243,648.345259 1101.99577,648.345259 C1088.33931,648.345259 1076.17543,656.499165 1068.32192,669.220377 C1063.58092,676.975527 1055.05857,681.576241 1046.00288,681.269103 L1045.27751,681.269103 C1030.19821,681.269103 1017.97853,698.431532 1017.97853,719.614874 C1017.97853,740.798215 1030.19821,757.960644 1045.27751,757.960644 C1048.59092,757.950075 1051.85172,757.127717 1054.77705,755.564909 C1065.16749,750.502292 1077.2449,750.266758 1087.82318,754.920442 C1096.76297,758.927345 1106.97748,758.927345 1115.91727,754.920442 C1126.40554,750.354952 1138.3502,750.584969 1148.65651,755.550899 C1151.56405,757.074836 1154.79274,757.877117 1158.07236,757.890593 C1173.15166,757.890593 1185.37134,740.728164 1185.37134,719.544823 C1185.47979,711.397553 1183.55173,703.353102 1179.76368,696.147879 Z" id="Shape" fill="#F2F2F2"></path>
                <path d="M1139.49016,752.376407 C1131.57235,750.881089 1123.38794,751.767668 1115.97585,754.923603 C1106.99679,758.936405 1096.72933,758.936405 1087.75027,754.923603 C1077.11986,750.261433 1064.97405,750.496835 1054.53298,755.5674 C1051.58567,757.12394 1048.30461,757.94508 1044.97021,757.960644 C1031.50943,757.960644 1020.30613,744.412922 1017.97853,726.554562 C1020.67189,724.602273 1022.95801,722.144506 1024.70893,719.318847 C1032.60312,706.624855 1044.82999,698.479428 1058.55719,698.479428 C1072.28439,698.479428 1084.38507,706.456908 1092.26524,719.052931 C1097.06146,726.796652 1105.57982,731.457095 1114.69988,731.327055 L1115.05042,731.327055 C1125.69286,731.299063 1134.97519,739.864359 1139.49016,752.376407 Z" id="Shape" fill="#000000" opacity="0.03"></path>
                <path d="M1179.76275,238.992192 L1158.07156,252.778161 L1171.21182,228.778806 C1167.49099,225.79712 1162.88702,224.145676 1158.12736,224.085413 L1157.77862,224.085413 C1156.27421,224.114958 1154.77037,224.002381 1153.28694,223.749169 L1145.9496,228.428553 L1149.0882,222.684399 C1143.89012,220.851946 1139.3995,217.42028 1136.25482,212.877308 L1123.12851,221.283386 L1131.41441,206.124424 C1123.74228,196.863727 1113.39189,191.189624 1101.99529,191.189624 C1088.33891,191.189624 1076.1751,199.343521 1068.32163,212.06472 C1063.58066,219.819862 1055.05835,224.42057 1046.00272,224.113433 L1045.27735,224.113433 C1030.19814,224.113433 1017.97853,241.275844 1017.97853,262.459162 C1017.97853,283.64248 1030.19814,300.804891 1045.27735,300.804891 C1048.59074,300.794322 1051.85153,299.971965 1054.77684,298.409159 C1065.16722,293.346547 1077.24456,293.111013 1087.82278,297.764693 C1096.75262,301.793896 1106.96707,301.819365 1115.91671,297.834743 C1126.40492,293.269258 1138.34952,293.499275 1148.65577,298.465199 C1151.56329,299.989135 1154.79196,300.791415 1158.07156,300.804891 C1173.15078,300.804891 1185.37038,283.64248 1185.37038,262.459162 C1185.49054,254.288262 1183.56216,246.218295 1179.76275,238.992192 Z" id="Shape" fill="#F2F2F2"></path>
                <path d="M1139.49016,295.220772 C1131.57235,293.725454 1123.38794,294.612033 1115.97585,297.767968 C1106.99679,301.78077 1096.72933,301.78077 1087.75027,297.767968 C1077.11986,293.105798 1064.97405,293.3412 1054.53298,298.411765 C1051.58567,299.968305 1048.30461,300.789445 1044.97021,300.805009 C1031.50943,300.805009 1020.30613,287.257287 1017.97853,269.398927 C1020.67189,267.446638 1022.95801,264.988871 1024.70893,262.163212 C1032.60312,249.46922 1044.82999,241.323792 1058.55719,241.323792 C1072.28439,241.323792 1084.38507,249.301273 1092.26524,261.897296 C1097.06146,269.641017 1105.57982,274.30146 1114.69988,274.17142 L1115.05042,274.17142 C1125.69286,274.143428 1134.97519,282.708724 1139.49016,295.220772 Z" id="Shape" fill="#000000" opacity="0.03"></path>
                <path d="M284.352091,189.342987 L273.451896,196.184383 L280.062337,184.285092 C278.194169,182.797609 275.876616,181.973426 273.480026,181.944248 L273.311249,181.944248 C272.553026,181.952 271.795505,181.896065 271.046821,181.777045 L267.361852,184.090022 L268.937106,181.303302 C266.322274,180.395757 264.063132,178.694041 262.481378,176.440477 L255.885002,180.620556 L260.104433,173.110348 C256.551209,168.557699 251.11562,165.834539 245.308298,165.697674 C238.444692,165.697674 232.326518,169.738417 228.430578,176.050336 C226.043255,179.907996 221.743278,182.192354 217.178764,182.027849 L216.81308,182.027849 C209.232171,182.027849 203.085868,190.55521 203.085868,201.061142 C203.085868,211.567074 209.232171,220.080501 216.81308,220.080501 C218.480375,220.075144 220.121413,219.668711 221.595101,218.896145 C226.820297,216.376216 232.89946,216.259027 238.219655,218.575672 C242.696735,220.547134 247.807342,220.547134 252.284422,218.575672 C257.560857,216.308022 263.571782,216.424984 268.754264,218.896145 C270.215474,219.645296 271.834774,220.041571 273.480026,220.052634 C281.060935,220.052634 287.207238,211.539206 287.207238,201.033275 C287.260594,196.960923 286.278734,192.940737 284.352091,189.342987 Z" id="Shape" fill="#F2F2F2"></path>
                <path d="M263.416816,217.316869 C259.484623,216.559685 255.416987,217.004334 251.738508,218.59347 C249.540512,219.5693 247.16495,220.075663 244.762219,220.080501 C242.332172,220.079787 239.930165,219.558509 237.716167,218.551385 C232.435235,216.229082 226.407041,216.352149 221.224219,218.888071 C219.767267,219.66581 218.143847,220.07508 216.494295,220.080501 C209.81101,220.080501 204.243932,213.304693 203.085868,204.38251 C204.419007,203.399069 205.555172,202.171038 206.434486,200.763134 C210.341208,194.408183 216.41058,190.339893 223.17758,190.339893 C229.944581,190.339893 235.986047,194.366098 239.920674,200.636877 C242.306147,204.516124 246.547279,206.845463 251.082737,206.76737 L251.26412,206.76737 C256.524242,206.76737 261.170451,211.060118 263.416816,217.316869 Z" id="Shape" fill="#000000" opacity="0.03"></path>
                <path d="M1247.09807,871.677513 L1236.19787,878.518909 L1242.80831,866.619618 C1240.94014,865.132135 1238.62259,864.307952 1236.226,864.278774 L1236.05722,864.278774 C1235.299,864.286526 1234.54148,864.230591 1233.7928,864.111571 L1230.10783,866.424548 L1231.68308,863.637828 C1229.06825,862.730283 1226.80911,861.028567 1225.22735,858.775003 L1218.63098,862.955082 L1222.85041,855.444874 C1219.29718,850.892225 1213.8616,848.169065 1208.05427,848.0322 C1201.19067,848.0322 1195.07249,852.072943 1191.17655,858.384862 C1188.78923,862.242522 1184.48925,864.52688 1179.92474,864.362375 L1179.55906,864.362375 C1171.97815,864.362375 1165.83184,872.889736 1165.83184,883.395668 C1165.83184,893.901599 1171.97815,902.415027 1179.55906,902.415027 C1181.22635,902.40967 1182.86739,902.003236 1184.34108,901.230671 C1189.56627,898.710742 1195.64544,898.593553 1200.96563,900.910198 C1205.44271,902.88166 1210.55332,902.88166 1215.0304,900.910198 C1220.30683,898.642548 1226.31776,898.75951 1231.50024,901.230671 C1232.96145,901.979822 1234.58075,902.376097 1236.226,902.38716 C1243.80691,902.38716 1249.95321,893.873732 1249.95321,883.367801 C1250.00657,879.295449 1249.02471,875.275263 1247.09807,871.677513 Z" id="Shape" fill="#F2F2F2"></path>
                <path d="M1226.16279,899.651395 C1222.2306,898.89421 1218.16296,899.33886 1214.48448,900.927996 C1212.28649,901.903826 1209.91092,902.410188 1207.50819,902.415027 C1205.07815,902.414313 1202.67614,901.893035 1200.46214,900.885911 C1195.18121,898.563608 1189.15302,898.686675 1183.97019,901.222597 C1182.51324,902.000336 1180.88982,902.409606 1179.24027,902.415027 C1172.55699,902.415027 1166.98991,895.639218 1165.83184,886.717036 C1167.16498,885.733595 1168.30115,884.505564 1169.18046,883.09766 C1173.08718,876.742709 1179.15655,872.674419 1185.92356,872.674419 C1192.69056,872.674419 1198.73202,876.700624 1202.66665,882.971403 C1205.05212,886.85065 1209.29325,889.179989 1213.82871,889.101896 L1214.0101,889.101896 C1219.27022,889.101896 1223.91643,893.394644 1226.16279,899.651395 Z" id="Shape" fill="#000000" opacity="0.03"></path>
                <path d="M242.715239,907.366243 L231.815045,914.207639 L238.425485,902.308348 C236.557317,900.820865 234.239764,899.996682 231.843174,899.967504 L231.674397,899.967504 C230.916175,899.975256 230.158654,899.919321 229.40997,899.8003 L225.725001,902.113277 L227.300255,899.326558 C224.685423,898.419013 222.426281,896.717297 220.844527,894.463733 L214.248151,898.643812 L218.467581,891.133603 C214.914357,886.580955 209.478769,883.857795 203.671446,883.72093 C196.80784,883.72093 190.689666,887.761673 186.793726,894.073592 C184.406403,897.931252 180.106426,900.21561 175.541913,900.051105 L175.176229,900.051105 C167.595319,900.051105 161.449016,908.578466 161.449016,919.084398 C161.449016,929.590329 167.595319,938.103757 175.176229,938.103757 C176.843524,938.0984 178.484562,937.691966 179.958249,936.919401 C185.183446,934.399472 191.262609,934.282283 196.582804,936.598928 C201.059884,938.57039 206.170491,938.57039 210.647571,936.598928 C215.924005,934.331278 221.934931,934.448239 227.117413,936.919401 C228.578622,937.668552 230.197923,938.064827 231.843174,938.07589 C239.424084,938.07589 245.570387,929.562462 245.570387,919.056531 C245.623742,914.984179 244.641883,910.963993 242.715239,907.366243 Z" id="Shape" fill="#F2F2F2"></path>
                <path d="M221.779964,936.189856 C217.847771,935.432672 213.780135,935.877321 210.101656,937.466458 C207.90366,938.442287 205.528098,938.94865 203.125367,938.953488 C200.695321,938.952774 198.293313,938.431497 196.079315,937.424372 C190.798384,935.10207 184.770189,935.225136 179.587368,937.761058 C178.130416,938.538797 176.506996,938.948067 174.857444,938.953488 C168.174159,938.953488 162.60708,932.17768 161.449016,923.255498 C162.782156,922.272056 163.91832,921.044025 164.797635,919.636122 C168.704357,913.281171 174.773728,909.21288 181.540729,909.21288 C188.307729,909.21288 194.349195,913.239085 198.283823,919.509864 C200.669296,923.389111 204.910428,925.718451 209.445885,925.640358 L209.627269,925.640358 C214.887391,925.640358 219.533599,929.933106 221.779964,936.189856 Z" id="Shape" fill="#000000" opacity="0.03"></path>
                <path d="M741.301215,47.8025679 L719.610021,61.588537 L732.750281,37.5891822 C729.029454,34.6074962 724.425481,32.956052 719.665818,32.8957882 L719.317085,32.8957882 C717.812675,32.9253333 716.308831,32.8127569 714.825404,32.559545 L707.488062,37.2389289 L710.626659,31.4947751 C705.428578,29.6623218 700.937964,26.2306553 697.793284,21.6876832 L684.666973,30.0937619 L692.95287,14.9347999 C685.280743,5.67410316 674.930347,0 663.533752,0 C649.877368,0 637.71356,8.15389639 629.860093,20.8750956 C625.119122,28.6302372 616.596816,33.2309462 607.54118,32.9238085 L606.815815,32.9238085 C591.736599,32.9238085 579.516995,50.0862192 579.516995,71.2695377 C579.516995,92.4528562 591.736599,109.615267 606.815815,109.615267 C610.129204,109.604698 613.38999,108.782341 616.315302,107.219535 C626.705678,102.156923 638.78302,101.921389 649.361243,106.575068 C658.291079,110.604271 668.505529,110.62974 677.455174,106.645119 C687.943383,102.079634 699.887977,102.309651 710.19423,107.275575 C713.10175,108.799511 716.330424,109.601791 719.610021,109.615267 C734.689237,109.615267 746.908841,92.4528562 746.908841,71.2695377 C747.029005,63.0986381 745.100619,55.0286702 741.301215,47.8025679 Z" id="Shape" fill="#F2F2F2"></path>
                <path d="M701.028623,104.031148 C693.110807,102.53583 684.926402,103.422409 677.514314,106.578344 C668.535253,110.591146 658.267791,110.591146 649.28873,106.578344 C638.658321,101.916173 626.512511,102.151576 616.071439,107.22214 C613.12413,108.778681 609.843075,109.599821 606.508673,109.615385 C593.047888,109.615385 581.844589,96.0676628 579.516995,78.2093023 C582.210352,76.2570132 584.496475,73.799247 586.247387,70.9735873 C594.141577,58.2795959 606.368456,50.1341682 620.095653,50.1341682 C633.822849,50.1341682 645.923534,58.111649 653.803702,70.7076713 C658.599922,78.4513923 667.118279,83.1118354 676.238344,82.9817952 L676.588885,82.9817952 C687.231318,82.9538041 696.513651,91.5190992 701.028623,104.031148 Z" id="Shape" fill="#000000" opacity="0.03"></path>
                <path d="M1480.77427,287.062129 L1469.87408,293.903525 L1476.48452,282.004233 C1474.61635,280.516751 1472.2988,279.692567 1469.90221,279.663389 L1469.73343,279.663389 C1468.97521,279.671141 1468.21769,279.615207 1467.469,279.496186 L1463.78403,281.809163 L1465.35929,279.022444 C1462.74446,278.114898 1460.48531,276.413183 1458.90356,274.159619 L1452.30718,278.339697 L1456.52661,270.829489 C1452.97339,266.276841 1447.5378,263.553681 1441.73048,263.416816 C1434.86687,263.416816 1428.7487,267.457559 1424.85276,273.769478 C1422.46544,277.627138 1418.16546,279.911496 1413.60095,279.746991 L1413.23526,279.746991 C1405.65435,279.746991 1399.50805,288.274352 1399.50805,298.780283 C1399.50805,309.286215 1405.65435,317.799642 1413.23526,317.799642 C1414.90256,317.794285 1416.5436,317.387852 1418.01728,316.615287 C1423.24248,314.095357 1429.32164,313.978169 1434.64184,316.294814 C1439.11892,318.266275 1444.22952,318.266275 1448.7066,316.294814 C1453.98304,314.027163 1459.99396,314.144125 1465.17645,316.615287 C1466.63766,317.364437 1468.25696,317.760713 1469.90221,317.771775 C1477.48312,317.771775 1483.62942,309.258348 1483.62942,298.752416 C1483.68278,294.680064 1482.70092,290.659878 1480.77427,287.062129 Z" id="Shape" fill="#F2F2F2"></path>
                <path d="M1459.839,315.03601 C1455.90225,314.278826 1451.82991,314.723475 1448.14717,316.312612 C1445.94663,317.288441 1443.56832,317.794804 1441.16281,317.799642 C1438.7535,317.789015 1436.37354,317.267961 1434.17844,316.270526 C1428.89139,313.948224 1422.85622,314.07129 1417.6674,316.607212 C1416.20876,317.384951 1414.58346,317.794221 1412.932,317.799642 C1406.24098,317.799642 1400.66745,311.023834 1399.50805,302.101651 C1400.84273,301.11821 1401.98021,299.890179 1402.86055,298.482275 C1406.77179,292.127325 1412.84819,288.059034 1419.62302,288.059034 C1426.39786,288.059034 1432.44632,292.085239 1436.3855,298.356018 C1438.76088,302.213606 1442.97468,304.539794 1447.49064,304.486511 L1447.67223,304.486511 C1452.93845,304.486511 1457.59003,308.77926 1459.839,315.03601 Z" id="Shape" fill="#000000" opacity="0.03"></path>
            </g>
            <g id="undraw_travelers_qlt1" transform="translate(0.000000, 574.418605)">
                <ellipse id="Oval" fill="#3F3D56" fill-rule="nonzero" cx="178.069767" cy="32.6042039" rx="33.7173524" ry="26.299195"></ellipse>
                <circle id="Oval" fill="#3F3D56" fill-rule="nonzero" cx="245.504472" cy="121.613596" r="48.5536673"></circle>
                <circle id="Oval" fill="#3F3D56" fill-rule="nonzero" cx="399.586315" cy="552.189624" r="12.1341682"></circle>
                <circle id="Oval" fill="#3F3D56" fill-rule="nonzero" cx="336.20483" cy="552.189624" r="12.1341682"></circle>
                <rect id="Rectangle-path" fill="#3F3D56" fill-rule="nonzero" x="349.690072" y="259.525045" width="5.39579606" height="149.034436"></rect>
                <rect id="Rectangle-path" fill="#3F3D56" fill-rule="nonzero" x="378.682916" y="259.525045" width="5.39579606" height="149.034436"></rect>
                <path d="M351.007156,263.569767 L349.656082,259.525045 C349.656082,259.525045 364.492397,241.995081 385.395796,256.126118 L384.044723,262.201699 L378.648927,262.201699 C378.648927,262.201699 369.888193,254.851521 355.051878,263.246869 L351.007156,263.569767 Z" id="Shape" fill="#3F3D56" fill-rule="nonzero"></path>
                <rect id="Rectangle-path" fill="#FBBEBE" fill-rule="nonzero" x="211.78712" y="238.281753" width="48.5536673" height="62.0389088"></rect>
                <rect id="Rectangle-path" fill="#FBBEBE" fill-rule="nonzero" x="279.221825" y="220.743292" width="14.8363148" height="29.6726297"></rect>
                <path d="M218.194097,540.055456 L212.127013,558.265206 C212.127013,558.265206 209.424866,571.750447 218.194097,572.421735 C226.963327,573.093023 241.136852,570.399374 241.136852,570.399374 C241.136852,570.399374 243.159213,564.33229 241.136852,558.936494 C239.11449,553.540698 233.047406,538.704383 233.047406,538.704383 L218.194097,540.055456 Z" id="Shape" fill="#3C354C" fill-rule="nonzero"></path>
                <path d="M264.045617,540.726744 C264.045617,540.726744 254.605098,564.33229 262.023256,568.377013 C269.441413,572.421735 279.561717,569.048301 287.651163,572.421735 C295.740608,575.79517 317.995081,567.705725 317.995081,567.705725 C317.995081,567.705725 320.697227,560.287567 305.860912,558.265206 C305.860912,558.265206 289.716011,546.12254 289.716011,543.428891 C289.716011,540.735242 280.275492,540.726744 280.275492,540.726744 L264.045617,540.726744 Z" id="Shape" fill="#3C354C" fill-rule="nonzero"></path>
                <path d="M262.023256,271.66771 C262.023256,271.66771 206.731216,283.13059 199.992844,279.757156 C193.254472,276.383721 186.507603,325.642665 186.507603,325.642665 C186.507603,325.642665 183.805456,355.315295 193.245975,395.099732 C202.686494,434.884168 193.245975,454.444991 193.245975,454.444991 C193.245975,454.444991 194.597048,492.207066 204.717352,509.745528 C214.837657,527.283989 214.829159,543.46288 214.829159,543.46288 C214.829159,543.46288 234.372987,545.485242 235.06127,540.760733 C235.06127,540.760733 226.963327,521.879696 228.314401,504.349732 C229.665474,486.819767 224.269678,453.093918 224.269678,453.093918 C224.269678,453.093918 233.038909,410.607335 231.687835,394.462433 C230.336762,378.317531 236.412343,343.886404 239.777281,349.953488 C243.142218,356.020572 251.919946,385.693202 251.919946,391.768784 C251.919946,397.844365 255.318873,438.291592 257.315742,440.993739 C259.312612,443.695886 258.658318,451.785331 257.98703,455.830054 C257.315742,459.874776 257.315742,490.218694 260.68068,506.406082 C264.045617,522.59347 261.360465,540.794723 262.031753,543.496869 C262.703041,546.199016 282.263864,544.168157 282.935152,539.443649 C282.935152,539.443649 285.637299,510.450805 286.988372,506.406082 C288.339445,502.36136 288.976744,451.037567 288.976744,451.037567 C288.976744,451.037567 290.31932,411.253131 291.670394,407.208408 C293.021467,403.163685 295.06932,316.168157 286.274597,306.09034 C277.479875,296.012522 280.878801,270.350626 280.878801,270.350626 L262.023256,271.66771 Z" id="Shape" fill="#3F3D56" fill-rule="nonzero"></path>
                <path d="M216.571109,154.192308 C214.072898,158.899821 211.557692,163.649821 209.994186,168.756708 C208.43068,173.863596 207.886852,179.395349 209.356887,184.527728 C210.408621,187.733501 211.870985,190.789613 213.707513,193.619857 C215.168235,196.324677 217.020856,198.798655 219.205277,200.961538 C224.303667,205.618068 231.713327,206.552773 238.596154,207.283542 C239.776659,207.480787 240.983272,207.460629 242.15653,207.224061 C243.097587,206.95068 243.967588,206.47508 244.705725,205.830501 C247.722272,203.281306 249.09034,199.389535 250.194991,195.633721 C252.822497,186.70159 254.704031,177.566769 255.820215,168.323345 C256.079389,166.861878 256.079389,165.366207 255.820215,163.904741 C255.225403,161.355546 253.186047,159.375671 251.707513,157.183363 C249.936592,154.563678 248.924921,151.505137 248.784436,148.346154 C248.724955,146.80814 248.784436,145.108676 247.815742,143.936047 C247.171331,143.297731 246.389473,142.815246 245.529964,142.525492 C241.510733,140.826029 237.5,139.126565 233.472272,137.495081 C231.042039,136.492397 226.674419,133.82424 224.125224,135.795617 C221.941413,137.495081 222.995081,141.437835 222.060376,143.800089 C220.624329,147.385957 218.37254,150.793381 216.571109,154.192308 Z" id="Shape" fill="#FBBEBE" fill-rule="nonzero"></path>
                <path d="M216.571109,154.192308 C214.072898,158.899821 211.557692,163.649821 209.994186,168.756708 C208.43068,173.863596 207.886852,179.395349 209.356887,184.527728 C210.408621,187.733501 211.870985,190.789613 213.707513,193.619857 C215.168235,196.324677 217.020856,198.798655 219.205277,200.961538 C224.303667,205.618068 231.713327,206.552773 238.596154,207.283542 C239.776659,207.480787 240.983272,207.460629 242.15653,207.224061 C243.097587,206.95068 243.967588,206.47508 244.705725,205.830501 C247.722272,203.281306 249.09034,199.389535 250.194991,195.633721 C252.822497,186.70159 254.704031,177.566769 255.820215,168.323345 C256.079389,166.861878 256.079389,165.366207 255.820215,163.904741 C255.225403,161.355546 253.186047,159.375671 251.707513,157.183363 C249.936592,154.563678 248.924921,151.505137 248.784436,148.346154 C248.724955,146.80814 248.784436,145.108676 247.815742,143.936047 C247.171331,143.297731 246.389473,142.815246 245.529964,142.525492 C241.510733,140.826029 237.5,139.126565 233.472272,137.495081 C231.042039,136.492397 226.674419,133.82424 224.125224,135.795617 C221.941413,137.495081 222.995081,141.437835 222.060376,143.800089 C220.624329,147.385957 218.37254,150.793381 216.571109,154.192308 Z" id="Shape" fill="#000000" fill-rule="nonzero" opacity="0.1"></path>
                <circle id="Oval" fill="#FBBEBE" fill-rule="nonzero" cx="243.142218" cy="132.073792" r="23.6055456"></circle>
                <path d="M251.427102,191.605993 C246.957513,193.211986 242.34347,194.597048 237.59347,194.766995 C234.035151,194.802613 230.484807,194.423339 227.014311,193.636852 C219.843742,192.210641 212.80157,190.201434 205.957961,187.629249 C204.496422,190.509839 204.105546,193.798301 203.978086,197.027281 C203.612701,206.790698 205.558587,216.477639 206.306351,226.224061 C207.249553,238.613148 206.306351,251.27415 209.492844,263.272361 C209.676833,261.233335 210.470353,259.29691 211.770125,257.715116 C212.853421,256.547887 214.148004,255.596413 215.58542,254.911002 C222.016375,251.586636 229.422085,250.664689 236.471825,252.310823 C240.559034,253.279517 244.901163,255.089445 248.775939,253.466458 C251.087209,252.489267 252.761181,250.432916 254.044275,248.274597 C256.222656,244.380134 257.776723,240.168097 258.649821,235.792039 C261.199016,224.541592 261.538909,212.908766 261.844812,201.36941 C261.929785,198.284884 263.255367,189.116279 260.697674,186.855993 C258.904741,185.283989 258.377907,187.527281 257.086315,188.699911 C255.406142,190.026317 253.484063,191.013331 251.427102,191.605993 Z" id="Shape" fill="#F2F2F2" fill-rule="nonzero"></path>
                <path d="M218.202594,151.08229 C216.63059,149.850179 214.302326,150.232558 212.568873,151.277728 C210.83542,152.322898 209.433363,153.767442 207.674419,154.719141 C202.796959,157.361807 196.245528,155.424419 191.61449,158.500447 C187.263864,161.398032 186.5161,167.363148 186.176208,172.580501 C185.326476,185.836315 184.595707,199.185599 181.409213,212.084526 C180.559481,215.483453 179.539803,218.967352 179.862701,222.468247 C180.116981,224.468347 180.589998,226.434499 181.273256,228.331395 L185.453936,241.391771 C187.391324,247.458855 189.354204,253.61941 189.55814,259.9839 C189.762075,266.34839 188.266547,272.398479 186.779517,278.474061 C183.840617,290.443467 181.927459,302.641627 181.060823,314.936047 C180.797406,319.006261 180.686941,323.254919 182.33542,326.985242 C184.034884,330.88551 187.484794,333.783095 191.121646,335.9839 C194.758497,338.184705 198.70975,339.884168 202.270125,342.22093 C209.416369,346.919946 215.152057,354.321109 223.513417,356.25 C227.345707,357.099732 231.35644,356.759839 235.214222,356.012075 C235.214222,356.012075 233.030411,256.831395 226.95483,242.666369 C220.879249,228.501342 215.49195,167.142218 215.49195,165.119857 C215.49195,163.097496 218.202594,151.08229 218.202594,151.08229 Z" id="Shape" fill="#17A2B8" fill-rule="nonzero"></path>
                <path d="M251.019231,154.328265 C251.019231,154.328265 282.926655,154.328265 287.651163,171.186941 C292.375671,188.045617 274.165921,215.695886 274.165921,215.695886 C274.165921,215.695886 281.584079,270.316637 284.949016,275.712433 C288.313953,281.108229 286.979875,291.857335 286.979875,291.857335 C289.42302,299.256498 289.8859,307.166466 288.322451,314.800089 C285.628801,326.934258 275.508497,348.517442 275.508497,348.517442 C275.508497,348.517442 262.023256,348.517442 258.649821,356.606887 C255.276386,364.696333 254.605098,321.538462 254.605098,321.538462 C254.605098,321.538462 242.47093,242.640877 243.142218,237.924866 C243.813506,233.208855 247.186941,194.087209 248.538014,183.295617 C249.889088,172.504025 252.829159,158.372987 251.019231,154.328265 Z" id="Shape" fill="#17A2B8" fill-rule="nonzero"></path>
                <path d="M275.508497,165.119857 C275.508497,165.119857 291.024597,169.835868 291.024597,175.231664 C291.024597,180.62746 295.774597,209.620304 295.774597,219.060823 C295.774597,228.501342 293.752236,229.852415 295.774597,233.22585 C297.796959,236.599284 274.199911,235.248211 274.199911,235.248211 L269.908766,196.814848 L275.508497,165.119857 Z" id="Shape" fill="#17A2B8" fill-rule="nonzero"></path>
                <path d="M183.796959,213.673524 C183.796959,213.673524 214.149374,215.695886 219.54517,211.642665 C224.940966,207.589445 247.866726,217.038462 249.889088,222.434258 C251.911449,227.830054 217.514311,228.501342 212.127013,228.501342 C206.739714,228.501342 181.103309,236.599284 181.103309,236.599284 L183.796959,213.673524 Z" id="Shape" fill="#A0616A" fill-rule="nonzero"></path>
                <path d="M121.31619,527.793828 C121.31619,527.793828 107.168157,563.482558 114.518336,567.731216 C121.868515,571.979875 199.37254,568.95483 199.37254,568.95483 C199.37254,568.95483 212.279964,560.967352 197.528623,555.427102 C197.528623,555.427102 185.224508,554.815295 177.23703,549.895349 C169.249553,544.975403 160.01297,535.755814 160.01297,535.755814 C160.01297,535.755814 159.401163,522.228086 154.481216,525.304114 C151.505304,527.264278 149.496175,530.390618 148.949463,533.911896 L121.31619,527.793828 Z" id="Shape" fill="#3F3D56" fill-rule="nonzero"></path>
                <path d="M121.31619,527.793828 C121.31619,527.793828 107.168157,563.482558 114.518336,567.731216 C121.868515,571.979875 199.37254,568.95483 199.37254,568.95483 C199.37254,568.95483 212.279964,560.967352 197.528623,555.427102 C197.528623,555.427102 185.224508,554.815295 177.23703,549.895349 C169.249553,544.975403 160.01297,535.755814 160.01297,535.755814 C160.01297,535.755814 159.401163,522.228086 154.481216,525.304114 C151.505304,527.264278 149.496175,530.390618 148.949463,533.911896 L121.31619,527.793828 Z" id="Shape" fill="#000000" fill-rule="nonzero" opacity="0.1"></path>
                <path d="M99.4865832,538.704383 C99.4865832,538.704383 83.9789803,577.792039 92.0684258,582.533542 C100.157871,587.275045 185.131038,583.884615 185.131038,583.884615 C185.131038,583.884615 199.296064,575.123882 183.108676,569.048301 C183.108676,569.048301 169.623435,568.377013 160.854204,562.981216 C152.084973,557.58542 141.973166,547.448122 141.973166,547.448122 C141.973166,547.448122 141.301878,532.611807 135.906082,535.985242 C132.640846,538.133655 130.436854,541.563116 129.838998,545.42576 L99.4865832,538.704383 Z" id="Shape" fill="#3F3D56" fill-rule="nonzero"></path>
                <path d="M179.080948,290.548748 L169.640429,375.521914 C169.640429,375.521914 166.241503,415.986136 156.155188,424.746869 C156.155188,424.746869 156.155188,437.560823 152.756261,441.605546 L148.031753,494.883721 C148.031753,494.883721 154.778623,514.427549 154.107335,517.826476 C153.436047,521.225403 156.800984,531.983005 156.129696,533.334079 C155.458408,534.685152 123.754919,533.334079 123.754919,533.334079 L130.501789,424.763864 L151.405188,273.715564 L179.080948,290.548748 Z" id="Shape" fill="#3C354C" fill-rule="nonzero"></path>
                <path d="M179.080948,290.548748 L169.640429,375.521914 C169.640429,375.521914 166.241503,415.986136 156.155188,424.746869 C156.155188,424.746869 156.155188,437.560823 152.756261,441.605546 L148.031753,494.883721 C148.031753,494.883721 154.778623,514.427549 154.107335,517.826476 C153.436047,521.225403 156.800984,531.983005 156.129696,533.334079 C155.458408,534.685152 123.754919,533.334079 123.754919,533.334079 L130.501789,424.763864 L151.405188,273.715564 L179.080948,290.548748 Z" id="Shape" fill="#000000" fill-rule="nonzero" opacity="0.1"></path>
                <path d="M162.222272,287.846601 C162.222272,287.846601 154.804114,357.303667 151.43068,372.139982 C149.309825,381.910092 147.957449,391.831306 147.385957,401.812612 C147.385957,401.812612 146.714669,423.395796 140.639088,429.46288 C137.055535,433.012431 135.104768,437.889347 135.251789,442.931127 C135.251789,442.931127 129.176208,511.03712 132.549642,519.135063 C135.923077,527.233005 139.296512,533.971377 135.948569,539.358676 C132.600626,544.745975 95.484347,544.754472 95.484347,540.70975 C95.484347,536.665027 95.484347,533.291592 93.4619857,531.269231 C91.4396243,529.246869 93.4619857,516.432916 93.4619857,516.432916 C93.4619857,516.432916 85.3725403,456.416369 92.7906977,438.886404 C100.208855,421.35644 103.58229,373.457066 103.58229,373.457066 C103.58229,373.457066 98.1864937,318.836315 91.4396243,310.067084 C84.6927549,301.297853 92.7906977,270.282648 92.7906977,270.282648 L162.222272,287.846601 Z" id="Shape" fill="#3C354C" fill-rule="nonzero"></path>
                <path d="M143.239267,72.1507156 C144.02102,73.9351521 145.898927,74.9293381 147.606887,75.8725403 C157.506261,81.3278175 165.791145,89.2388193 173.948569,97.0563506 C171.912471,90.1490986 172.348178,82.7480911 175.18068,76.1274597 C176.149374,73.8756708 177.432469,71.4454383 176.735689,69.0916816 C176.217352,67.3922182 174.747317,66.1006261 173.336762,64.995975 C170.005892,62.4199896 166.524304,60.0450191 162.910555,57.8837209 C160.36136,56.3711986 155.194991,52.3519678 152.297406,52.7853309 C152.144454,56.7025939 152.067979,60.2034884 150.351521,63.8318426 C149.926655,64.7325581 143.536673,72.8305009 143.239267,72.1507156 Z" id="Shape" fill="#A0616A" fill-rule="nonzero"></path>
                <circle id="Oval" fill="#A0616A" fill-rule="nonzero" cx="177.729875" cy="53.1677102" r="27.6502683"></circle>
                <path d="M179.080948,118.588551 C179.080948,118.588551 183.796959,94.9830054 170.311717,86.8935599 C156.826476,78.8041145 141.318873,69.3635957 141.318873,69.3635957 C141.318873,69.3635957 136.594365,68.6838104 134.572004,78.8041145 C134.572004,78.8041145 96.1386404,86.2222719 92.0854204,122.633274 C88.0322004,159.044275 94.7875671,212.322451 94.7875671,212.322451 C94.7875671,212.322451 88.720483,258.853757 81.3023256,283.801878 C81.3023256,283.801878 75.2267442,289.197674 102.205725,281.108229 C129.184705,273.018784 176.378801,304.050984 176.378801,304.050984 C176.378801,304.050984 181.103309,299.326476 181.103309,295.953041 C181.103309,292.579606 186.499106,273.010286 186.499106,273.010286 C186.499106,273.010286 191.215116,190.067979 193.237478,180.62746 C195.259839,171.186941 185.148032,119.939624 179.080948,118.588551 Z" id="Shape" fill="#3F3D56" fill-rule="nonzero"></path>
                <path d="M137.27415,165.119857 C137.27415,165.119857 174.35644,143.536673 166.938283,115.886404 C159.520125,88.236136 143.341234,79.4754025 143.341234,79.4754025 C143.341234,79.4754025 117.042039,70.7061717 94.7875671,99.0192308 L96.1386404,111.833184 C96.1386404,111.833184 120.415474,62.608229 146.714669,93.6234347 C173.013864,124.63864 137.27415,165.119857 137.27415,165.119857 Z" id="Shape" fill="#17A2B8" fill-rule="nonzero"></path>
                <path d="M97.4812165,100.378801 L97.4812165,210.954383 L90.5898927,248.673971 L87.3694097,266.254919 L63.7978533,266.254919 L30.7602862,254.112254 L30.7602862,172.538014 C30.7602862,172.538014 58.4020572,117.908766 67.171288,107.796959 C75.9405188,97.6851521 97.4812165,100.378801 97.4812165,100.378801 Z" id="Shape" fill="#17A2B8" fill-rule="nonzero"></path>
                <polygon id="Shape" fill="#000000" fill-rule="nonzero" opacity="0.1" points="90.5813953 248.682469 87.3694097 266.263417 63.763864 266.263417 30.726297 254.129249"></polygon>
                <polygon id="Shape" fill="#17A2B8" fill-rule="nonzero" points="89.391771 225.127907 147.385957 154.319767 96.1301431 227.830054 90.734347 229.17263"></polygon>
                <path d="M171.212433,56.0228086 C172.784436,54.960644 174.755814,54.7652057 176.642218,54.5782648 C178.528623,54.3913238 180.5,54.1364043 182.004025,52.9807692 C184.612701,50.9754025 184.80814,47.1006261 186.720036,44.4239714 C189.481664,40.5406977 194.996422,40.0733453 199.763417,40.2602862 C202.677996,40.3792487 205.813506,40.5576923 208.260733,38.9856887 C210.707961,37.4136852 211.91458,34.3121646 212.764311,31.4485689 C213.775492,28.0496422 214.421288,23.9029517 211.91458,21.387746 C210.215116,19.6372987 207.461986,19.2889088 205.541592,17.7508945 C203.621199,16.2128801 202.72898,13.5702147 201.649821,11.2674419 C200.417782,8.45438586 198.469365,6.01373718 195.999106,4.1891771 C192.379249,1.63998211 187.756708,1.11314848 183.346601,1.15563506 C178.936494,1.19812165 174.509392,1.78443649 170.133274,1.24060823 C166.547406,0.798747764 162.970036,-0.390876565 159.401163,0.135957066 C154.846601,0.807245081 151.08229,4.24865832 148.830501,8.26788909 C146.578712,12.2871199 145.627013,16.8756708 144.692308,21.3792487 L142.143113,33.6408766 C141.36136,37.4476744 140.571109,41.3479428 141.174419,45.1802326 C142.432021,53.1337209 149.4678,59.4557245 149.952147,67.4856887 C150.89183,62.979332 154.03351,59.2469908 158.313506,57.5523256 C158.840705,57.2948202 159.438607,57.2200824 160.01297,57.3398927 C160.70975,57.5693202 161.117621,58.2661002 161.559481,58.852415 C162.715116,60.3904293 166.34347,62.7186941 168.357335,61.6310376 C170.277728,60.6538462 168.901163,57.5948122 171.212433,56.0228086 Z" id="Shape" fill="#3F3D56" fill-rule="nonzero"></path>
                <path d="M347.66771,399.118962 C347.66771,399.118962 329.457961,399.79025 326.764311,420.693649 C324.070662,441.597048 326.764311,538.704383 326.764311,538.704383 C326.764311,538.704383 347.66771,554.211986 373.295617,552.189624 C398.923524,550.167263 440.050537,542.749106 440.050537,542.749106 L440.050537,428.885063 C440.050537,411.890429 425.877013,398.031306 408.899374,399.008497 C408.5,399.008497 408.049642,399.059481 407.684258,399.101968 L347.66771,399.118962 Z" id="Shape" fill="#3C354C" fill-rule="nonzero"></path>
                <circle id="Oval" fill="#3F3D56" fill-rule="nonzero" cx="373.966905" cy="555.563059" r="12.1341682"></circle>
                <circle id="Oval" fill="#3F3D56" fill-rule="nonzero" cx="440.050537" cy="550.167263" r="12.1341682"></circle>
                <path d="M101.534436,181.978533 C101.534436,181.978533 96.8099284,211.642665 116.362254,208.949016 C116.362254,208.949016 126.482558,207.597943 127.833631,208.949016 C129.184705,210.300089 179.080948,201.530859 185.827818,194.112701 C185.827818,194.112701 193.917263,191.419052 197.961986,195.463775 C202.006708,199.508497 242.47093,203.55322 230.345259,191.410555 C218.219589,179.267889 199.330054,176.57424 199.330054,176.57424 L173.702147,177.916816 C173.702147,177.916816 160.216905,181.970036 152.12746,177.916816 C144.038014,173.863596 121.086762,175.265653 121.086762,175.265653 L101.534436,181.978533 Z" id="Shape" fill="#A0616A" fill-rule="nonzero"></path>
                <path d="M129.176208,88.2446333 C129.176208,88.2446333 98.8322898,91.6435599 98.8322898,135.447227 L98.8322898,191.410555 C98.8322898,191.410555 115.690966,183.992397 119.064401,184.663685 C122.437835,185.334973 135.923077,175.894454 135.923077,175.894454 C135.923077,175.894454 151.43068,139.49195 150.079606,129.380143 C148.728533,119.268336 149.408318,89.5872093 129.176208,88.2446333 Z" id="Shape" fill="#3F3D56" fill-rule="nonzero"></path>
                <polygon id="Shape" fill="#3F3D56" fill-rule="nonzero" points="268.09034 196.806351 237.746422 218.389535 256.62746 220.411896 282.926655 198.157424"></polygon>
                <path d="M291.695886,229.181127 C291.695886,229.181127 299.114043,252.123882 289.002236,258.853757 C278.890429,265.583631 262.023256,235.248211 262.023256,235.248211 C262.023256,235.248211 243.813506,213.673524 255.956172,208.949016 C268.098837,204.224508 273.052773,224.796512 273.052773,224.796512 L288.976744,238.621646 L291.695886,229.181127 Z" id="Shape" fill="#FBBEBE" fill-rule="nonzero"></path>
                <ellipse id="Oval" fill="#3F3D56" fill-rule="nonzero" cx="245.504472" cy="114.535331" rx="26.970483" ry="17.1985689"></ellipse>
                <circle id="Oval" fill="#3F3D56" fill-rule="nonzero" cx="250.220483" cy="73.0684258" r="19.5523256"></circle>
                <ellipse id="Oval" fill="#3F3D56" fill-rule="nonzero" cx="177.729875" cy="35.9776386" rx="25.9593023" ry="13.4852415"></ellipse>
                <ellipse id="Oval" fill="#3F3D56" fill-rule="nonzero" cx="153.453041" cy="38.3313953" rx="9.10062612" ry="22.5943649"></ellipse>
                <path d="M17.9888193,571.699463 C20.5380143,567.017442 17.6489267,561.281753 14.3519678,557.101073 C11.0550089,552.920394 7.02728086,548.603757 7.11225403,543.258945 C7.23971377,535.61136 15.3546512,531.099284 21.8381038,527.046064 C26.6502034,524.037956 31.088487,520.469644 35.0599284,516.415921 C36.7265407,514.859195 38.1020034,513.017571 39.1216458,510.977639 C40.4642218,507.986583 40.4302326,504.587657 40.3452594,501.307692 C40.0620155,490.397138 39.5210197,479.497913 38.7222719,468.610018" id="Shape" stroke="#3F3D56" stroke-width="4"></path>
                <path d="M51.0518784,468.006708 C50.8682633,463.947297 48.6252975,460.262425 45.1037567,458.234794 L42.4355993,463.520125 L42.5205725,457.130143 C37.5581182,455.672453 32.2224078,457.588176 29.3204715,461.869482 C26.4185353,466.150788 26.6153844,471.816567 29.8074599,475.886145 C32.9995353,479.955723 38.4553371,481.496511 43.3046569,479.697925 C48.1539767,477.89934 51.2855383,473.173547 51.0518784,468.006708 Z" id="Shape" fill="#57B894" fill-rule="nonzero"></path>
                <path d="M29.8085868,548.731216 C27.2304443,553.728181 21.5057498,556.23766 16.0839351,554.747561 C10.6621204,553.257461 7.02401506,548.174764 7.36177041,542.562065 C7.69952577,536.949366 11.9208926,532.339629 17.4822736,531.510464 C23.0436546,530.6813 28.4261014,533.859174 30.3864043,539.129249 L22.9342576,545.187835 L31.1341682,543.284436 C31.1361368,545.180138 30.6814528,547.048423 29.8085868,548.731216 Z" id="Shape" fill="#57B894" fill-rule="nonzero"></path>
                <path d="M23.8604651,525.576029 C20.6988216,525.730555 17.605961,524.61866 15.2664135,522.486435 C12.9268661,520.354209 11.5335714,517.377495 11.3949016,514.215116 C11.3008165,512.349168 11.653301,510.4877 12.4230769,508.785331 C13.8684831,505.558649 16.6688406,503.137895 20.0706619,502.174419 L20.0111807,507.094365 L22.7048301,501.749553 C25.8664735,501.595026 28.9593342,502.706921 31.2988816,504.839147 C33.638429,506.971372 35.0317238,509.948086 35.1703936,513.110465 C35.2402038,514.486595 35.0676328,515.864286 34.6605546,517.18068 C33.1903343,521.976082 28.8703496,525.334182 23.8604651,525.576029 Z" id="Shape" fill="#57B894" fill-rule="nonzero"></path>
                <path d="M52.8448122,506.312612 C47.8264856,506.497061 43.2328093,503.510466 41.3650629,498.849013 C39.4973165,494.187559 40.7578113,488.855321 44.5150812,485.523573 C48.272351,482.191825 53.7170826,481.578223 58.1216458,483.990161 L56.0143113,489.768336 L60.3479428,485.604651 C63.9314462,488.846991 65.1973981,493.934978 63.5511224,498.478549 C61.9048468,503.022121 57.6735283,506.118277 52.8448122,506.312612 Z" id="Shape" fill="#57B894" fill-rule="nonzero"></path>
                <path d="M49.4458855,471.184705 C46.7012522,471.490608 44.0161002,472.348837 41.2544723,472.518784 C38.4928444,472.68873 35.4593023,472.025939 33.7173524,469.876118 C32.7741503,468.720483 32.2983005,467.258945 31.5080501,466.001342 C30.7543498,464.827278 29.7244766,463.855755 28.5084973,463.171735 C26.5280251,467.276887 27.0671925,472.152727 29.8967388,475.725989 C32.7262852,479.299252 37.3487218,480.941688 41.7985326,479.954915 C46.2483433,478.968141 49.7431657,475.525652 50.7969589,471.091234 C50.3466011,471.108229 49.8962433,471.142218 49.4458855,471.184705 Z" id="Shape" fill="#000000" fill-rule="nonzero" opacity="0.1"></path>
                <path d="M52.8448122,506.312612 C48.6716407,506.494613 44.7064542,504.483844 42.3873908,501.009591 C40.0683273,497.535339 39.7321906,493.102179 41.5008945,489.317979 C42.4519955,489.954617 43.2689963,490.771618 43.9056351,491.722719 C44.7553667,493.005814 45.2652057,494.484347 46.2678891,495.665474 C48.1203041,497.849284 51.2983005,498.563059 54.1703936,498.427102 C57.0424866,498.291145 59.8296064,497.4839 62.6677102,497.220483 C63.0670841,497.220483 63.4749553,497.152504 63.8743292,497.144007 C62.6606411,502.322073 58.1574688,506.065465 52.8448122,506.312612 Z" id="Shape" fill="#000000" fill-rule="nonzero" opacity="0.1"></path>
                <path d="M23.8604651,525.576029 C20.6988216,525.730555 17.605961,524.61866 15.2664135,522.486435 C12.9268661,520.354209 11.5335714,517.377495 11.3949016,514.215116 C11.3008165,512.349168 11.653301,510.4877 12.4230769,508.785331 C13.4143853,509.429094 14.2785518,510.250052 14.9722719,511.207066 C15.8984794,512.515653 16.476297,514.019678 17.5214669,515.226297 C19.5353309,517.469589 22.917263,518.259839 25.9677996,518.183363 C29.0183363,518.106887 31.7629696,517.393113 34.6945438,517.172182 C33.22307,521.982238 28.8853431,525.346954 23.8604651,525.576029 Z" id="Shape" fill="#000000" fill-rule="nonzero" opacity="0.1"></path>
                <path d="M29.8085868,548.731216 C28.0705919,552.614003 24.3931764,555.274637 20.1615871,555.710883 C15.9299977,556.147128 11.7871136,554.29271 9.29351908,550.846169 C6.79992457,547.399628 6.33445597,542.884576 8.07245081,539.001789 C9.05308109,539.646921 9.93469514,540.431214 10.6896243,541.330054 C11.8197674,542.715116 12.5675313,544.278623 13.8761181,545.578712 C16.3148479,547.974955 20.2491055,548.977639 23.7584973,549.054114 C25.7797103,549.062311 27.799728,548.954501 29.8085868,548.731216 Z" id="Shape" fill="#000000" fill-rule="nonzero" opacity="0.1"></path>
                <path d="M0,566.312165 C0,566.312165 9.41502683,566.023256 12.2531306,564.000894 C15.0912343,561.978533 26.6985689,559.565295 27.4378354,562.81127 C28.177102,566.057245 41.5773703,578.956172 30.9557245,579.007156 C20.3340787,579.05814 6.26252236,577.350179 3.43291592,575.608229 C0.603309481,573.866279 0,566.312165 0,566.312165 Z" id="Shape" fill="#656380" fill-rule="nonzero"></path>
                <path d="M31.1426655,577.877013 C20.5125224,577.961986 6.44946333,576.220036 3.61985689,574.478086 C1.46153846,573.169499 0.603309481,568.453488 0.314400716,566.278175 L0,566.278175 C0,566.278175 0.594812165,573.866279 3.39892665,575.625224 C6.20304114,577.384168 20.2915921,579.092129 30.9217352,579.02415 C33.9892665,579.02415 35.0429338,577.911002 34.9919499,576.288014 C34.592576,577.248211 33.4284436,577.860018 31.1426655,577.877013 Z" id="Shape" fill="#000000" fill-rule="nonzero" opacity="0.2"></path>
            </g>
        </g>
    </g>
</svg>