<?xml version="1.0" encoding="UTF-8"?>
<svg width="3205px" height="1289px" viewBox="0 0 3205 1289" version="1.1" xmlns="http://www.w3.org/2000/svg" xmlns:xlink="http://www.w3.org/1999/xlink">
    <!-- Generator: Sketch 49.3 (51167) - http://www.bohemiancoding.com/sketch -->
    <title>Group</title>
    <desc>Created with Sketch.</desc>
    <defs></defs>
    <g id="Page-1" stroke="none" stroke-width="1" fill="none" fill-rule="evenodd">
        <g id="Group">
            <g id="undraw_aircraft_fbvl-(1)" transform="translate(1169.000000, 0.000000)" fill-rule="nonzero">
                <path d="M1645.87001,760.638526 C1627.16484,767.539048 1594.31112,773.21281 1556.28812,777.774821 C1452.90231,790.19576 1311.22545,794.604426 1311.22545,794.604426 C1311.22545,794.604426 582.91069,855.07983 37.0527432,630.161165 C37.0527432,630.161165 -42.3437321,588.489682 31.3090869,532.403776 C42.6505852,524.023077 54.7078691,516.659583 67.3409573,510.39878 L68.2407968,509.497878 C76.6184563,501.745985 85.6720926,494.760107 95.2934178,488.623801 C123.571352,470.318251 171.320281,448.619944 229.446083,458.453187 L1663.10098,690.598232 C1663.10098,690.598232 1715.46398,734.895747 1645.87001,760.638526 Z" id="Shape" fill="#3F3D56"></path>
                <path d="M1360,652.993123 L1660.54054,441 L1793,463.777538 L1663.30131,687.969511 C1663.30131,687.969511 1363.45096,690.352099 1360,652.993123 Z" id="Shape" fill="#3F3D56"></path>
                <polygon id="Shape" fill="#3F3D56" points="605 525.33555 1202.66534 357 1299 377.222565 1029.02179 499.192311 944.650008 594"></polygon>
                <path d="M1556,776.828396 C1452.63333,789.221866 1310.9827,793.620782 1310.9827,793.620782 C1310.9827,793.620782 582.802775,853.962442 37.0458835,629.541194 C37.0458835,629.541194 -42.3358929,587.961869 31.3032906,532 L31.5521363,533.032789 C31.5521363,533.032789 149.313576,612.557551 711.972832,678.942939 L1556,776.828396 Z" id="Shape" fill="#17A2B8"></path>
                <path d="M1460.29089,772.475745 L1727.79757,882 L1795,874.52545 L1634.99421,753.933481 C1634.99421,753.933481 1441.45428,712.525627 1460.29089,772.475745 Z" id="Shape" fill="#3F3D56"></path>
                <path d="M129.545236,545.998441 C116.707564,546.211194 87.2927187,524.607102 69,510.062539 C77.4346596,502.240658 86.5498952,495.191708 96.2366823,489 C110.982657,500.353269 137.216998,518.727385 151.808766,518.011761 C172.877198,517.141409 148.878847,545.650299 129.545236,545.998441 Z" id="Shape" fill="#17A2B8"></path>
                <path d="M1342,1151.00328 L1170.42699,1160 L688.039428,834.04628 L598.49145,773.524624 L555,744.117429 C636.603897,675.059438 969.547029,770.301918 969.547029,770.301918 C975.921436,775.692277 977.950527,784.650634 977.663391,794.548946 C977.108263,813.079507 968.417629,834.832774 965.067716,842.659346 C964.263737,844.577624 963.766035,845.594311 963.766035,845.594311 L1342,1151.00328 Z" id="Shape" fill="#3F3D56"></path>
                <path d="M777.289244,981.41411 L747.485849,1000.27914 L765.540381,967.437883 C760.428018,963.357677 754.102223,961.097804 747.562513,961.015337 L747.083359,961.015337 C745.01632,961.055768 742.95006,960.901716 740.911852,960.555215 L730.830447,966.958589 L735.142835,959.09816 C728.000746,956.590589 721.830705,951.894619 717.509958,945.677914 L699.474592,957.180982 L710.859297,936.437117 C700.317903,923.764571 686.096605,916 670.437844,916 C651.674163,916 634.961263,927.157975 624.170709,944.565951 C617.656682,955.178261 605.947153,961.473975 593.504836,961.053681 L592.508195,961.053681 C571.789565,961.053681 555,984.53911 555,1013.52684 C555,1042.51457 571.789565,1066 592.508195,1066 C597.060745,1065.98554 601.54102,1064.8602 605.560357,1062.72163 C619.836588,1055.79383 636.430685,1055.47152 650.965015,1061.83972 C663.248097,1067.32285 677.2826,1067.32285 689.565682,1061.83972 C703.976333,1055.59221 720.388038,1055.90697 734.548684,1062.70245 C738.543575,1064.78784 742.979728,1065.8857 747.485849,1065.90414 C768.204479,1065.90414 784.994044,1042.41871 784.994044,1013.43098 C785.143053,1002.28209 782.493951,991.27389 777.289244,981.41411 Z" id="Shape" fill="#F2F2F2"></path>
                <path d="M722,1057.30165 C711.118118,1055.24022 699.869847,1056.46245 689.683014,1060.81318 C677.342606,1066.34517 663.231477,1066.34517 650.891069,1060.81318 C636.281122,1054.38597 619.588479,1054.71049 605.238749,1061.70071 C601.188104,1063.84653 596.678772,1064.97854 592.096123,1065 C573.596238,1065 558.198938,1046.32329 555,1021.704 C558.701627,1019.0126 561.843569,1015.62436 564.249942,1011.72894 C575.099354,994.229176 591.903416,983 610.769444,983 C629.635472,983 646.266097,993.997647 657.096238,1011.36235 C663.670185,1022.00801 675.332984,1028.42851 687.833026,1028.28329 L688.314793,1028.28329 C703.037618,1028.24471 715.79483,1040.05271 722,1057.30165 Z" id="Shape" fill="#000000" opacity="0.03"></path>
                <path d="M1620.28924,955.41411 L1590.48585,974.279141 L1608.54038,941.437883 C1603.42802,937.357677 1597.10222,935.097804 1590.56251,935.015337 L1590.08336,935.015337 C1588.01632,935.055768 1585.95006,934.901716 1583.91185,934.555215 L1573.83045,940.958589 L1578.14283,933.09816 C1571.00075,930.590589 1564.83071,925.894619 1560.50996,919.677914 L1542.47459,931.180982 L1553.8593,910.437117 C1543.3179,897.764571 1529.09661,890 1513.43784,890 C1494.67416,890 1477.96126,901.157975 1467.17071,918.565951 C1460.65668,929.178261 1448.94715,935.473975 1436.50484,935.053681 L1435.5082,935.053681 C1414.78957,935.053681 1398,958.53911 1398,987.52684 C1398,1016.51457 1414.78957,1040 1435.5082,1040 C1440.06075,1039.98554 1444.54102,1038.8602 1448.56036,1036.72163 C1462.83659,1029.79383 1479.43069,1029.47152 1493.96501,1035.83972 C1506.2481,1041.32285 1520.2826,1041.32285 1532.56568,1035.83972 C1546.97633,1029.59221 1563.38804,1029.90697 1577.54868,1036.70245 C1581.54358,1038.78784 1585.97973,1039.8857 1590.48585,1039.90414 C1611.20448,1039.90414 1627.99404,1016.41871 1627.99404,987.430982 C1628.14305,976.282086 1625.49395,965.27389 1620.28924,955.41411 Z" id="Shape" fill="#F2F2F2"></path>
                <path d="M1565,1033.30165 C1554.11812,1031.24022 1542.86985,1032.46245 1532.68301,1036.81318 C1520.34261,1042.34517 1506.23148,1042.34517 1493.89107,1036.81318 C1479.28112,1030.38597 1462.58848,1030.71049 1448.23875,1037.70071 C1444.1881,1039.84653 1439.67877,1040.97854 1435.09612,1041 C1416.59624,1041 1401.19894,1022.32329 1398,997.704 C1401.70163,995.012601 1404.84357,991.624357 1407.24994,987.728941 C1418.09935,970.229176 1434.90342,959 1453.76944,959 C1472.63547,959 1489.2661,969.997647 1500.09624,987.362353 C1506.68794,998.037742 1518.39518,1004.46257 1530.92938,1004.28329 L1531.41115,1004.28329 C1546.03762,1004.24471 1558.79483,1016.05271 1565,1033.30165 Z" id="Shape" fill="#000000" opacity="0.03"></path>
                <path d="M1620.28797,327.41404 L1590.48475,346.279051 L1608.53918,313.437828 C1603.42684,309.357626 1597.10109,307.097755 1590.56141,307.015289 L1590.08226,307.015289 C1588.01524,307.055719 1585.94899,306.901667 1583.91079,306.555167 L1573.82944,312.958534 L1578.14181,305.098113 C1570.99976,302.590546 1564.82975,297.894581 1560.50903,291.677882 L1542.47377,303.180937 L1553.85841,282.437095 C1543.31707,269.764562 1529.09586,262 1513.43718,262 C1494.67361,262 1477.96081,273.157963 1467.17031,290.56592 C1460.65632,301.178219 1448.94686,307.473926 1436.50462,307.053633 L1435.50798,307.053633 C1414.78947,307.053633 1398,330.539037 1398,359.526736 C1398,388.514435 1414.78947,411.999839 1435.50798,411.999839 C1440.0605,411.985376 1444.54075,410.860045 1448.56007,408.721468 C1462.83622,401.793684 1479.43022,401.471374 1493.96447,407.839567 C1506.23387,413.353213 1520.2683,413.388066 1532.56491,407.935426 C1546.97548,401.68792 1563.38709,402.00268 1577.54766,408.798155 C1581.54253,410.883541 1585.97865,411.981398 1590.48475,411.999839 C1611.20326,411.999839 1627.99273,388.514435 1627.99273,359.526736 C1628.15783,348.345505 1625.50827,337.302391 1620.28797,327.41404 Z" id="Shape" fill="#F2F2F2"></path>
                <path d="M1565,405.301647 C1554.11812,403.240222 1542.86985,404.462447 1532.68301,408.813176 C1520.34261,414.345171 1506.23148,414.345171 1493.89107,408.813176 C1479.28112,402.385971 1462.58848,402.710494 1448.23875,409.700706 C1444.1881,411.846532 1439.67877,412.978544 1435.09612,413 C1416.59624,413 1401.19894,394.323294 1398,369.704 C1401.70163,367.012601 1404.84357,363.624357 1407.24994,359.728941 C1418.09935,342.229176 1434.90342,331 1453.76944,331 C1472.63547,331 1489.2661,341.997647 1500.09624,359.362353 C1506.68794,370.037742 1518.39518,376.462566 1530.92938,376.283294 L1531.41115,376.283294 C1546.03762,376.244706 1558.79483,388.052706 1565,405.301647 Z" id="Shape" fill="#000000" opacity="0.03"></path>
                <path d="M390.094081,259.609531 L375.193092,269.044581 L384.229821,252.634128 C381.675962,250.582723 378.507778,249.446082 375.231546,249.405842 L375.000821,249.405842 C373.964302,249.416533 372.928741,249.339393 371.905261,249.17525 L366.867765,252.365104 L369.021199,248.521906 C365.446622,247.270299 362.358287,244.923443 360.195968,241.815527 L351.178466,247.580323 L356.946591,237.222905 C352.089197,230.944294 344.658536,227.188752 336.719701,227 C327.336885,227 318.973104,232.572636 313.647202,241.277479 C310.383639,246.597623 304.505403,249.748008 298.265536,249.521138 L297.765632,249.521138 C287.402235,249.521138 279,261.281322 279,275.770177 C279,290.259032 287.402235,302 297.765632,302 C300.044889,301.992612 302.288252,301.432095 304.30284,300.366641 C311.445886,296.891377 319.756338,296.729761 327.029251,299.924673 C333.149593,302.643539 340.135991,302.643539 346.256333,299.924673 C353.469424,296.79733 361.686593,296.958633 368.771247,300.366641 C370.768777,301.399804 372.982424,301.946312 375.231546,301.961568 C385.594943,301.961568 393.997178,290.2206 393.997178,275.731745 C394.070118,270.115516 392.727877,264.57123 390.094081,259.609531 Z" id="Shape" fill="#F2F2F2"></path>
                <path d="M362,298.190094 C356.590305,297.14625 350.994276,297.759238 345.933626,299.95 C342.909744,301.295265 339.641576,301.99333 336.336031,302 C332.992907,301.999015 329.688358,301.280389 326.642461,299.891981 C319.377246,296.690486 311.083987,296.860145 303.953747,300.356132 C301.949352,301.428313 299.71594,301.992526 297.446577,302 C288.252081,302 280.593201,292.658962 279,280.358962 C280.83406,279.003203 282.397133,277.310257 283.606846,275.36934 C288.981499,266.608491 297.331406,261 306.641073,261 C315.95074,261 324.262257,266.550472 329.675301,275.195283 C332.957103,280.54316 338.79182,283.754356 345.031452,283.646698 L345.28099,283.646698 C352.517576,283.646698 358.909574,289.564623 362,298.190094 Z" id="Shape" fill="#000000" opacity="0.03"></path>
                <path d="M1712.09408,1196.60953 L1697.19309,1206.04458 L1706.22982,1189.63413 C1703.67596,1187.58272 1700.50778,1186.44608 1697.23155,1186.40584 L1697.00082,1186.40584 C1695.9643,1186.41653 1694.92874,1186.33939 1693.90526,1186.17525 L1688.86777,1189.3651 L1691.0212,1185.52191 C1687.44662,1184.2703 1684.35829,1181.92344 1682.19597,1178.81553 L1673.17847,1184.58032 L1678.94659,1174.22291 C1674.0892,1167.94429 1666.65854,1164.18875 1658.7197,1164 C1649.33688,1164 1640.9731,1169.57264 1635.6472,1178.27748 C1632.38364,1183.59762 1626.5054,1186.74801 1620.26554,1186.52114 L1619.76563,1186.52114 C1609.40223,1186.52114 1601,1198.28132 1601,1212.77018 C1601,1227.25903 1609.40223,1239 1619.76563,1239 C1622.04489,1238.99261 1624.28825,1238.4321 1626.30284,1237.36664 C1633.44589,1233.89138 1641.75634,1233.72976 1649.02925,1236.92467 C1655.14959,1239.64354 1662.13599,1239.64354 1668.25633,1236.92467 C1675.46942,1233.79733 1683.68659,1233.95863 1690.77125,1237.36664 C1692.76878,1238.3998 1694.98242,1238.94631 1697.23155,1238.96157 C1707.59494,1238.96157 1715.99718,1227.2206 1715.99718,1212.73174 C1716.07012,1207.11552 1714.72788,1201.57123 1712.09408,1196.60953 Z" id="Shape" fill="#F2F2F2"></path>
                <path d="M1684,1235.19009 C1678.59031,1234.14625 1672.99428,1234.75924 1667.93363,1236.95 C1664.90974,1238.29527 1661.64158,1238.99333 1658.33603,1239 C1654.99291,1238.99902 1651.68836,1238.28039 1648.64246,1236.89198 C1641.37725,1233.69049 1633.08399,1233.86014 1625.95375,1237.35613 C1623.94935,1238.42831 1621.71594,1238.99253 1619.44658,1239 C1610.25208,1239 1602.5932,1229.65896 1601,1217.35896 C1602.83406,1216.0032 1604.39713,1214.31026 1605.60685,1212.36934 C1610.9815,1203.60849 1619.33141,1198 1628.64107,1198 C1637.95074,1198 1646.26226,1203.55047 1651.6753,1212.19528 C1654.9571,1217.54316 1660.79182,1220.75436 1667.03145,1220.6467 L1667.28099,1220.6467 C1674.51758,1220.6467 1680.90957,1226.56462 1684,1235.19009 Z" id="Shape" fill="#000000" opacity="0.03"></path>
                <path d="M333.094081,1245.60953 L318.193092,1255.04458 L327.229821,1238.63413 C324.675962,1236.58272 321.507778,1235.44608 318.231546,1235.40584 L318.000821,1235.40584 C316.964302,1235.41653 315.928741,1235.33939 314.905261,1235.17525 L309.867765,1238.3651 L312.021199,1234.52191 C308.446622,1233.2703 305.358287,1230.92344 303.195968,1227.81553 L294.178466,1233.58032 L299.946591,1223.22291 C295.089197,1216.94429 287.658536,1213.18875 279.719701,1213 C270.336885,1213 261.973104,1218.57264 256.647202,1227.27748 C253.383639,1232.59762 247.505403,1235.74801 241.265536,1235.52114 L240.765632,1235.52114 C230.402235,1235.52114 222,1247.28132 222,1261.77018 C222,1276.25903 230.402235,1288 240.765632,1288 C243.044889,1287.99261 245.288252,1287.4321 247.30284,1286.36664 C254.445886,1282.89138 262.756338,1282.72976 270.029251,1285.92467 C276.149593,1288.64354 283.135991,1288.64354 289.256333,1285.92467 C296.469424,1282.79733 304.686593,1282.95863 311.771247,1286.36664 C313.768777,1287.3998 315.982424,1287.94631 318.231546,1287.96157 C328.594943,1287.96157 336.997178,1276.2206 336.997178,1261.73174 C337.070118,1256.11552 335.727877,1250.57123 333.094081,1245.60953 Z" id="Shape" fill="#F2F2F2"></path>
                <path d="M305,1285.19009 C299.590305,1284.14625 293.994276,1284.75924 288.933626,1286.95 C285.909744,1288.29527 282.641576,1288.99333 279.336031,1289 C275.992907,1288.99902 272.688358,1288.28039 269.642461,1286.89198 C262.377246,1283.69049 254.083987,1283.86014 246.953747,1287.35613 C244.949352,1288.42831 242.71594,1288.99253 240.446577,1289 C231.252081,1289 223.593201,1279.65896 222,1267.35896 C223.83406,1266.0032 225.397133,1264.31026 226.606846,1262.36934 C231.981499,1253.60849 240.331406,1248 249.641073,1248 C258.95074,1248 267.262257,1253.55047 272.675301,1262.19528 C275.957103,1267.54316 281.79182,1270.75436 288.031452,1270.6467 L288.28099,1270.6467 C295.517576,1270.6467 301.909574,1276.56462 305,1285.19009 Z" id="Shape" fill="#000000" opacity="0.03"></path>
                <path d="M1018.28797,65.4140402 L988.484749,84.2790506 L1006.53918,51.4378282 C1001.42684,47.3576263 995.101086,45.0977554 988.561414,45.0152891 L988.082262,45.0152891 C986.015235,45.0557193 983.948986,44.9016674 981.91079,44.5551669 L971.829442,50.9585343 L976.141806,43.0981132 C968.999758,40.5905456 962.829753,35.8945809 958.50903,29.6778823 L940.473767,41.1809374 L951.858407,20.4370946 C941.317074,7.76456222 927.095856,0 911.437185,0 C892.673611,0 875.960806,11.1579635 865.170314,28.5659203 C858.656324,39.1782193 846.946862,45.4739263 834.504616,45.0536326 L833.507981,45.0536326 C812.789469,45.0536326 796,68.5390369 796,97.5267358 C796,126.514435 812.789469,149.999839 833.507981,149.999839 C838.060505,149.985376 842.540754,148.860045 846.560069,146.721468 C860.836218,139.793684 877.43022,139.471374 891.964467,145.839567 C904.233866,151.353213 918.268297,151.388066 930.564913,145.935426 C944.975483,139.68792 961.387093,140.00268 975.547658,146.798155 C979.542527,148.883541 983.978655,149.981398 988.484749,149.999839 C1009.20326,149.999839 1025.99273,126.514435 1025.99273,97.5267358 C1026.15783,86.3455048 1023.50827,75.3023908 1018.28797,65.4140402 Z" id="Shape" fill="#F2F2F2"></path>
                <path d="M963,143.301647 C952.118118,141.240222 940.869847,142.462447 930.683014,146.813176 C918.342606,152.345171 904.231477,152.345171 891.891069,146.813176 C877.281122,140.385971 860.588479,140.710494 846.238749,147.700706 C842.188104,149.846532 837.678772,150.978544 833.096123,151 C814.596238,151 799.198938,132.323294 796,107.704 C799.701627,105.012601 802.843569,101.624357 805.249942,97.7289412 C816.099354,80.2291765 832.903416,69 851.769444,69 C870.635472,69 887.266097,79.9976471 898.096238,97.3623529 C904.687943,108.037742 916.395181,114.462566 928.929379,114.283294 L929.411147,114.283294 C944.037618,114.244706 956.79483,126.052706 963,143.301647 Z" id="Shape" fill="#000000" opacity="0.03"></path>
                <path d="M2032.09408,394.609531 L2017.19309,404.044581 L2026.22982,387.634128 C2023.67596,385.582723 2020.50778,384.446082 2017.23155,384.405842 L2017.00082,384.405842 C2015.9643,384.416533 2014.92874,384.339393 2013.90526,384.17525 L2008.86777,387.365104 L2011.0212,383.521906 C2007.44662,382.270299 2004.35829,379.923443 2002.19597,376.815527 L1993.17847,382.580323 L1998.94659,372.222905 C1994.0892,365.944294 1986.65854,362.188752 1978.7197,362 C1969.33688,362 1960.9731,367.572636 1955.6472,376.277479 C1952.38364,381.597623 1946.5054,384.748008 1940.26554,384.521138 L1939.76563,384.521138 C1929.40223,384.521138 1921,396.281322 1921,410.770177 C1921,425.259032 1929.40223,437 1939.76563,437 C1942.04489,436.992612 1944.28825,436.432095 1946.30284,435.366641 C1953.44589,431.891377 1961.75634,431.729761 1969.02925,434.924673 C1975.14959,437.643539 1982.13599,437.643539 1988.25633,434.924673 C1995.46942,431.79733 2003.68659,431.958633 2010.77125,435.366641 C2012.76878,436.399804 2014.98242,436.946312 2017.23155,436.961568 C2027.59494,436.961568 2035.99718,425.2206 2035.99718,410.731745 C2036.07012,405.115516 2034.72788,399.57123 2032.09408,394.609531 Z" id="Shape" fill="#F2F2F2"></path>
                <path d="M2004,432.190094 C1998.58404,431.14625 1992.98153,431.759238 1987.91503,433.95 C1984.88764,435.295265 1981.61569,435.99333 1978.30632,436 C1974.99173,435.98535 1971.71751,435.267031 1968.69762,433.891981 C1961.42399,430.690486 1953.12113,430.860145 1945.98263,434.356132 C1943.97592,435.428313 1941.73992,435.992526 1939.46793,436 C1930.26279,436 1922.59505,426.658962 1921,414.358962 C1922.83618,413.003203 1924.40107,411.310257 1925.61218,409.36934 C1930.99305,400.608491 1939.35263,395 1948.67307,395 C1957.99352,395 1966.31466,400.550472 1971.73397,409.195283 C1975.00189,414.513301 1980.799,417.720152 1987.01181,417.646698 L1987.26163,417.646698 C1994.5066,417.646698 2000.906,423.564623 2004,432.190094 Z" id="Shape" fill="#000000" opacity="0.03"></path>
            </g>
            <g id="undraw_best_place_r685" transform="translate(866.000000, 848.000000)" fill-rule="nonzero">
                <path d="M122.585432,433.881216 L120.927466,433.507794 C139.41405,351.29567 185.872394,276.63987 251.744231,223.291992 C352.987412,141.425685 489.280462,117.531195 612.334736,160.074345 C735.38901,202.617494 827.821291,305.58844 856.882809,432.504562 L855.226501,432.881298 C816.093271,261.058475 665.503722,141.055004 489.019006,141.055004 C314.84698,141.055004 160.739426,264.205956 122.585432,433.881216 Z" id="Shape" fill="#3F3D56"></path>
                <circle id="Oval" fill="#FF6584" cx="764.444494" cy="186.857739" r="46.1531634"></circle>
                <rect id="Rectangle-path" fill="#3F3D56" x="745.212282" y="371.379676" width="1.69945788" height="67.1285864"></rect>
                <path d="M762.595807,379.934475 C762.703994,403.407668 746.189359,422.512973 746.189359,422.512973 C746.189359,422.512973 729.499323,403.560704 729.391136,380.087511 C729.282948,356.614319 745.797583,337.509013 745.797583,337.509013 C745.797583,337.509013 762.487619,356.461248 762.595807,379.934475 Z" id="Shape" fill="#17A2B8"></path>
                <path d="M762.595807,379.934475 C762.703994,403.407668 746.189359,422.512973 746.189359,422.512973 C746.189359,422.512973 729.499323,403.560704 729.391136,380.087511 C729.282948,356.614319 745.797583,337.509013 745.797583,337.509013 C745.797583,337.509013 762.487619,356.461248 762.595807,379.934475 Z" id="Shape" fill="#000000" opacity="0.1"></path>
                <circle id="Oval" fill="#17A2B8" opacity="0.4" cx="425.732605" cy="211.363276" r="26.552245"></circle>
                <circle id="Oval" fill="#17A2B8" opacity="0.4" cx="376.591132" cy="224.044945" r="18.6262028"></circle>
                <circle id="Oval" fill="#17A2B8" opacity="0.4" cx="176.90483" cy="277.577869" r="18.6262028"></circle>
                <circle id="Oval" fill="#17A2B8" opacity="0.4" cx="727.633276" cy="209.178912" r="26.552245"></circle>
                <path d="M48.1206428,431.044073 C49.5600836,436.36494 54.4902959,439.660325 54.4902959,439.660325 C54.4902959,439.660325 57.0868296,434.328837 55.6474313,429.00797 C54.2080329,423.687103 49.2777867,420.391718 49.2777867,420.391718 C49.2777867,420.391718 46.6812529,425.723198 48.1206428,431.044073 Z" id="Shape" fill="#3F3D56"></path>
                <path d="M50.2357371,429.900559 C54.1854556,433.745455 54.6679232,439.655957 54.6679232,439.655957 C54.6679232,439.655957 48.7465871,439.332644 44.7968601,435.487748 C40.847133,431.642852 40.3646739,425.732358 40.3646739,425.732358 C40.3646739,425.732358 46.28601,426.055663 50.2357371,429.900559 Z" id="Shape" fill="#17A2B8"></path>
                <path d="M568.154755,431.044073 C569.594153,436.36494 574.524408,439.660325 574.524408,439.660325 C574.524408,439.660325 577.120942,434.328837 575.681543,429.00797 C574.242145,423.687103 569.311899,420.391718 569.311899,420.391718 C569.311899,420.391718 566.715365,425.723198 568.154755,431.044073 Z" id="Shape" fill="#3F3D56"></path>
                <path d="M570.269849,429.900559 C574.219568,433.745455 574.702035,439.655957 574.702035,439.655957 C574.702035,439.655957 568.780699,439.332644 564.830972,435.487748 C560.881245,431.642852 560.398786,425.732358 560.398786,425.732358 C560.398786,425.732358 566.320122,426.055663 570.269849,429.900559 Z" id="Shape" fill="#17A2B8"></path>
                <polygon id="Shape" fill="#3F3D56" points="57.8979809 391.047808 54.3826522 385.188927 87.1940856 357.064598 171.567071 357.064598 171.567071 365.267032 141.09919 398.079315 105.943355 405.109972"></polygon>
                <polygon id="Shape" fill="#CCCCCC" points="186.090638 373.568884 186.090638 355.234282 175.044162 355.234282 175.044162 361.015838 171.567071 357.064598 143.442743 385.188927 138.754788 389.876032 132.895907 413.313255 143.442743 439.093182 197.346997 439.093182 197.346997 386.360703"></polygon>
                <rect id="Rectangle-path" fill="#F2F2F2" x="54.3826522" y="385.188681" width="89.0599034" height="53.9046797"></rect>
                <rect id="Rectangle-path" fill="#3F3D56" x="112.388778" y="402.18037" width="18.749456" height="16.4057762"></rect>
                <rect id="Rectangle-path" fill="#CCCCCC" x="88.3660402" y="401.594448" width="16.4057762" height="37.4989036"></rect>
                <polygon id="Shape" fill="#3F3D56" points="69.6165927 407.453525 69.6165927 401.594644 62.5859354 401.594644 62.5859354 407.453525 69.0302797 407.453525"></polygon>
                <polygon id="Shape" fill="#3F3D56" points="69.0302797 412.140629 62.5859354 412.140629 62.5859354 418.00036 69.6165927 418.00036 69.6165927 412.140629"></polygon>
                <rect id="Rectangle-path" fill="#3F3D56" x="74.303944" y="401.594448" width="7.03104814" height="5.85920395"></rect>
                <rect id="Rectangle-path" fill="#3F3D56" x="74.303944" y="412.14102" width="7.03104814" height="5.85920395"></rect>
                <polygon id="Shape" fill="#3F3D56" points="168.637206 408.039838 168.637206 402.180107 161.605699 402.180107 161.605699 408.039838 168.050893 408.039838"></polygon>
                <polygon id="Shape" fill="#3F3D56" points="168.050893 412.726942 161.605699 412.726942 161.605699 418.585824 168.637206 418.585824 168.637206 412.726942"></polygon>
                <rect id="Rectangle-path" fill="#3F3D56" x="173.324497" y="402.18037" width="7.03104814" height="5.85920395"></rect>
                <rect id="Rectangle-path" fill="#3F3D56" x="173.324497" y="412.726942" width="7.03104814" height="5.85920395"></rect>
                <polygon id="Shape" fill="#3F3D56" points="396.939828 391.047808 393.4245 385.188927 426.235933 357.064598 510.608919 357.064598 510.608919 365.267032 480.141038 398.079315 444.985202 405.109972"></polygon>
                <polygon id="Shape" fill="#CCCCCC" points="525.132486 373.568884 525.132486 355.234282 514.086009 355.234282 514.086009 361.015838 510.608919 357.064598 482.48459 385.188927 477.796636 389.876032 471.937755 413.313255 482.48459 439.093182 536.388845 439.093182 536.388845 386.360703"></polygon>
                <rect id="Rectangle-path" fill="#F2F2F2" x="393.4245" y="385.188681" width="89.0599034" height="53.9046797"></rect>
                <rect id="Rectangle-path" fill="#3F3D56" x="451.430626" y="402.18037" width="18.749456" height="16.4057762"></rect>
                <rect id="Rectangle-path" fill="#CCCCCC" x="427.407888" y="401.594448" width="16.4057762" height="37.4989036"></rect>
                <polygon id="Shape" fill="#3F3D56" points="408.65844 407.453525 408.65844 401.594644 401.627783 401.594644 401.627783 407.453525 408.072127 407.453525"></polygon>
                <polygon id="Shape" fill="#3F3D56" points="408.072127 412.140629 401.627783 412.140629 401.627783 418.00036 408.65844 418.00036 408.65844 412.140629"></polygon>
                <rect id="Rectangle-path" fill="#3F3D56" x="413.345792" y="401.594448" width="7.03104814" height="5.85920395"></rect>
                <rect id="Rectangle-path" fill="#3F3D56" x="413.345792" y="412.14102" width="7.03104814" height="5.85920395"></rect>
                <polygon id="Shape" fill="#3F3D56" points="507.679053 408.039838 507.679053 402.180107 500.647546 402.180107 500.647546 408.039838 507.09274 408.039838"></polygon>
                <polygon id="Shape" fill="#3F3D56" points="507.09274 412.726942 500.647546 412.726942 500.647546 418.585824 507.679053 418.585824 507.679053 412.726942"></polygon>
                <rect id="Rectangle-path" fill="#3F3D56" x="512.366345" y="402.18037" width="7.03104814" height="5.85920395"></rect>
                <rect id="Rectangle-path" fill="#3F3D56" x="512.366345" y="412.726942" width="7.03104814" height="5.85920395"></rect>
                <polygon id="Shape" fill="#3F3D56" points="238.361714 292.613508 232.502833 287.925553 265.314266 258.629449 348.514626 258.629449 348.514626 284.410225 294.610371 320.737836"></polygon>
                <polygon id="Shape" fill="#CCCCCC" points="363.683987 275.063206 363.683987 259.214912 352.637511 259.214912 352.637511 263.096474 348.514626 258.629449 321.562074 287.925553 311.016088 294.95706 294.663054 414.431499 319.324737 439.093182 376.638954 439.093182 376.638954 289.09733"></polygon>
                <rect id="Rectangle-path" fill="#F2F2F2" x="232.502468" y="287.925885" width="89.0599034" height="151.167475"></rect>
                <rect id="Rectangle-path" fill="#CCCCCC" x="267.071769" y="402.18037" width="16.4057762" height="36.91299"></rect>
                <polygon id="Shape" fill="#3F3D56" points="249.494013 412.726942 249.494013 406.868061 242.463356 406.868061 242.463356 412.726942 248.90855 412.726942"></polygon>
                <polygon id="Shape" fill="#3F3D56" points="248.90855 417.414047 242.463356 417.414047 242.463356 423.273778 249.494013 423.273778 249.494013 417.414047"></polygon>
                <rect id="Rectangle-path" fill="#3F3D56" x="254.181517" y="406.867739" width="7.03104814" height="5.85920395"></rect>
                <rect id="Rectangle-path" fill="#3F3D56" x="254.181517" y="417.414302" width="7.03104814" height="5.85920395"></rect>
                <polygon id="Shape" fill="#3F3D56" points="297.539387 412.726942 297.539387 406.868061 290.508729 406.868061 290.508729 412.726942 296.953923 412.726942"></polygon>
                <polygon id="Shape" fill="#3F3D56" points="296.953923 417.414047 290.508729 417.414047 290.508729 423.273778 297.539387 423.273778 297.539387 417.414047"></polygon>
                <rect id="Rectangle-path" fill="#3F3D56" x="302.226993" y="406.867739" width="7.03104814" height="5.85920395"></rect>
                <rect id="Rectangle-path" fill="#3F3D56" x="302.226993" y="417.414302" width="7.03104814" height="5.85920395"></rect>
                <polygon id="Shape" fill="#3F3D56" points="346.756537 295.542524 346.756537 289.683643 339.725879 289.683643 339.725879 295.542524 346.171073 295.542524"></polygon>
                <polygon id="Shape" fill="#3F3D56" points="346.171073 300.230478 339.725879 300.230478 339.725879 306.089359 346.756537 306.089359 346.756537 300.230478"></polygon>
                <rect id="Rectangle-path" fill="#3F3D56" x="351.444313" y="289.683651" width="7.03104814" height="5.85920395"></rect>
                <rect id="Rectangle-path" fill="#3F3D56" x="351.444313" y="300.230215" width="7.03104814" height="5.85920395"></rect>
                <polygon id="Shape" fill="#3F3D56" points="346.756537 328.354807 346.756537 322.495076 339.725879 322.495076 339.725879 328.354807 346.171073 328.354807"></polygon>
                <polygon id="Shape" fill="#3F3D56" points="346.171073 333.041912 339.725879 333.041912 339.725879 338.900793 346.756537 338.900793 346.756537 333.041912"></polygon>
                <rect id="Rectangle-path" fill="#3F3D56" x="351.444313" y="322.495195" width="7.03104814" height="5.85920395"></rect>
                <rect id="Rectangle-path" fill="#3F3D56" x="351.444313" y="333.041759" width="7.03104814" height="5.85920395"></rect>
                <polygon id="Shape" fill="#3F3D56" points="346.756537 361.16624 346.756537 355.306509 339.725879 355.306509 339.725879 361.16624 346.171073 361.16624"></polygon>
                <polygon id="Shape" fill="#3F3D56" points="346.171073 365.853345 339.725879 365.853345 339.725879 371.712226 346.756537 371.712226 346.756537 365.853345"></polygon>
                <rect id="Rectangle-path" fill="#3F3D56" x="351.444313" y="355.306739" width="7.03104814" height="5.85920395"></rect>
                <rect id="Rectangle-path" fill="#3F3D56" x="351.444313" y="365.853302" width="7.03104814" height="5.85920395"></rect>
                <polygon id="Shape" fill="#3F3D56" points="346.756537 393.977673 346.756537 388.117943 339.725879 388.117943 339.725879 393.977673 346.171073 393.977673"></polygon>
                <polygon id="Shape" fill="#3F3D56" points="346.171073 398.664778 339.725879 398.664778 339.725879 404.523659 346.756537 404.523659 346.756537 398.664778"></polygon>
                <rect id="Rectangle-path" fill="#3F3D56" x="351.444313" y="388.118282" width="7.03104814" height="5.85920395"></rect>
                <rect id="Rectangle-path" fill="#3F3D56" x="351.444313" y="398.664846" width="7.03104814" height="5.85920395"></rect>
                <rect id="Rectangle-path" fill="#3F3D56" x="242.463109" y="295.542855" width="67.9667675" height="14.0620878"></rect>
                <rect id="Rectangle-path" fill="#3F3D56" x="242.463109" y="323.667031" width="67.9667675" height="14.0620878"></rect>
                <rect id="Rectangle-path" fill="#3F3D56" x="242.463109" y="351.791215" width="67.9667675" height="14.0620878"></rect>
                <rect id="Rectangle-path" fill="#3F3D56" x="242.463109" y="379.915399" width="67.9667675" height="14.0620878"></rect>
                <polygon id="Shape" fill="#3F3D56" points="580.802477 292.613508 574.943596 287.925553 607.75503 258.629449 690.955389 258.629449 690.955389 284.410225 637.051134 320.737836"></polygon>
                <polygon id="Shape" fill="#CCCCCC" points="706.12475 275.063206 706.12475 259.214912 695.078274 259.214912 695.078274 263.096474 690.955389 258.629449 664.002837 287.925553 653.456851 294.95706 637.103818 414.431499 661.765501 439.093182 719.079718 439.093182 719.079718 289.09733"></polygon>
                <rect id="Rectangle-path" fill="#F2F2F2" x="574.943231" y="287.925885" width="89.0599034" height="151.167475"></rect>
                <rect id="Rectangle-path" fill="#CCCCCC" x="609.512532" y="402.18037" width="16.4057762" height="36.91299"></rect>
                <polygon id="Shape" fill="#3F3D56" points="591.934776 412.726942 591.934776 406.868061 584.904119 406.868061 584.904119 412.726942 591.349313 412.726942"></polygon>
                <polygon id="Shape" fill="#3F3D56" points="591.349313 417.414047 584.904119 417.414047 584.904119 423.273778 591.934776 423.273778 591.934776 417.414047"></polygon>
                <rect id="Rectangle-path" fill="#3F3D56" x="596.62228" y="406.867739" width="7.03104814" height="5.85920395"></rect>
                <rect id="Rectangle-path" fill="#3F3D56" x="596.62228" y="417.414302" width="7.03104814" height="5.85920395"></rect>
                <polygon id="Shape" fill="#3F3D56" points="639.98015 412.726942 639.98015 406.868061 632.949493 406.868061 632.949493 412.726942 639.394687 412.726942"></polygon>
                <polygon id="Shape" fill="#3F3D56" points="639.394687 417.414047 632.949493 417.414047 632.949493 423.273778 639.98015 423.273778 639.98015 417.414047"></polygon>
                <rect id="Rectangle-path" fill="#3F3D56" x="644.667756" y="406.867739" width="7.03104814" height="5.85920395"></rect>
                <rect id="Rectangle-path" fill="#3F3D56" x="644.667756" y="417.414302" width="7.03104814" height="5.85920395"></rect>
                <polygon id="Shape" fill="#3F3D56" points="689.1973 295.542524 689.1973 289.683643 682.166643 289.683643 682.166643 295.542524 688.611837 295.542524"></polygon>
                <polygon id="Shape" fill="#3F3D56" points="688.611837 300.230478 682.166643 300.230478 682.166643 306.089359 689.1973 306.089359 689.1973 300.230478"></polygon>
                <rect id="Rectangle-path" fill="#3F3D56" x="693.885076" y="289.683651" width="7.03104814" height="5.85920395"></rect>
                <rect id="Rectangle-path" fill="#3F3D56" x="693.885076" y="300.230215" width="7.03104814" height="5.85920395"></rect>
                <polygon id="Shape" fill="#3F3D56" points="689.1973 328.354807 689.1973 322.495076 682.166643 322.495076 682.166643 328.354807 688.611837 328.354807"></polygon>
                <polygon id="Shape" fill="#3F3D56" points="688.611837 333.041912 682.166643 333.041912 682.166643 338.900793 689.1973 338.900793 689.1973 333.041912"></polygon>
                <rect id="Rectangle-path" fill="#3F3D56" x="693.885076" y="322.495195" width="7.03104814" height="5.85920395"></rect>
                <rect id="Rectangle-path" fill="#3F3D56" x="693.885076" y="333.041759" width="7.03104814" height="5.85920395"></rect>
                <polygon id="Shape" fill="#3F3D56" points="689.1973 361.16624 689.1973 355.306509 682.166643 355.306509 682.166643 361.16624 688.611837 361.16624"></polygon>
                <polygon id="Shape" fill="#3F3D56" points="688.611837 365.853345 682.166643 365.853345 682.166643 371.712226 689.1973 371.712226 689.1973 365.853345"></polygon>
                <rect id="Rectangle-path" fill="#3F3D56" x="693.885076" y="355.306739" width="7.03104814" height="5.85920395"></rect>
                <rect id="Rectangle-path" fill="#3F3D56" x="693.885076" y="365.853302" width="7.03104814" height="5.85920395"></rect>
                <polygon id="Shape" fill="#3F3D56" points="689.1973 393.977673 689.1973 388.117943 682.166643 388.117943 682.166643 393.977673 688.611837 393.977673"></polygon>
                <polygon id="Shape" fill="#3F3D56" points="688.611837 398.664778 682.166643 398.664778 682.166643 404.523659 689.1973 404.523659 689.1973 398.664778"></polygon>
                <rect id="Rectangle-path" fill="#3F3D56" x="693.885076" y="388.118282" width="7.03104814" height="5.85920395"></rect>
                <rect id="Rectangle-path" fill="#3F3D56" x="693.885076" y="398.664846" width="7.03104814" height="5.85920395"></rect>
                <rect id="Rectangle-path" fill="#3F3D56" x="584.903872" y="295.542855" width="67.9667675" height="14.0620878"></rect>
                <rect id="Rectangle-path" fill="#3F3D56" x="584.903872" y="323.667031" width="67.9667675" height="14.0620878"></rect>
                <rect id="Rectangle-path" fill="#3F3D56" x="584.903872" y="351.791215" width="67.9667675" height="14.0620878"></rect>
                <rect id="Rectangle-path" fill="#3F3D56" x="584.903872" y="379.915399" width="67.9667675" height="14.0620878"></rect>
                <polygon id="Shape" fill="#3F3D56" points="768.592573 292.613508 762.733692 287.925553 795.545126 258.629449 878.745485 258.629449 878.745485 284.410225 824.84123 320.737836"></polygon>
                <polygon id="Shape" fill="#CCCCCC" points="893.914846 275.063206 893.914846 259.214912 882.86837 259.214912 882.86837 263.096474 878.745485 258.629449 851.792933 287.925553 841.246947 294.95706 824.893914 414.431499 849.555597 439.093182 906.869814 439.093182 906.869814 289.09733"></polygon>
                <rect id="Rectangle-path" fill="#F2F2F2" x="762.733327" y="287.925885" width="89.0599034" height="151.167475"></rect>
                <rect id="Rectangle-path" fill="#CCCCCC" x="797.302629" y="402.18037" width="16.4057762" height="36.91299"></rect>
                <polygon id="Shape" fill="#3F3D56" points="779.724872 412.726942 779.724872 406.868061 772.694215 406.868061 772.694215 412.726942 779.139409 412.726942"></polygon>
                <polygon id="Shape" fill="#3F3D56" points="779.139409 417.414047 772.694215 417.414047 772.694215 423.273778 779.724872 423.273778 779.724872 417.414047"></polygon>
                <rect id="Rectangle-path" fill="#3F3D56" x="784.412376" y="406.867739" width="7.03104814" height="5.85920395"></rect>
                <rect id="Rectangle-path" fill="#3F3D56" x="784.412376" y="417.414302" width="7.03104814" height="5.85920395"></rect>
                <polygon id="Shape" fill="#3F3D56" points="827.770246 412.726942 827.770246 406.868061 820.739589 406.868061 820.739589 412.726942 827.184783 412.726942"></polygon>
                <polygon id="Shape" fill="#3F3D56" points="827.184783 417.414047 820.739589 417.414047 820.739589 423.273778 827.770246 423.273778 827.770246 417.414047"></polygon>
                <rect id="Rectangle-path" fill="#3F3D56" x="832.457852" y="406.867739" width="7.03104814" height="5.85920395"></rect>
                <rect id="Rectangle-path" fill="#3F3D56" x="832.457852" y="417.414302" width="7.03104814" height="5.85920395"></rect>
                <polygon id="Shape" fill="#3F3D56" points="876.987396 295.542524 876.987396 289.683643 869.956739 289.683643 869.956739 295.542524 876.401933 295.542524"></polygon>
                <polygon id="Shape" fill="#3F3D56" points="876.401933 300.230478 869.956739 300.230478 869.956739 306.089359 876.987396 306.089359 876.987396 300.230478"></polygon>
                <rect id="Rectangle-path" fill="#3F3D56" x="881.675172" y="289.683651" width="7.03104814" height="5.85920395"></rect>
                <rect id="Rectangle-path" fill="#3F3D56" x="881.675172" y="300.230215" width="7.03104814" height="5.85920395"></rect>
                <polygon id="Shape" fill="#3F3D56" points="876.987396 328.354807 876.987396 322.495076 869.956739 322.495076 869.956739 328.354807 876.401933 328.354807"></polygon>
                <polygon id="Shape" fill="#3F3D56" points="876.401933 333.041912 869.956739 333.041912 869.956739 338.900793 876.987396 338.900793 876.987396 333.041912"></polygon>
                <rect id="Rectangle-path" fill="#3F3D56" x="881.675172" y="322.495195" width="7.03104814" height="5.85920395"></rect>
                <rect id="Rectangle-path" fill="#3F3D56" x="881.675172" y="333.041759" width="7.03104814" height="5.85920395"></rect>
                <polygon id="Shape" fill="#3F3D56" points="876.987396 361.16624 876.987396 355.306509 869.956739 355.306509 869.956739 361.16624 876.401933 361.16624"></polygon>
                <polygon id="Shape" fill="#3F3D56" points="876.401933 365.853345 869.956739 365.853345 869.956739 371.712226 876.987396 371.712226 876.987396 365.853345"></polygon>
                <rect id="Rectangle-path" fill="#3F3D56" x="881.675172" y="355.306739" width="7.03104814" height="5.85920395"></rect>
                <rect id="Rectangle-path" fill="#3F3D56" x="881.675172" y="365.853302" width="7.03104814" height="5.85920395"></rect>
                <polygon id="Shape" fill="#3F3D56" points="876.987396 393.977673 876.987396 388.117943 869.956739 388.117943 869.956739 393.977673 876.401933 393.977673"></polygon>
                <polygon id="Shape" fill="#3F3D56" points="876.401933 398.664778 869.956739 398.664778 869.956739 404.523659 876.987396 404.523659 876.987396 398.664778"></polygon>
                <rect id="Rectangle-path" fill="#3F3D56" x="881.675172" y="388.118282" width="7.03104814" height="5.85920395"></rect>
                <rect id="Rectangle-path" fill="#3F3D56" x="881.675172" y="398.664846" width="7.03104814" height="5.85920395"></rect>
                <rect id="Rectangle-path" fill="#3F3D56" x="772.693969" y="295.542855" width="67.9667675" height="14.0620878"></rect>
                <rect id="Rectangle-path" fill="#3F3D56" x="772.693969" y="323.667031" width="67.9667675" height="14.0620878"></rect>
                <rect id="Rectangle-path" fill="#3F3D56" x="772.693969" y="351.791215" width="67.9667675" height="14.0620878"></rect>
                <rect id="Rectangle-path" fill="#3F3D56" x="772.693969" y="379.915399" width="67.9667675" height="14.0620878"></rect>
                <rect id="Rectangle-path" fill="#3F3D56" x="0" y="438.508262" width="966.141806" height="1.69945788"></rect>
                <rect id="Rectangle-path" fill="#3F3D56" x="214.131693" y="371.379676" width="1.69945788" height="67.1285864"></rect>
                <path d="M231.515218,379.934475 C231.623406,403.407668 215.108771,422.512973 215.108771,422.512973 C215.108771,422.512973 198.418735,403.560704 198.310548,380.087511 C198.20236,356.614319 214.716995,337.509013 214.716995,337.509013 C214.716995,337.509013 231.407031,356.461248 231.515218,379.934475 Z" id="Shape" fill="#17A2B8"></path>
                <rect id="Rectangle-path" fill="#3F3D56" x="384.077481" y="371.379676" width="1.69945788" height="67.1285864"></rect>
                <path d="M401.461007,379.934475 C401.569194,403.407668 385.054559,422.512973 385.054559,422.512973 C385.054559,422.512973 368.364523,403.560704 368.256336,380.087511 C368.148148,356.614319 384.662783,337.509013 384.662783,337.509013 C384.662783,337.509013 401.352819,356.461248 401.461007,379.934475 Z" id="Shape" fill="#17A2B8"></path>
                <rect id="Rectangle-path" fill="#3F3D56" x="723.119329" y="371.379676" width="1.69945788" height="67.1285864"></rect>
                <path d="M740.502854,379.934475 C740.611042,403.407668 724.096407,422.512973 724.096407,422.512973 C724.096407,422.512973 707.406371,403.560704 707.298183,380.087511 C707.189996,356.614319 723.704631,337.509013 723.704631,337.509013 C723.704631,337.509013 740.394667,356.461248 740.502854,379.934475 Z" id="Shape" fill="#17A2B8"></path>
                <ellipse id="Oval" fill="#17A2B8" cx="499.215753" cy="138.930682" rx="32.2896998" ry="7.26518245"></ellipse>
                <path d="M535.754097,37.3880734 C535.754097,58.036937 498.366024,116.412865 498.366024,116.412865 C498.366024,116.412865 460.977951,58.036937 460.977951,37.3880734 C460.977951,16.7392106 477.717161,0 498.366024,0 C519.014887,0 535.754097,16.7392106 535.754097,37.3880734 Z" id="Shape" fill="#17A2B8"></path>
                <circle id="Oval" fill="#F2F2F2" cx="498.366024" cy="37.3880734" r="21.2432235"></circle>
            </g>
            <g id="undraw_travelers_qlt1" transform="translate(0.000000, 33.000000)">
                <ellipse id="Oval" fill="#3F3D56" fill-rule="nonzero" cx="340.5" cy="69" rx="64.5" ry="56"></ellipse>
                <ellipse id="Oval" fill="#3F3D56" fill-rule="nonzero" cx="469.5" cy="261" rx="92.5" ry="104"></ellipse>
                <ellipse id="Oval" fill="#3F3D56" fill-rule="nonzero" cx="765.5" cy="1185.5" rx="23.5" ry="26.5"></ellipse>
                <ellipse id="Oval" fill="#3F3D56" fill-rule="nonzero" cx="643.5" cy="1185.5" rx="23.5" ry="26.5"></ellipse>
                <rect id="Rectangle-path" fill="#3F3D56" fill-rule="nonzero" x="669" y="557" width="11" height="319"></rect>
                <rect id="Rectangle-path" fill="#3F3D56" fill-rule="nonzero" x="725" y="557" width="11" height="319"></rect>
                <path d="M671.570613,566 L669,557.254445 C669,557.254445 697.228245,519.350915 737,549.905239 L734.429387,563.041945 L724.1631,563.041945 C724.1631,563.041945 707.494532,547.149287 679.266286,565.301825 L671.570613,566 Z" id="Shape" fill="#3F3D56" fill-rule="nonzero"></path>
                <rect id="Rectangle-path" fill="#FBBEBE" fill-rule="nonzero" x="405" y="511" width="93" height="133"></rect>
                <rect id="Rectangle-path" fill="#FBBEBE" fill-rule="nonzero" x="535" y="474" width="29" height="63"></rect>
                <path d="M417.151749,1158.91586 L405.738995,1198.21577 C405.738995,1198.21577 400.656004,1227.31935 417.151749,1228.76811 C433.647494,1230.21687 460.309222,1224.40349 460.309222,1224.40349 C460.309222,1224.40349 464.113473,1211.30963 460.309222,1199.66453 C456.50497,1188.01944 445.092216,1156 445.092216,1156 L417.151749,1158.91586 Z" id="Shape" fill="#3C354C" fill-rule="nonzero"></path>
                <path d="M505.2357,1160 C505.2357,1160 487.317143,1210.08891 501.397162,1218.67146 C515.47718,1227.25401 534.686002,1220.09588 550.040157,1227.25401 C565.394311,1234.41215 607.634366,1217.24705 607.634366,1217.24705 C607.634366,1217.24705 612.76317,1201.50636 584.603133,1197.21509 C584.603133,1197.21509 553.959337,1171.44941 553.959337,1165.73372 C553.959337,1160.01803 536.04078,1160 536.04078,1160 L505.2357,1160 Z" id="Shape" fill="#3C354C" fill-rule="nonzero"></path>
                <path d="M501.721273,582.827579 C501.721273,582.827579 395.528774,607.43664 382.587226,600.194389 C369.645678,592.952137 356.68781,698.703603 356.68781,698.703603 C356.68781,698.703603 351.498135,762.406228 369.629358,847.817364 C387.760581,933.228501 369.629358,975.222614 369.629358,975.222614 C369.629358,975.222614 372.224196,1056.29205 391.660997,1093.94446 C411.097798,1131.59687 411.081479,1166.33049 411.081479,1166.33049 C411.081479,1166.33049 448.616863,1170.67219 449.938762,1160.52939 C449.938762,1160.52939 434.386057,1119.99467 436.980894,1082.36051 C439.575732,1044.72634 429.212701,972.322065 429.212701,972.322065 C429.212701,972.322065 446.054665,881.10983 443.459828,846.449181 C440.86499,811.788532 452.533599,737.870136 458.996213,750.895244 C465.458827,763.920351 482.317111,827.622976 482.317111,840.666325 C482.317111,853.709675 488.845004,940.543723 492.680141,946.344821 C496.515278,952.145919 495.258659,969.512728 493.9694,978.196133 C492.680141,986.879538 492.680141,1052.02332 499.142755,1086.77518 C505.605369,1121.52704 500.448334,1160.60236 501.737593,1166.40346 C503.026852,1172.20456 540.594876,1167.84461 541.884135,1157.70181 C541.884135,1157.70181 547.07381,1095.45858 549.668647,1086.77518 C552.263485,1078.09177 553.487465,967.907393 553.487465,967.907393 C553.487465,967.907393 556.065982,882.496256 558.66082,873.812851 C561.255657,865.129447 565.188713,678.363274 548.29779,656.727732 C531.406867,635.09219 537.93476,580 537.93476,580 L501.721273,582.827579 Z" id="Shape" fill="#3F3D56" fill-rule="nonzero"></path>
                <path d="M415.4646,330.203951 C410.680454,340.357045 405.863763,350.601773 402.869604,361.61623 C399.875445,372.630688 398.833999,384.561489 401.649159,395.630927 C403.663258,402.545089 406.463727,409.136465 409.980732,415.240693 C412.778056,421.074407 416.325878,426.410247 420.509107,431.075121 C430.272669,441.118253 444.462379,443.13421 457.643188,444.710322 C459.903888,445.135738 462.214588,445.092261 464.461409,444.582034 C466.263562,443.992411 467.929638,442.966643 469.34319,441.576425 C475.119965,436.07836 477.739854,427.684647 479.855292,419.584164 C484.88704,400.31948 488.490233,380.617635 490.627756,360.681559 C491.124081,357.52949 491.124081,354.303649 490.627756,351.15158 C489.488674,345.653515 485.583249,341.383351 482.751816,336.655014 C479.360451,331.004917 477.423072,324.408303 477.15404,317.595055 C477.040132,314.277889 477.15404,310.612512 475.298963,308.083402 C474.064897,306.706694 472.567616,305.666078 470.921633,305.04114 C463.224691,301.375763 455.544022,297.710386 447.830808,294.191624 C443.176844,292.029052 434.812725,286.274411 429.930944,290.526248 C425.748885,294.191624 427.766688,302.695299 425.976702,307.790172 C423.226632,315.524117 418.914392,322.873198 415.4646,330.203951 Z" id="Shape" fill="#FBBEBE" fill-rule="nonzero"></path>
                <path d="M415.4646,330.203951 C410.680454,340.357045 405.863763,350.601773 402.869604,361.61623 C399.875445,372.630688 398.833999,384.561489 401.649159,395.630927 C403.663258,402.545089 406.463727,409.136465 409.980732,415.240693 C412.778056,421.074407 416.325878,426.410247 420.509107,431.075121 C430.272669,441.118253 444.462379,443.13421 457.643188,444.710322 C459.903888,445.135738 462.214588,445.092261 464.461409,444.582034 C466.263562,443.992411 467.929638,442.966643 469.34319,441.576425 C475.119965,436.07836 477.739854,427.684647 479.855292,419.584164 C484.88704,400.31948 488.490233,380.617635 490.627756,360.681559 C491.124081,357.52949 491.124081,354.303649 490.627756,351.15158 C489.488674,345.653515 485.583249,341.383351 482.751816,336.655014 C479.360451,331.004917 477.423072,324.408303 477.15404,317.595055 C477.040132,314.277889 477.15404,310.612512 475.298963,308.083402 C474.064897,306.706694 472.567616,305.666078 470.921633,305.04114 C463.224691,301.375763 455.544022,297.710386 447.830808,294.191624 C443.176844,292.029052 434.812725,286.274411 429.930944,290.526248 C425.748885,294.191624 427.766688,302.695299 425.976702,307.790172 C423.226632,315.524117 418.914392,322.873198 415.4646,330.203951 Z" id="Shape" fill="#000000" fill-rule="nonzero" opacity="0.1"></path>
                <ellipse id="Oval" fill="#FBBEBE" fill-rule="nonzero" cx="465.5" cy="284" rx="45.5" ry="51"></ellipse>
                <path d="M480.379167,411.342624 C471.873765,414.785978 463.093473,417.755643 454.054462,418.120019 C447.283159,418.196387 440.527034,417.383199 433.922855,415.696918 C420.277623,412.63903 406.876724,408.331159 393.853679,402.816225 C391.072445,408.992399 390.328626,416.043075 390.086077,422.96622 C389.390768,443.899623 393.09369,464.669058 394.516647,485.566023 C396.311514,512.129037 394.516647,539.275052 400.580385,565 C400.930505,560.628195 402.440534,556.476372 404.913936,553.084904 C406.975394,550.582289 409.438919,548.542264 412.17425,547.072699 C424.412033,539.945042 438.504728,537.968326 451.920027,541.497745 C459.697781,543.574689 467.960633,547.455294 475.334138,543.975503 C479.732369,541.88034 482.917852,537.47139 485.359517,532.843815 C489.504866,524.493831 492.462176,515.462949 494.123638,506.080394 C498.974628,481.958701 499.621427,457.017161 500.203546,432.276028 C500.365245,425.662603 502.88776,406.004515 498.0206,401.158314 C494.608737,397.787836 493.606199,402.597599 491.148365,405.111794 C487.95108,407.955696 484.29346,410.071918 480.379167,411.342624 Z" id="Shape" fill="#F2F2F2" fill-rule="nonzero"></path>
                <path d="M417.458139,324.651883 C414.451024,322.00785 409.997243,322.828412 406.681289,325.071281 C403.365335,327.31415 400.683314,330.41405 397.318596,332.456337 C387.988412,338.12733 375.456057,333.969817 366.597258,340.570781 C358.274864,346.788816 356.844453,359.589579 356.194266,370.785689 C354.568798,399.23183 353.170896,427.878553 347.075393,455.558836 C345.449925,462.852719 343.499364,470.328948 344.117042,477.841647 C344.603458,482.133735 345.5083,486.352975 346.815318,490.423594 L354.812618,518.450337 C358.518684,531.469917 362.273515,544.690079 362.663627,558.347874 C363.053739,572.005669 360.192916,584.988779 357.348348,598.026594 C351.726471,623.712184 348.066755,649.888668 346.408951,676.271717 C345.905056,685.006141 345.693745,694.123494 348.847152,702.12853 C352.098088,710.49826 358.697486,716.716295 365.654487,721.439084 C372.611488,726.161872 380.169913,729.808814 386.980622,734.823358 C400.650804,744.90715 411.62271,760.789579 427.617311,764.928857 C434.94817,766.752328 442.620377,766.02294 450,764.418286 C450,764.418286 445.822548,551.582798 434.200455,521.185543 C422.578362,490.788288 412.272897,359.115477 412.272897,354.775617 C412.272897,350.435757 417.458139,324.651883 417.458139,324.651883 Z" id="Shape" fill="#17A2B8" fill-rule="nonzero"></path>
                <path d="M480.25431,331 C480.25431,331 541.834978,331 550.95318,367.240293 C560.071383,403.480586 524.926944,462.919051 524.926944,462.919051 C524.926944,462.919051 539.243834,580.334679 545.738093,591.933765 C552.232353,603.53285 549.657608,626.639691 549.657608,626.639691 C554.372828,642.545319 555.266177,659.549002 552.248752,675.958638 C547.050065,702.042881 527.518087,748.439224 527.518087,748.439224 C527.518087,748.439224 501.491851,748.439224 494.981192,765.82872 C488.470532,783.218216 487.17496,690.443795 487.17496,690.443795 C487.17496,690.443795 463.756267,520.841415 465.051839,510.703631 C466.347411,500.565848 472.85807,416.467909 475.465614,393.269738 C478.073157,370.071566 483.747435,339.694748 480.25431,331 Z" id="Shape" fill="#17A2B8" fill-rule="nonzero"></path>
                <path d="M527.773365,354 C527.773365,354 557.624906,364.115938 557.624906,375.69003 C557.624906,387.264122 566.763466,449.45436 566.763466,469.704464 C566.763466,489.954567 562.87263,492.852647 566.763466,500.088733 C570.654302,507.324819 525.255766,504.426739 525.255766,504.426739 L517,421.986397 L527.773365,354 Z" id="Shape" fill="#17A2B8" fill-rule="nonzero"></path>
                <path d="M352.162686,458.506142 C352.162686,458.506142 410.336548,462.872168 420.678206,454.121771 C431.019864,445.371375 474.959696,465.770622 478.835782,477.419473 C482.711868,489.068324 416.785834,490.517551 406.460462,490.517551 C396.13509,490.517551 347,508 347,508 L352.162686,458.506142 Z" id="Shape" fill="#A0616A" fill-rule="nonzero"></path>
                <path d="M232.018069,1133.32646 C232.018069,1133.32646 205.010484,1210.00045 219.041452,1219.12831 C233.07242,1228.25617 381.02208,1221.75713 381.02208,1221.75713 C381.02208,1221.75713 405.661433,1204.59676 377.502173,1192.69404 C377.502173,1192.69404 354.014495,1191.37963 338.76697,1180.80957 C323.519444,1170.23951 305.887465,1150.43206 305.887465,1150.43206 C305.887465,1150.43206 304.719569,1121.36897 295.327742,1127.97754 C289.646937,1132.18877 285.811654,1138.90543 284.76802,1146.47057 L232.018069,1133.32646 Z" id="Shape" fill="#3F3D56" fill-rule="nonzero"></path>
                <path d="M232.018069,1133.32646 C232.018069,1133.32646 205.010484,1210.00045 219.041452,1219.12831 C233.07242,1228.25617 381.02208,1221.75713 381.02208,1221.75713 C381.02208,1221.75713 405.661433,1204.59676 377.502173,1192.69404 C377.502173,1192.69404 354.014495,1191.37963 338.76697,1180.80957 C323.519444,1170.23951 305.887465,1150.43206 305.887465,1150.43206 C305.887465,1150.43206 304.719569,1121.36897 295.327742,1127.97754 C289.646937,1132.18877 285.811654,1138.90543 284.76802,1146.47057 L232.018069,1133.32646 Z" id="Shape" fill="#000000" fill-rule="nonzero" opacity="0.1"></path>
                <path d="M190.712512,1156.88124 C190.712512,1156.88124 160.965757,1240.4616 176.482969,1250.60026 C192.00018,1260.73892 354.996098,1253.48924 354.996098,1253.48924 C354.996098,1253.48924 382.167517,1234.75633 351.116795,1221.76504 C351.116795,1221.76504 325.249343,1220.32964 308.428164,1208.79191 C291.606985,1197.25419 272.210471,1175.5778 272.210471,1175.5778 C272.210471,1175.5778 270.922803,1143.8536 260.572563,1151.06695 C254.309171,1155.66086 250.081463,1162.99401 248.934654,1171.25343 L190.712512,1156.88124 Z" id="Shape" fill="#3F3D56" fill-rule="nonzero"></path>
                <path d="M343,623.160889 L324.912763,805.699448 C324.912763,805.699448 318.400706,892.62431 299.076179,911.444036 C299.076179,911.444036 299.076179,938.97085 292.564122,947.659686 L283.512364,1062.11136 C283.512364,1062.11136 296.438796,1104.09523 295.152665,1111.39677 C293.866534,1118.69832 300.31347,1141.8077 299.027338,1144.71006 C297.741207,1147.61242 237,1144.71006 237,1144.71006 L249.926432,911.480543 L289.97558,587 L343,623.160889 Z" id="Shape" fill="#3C354C" fill-rule="nonzero"></path>
                <path d="M343,623.160889 L324.912763,805.699448 C324.912763,805.699448 318.400706,892.62431 299.076179,911.444036 C299.076179,911.444036 299.076179,938.97085 292.564122,947.659686 L283.512364,1062.11136 C283.512364,1062.11136 296.438796,1104.09523 295.152665,1111.39677 C293.866534,1118.69832 300.31347,1141.8077 299.027338,1144.71006 C297.741207,1147.61242 237,1144.71006 237,1144.71006 L249.926432,911.480543 L289.97558,587 L343,623.160889 Z" id="Shape" fill="#000000" fill-rule="nonzero" opacity="0.1"></path>
                <path d="M311,617.65903 C311,617.65903 296.762863,766.582546 290.288472,798.393222 C286.218068,819.341401 283.622549,840.613565 282.525727,862.014572 C282.525727,862.014572 281.237372,908.29127 269.576945,921.29976 C262.699289,928.910384 258.955324,939.367022 259.237489,950.177148 C259.237489,950.177148 247.577062,1096.20382 254.051453,1113.56669 C260.525844,1130.92956 267.000235,1145.37736 260.574769,1156.92832 C254.149303,1168.47927 182.914695,1168.49749 182.914695,1159.82517 C182.914695,1151.15284 182.914695,1143.91983 179.033322,1139.58367 C175.151949,1135.2475 179.033322,1107.77299 179.033322,1107.77299 C179.033322,1107.77299 163.50783,979.090975 177.744967,941.504822 C191.982104,903.918669 198.456495,801.217193 198.456495,801.217193 C198.456495,801.217193 188.100731,684.104352 175.151949,665.302166 C162.203167,646.49998 177.744967,580 177.744967,580 L311,617.65903 Z" id="Shape" fill="#3C354C" fill-rule="nonzero"></path>
                <path d="M274,155.15701 C275.508044,158.943099 279.130629,161.052492 282.425378,163.05371 C301.521809,174.628326 317.503801,191.413323 333.239915,208 C329.312172,193.344688 330.152675,177.641761 335.616724,163.59458 C337.485388,158.816896 339.960548,153.660603 338.616421,148.666571 C337.616522,145.060771 334.780743,142.320364 332.059707,139.976594 C325.634277,134.511053 318.918105,129.472011 311.946985,124.886324 C307.029449,121.677162 297.063243,113.149446 291.473644,114.068925 C291.178592,122.380293 291.031066,129.80824 287.719925,137.506622 C286.900336,139.417695 274.573713,156.599329 274,155.15701 Z" id="Shape" fill="#A0616A" fill-rule="nonzero"></path>
                <ellipse id="Oval" fill="#A0616A" fill-rule="nonzero" cx="339.5" cy="114" rx="52.5" ry="59"></ellipse>
                <path d="M341.512011,253.728625 C341.512011,253.728625 350.502131,203.036886 324.795246,185.665204 C299.08836,168.293521 269.526251,148.020475 269.526251,148.020475 C269.526251,148.020475 260.519932,146.56067 256.664709,168.293521 C256.664709,168.293521 183.399275,184.223646 175.672631,262.414466 C167.945986,340.605286 180.823727,455.017525 180.823727,455.017525 C180.823727,455.017525 169.258058,554.941197 155.116841,608.51605 C155.116841,608.51605 143.534974,620.103255 194.964944,602.731572 C246.394914,585.359889 336.360914,652 336.360914,652 C336.360914,652 345.367234,641.854353 345.367234,634.61007 C345.367234,627.365786 355.653228,585.341641 355.653228,585.341641 C355.653228,585.341641 364.643348,407.22715 368.498571,386.954104 C372.353794,366.681058 353.077679,256.629988 341.512011,253.728625 Z" id="Shape" fill="#3F3D56" fill-rule="nonzero"></path>
                <path d="M263.334241,354 C263.334241,354 334.322767,307.569858 320.121808,248.088094 C305.92085,188.606329 274.948771,169.760079 274.948771,169.760079 C274.948771,169.760079 224.602876,150.895549 182,211.803121 L184.586429,239.368732 C184.586429,239.368732 231.060814,133.475106 281.40671,200.195585 C331.752605,266.916065 263.334241,354 263.334241,354 Z" id="Shape" fill="#17A2B8" fill-rule="nonzero"></path>
                <path d="M187,214.697084 L187,451.547493 L173.779419,532.342004 L167.601121,570 L122.38054,570 L59,543.990683 L59,369.260496 C59,369.260496 112.029037,252.245873 128.852267,230.58661 C145.675497,208.927347 187,214.697084 187,214.697084 Z" id="Shape" fill="#17A2B8" fill-rule="nonzero"></path>
                <polygon id="Shape" fill="#000000" fill-rule="nonzero" opacity="0.1" points="174 534 167.82879 572 122.475298 572 59 545.772837"></polygon>
                <polygon id="Shape" fill="#17A2B8" fill-rule="nonzero" points="171 482.354297 282 331 183.897143 488.130208 173.56967 491"></polygon>
                <path d="M327.840387,120.369404 C330.846069,118.087103 334.615357,117.66716 338.222175,117.265474 C341.828994,116.863789 345.598282,116.316037 348.473988,113.832893 C353.461796,109.523908 353.835475,101.198073 357.491034,95.446674 C362.771287,87.1025804 373.315544,86.0983678 382.430072,86.5000528 C388.002769,86.7556706 393.997886,87.1390972 398.677002,83.7612912 C403.356118,80.3834853 405.663182,73.7191655 407.287875,67.5660811 C409.22126,60.262717 410.456026,51.3526126 405.663182,45.9481231 C402.413796,42.1868906 397.149791,41.4382957 393.477984,38.1335235 C389.806178,34.8287512 388.100251,29.1503855 386.03689,24.2023563 C383.681224,18.1578679 379.955836,12.9135811 375.232682,8.99310032 C368.31149,3.51557718 359.47316,2.38355573 351.041003,2.47484778 C342.608846,2.56613984 334.144196,3.82597016 325.777027,2.65743189 C318.920822,1.70799454 312.080865,-0.848182925 305.257154,0.283838525 C296.5488,1.72625295 289.35141,9.1209092 285.045973,17.7571374 C280.740537,26.3933655 278.920881,36.2529072 277.133718,45.9298647 L272.259639,72.2767511 C270.764922,80.4565189 269.253957,88.8371294 270.407489,97.0716725 C272.812035,114.161545 286.264493,127.745802 287.190568,145 C288.98725,135.317071 294.994164,127.29729 303.177547,123.655918 C304.185554,123.10261 305.328748,122.942018 306.426933,123.199458 C307.759182,123.692435 308.539034,125.189625 309.383875,126.449455 C311.593457,129.754227 318.530896,134.757032 322.381419,132.419955 C326.053225,130.320238 323.421222,123.74721 327.840387,120.369404 Z" id="Shape" fill="#3F3D56" fill-rule="nonzero"></path>
                <path d="M665.2771,856.341335 C665.2771,856.341335 630.442922,857.780949 625.29013,902.609452 C620.137338,947.437955 625.29013,1155.69004 625.29013,1155.69004 C625.29013,1155.69004 665.2771,1188.94696 714.301775,1184.60989 C763.32645,1180.27283 842,1164.36417 842,1164.36417 L842,920.176394 C842,883.730456 814.886884,854.008795 782.409662,856.104436 C781.645684,856.104436 780.784176,856.213774 780.085216,856.304889 L665.2771,856.341335 Z" id="Shape" fill="#3C354C" fill-rule="nonzero"></path>
                <ellipse id="Oval" fill="#3F3D56" fill-rule="nonzero" cx="716.5" cy="1192.5" rx="23.5" ry="26.5"></ellipse>
                <ellipse id="Oval" fill="#3F3D56" fill-rule="nonzero" cx="842.5" cy="1180.5" rx="23.5" ry="26.5"></ellipse>
                <path d="M194.956772,390.876614 C194.956772,390.876614 185.943731,454.397704 223.244102,448.629676 C223.244102,448.629676 242.550813,445.736565 245.128283,448.629676 C247.705753,451.522788 342.893836,432.744855 355.764977,416.860034 C355.764977,416.860034 371.197377,411.092006 378.913577,419.753145 C386.629777,428.414285 463.8242,437.075425 440.69181,411.07381 C417.55942,385.072195 381.523468,379.304167 381.523468,379.304167 L332.632587,382.179083 C332.632587,382.179083 306.906516,390.858419 291.474116,382.179083 C276.041715,373.499748 232.257143,376.502034 232.257143,376.502034 L194.956772,390.876614 Z" id="Shape" fill="#A0616A" fill-rule="nonzero"></path>
                <path d="M246.932228,189 C246.932228,189 189,196.281114 189,290.116465 L189,410 C189,410 221.186374,394.10897 227.626893,395.54699 C234.067412,396.985009 259.813266,376.761716 259.813266,376.761716 C259.813266,376.761716 289.420188,298.78099 286.840735,277.119677 C284.261283,255.458364 285.559121,191.87604 246.932228,189 Z" id="Shape" fill="#3F3D56" fill-rule="nonzero"></path>
                <polygon id="Shape" fill="#3F3D56" fill-rule="nonzero" points="512.759263 422 455 467.716343 490.939816 472 541 424.861771"></polygon>
                <path d="M558.004468,492.052826 C558.004468,492.052826 572.130018,541.421706 552.875259,555.903244 C533.620501,570.384783 501.502269,505.108152 501.502269,505.108152 C501.502269,505.108152 466.827524,458.683119 489.949414,448.516787 C513.071305,438.350454 522.504518,482.617884 522.504518,482.617884 L552.826718,512.367206 L558.004468,492.052826 Z" id="Shape" fill="#FBBEBE" fill-rule="nonzero"></path>
                <ellipse id="Oval" fill="#3F3D56" fill-rule="nonzero" cx="470.5" cy="246" rx="51.5" ry="37"></ellipse>
                <ellipse id="Oval" fill="#3F3D56" fill-rule="nonzero" cx="478.5" cy="157" rx="37.5" ry="42"></ellipse>
                <ellipse id="Oval" fill="#3F3D56" fill-rule="nonzero" cx="340.5" cy="76.5" rx="49.5" ry="28.5"></ellipse>
                <ellipse id="Oval" fill="#3F3D56" fill-rule="nonzero" cx="293.5" cy="81.5" rx="17.5" ry="48.5"></ellipse>
                <path d="M33.5990265,1227 C38.4263365,1216.96283 32.9553851,1204.66683 26.7120641,1195.70442 C20.4687432,1186.742 12.8415933,1177.48813 13.0025037,1166.03009 C13.2438692,1149.63543 28.6108061,1139.96258 40.8882646,1131.27341 C50.0007479,1124.82472 58.4053505,1117.17508 65.9259126,1108.48483 C69.0819106,1105.14757 71.68657,1101.19955 73.6174266,1096.82641 C76.1598099,1090.41428 76.0954458,1083.12776 75.9345354,1076.09627 C75.3981676,1052.70656 74.3737052,1029.34114 72.861148,1006" id="Shape" stroke="#3F3D56" stroke-width="4"></path>
                <path d="M97.9768542,1004.3482 C97.6295749,995.647298 93.3873535,987.74918 86.7269062,983.403178 L81.6805009,994.731702 L81.8412145,981.035481 C72.4555032,977.911083 62.3638359,982.017224 56.8752744,991.193731 C51.3867128,1000.37024 51.7590224,1012.51421 57.7963372,1021.2369 C63.833652,1029.95959 74.1524534,1033.2621 83.3241884,1029.40703 C92.4959234,1025.55196 98.4187857,1015.42275 97.9768542,1004.3482 Z" id="Shape" fill="#57B894" fill-rule="nonzero"></path>
                <path d="M56.4930146,1177.19039 C51.6171657,1187.90057 40.7904771,1193.27923 30.5366026,1190.08544 C20.2827281,1186.89166 13.4022503,1175.99773 14.0410219,1163.96783 C14.6797934,1151.93793 22.6633503,1142.05771 33.1811762,1140.28053 C43.6990021,1138.50335 53.8784229,1145.31461 57.5857978,1156.61015 L43.4921076,1169.59574 L58.999988,1165.51611 C59.0037111,1169.57924 58.143801,1173.5836 56.4930146,1177.19039 Z" id="Shape" fill="#57B894" fill-rule="nonzero"></path>
                <path d="M45.5920685,1127.96965 C39.6155515,1128.30001 33.7690559,1125.92286 29.3465632,1121.36432 C24.9240706,1116.80577 22.290298,1110.44177 22.0281678,1103.68083 C21.8503169,1099.69157 22.5166253,1095.71188 23.9717479,1092.07234 C26.7040276,1085.17393 31.9975987,1079.99853 38.4281287,1077.93869 L38.3156902,1088.45718 L43.4075487,1077.03035 C49.3840658,1076.69999 55.2305614,1079.07714 59.653054,1083.63568 C64.0755467,1088.19423 66.7093193,1094.55823 66.9714494,1101.31917 C67.103413,1104.26123 66.7771988,1107.20664 66.0076907,1110.02099 C63.2285043,1120.27322 55.0623521,1127.4526 45.5920685,1127.96965 Z" id="Shape" fill="#57B894" fill-rule="nonzero"></path>
                <path d="M101.367138,1086.98267 C91.8595539,1087.37804 83.1565002,1080.97623 79.6179189,1070.98434 C76.0793376,1060.99245 78.4674366,1049.56272 85.5858574,1042.42107 C92.7042783,1035.27942 103.019718,1033.96415 111.364483,1039.13418 L107.371985,1051.51978 L115.582365,1042.59486 C122.371573,1049.54486 124.77001,1060.45104 121.651022,1070.19025 C118.532033,1079.92946 110.515492,1086.56611 101.367138,1086.98267 Z" id="Shape" fill="#57B894" fill-rule="nonzero"></path>
                <path d="M95.4095616,1011.37281 C90.1472244,1012.03604 84.9989318,1013.89675 79.7040105,1014.26521 C74.4090892,1014.63367 68.5928218,1013.19668 65.2529484,1008.53568 C63.4445291,1006.03017 62.5321735,1002.86142 61.0170114,1000.13483 C59.5719276,997.589362 57.5973322,995.483014 55.2659123,994 C51.4687156,1002.90032 52.5024713,1013.47157 57.9276139,1021.21871 C63.3527565,1028.96586 72.2154415,1032.5268 80.7471475,1030.38739 C89.2788536,1028.24798 95.9795425,1020.78436 98,1011.17016 C97.1365205,1011.20701 96.2730411,1011.2807 95.4095616,1011.37281 Z" id="Shape" fill="#000000" fill-rule="nonzero" opacity="0.1"></path>
                <path d="M101.87725,1086.97524 C93.8851627,1087.37122 86.29139,1082.99638 81.8501259,1075.43745 C77.4088618,1067.87852 76.7651226,1058.23329 80.1523869,1050 C81.9738512,1051.38514 83.5384984,1053.16268 84.7577324,1055.232 C86.3850629,1058.02363 87.3614612,1061.24047 89.2817113,1063.81025 C92.8292918,1068.56157 98.915508,1070.11453 104.415885,1069.81873 C109.916262,1069.52292 115.253907,1067.7666 120.689191,1067.19348 C121.454036,1067.19348 122.235155,1067.04558 123,1067.0271 C120.675653,1078.29302 112.051577,1086.43752 101.87725,1086.97524 Z" id="Shape" fill="#000000" fill-rule="nonzero" opacity="0.1"></path>
                <path d="M45.5535577,1127.96959 C39.5867965,1128.30062 33.7498445,1125.91868 29.334571,1121.35096 C24.9192974,1116.78323 22.2898241,1110.40642 22.0281218,1103.63186 C21.8505613,1099.63457 22.5157819,1095.64687 23.9685293,1092 C25.8393602,1093.37909 27.4702447,1095.13777 28.7794569,1097.18792 C30.5274272,1099.99122 31.6179041,1103.21319 33.5903845,1105.79805 C37.3910172,1110.6037 43.7735145,1112.2966 49.5305912,1112.13277 C55.2876679,1111.96894 60.4674333,1110.43987 66,1109.96659 C63.2229844,1120.27085 55.0366786,1127.47885 45.5535577,1127.96959 Z" id="Shape" fill="#000000" fill-rule="nonzero" opacity="0.1"></path>
                <path d="M56,1177.88355 C52.7186469,1186.21769 45.7756464,1191.92856 37.7863598,1192.86493 C29.7970731,1193.8013 21.9752629,1189.82092 17.2673294,1182.42315 C12.5593958,1175.02539 11.6805861,1165.33414 14.9619392,1157 C16.8133798,1158.38473 18.4778767,1160.06816 19.9031912,1161.99746 C22.0369137,1164.9704 23.4487,1168.32636 25.919326,1171.11692 C30.5236745,1176.26029 37.9515956,1178.41248 44.5773654,1178.57663 C48.3934375,1178.59422 52.2072529,1178.36282 56,1177.88355 Z" id="Shape" fill="#000000" fill-rule="nonzero" opacity="0.1"></path>
                <path d="M0,1215.87317 C0,1215.87317 18.0059055,1215.25588 23.4336784,1210.93485 C28.8614514,1206.61382 51.0600677,1201.45763 52.4738888,1208.39307 C53.8877099,1215.3285 79.5152486,1242.88869 59.2017271,1242.99762 C38.8882056,1243.10655 11.9768523,1239.45728 6.56533015,1235.73539 C1.15380802,1232.01349 0,1215.87317 0,1215.87317 Z" id="Shape" fill="#656380" fill-rule="nonzero"></path>
                <path d="M59.6266861,1240.47607 C39.2738936,1240.66271 12.3483369,1236.83664 6.93068711,1233.01056 C2.7983056,1230.13633 1.15511452,1219.77793 0.601961087,1215 L0,1215 C0,1215 1.1388453,1231.66677 6.50768743,1235.53017 C11.8765296,1239.39357 38.850894,1243.145 59.2036864,1242.99569 C65.0768743,1242.99569 67.0942574,1240.55073 66.9966421,1236.98595 C66.2319888,1239.09495 64.0031059,1240.43875 59.6266861,1240.47607 Z" id="Shape" fill="#000000" fill-rule="nonzero" opacity="0.2"></path>
            </g>
        </g>
    </g>
</svg>