<?xml version="1.0" encoding="utf-8"?>
<!-- Generator: Adobe Illustrator 23.0.6, SVG Export Plug-In . SVG Version: 6.00 Build 0)  -->
<svg version="1.1" id="Layer_1" xmlns="http://www.w3.org/2000/svg" xmlns:xlink="http://www.w3.org/1999/xlink" x="0px" y="0px"
	 viewBox="0 0 1920 1080" style="enable-background:new 0 0 1920 1080;" xml:space="preserve">
<style type="text/css">
	.st0{fill:#3F3D56;}
	.st1{fill:#24C3D5;}
	.st2{fill:#17A2B8;}
	.st3{fill:#F2F2F2;}
	.st4{opacity:0.03;enable-background:new    ;}
	.st5{fill:#FF6584;}
	.st6{opacity:0.1;enable-background:new    ;}
	.st7{opacity:0.4;fill:#17A2B8;enable-background:new    ;}
	.st8{fill:#CCCCCC;}
	.st9{fill:#FBBEBE;}
	.st10{fill:#3C354C;}
	.st11{fill:#A77CE7;}
	.st12{fill:#9364D5;}
	.st13{fill:#A0616A;}
	.st14{fill:#5CD8B5;}
	.st15{fill:#3BBEB6;}
	.st16{fill:none;stroke:#3F3D56;stroke-width:4;}
	.st17{fill:#57B894;}
	.st18{fill:#656380;}
	.st19{opacity:0.2;enable-background:new    ;}
</style>
<g>
	<title>Group</title>
	<desc>Created with Sketch.</desc>
	<g id="Page-1_1_">
		<g id="Group_1_">
			<g transform="translate(1088.000000, 0.000000)">
				<path id="Shape_1_" class="st0" d="M238.55,867.76c-4.46,1.65-12.3,3-21.37,4.09c-24.67,2.96-58.47,4.01-58.47,4.01
					s-173.76,14.42-303.99-39.21c0,0-18.94-9.94-1.37-23.31c2.71-2,5.58-3.75,8.6-5.25l0.21-0.21c2-1.85,4.16-3.51,6.45-4.98
					c6.75-4.36,18.14-9.54,32.01-7.19l342.04,55.35C242.66,851.06,255.16,861.62,238.55,867.76z"/>
				<path class="st0" d="M170.15,842.11l71.76-50.64l31.63,5.44l-30.97,53.56C242.57,850.46,170.98,851.03,170.15,842.11z"/>
				<polygon class="st0" points="-9.74,811.6 132.82,771.36 155.79,776.2 91.4,805.35 71.28,828.02 				"/>
				<path class="st1" d="M216.89,871.59c-24.65,2.96-58.42,4.01-58.42,4.01s-173.62,14.41-303.75-39.18c0,0-18.93-9.93-1.37-23.29
					l0.06,0.25c0,0,28.08,18.99,162.24,34.84L216.89,871.59z"/>
				<path class="st0" d="M194.22,870.51l63.81,26.18l16.03-1.79l-38.17-28.82C235.89,866.07,189.73,856.18,194.22,870.51z"/>
				<path class="st2" d="M-123.25,816.53c-3.06,0.05-10.06-5.1-14.42-8.56c2.01-1.86,4.18-3.54,6.49-5.02
					c3.51,2.7,9.76,7.08,13.23,6.91C-112.93,809.66-118.65,816.45-123.25,816.53z"/>
				<path class="st0" d="M165.97,960.85L125.05,963L9.99,885.23l-21.36-14.44l-10.37-7.02c19.46-16.48,98.88,6.25,98.88,6.25
					c1.52,1.29,2,3.42,1.94,5.79c-0.13,4.42-2.21,9.61-3,11.48c-0.19,0.46-0.31,0.7-0.31,0.7L165.97,960.85z"/>
				<path class="st3" d="M-80.34,971.84l-10.46,6.63l6.34-11.53c-1.8-1.43-4.02-2.23-6.31-2.61h-0.17c-0.73,0.37-1.45,0.32-2.17,0.2
					l-3.54,2.25l1.51-2.76c-2.51-0.88-4.67-2.53-6.19-4.71l-6.33,4.04l4-7.29c-3.7-4.45-8.69-7.18-14.19-7.18
					c-6.59,0-12.46,3.92-16.24,10.03c-2.29,3.73-6.4,5.94-10.77,5.8h-0.35c-7.27-0.01-13.17,8.24-13.17,18.42
					c0,10.18,5.89,18.43,13.17,18.43c1.6-0.01,3.17-0.4,4.58-1.15c5.01-2.43,10.84-2.55,15.94-0.31c4.31,1.93,9.24,1.93,13.55,0
					c5.06-2.19,10.82-2.08,15.79,0.3c1.4,0.73,2.96,1.12,4.54,1.12c7.27,0,13.17-8.25,13.17-18.43
					C-77.58,979.17-78.51,975.31-80.34,971.84z"/>
				<path class="st4" d="M-99.55,998.37c-3.83-0.73-7.8-0.3-11.39,1.24c-4.35,1.95-9.32,1.95-13.67,0
					c-5.15-2.26-11.03-2.15-16.08,0.31c-1.43,0.75-3.02,1.15-4.63,1.16c-6.52,0-11.94-6.57-13.07-15.23
					c1.3-0.95,2.41-2.14,3.26-3.51c3.82-6.16,9.74-10.1,16.39-10.1c6.65,0,12.51,3.87,16.32,9.98c2.32,3.74,6.43,6,10.83,5.95h0.17
					C-106.23,988.15-101.74,992.3-99.55,998.37z"/>
				<path class="st3" d="M347.76,951.61l-10.46,6.63l6.34-11.53c-1.8-1.43-4.02-2.23-6.31-2.61h-0.17c-0.73,0.37-1.45,0.32-2.17,0.2
					l-3.54,2.25l1.51-2.76c-2.51-0.88-4.67-2.53-6.19-4.71l-6.33,4.04l4-7.29c-3.7-4.45-8.69-7.18-14.19-7.18
					c-6.59,0-12.46,3.92-16.24,10.03c-2.29,3.73-6.4,5.94-10.77,5.8h-0.35c-7.27-0.01-13.17,8.24-13.17,18.42
					s5.89,18.43,13.17,18.43c1.6-0.01,3.17-0.4,4.58-1.15c5.01-2.43,10.84-2.55,15.94-0.31c4.31,1.93,9.24,1.93,13.55,0
					c5.06-2.19,10.82-2.08,15.79,0.3c1.4,0.73,2.96,1.12,4.54,1.12c7.27,0,13.17-8.25,13.17-18.43
					C350.52,958.94,349.59,955.08,347.76,951.61z"/>
				<path class="st4" d="M328.55,978.91c-3.83-0.73-7.8-0.3-11.39,1.24c-4.35,1.95-9.32,1.95-13.67,0
					c-5.15-2.26-11.03-2.15-16.08,0.31c-1.43,0.75-3.02,1.15-4.63,1.16c-6.52,0-11.94-6.57-13.07-15.23
					c1.3-0.95,2.41-2.14,3.26-3.51c3.82-6.16,9.74-10.1,16.39-10.1c6.65,0,12.51,3.87,16.32,9.98c2.32,3.75,6.45,6.01,10.86,5.95
					h0.17C321.87,968.69,326.36,972.84,328.55,978.91z"/>
				<path class="st3" d="M167.76,715.88l-10.46,6.63l6.34-11.53c-1.8-1.43-4.02-2.23-6.31-2.61h-0.17c-0.73,0.37-1.45,0.32-2.17,0.2
					l-3.54,2.25l1.51-2.76c-2.51-0.88-4.67-2.53-6.19-4.71l-6.33,4.04l4-7.29c-3.7-4.45-8.69-7.18-14.19-7.18
					c-6.59,0-12.46,3.92-16.24,10.03c-2.29,3.73-6.4,5.94-10.77,5.8h-0.35c-7.27-0.01-13.17,8.24-13.17,18.42
					c0,10.18,5.89,18.43,13.17,18.43c1.6-0.01,3.17-0.4,4.58-1.15c5.01-2.43,10.84-2.55,15.94-0.31c4.31,1.94,9.24,1.95,13.55,0.03
					c5.06-2.19,10.82-2.08,15.79,0.3c1.4,0.73,2.96,1.12,4.54,1.12c7.27,0,13.17-8.25,13.17-18.43
					C170.52,723.23,169.59,719.36,167.76,715.88z"/>
				<path class="st4" d="M148.55,743.18c-3.83-0.73-7.8-0.3-11.39,1.24c-4.35,1.95-9.32,1.95-13.67,0
					c-5.15-2.26-11.03-2.15-16.08,0.31c-1.43,0.75-3.02,1.15-4.63,1.16c-6.52,0-11.94-6.57-13.07-15.23
					c1.3-0.95,2.41-2.14,3.26-3.51c3.82-6.16,9.74-10.1,16.39-10.1c6.65,0,12.51,3.87,16.32,9.98c2.32,3.75,6.45,6.01,10.86,5.95
					h0.17C141.87,732.96,146.36,737.11,148.55,743.18z"/>
				<path class="st3" d="M-629.29,649.14l-5.23,3.34l3.17-5.81c-0.9-0.73-2.01-1.13-3.16-1.31h-0.08c-0.36,0.17-0.73,0.14-1.09,0.08
					l-1.77,1.13l0.76-1.36c-1.26-0.44-2.34-1.27-3.1-2.37l-3.17,2.04l2.03-3.66c-1.71-2.22-4.31-3.55-7.1-3.62
					c-3.29,0-6.23,1.97-8.1,5.05c-1.15,1.88-3.21,3-5.4,2.71h-0.18c-3.64,0.21-6.59,4.37-6.59,9.49s2.95,9.28,6.59,9.28
					c0.8,0,1.59-0.2,2.3-0.58c2.51-1.23,5.43-1.29,7.98-0.16c2.15,0.96,4.6,0.96,6.75,0c2.53-1.11,5.42-1.05,7.91,0.16
					c0.7,0.37,1.48,0.56,2.27,0.56c3.64,0,6.59-4.15,6.59-9.28C-627.89,652.86-628.37,650.89-629.29,649.14z"/>
				<path class="st4" d="M-639.07,662.72c-1.9-0.36-3.88-0.15-5.66,0.61c-1.06,0.47-2.22,0.71-3.38,0.71
					c-1.18,0-2.34-0.25-3.41-0.73c-2.56-1.11-5.48-1.05-7.99,0.16c-0.71,0.37-1.49,0.57-2.29,0.57c-3.24,0-5.93-3.24-6.5-7.51
					c0.65-0.47,1.2-1.06,1.62-1.73c1.89-3.04,4.83-4.99,8.11-4.99c3.28,0,6.2,1.93,8.11,4.93c1.16,1.86,3.21,2.97,5.41,2.93h0.09
					C-642.41,657.67-640.16,659.72-639.07,662.72z"/>
				<path class="st3" d="M279.25,663.7l-5.23,3.34l3.17-5.81c-0.9-0.73-2.01-1.13-3.16-1.31h-0.08c-0.36,0.17-0.73,0.14-1.09,0.08
					l-1.77,1.13l0.76-1.36c-1.26-0.44-2.34-1.27-3.1-2.37l-3.17,2.04l2.03-3.66c-1.71-2.22-4.31-3.55-7.1-3.62
					c-3.29,0-6.23,1.97-8.1,5.05c-1.15,1.88-3.21,3-5.4,2.71h-0.18c-3.64,0.21-6.59,4.37-6.59,9.49c0,5.13,2.95,9.28,6.59,9.28
					c0.8,0,1.59-0.2,2.3-0.58c2.51-1.23,5.43-1.29,7.98-0.16c2.15,0.96,4.6,0.96,6.75,0c2.53-1.11,5.42-1.05,7.91,0.16
					c0.7,0.37,1.48,0.56,2.27,0.56c3.64,0,6.59-4.15,6.59-9.28C280.64,667.41,280.17,665.45,279.25,663.7z"/>
				<path class="st4" d="M269.47,676.89c-1.9-0.36-3.88-0.15-5.66,0.61c-1.06,0.47-2.22,0.71-3.38,0.71c-1.18,0-2.34-0.25-3.41-0.73
					c-2.56-1.11-5.48-1.05-7.99,0.16c-0.71,0.37-1.49,0.57-2.29,0.57c-3.24,0-5.93-3.24-6.5-7.51c0.65-0.47,1.2-1.06,1.62-1.73
					c1.89-3.04,4.83-4.99,8.11-4.99c3.28,0,6.2,1.93,8.11,4.93c1.16,1.86,3.21,2.97,5.41,2.93h0.09
					C266.13,671.84,268.38,673.9,269.47,676.89z"/>
				<path class="st3" d="M-236.29,1065l-5.23,3.34l3.17-5.81c-0.9-0.73-2.01-1.13-3.16-1.31h-0.08c-0.36,0.17-0.73,0.14-1.09,0.08
					l-1.77,1.13l0.76-1.36c-1.26-0.44-2.34-1.27-3.1-2.37l-3.17,2.04l2.03-3.66c-1.71-2.22-4.31-3.55-7.1-3.62
					c-3.29,0-6.23,1.97-8.1,5.05c-1.15,1.88-3.21,3-5.4,2.71h-0.18c-3.64,0.21-6.59,4.37-6.59,9.49s2.95,9.28,6.59,9.28
					c0.8,0,1.59-0.2,2.3-0.58c2.51-1.23,5.43-1.29,7.98-0.16c2.15,0.96,4.6,0.96,6.75,0c2.53-1.11,5.42-1.05,7.91,0.16
					c0.7,0.37,1.48,0.56,2.27,0.56c3.64,0,6.59-4.15,6.59-9.28C-234.89,1068.72-235.36,1066.76-236.29,1065z"/>
				<path class="st4" d="M-246.07,1078.58c-1.9-0.36-3.88-0.15-5.66,0.61c-1.06,0.47-2.22,0.71-3.38,0.71
					c-1.18,0-2.34-0.25-3.41-0.73c-2.56-1.11-5.48-1.05-7.99,0.16c-0.71,0.37-1.49,0.57-2.29,0.57c-3.24,0-5.93-3.24-6.5-7.51
					c0.65-0.47,1.2-1.06,1.62-1.73c1.89-3.04,4.83-4.99,8.11-4.99c3.28,0,6.2,1.93,8.11,4.93c1.16,1.86,3.21,2.97,5.41,2.93h0.09
					C-249.41,1073.53-247.16,1075.59-246.07,1078.58z"/>
				<path class="st3" d="M4.26,649.97l-10.46,6.63l6.34-11.53c-1.79-1.43-4.02-2.23-6.31-2.61h-0.17c-0.73,0.37-1.45,0.32-2.17,0.2
					l-3.54,2.25l1.51-2.76c-2.51-0.88-4.67-2.53-6.19-4.71l-6.33,4.04l4-7.29c-3.7-4.45-8.69-7.18-14.19-7.18
					c-6.59,0-12.46,3.92-16.24,10.03c-2.29,3.73-6.4,5.94-10.77,5.8h-0.35c-7.27-0.01-13.17,8.24-13.17,18.42
					c0,10.18,5.89,18.43,13.17,18.43c1.6-0.01,3.17-0.4,4.58-1.15c5.01-2.43,10.84-2.55,15.94-0.31c4.31,1.94,9.24,1.95,13.55,0.03
					c5.06-2.19,10.82-2.08,15.79,0.3c1.4,0.73,2.96,1.12,4.54,1.12c7.27,0,13.17-8.25,13.17-18.43
					C7.02,657.33,6.09,653.45,4.26,649.97z"/>
				<path class="st4" d="M-14.95,677.27c-3.83-0.73-7.8-0.3-11.39,1.24c-4.35,1.95-9.32,1.95-13.67,0
					c-5.15-2.26-11.03-2.15-16.08,0.31c-1.43,0.75-3.02,1.15-4.63,1.16c-6.52,0-11.94-6.57-13.07-15.23
					c1.3-0.95,2.41-2.14,3.26-3.51c3.82-6.16,9.74-10.1,16.39-10.1c6.65,0,12.51,3.87,16.32,9.98c2.32,3.75,6.45,6.01,10.86,5.95
					h0.17C-21.63,667.05-17.14,671.2-14.95,677.27z"/>
				<path class="st3" d="M360.53,765.82l-5.23,3.34l3.17-5.81c-0.9-0.73-2.01-1.13-3.16-1.31h-0.08c-0.36,0.17-0.73,0.14-1.09,0.08
					l-1.77,1.13l0.76-1.36c-1.26-0.44-2.34-1.27-3.1-2.37l-3.17,2.04l2.03-3.66c-1.71-2.22-4.31-3.55-7.1-3.62
					c-3.29,0-6.23,1.97-8.1,5.05c-1.15,1.88-3.21,3-5.4,2.71h-0.18c-3.64,0.21-6.59,4.37-6.59,9.49s2.95,9.28,6.59,9.28
					c0.8,0,1.59-0.2,2.3-0.58c2.51-1.23,5.43-1.29,7.98-0.16c2.15,0.96,4.6,0.96,6.75,0c2.53-1.11,5.42-1.05,7.91,0.16
					c0.7,0.37,1.48,0.56,2.27,0.56c3.64,0,6.59-4.15,6.59-9.28C361.93,769.54,361.46,767.58,360.53,765.82z"/>
				<path class="st4" d="M350.75,778.63c-1.91-0.36-3.88-0.15-5.66,0.61c-1.07,0.47-2.22,0.71-3.38,0.71
					c-1.17-0.01-2.32-0.25-3.38-0.73c-2.56-1.11-5.48-1.05-8,0.16c-0.71,0.37-1.49,0.57-2.29,0.57c-3.24,0-5.94-3.24-6.5-7.51
					c0.65-0.47,1.2-1.06,1.62-1.73c1.89-3.04,4.84-4.99,8.12-4.99c3.28,0,6.21,1.93,8.12,4.93c1.15,1.85,3.19,2.96,5.38,2.93h0.09
					C347.41,773.58,349.66,775.64,350.75,778.63z"/>
				<path class="st3" d="M-387.07,727.18l-15.98,10.12l9.68-17.62c-2.74-2.19-6.13-3.4-9.64-3.99h-0.26
					c-1.11,0.57-2.22,0.49-3.31,0.3l-5.41,3.43l2.31-4.22c-3.83-1.35-7.14-3.86-9.46-7.2l-9.67,6.17l6.11-11.13
					c-5.65-6.8-13.28-10.96-21.68-10.96c-10.06,0-19.02,5.99-24.81,15.32c-3.49,5.69-9.77,9.07-16.44,8.86h-0.53
					c-11.11-0.02-20.11,12.58-20.11,28.13s9,28.15,20.11,28.15c2.44-0.01,4.84-0.61,7-1.76c7.66-3.72,16.55-3.89,24.35-0.47
					c6.58,2.96,14.11,2.98,20.7,0.05c7.73-3.35,16.53-3.18,24.12,0.46c2.14,1.12,4.52,1.71,6.94,1.72
					c11.11,0,20.11-12.6,20.11-28.15C-382.85,738.41-384.27,732.48-387.07,727.18z"/>
				<path class="st4" d="M-416.42,768.86c-5.86-1.11-11.91-0.45-17.39,1.89c-6.64,2.97-14.23,2.97-20.87,0
					c-7.86-3.45-16.84-3.28-24.56,0.48c-2.18,1.15-4.61,1.76-7.07,1.77c-9.95,0-18.24-10.03-19.96-23.26
					c1.99-1.45,3.68-3.27,4.98-5.36c5.84-9.4,14.88-15.43,25.03-15.43c10.15,0,19.1,5.91,24.93,15.24
					c3.55,5.73,9.85,9.19,16.59,9.09h0.26C-426.62,753.26-419.75,759.6-416.42,768.86z"/>
				<path class="st3" d="M475.83,649l-13.95,8.83l8.45-15.38c-2.39-1.91-5.35-2.97-8.42-3.49h-0.22c-0.97,0.5-1.93,0.42-2.89,0.26
					l-4.72,3l2.02-3.68c-3.34-1.17-6.23-3.37-8.25-6.28l-8.44,5.39l5.33-9.71c-4.93-5.93-11.59-9.57-18.92-9.57
					c-8.78,0-16.61,5.23-21.66,13.38c-3.05,4.97-8.53,7.92-14.36,7.74h-0.47c-9.7-0.02-17.56,10.98-17.56,24.56
					c0,13.57,7.86,24.57,17.56,24.57c2.13-0.01,4.23-0.53,6.11-1.54c6.68-3.24,14.45-3.4,21.26-0.41c5.74,2.58,12.31,2.6,18.07,0.04
					c6.75-2.93,14.43-2.78,21.06,0.4c1.87,0.98,3.95,1.49,6.06,1.5c9.7,0,17.56-11,17.56-24.57
					C479.52,658.8,478.28,653.63,475.83,649z"/>
				<path class="st4" d="M450.22,685.39c-5.11-0.97-10.4-0.39-15.18,1.65c-5.8,2.59-12.43,2.59-18.22,0
					c-6.86-3.01-14.7-2.86-21.44,0.42c-1.9,1.01-4.02,1.54-6.17,1.55c-8.69,0-15.92-8.76-17.43-20.3c1.74-1.26,3.21-2.85,4.35-4.68
					c5.1-8.21,12.99-13.47,21.85-13.47c8.86,0,16.67,5.16,21.76,13.3c3.1,5.01,8.6,8.02,14.48,7.94h0.23
					C441.31,671.76,447.3,677.3,450.22,685.39z"/>
				<path class="st3" d="M560.92,838.58l-15.15,9.66l9.19-16.81c-2.6-2.1-5.82-3.27-9.15-3.79h-0.23c-1.05,0.49-2.11,0.41-3.15,0.24
					l-5.12,3.27l2.19-3.94c-3.63-1.28-6.77-3.69-8.97-6.87l-9.17,5.9l5.86-10.61c-4.94-6.43-12.49-10.28-20.56-10.47
					c-9.54,0-18.04,5.71-23.45,14.62c-3.32,5.45-9.29,8.68-15.63,7.85h-0.51c-10.53,0.6-19.07,12.64-19.07,27.48
					c0,14.84,8.54,26.86,19.07,26.86c2.32-0.01,4.6-0.58,6.64-1.67c7.26-3.56,15.71-3.72,23.1-0.45c6.22,2.78,13.32,2.78,19.54,0
					c7.33-3.2,15.68-3.04,22.88,0.45c2.03,1.06,4.28,1.62,6.57,1.63c10.53,0,19.07-12.02,19.07-26.86
					C564.96,849.34,563.6,843.67,560.92,838.58z"/>
				<path class="st4" d="M532.61,876.78c-5.51-1.05-11.22-0.43-16.38,1.77c-3.08,1.35-6.41,2.05-9.78,2.06
					c-3.41,0-6.78-0.72-9.88-2.12c-7.41-3.22-15.86-3.05-23.13,0.47c-2.04,1.08-4.32,1.64-6.63,1.65c-9.37,0-17.18-9.38-18.8-21.74
					c1.87-1.36,3.46-3.06,4.7-5.01c5.48-8.8,13.99-14.44,23.48-14.44c9.49,0,17.96,5.58,23.48,14.26c3.35,5.37,9.29,8.6,15.65,8.49
					h0.25C522.94,862.17,529.46,868.11,532.61,876.78z"/>
				<path class="st3" d="M-808.94,841.45l-10.31,6.53l6.24-11.36c-1.77-1.41-3.96-2.19-6.22-2.57h-0.17
					c-0.71,0.37-1.43,0.31-2.13,0.19l-3.49,2.22l1.49-2.72c-2.47-0.87-4.6-2.49-6.1-4.64l-6.24,3.98l3.94-7.18
					c-3.65-4.38-8.56-7.07-13.98-7.07c-6.49,0-12.27,3.86-16,9.88c-2.25,3.67-6.3,5.85-10.61,5.72h-0.34
					c-7.17-0.01-12.97,8.11-12.97,18.14c0,10.03,5.81,18.15,12.97,18.15c1.57-0.01,3.12-0.39,4.51-1.13
					c4.94-2.4,10.68-2.51,15.7-0.31c4.24,1.91,9.1,1.92,13.35,0.03c4.98-2.16,10.66-2.05,15.56,0.3c1.38,0.72,2.92,1.1,4.47,1.11
					c7.17,0,12.97-8.12,12.97-18.15C-806.22,848.69-807.14,844.87-808.94,841.45z"/>
				<path class="st4" d="M-827.87,868.33c-3.78-0.71-7.68-0.29-11.21,1.22c-4.28,1.92-9.18,1.92-13.46,0
					c-5.07-2.23-10.86-2.11-15.84,0.31c-1.41,0.74-2.97,1.14-4.56,1.14c-6.42,0-11.76-6.47-12.87-15c1.28-0.93,2.37-2.11,3.21-3.46
					c3.77-6.06,9.6-9.95,16.14-9.95c6.55,0,12.32,3.81,16.08,9.83c2.29,3.7,6.35,5.92,10.7,5.86h0.17
					C-834.45,858.27-830.02,862.36-827.87,868.33z"/>
				<path class="st3" d="M-354.38,869.44l-9.61,6.13l5.83-10.67c-1.65-1.33-3.69-2.07-5.81-2.4h-0.15c-0.67,0.31-1.34,0.26-2,0.15
					l-3.25,2.07l1.39-2.5c-2.31-0.81-4.3-2.34-5.69-4.36l-5.82,3.75l3.72-6.73c-3.13-4.08-7.93-6.52-13.05-6.65
					c-6.05,0-11.45,3.62-14.89,9.28c-2.11,3.46-5.9,5.51-9.92,4.98h-0.32c-6.69,0.38-12.11,8.02-12.11,17.44s5.42,17.05,12.11,17.05
					c1.47,0,2.92-0.37,4.22-1.06c4.61-2.26,9.97-2.36,14.66-0.29c3.95,1.77,8.46,1.77,12.4,0c4.65-2.03,9.96-1.93,14.53,0.29
					c1.29,0.67,2.72,1.03,4.17,1.04c6.69,0,12.11-7.63,12.11-17.05C-351.82,876.27-352.68,872.67-354.38,869.44z"/>
				<path class="st4" d="M-372.35,892.98c-3.5-0.67-7.13-0.27-10.41,1.12c-1.96,0.86-4.08,1.3-6.22,1.31
					c-2.14-0.01-4.26-0.47-6.22-1.34c-4.71-2.04-10.08-1.93-14.7,0.3c-1.3,0.68-2.75,1.04-4.22,1.05c-5.96,0-10.92-5.96-11.95-13.8
					c1.19-0.86,2.2-1.94,2.98-3.18c3.48-5.59,8.89-9.16,14.92-9.16c6.03,0,11.41,3.54,14.92,9.05c2.11,3.39,5.87,5.44,9.89,5.39
					h0.16C-378.49,883.7-374.35,887.48-372.35,892.98z"/>
				<path class="st3" d="M-292.47,623.64l-9.81,6.26l5.95-10.89c-1.68-1.36-3.77-2.12-5.93-2.45h-0.15
					c-0.68,0.32-1.36,0.27-2.04,0.16l-3.32,2.12l1.42-2.55c-2.35-0.83-4.39-2.39-5.81-4.45l-5.94,3.83l3.8-6.87
					c-3.2-4.17-8.09-6.66-13.32-6.78c-6.18,0-11.69,3.7-15.19,9.47c-2.15,3.53-6.02,5.62-10.13,5.08h-0.33
					c-6.82,0.39-12.36,8.19-12.36,17.8c0,9.61,5.53,17.4,12.36,17.4c1.5,0,2.98-0.38,4.3-1.08c4.7-2.31,10.18-2.41,14.97-0.29
					c4.03,1.8,8.63,1.8,12.66,0c4.75-2.08,10.16-1.97,14.83,0.29c1.32,0.69,2.77,1.05,4.25,1.06c6.82,0,12.36-7.79,12.36-17.4
					C-289.85,630.61-290.73,626.93-292.47,623.64z"/>
				<path class="st4" d="M-310.81,647.66c-3.58-0.68-7.28-0.28-10.62,1.15c-2,0.88-4.16,1.33-6.35,1.33
					c-2.19-0.01-4.35-0.48-6.35-1.37c-4.8-2.08-10.29-1.97-15,0.3c-1.33,0.7-2.8,1.07-4.3,1.07c-6.08,0-11.14-6.08-12.2-14.09
					c1.21-0.88,2.25-1.98,3.05-3.25c3.55-5.7,9.07-9.35,15.23-9.35c6.16,0,11.65,3.61,15.23,9.24c2.16,3.46,5.99,5.55,10.09,5.5
					h0.16C-317.08,638.19-312.86,642.04-310.81,647.66z"/>
				<path class="st3" d="M-525.66,536.9l-9.81,6.26l5.95-10.89c-1.68-1.36-3.77-2.12-5.93-2.45h-0.15
					c-0.68,0.32-1.36,0.27-2.04,0.16l-3.32,2.12l1.42-2.55c-2.35-0.83-4.39-2.39-5.81-4.45l-5.94,3.83l3.8-6.87
					c-3.2-4.17-8.09-6.66-13.32-6.78c-6.18,0-11.69,3.7-15.19,9.47c-2.15,3.53-6.02,5.62-10.13,5.08h-0.33
					c-6.82,0.39-12.36,8.19-12.36,17.8c0,9.61,5.53,17.4,12.36,17.4c1.5,0,2.98-0.38,4.3-1.08c4.7-2.31,10.18-2.41,14.97-0.29
					c4.03,1.8,8.63,1.8,12.66,0c4.75-2.08,10.16-1.97,14.83,0.29c1.32,0.69,2.77,1.05,4.25,1.06c6.82,0,12.36-7.79,12.36-17.4
					C-523.04,543.87-523.93,540.19-525.66,536.9z"/>
				<path class="st4" d="M-544,560.92c-3.58-0.68-7.28-0.28-10.62,1.15c-2,0.88-4.16,1.33-6.35,1.33c-2.19-0.01-4.35-0.48-6.35-1.37
					c-4.8-2.08-10.29-1.97-15,0.3c-1.33,0.7-2.8,1.07-4.3,1.07c-6.08,0-11.14-6.08-12.2-14.09c1.21-0.88,2.25-1.98,3.05-3.25
					c3.55-5.7,9.07-9.35,15.23-9.35c6.16,0,11.65,3.61,15.23,9.24c2.16,3.46,5.99,5.55,10.09,5.5h0.16
					C-550.27,551.46-546.05,555.31-544,560.92z"/>
				<path class="st3" d="M199.34,546.9l-9.81,6.26l5.95-10.89c-1.68-1.36-3.77-2.12-5.93-2.45h-0.15c-0.68,0.32-1.36,0.27-2.04,0.16
					l-3.32,2.12l1.42-2.55c-2.35-0.83-4.39-2.39-5.81-4.45l-5.94,3.83l3.8-6.87c-3.2-4.17-8.09-6.66-13.32-6.78
					c-6.18,0-11.69,3.7-15.19,9.47c-2.15,3.53-6.02,5.62-10.13,5.08h-0.33c-6.82,0.39-12.36,8.19-12.36,17.8
					c0,9.61,5.53,17.4,12.36,17.4c1.5,0,2.98-0.38,4.3-1.08c4.7-2.31,10.18-2.41,14.97-0.29c4.03,1.8,8.63,1.8,12.66,0
					c4.75-2.08,10.16-1.97,14.83,0.29c1.32,0.69,2.77,1.05,4.25,1.06c6.82,0,12.36-7.79,12.36-17.4
					C201.96,553.87,201.07,550.19,199.34,546.9z"/>
				<path class="st4" d="M181,570.92c-3.58-0.68-7.28-0.28-10.62,1.15c-2,0.88-4.16,1.33-6.35,1.33c-2.19-0.01-4.35-0.48-6.35-1.37
					c-4.8-2.08-10.29-1.97-15,0.3c-1.33,0.7-2.8,1.07-4.3,1.07c-6.08,0-11.14-6.08-12.2-14.09c1.21-0.88,2.25-1.98,3.05-3.25
					c3.55-5.7,9.07-9.35,15.23-9.35c6.16,0,11.65,3.61,15.23,9.24c2.16,3.46,5.99,5.55,10.09,5.5h0.16
					C174.73,561.46,178.95,565.31,181,570.92z"/>
				<path class="st3" d="M666.11,589.04l-7.28,4.64l4.41-8.07c-1.25-1.01-2.79-1.57-4.39-1.82h-0.11c-0.51,0.24-1.01,0.2-1.51,0.12
					l-2.46,1.57l1.05-1.89c-1.75-0.62-3.25-1.77-4.31-3.3l-4.4,2.84l2.82-5.1c-2.37-3.09-6-4.94-9.88-5.03
					c-4.58,0-8.66,2.74-11.26,7.02c-1.59,2.62-4.46,4.17-7.51,3.77h-0.24c-5.06,0.29-9.16,6.07-9.16,13.2s4.1,12.9,9.16,12.9
					c1.11,0,2.21-0.28,3.19-0.8c3.49-1.71,7.54-1.79,11.1-0.22c2.99,1.34,6.4,1.34,9.39,0c3.52-1.54,7.53-1.46,10.99,0.22
					c0.98,0.51,2.06,0.78,3.15,0.78c5.06,0,9.16-5.78,9.16-12.9C668.05,594.21,667.39,591.48,666.11,589.04z"/>
				<path class="st4" d="M652.51,606.85c-2.65-0.5-5.4-0.21-7.88,0.85c-1.48,0.65-3.08,0.99-4.7,0.99c-1.62-0.01-3.23-0.35-4.7-1.02
					c-3.56-1.54-7.63-1.46-11.12,0.22c-0.98,0.52-2.08,0.79-3.19,0.79c-4.51,0-8.26-4.51-9.04-10.44c0.9-0.65,1.67-1.47,2.26-2.41
					c2.63-4.23,6.73-6.93,11.29-6.93c4.56,0,8.64,2.68,11.29,6.85c1.6,2.57,4.44,4.11,7.48,4.08h0.12
					C647.86,599.83,650.99,602.69,652.51,606.85z"/>
				<path class="st3" d="M616.29,734.29l-6.88,4.39l4.17-7.63c-1.18-0.95-2.64-1.48-4.15-1.72h-0.11c-0.48,0.22-0.96,0.19-1.43,0.11
					l-2.32,1.48l0.99-1.79c-1.65-0.58-3.07-1.67-4.07-3.12l-4.16,2.68l2.66-4.82c-2.24-2.92-5.67-4.67-9.33-4.75
					c-4.33,0-8.19,2.59-10.65,6.64c-1.51,2.47-4.22,3.94-7.1,3.56h-0.23c-4.78,0.27-8.66,5.74-8.66,12.48
					c0,6.74,3.88,12.2,8.66,12.2c1.05,0,2.09-0.26,3.02-0.76c3.3-1.62,7.13-1.69,10.49-0.21c2.82,1.26,6.05,1.26,8.87,0
					c3.33-1.45,7.12-1.38,10.39,0.21c0.92,0.48,1.94,0.73,2.98,0.74c4.78,0,8.66-5.46,8.66-12.2
					C618.12,739.17,617.51,736.6,616.29,734.29z"/>
				<path class="st4" d="M603.44,751.12c-2.51-0.48-5.1-0.2-7.44,0.8c-1.4,0.61-2.92,0.93-4.45,0.93c-1.53-0.01-3.05-0.33-4.45-0.96
					c-3.37-1.46-7.21-1.38-10.51,0.21c-0.93,0.49-1.96,0.75-3.01,0.75c-4.26,0-7.81-4.26-8.55-9.87c0.85-0.62,1.57-1.39,2.13-2.28
					c2.49-4,6.36-6.55,10.67-6.55c4.31,0,8.16,2.53,10.67,6.47c1.51,2.43,4.2,3.89,7.07,3.85h0.12
					C599.04,744.49,602,747.19,603.44,751.12z"/>
			</g>
			<g id="undraw_best_place_r685_1_" transform="translate(852.000000, 737.000000)">
				<path class="st0" d="M-160.97,340.26l-0.64-0.14c7.11-31.61,24.97-60.32,50.31-80.84c38.93-31.48,91.34-40.67,138.67-24.31
					s82.87,55.96,94.04,104.76l-0.64,0.14C105.72,273.8,47.81,227.66-20.06,227.66C-87.04,227.66-146.3,275.01-160.97,340.26z"/>
				<circle id="Oval_1_" class="st5" cx="85.86" cy="245.27" r="17.75"/>
				<rect id="Rectangle-path_1_" x="78.35" y="316.15" class="st0" width="0.77" height="25.76"/>
				<path class="st2" d="M85.15,319.52c0.04,9.03-6.31,16.37-6.31,16.37s-6.42-7.29-6.46-16.31c-0.04-9.03,6.31-16.37,6.31-16.37
					S85.1,310.49,85.15,319.52z"/>
				<path class="st6" d="M85.15,319.52c0.04,9.03-6.31,16.37-6.31,16.37s-6.42-7.29-6.46-16.31c-0.04-9.03,6.31-16.37,6.31-16.37
					S85.1,310.49,85.15,319.52z"/>
				<circle class="st7" cx="-44.4" cy="254.69" r="10.21"/>
				<circle class="st7" cx="-63.29" cy="259.57" r="7.16"/>
				<circle class="st7" cx="-140.08" cy="280.16" r="7.16"/>
				<circle class="st7" cx="71.7" cy="253.85" r="10.21"/>
				<path class="st0" d="M-189.61,339.17c0.55,2.05,2.45,3.31,2.45,3.31s1-2.05,0.44-4.1s-2.45-3.31-2.45-3.31
					S-190.16,337.13-189.61,339.17z"/>
				<path class="st2" d="M-188.79,338.73c1.52,1.48,1.7,3.75,1.7,3.75s-2.28-0.12-3.8-1.6c-1.52-1.48-1.7-3.75-1.7-3.75
					S-190.31,337.25-188.79,338.73z"/>
				<path class="st0" d="M10.37,339.17c0.55,2.05,2.45,3.31,2.45,3.31s1-2.05,0.44-4.1c-0.55-2.05-2.45-3.31-2.45-3.31
					S9.82,337.13,10.37,339.17z"/>
				<path class="st2" d="M11.19,338.73c1.52,1.48,1.7,3.75,1.7,3.75s-2.28-0.12-3.8-1.6c-1.52-1.48-1.7-3.75-1.7-3.75
					S9.67,337.25,11.19,338.73z"/>
				<polygon class="st0" points="-185.71,323.84 -187.06,321.58 -174.44,310.77 -142,310.77 -142,313.92 -153.72,326.54 
					-167.23,329.24 				"/>
				<polygon class="st8" points="-136.62,317.1 -136.62,310 -140.85,310 -140.85,312.23 -142.18,310.7 -152.95,321.54 
					-154.74,323.34 -156.99,332.37 -152.95,342.3 -132.39,342.3 -132.39,322.02 				"/>
				<rect x="-187.38" y="321.54" class="st3" width="34.22" height="20.77"/>
				<rect x="-165.07" y="328.07" class="st0" width="7.31" height="6.15"/>
				<rect x="-173.92" y="328.07" class="st8" width="6.15" height="14.23"/>
				<polygon class="st0" points="-181.22,330 -181.22,327.69 -183.91,327.69 -183.91,330 -181.45,330 				"/>
				<polygon class="st0" points="-181.45,331.92 -183.91,331.92 -183.91,334.23 -181.22,334.23 -181.22,331.92 				"/>
				<rect x="-179.68" y="327.69" class="st0" width="2.69" height="2.31"/>
				<rect x="-179.68" y="331.92" class="st0" width="2.69" height="2.31"/>
				<polygon class="st0" points="-143.15,330.38 -143.15,328.07 -145.84,328.07 -145.84,330.38 -143.38,330.38 				"/>
				<polygon class="st0" points="-143.38,331.92 -145.84,331.92 -145.84,334.23 -143.15,334.23 -143.15,331.92 				"/>
				<rect x="-141.61" y="328.07" class="st0" width="2.69" height="2.31"/>
				<rect x="-141.61" y="331.92" class="st0" width="2.69" height="2.31"/>
				<polygon class="st0" points="-55.35,323.84 -56.7,321.58 -44.08,310.77 -11.64,310.77 -11.64,313.92 -23.35,326.54 
					-36.87,329.24 				"/>
				<polygon class="st8" points="-6.25,317.1 -6.25,310 -10.48,310 -10.48,312.23 -11.81,310.7 -22.58,321.54 -24.38,323.34 
					-26.62,332.37 -22.58,342.3 -2.02,342.3 -2.02,322.02 				"/>
				<rect x="-56.63" y="321.54" class="st3" width="34.22" height="20.77"/>
				<rect x="-34.71" y="328.07" class="st0" width="7.31" height="6.15"/>
				<rect x="-43.55" y="328.07" class="st8" width="6.15" height="14.23"/>
				<polygon class="st0" points="-50.86,330 -50.86,327.69 -53.55,327.69 -53.55,330 -51.08,330 				"/>
				<polygon class="st0" points="-51.08,331.92 -53.55,331.92 -53.55,334.23 -50.86,334.23 -50.86,331.92 				"/>
				<rect x="-49.32" y="327.69" class="st0" width="2.69" height="2.31"/>
				<rect x="-49.32" y="331.92" class="st0" width="2.69" height="2.31"/>
				<polygon class="st0" points="-12.79,330.38 -12.79,328.07 -15.48,328.07 -15.48,330.38 -13.01,330.38 				"/>
				<polygon class="st0" points="-13.01,331.92 -15.48,331.92 -15.48,334.23 -12.79,334.23 -12.79,331.92 				"/>
				<rect x="-11.25" y="328.07" class="st0" width="2.69" height="2.31"/>
				<rect x="-11.25" y="331.92" class="st0" width="2.69" height="2.31"/>
				<polygon class="st0" points="-116.29,285.77 -118.55,283.96 -105.93,272.7 -73.93,272.7 -73.93,282.61 -94.66,296.58 				"/>
				<polygon class="st8" points="-68.17,279.22 -68.17,273.08 -72.4,273.08 -72.4,274.58 -73.97,272.86 -84.3,284.13 -88.33,286.84 
					-94.6,332.81 -85.15,342.3 -63.17,342.3 -63.17,284.62 				"/>
				<rect x="-118.54" y="284.23" class="st3" width="34.22" height="58.07"/>
				<rect x="-105.47" y="328.07" class="st8" width="6.15" height="14.23"/>
				<polygon class="st0" points="-112,332.3 -112,330 -114.7,330 -114.7,332.3 -112.23,332.3 				"/>
				<polygon class="st0" points="-112.23,333.84 -114.7,333.84 -114.7,336.15 -112,336.15 -112,333.84 				"/>
				<rect x="-110.47" y="330" class="st0" width="2.69" height="2.31"/>
				<rect x="-110.47" y="333.84" class="st0" width="2.69" height="2.31"/>
				<polygon class="st0" points="-93.55,332.3 -93.55,330 -96.24,330 -96.24,332.3 -93.77,332.3 				"/>
				<polygon class="st0" points="-93.77,333.84 -96.24,333.84 -96.24,336.15 -93.55,336.15 -93.55,333.84 				"/>
				<rect x="-92.01" y="330" class="st0" width="2.69" height="2.31"/>
				<rect x="-92.01" y="333.84" class="st0" width="2.69" height="2.31"/>
				<polygon class="st0" points="-74.7,286.93 -74.7,284.62 -77.39,284.62 -77.39,286.93 -74.93,286.93 				"/>
				<polygon class="st0" points="-74.93,288.85 -77.39,288.85 -77.39,291.16 -74.7,291.16 -74.7,288.85 				"/>
				<rect x="-72.78" y="284.62" class="st0" width="2.69" height="2.31"/>
				<rect x="-72.78" y="288.85" class="st0" width="2.69" height="2.31"/>
				<polygon class="st0" points="-74.7,299.62 -74.7,297.31 -77.39,297.31 -77.39,299.62 -74.93,299.62 				"/>
				<polygon class="st0" points="-74.93,301.54 -77.39,301.54 -77.39,303.85 -74.7,303.85 -74.7,301.54 				"/>
				<rect x="-72.78" y="297.31" class="st0" width="2.69" height="2.31"/>
				<rect x="-72.78" y="301.54" class="st0" width="2.69" height="2.31"/>
				<polygon class="st0" points="-74.7,312.31 -74.7,310 -77.39,310 -77.39,312.31 -74.93,312.31 				"/>
				<polygon class="st0" points="-74.93,314.23 -77.39,314.23 -77.39,316.54 -74.7,316.54 -74.7,314.23 				"/>
				<rect x="-72.78" y="310" class="st0" width="2.69" height="2.31"/>
				<rect x="-72.78" y="314.23" class="st0" width="2.69" height="2.31"/>
				<polygon class="st0" points="-74.7,325 -74.7,322.69 -77.39,322.69 -77.39,325 -74.93,325 				"/>
				<polygon class="st0" points="-74.93,326.53 -77.39,326.53 -77.39,328.84 -74.7,328.84 -74.7,326.53 				"/>
				<rect x="-72.78" y="322.69" class="st0" width="2.69" height="2.31"/>
				<rect x="-72.78" y="326.53" class="st0" width="2.69" height="2.31"/>
				<rect x="-114.7" y="286.93" class="st0" width="26.15" height="5.38"/>
				<rect x="-114.7" y="298.08" class="st0" width="26.15" height="5.38"/>
				<rect x="-114.7" y="308.85" class="st0" width="26.15" height="5.38"/>
				<rect x="-114.7" y="319.61" class="st0" width="26.15" height="5.38"/>
				<polygon class="st0" points="15.22,285.77 12.97,283.96 25.59,272.7 57.58,272.7 57.58,282.61 36.85,296.58 				"/>
				<polygon class="st8" points="63.35,279.22 63.35,273.08 59.12,273.08 59.12,274.58 57.54,272.86 47.22,284.13 43.18,286.84 
					36.92,332.81 46.36,342.3 68.35,342.3 68.35,284.62 				"/>
				<rect x="12.97" y="284.23" class="st3" width="34.22" height="58.07"/>
				<rect x="26.43" y="328.07" class="st8" width="6.15" height="14.23"/>
				<polygon class="st0" points="19.51,332.3 19.51,330 16.82,330 16.82,332.3 19.29,332.3 				"/>
				<polygon class="st0" points="19.29,333.84 16.82,333.84 16.82,336.15 19.51,336.15 19.51,333.84 				"/>
				<rect x="21.43" y="330" class="st0" width="2.69" height="2.31"/>
				<rect x="21.43" y="333.84" class="st0" width="2.69" height="2.31"/>
				<polygon class="st0" points="37.97,332.3 37.97,330 35.28,330 35.28,332.3 37.75,332.3 				"/>
				<polygon class="st0" points="37.75,333.84 35.28,333.84 35.28,336.15 37.97,336.15 37.97,333.84 				"/>
				<rect x="39.89" y="330" class="st0" width="2.69" height="2.31"/>
				<rect x="39.89" y="333.84" class="st0" width="2.69" height="2.31"/>
				<polygon class="st0" points="56.81,286.93 56.81,284.62 54.12,284.62 54.12,286.93 56.59,286.93 				"/>
				<polygon class="st0" points="56.59,288.85 54.12,288.85 54.12,291.16 56.81,291.16 56.81,288.85 				"/>
				<rect x="58.74" y="284.62" class="st0" width="2.69" height="2.31"/>
				<rect x="58.74" y="288.85" class="st0" width="2.69" height="2.31"/>
				<polygon class="st0" points="56.81,299.62 56.81,297.31 54.12,297.31 54.12,299.62 56.59,299.62 				"/>
				<polygon class="st0" points="56.59,301.54 54.12,301.54 54.12,303.85 56.81,303.85 56.81,301.54 				"/>
				<rect x="58.74" y="297.31" class="st0" width="2.69" height="2.31"/>
				<rect x="58.74" y="301.54" class="st0" width="2.69" height="2.31"/>
				<polygon class="st0" points="56.81,312.31 56.81,310 54.12,310 54.12,312.31 56.59,312.31 				"/>
				<polygon class="st0" points="56.59,314.23 54.12,314.23 54.12,316.54 56.81,316.54 56.81,314.23 				"/>
				<rect x="58.74" y="310" class="st0" width="2.69" height="2.31"/>
				<rect x="58.74" y="314.23" class="st0" width="2.69" height="2.31"/>
				<polygon class="st0" points="56.81,325 56.81,322.69 54.12,322.69 54.12,325 56.59,325 				"/>
				<polygon class="st0" points="56.59,326.53 54.12,326.53 54.12,328.84 56.81,328.84 56.81,326.53 				"/>
				<rect x="58.74" y="322.69" class="st0" width="2.69" height="2.31"/>
				<rect x="58.74" y="326.53" class="st0" width="2.69" height="2.31"/>
				<rect x="16.82" y="286.93" class="st0" width="26.15" height="5.38"/>
				<rect x="16.82" y="298.08" class="st0" width="26.15" height="5.38"/>
				<rect x="16.82" y="308.85" class="st0" width="26.15" height="5.38"/>
				<rect x="16.82" y="319.61" class="st0" width="26.15" height="5.38"/>
				<polygon class="st0" points="87.52,285.77 85.27,283.96 97.88,272.7 129.88,272.7 129.88,282.61 109.15,296.58 				"/>
				<polygon class="st8" points="135.65,279.22 135.65,273.08 131.42,273.08 131.42,274.58 129.84,272.86 119.52,284.13 
					115.48,286.84 109.22,332.81 118.66,342.3 140.65,342.3 140.65,284.62 				"/>
				<rect x="85.27" y="284.23" class="st3" width="34.22" height="58.07"/>
				<rect x="98.73" y="328.07" class="st8" width="6.15" height="14.23"/>
				<polygon class="st0" points="91.81,332.3 91.81,330 89.12,330 89.12,332.3 91.58,332.3 				"/>
				<polygon class="st0" points="91.58,333.84 89.12,333.84 89.12,336.15 91.81,336.15 91.81,333.84 				"/>
				<rect x="93.73" y="330" class="st0" width="2.69" height="2.31"/>
				<rect x="93.73" y="333.84" class="st0" width="2.69" height="2.31"/>
				<polygon class="st0" points="110.27,332.3 110.27,330 107.57,330 107.57,332.3 110.04,332.3 				"/>
				<polygon class="st0" points="110.04,333.84 107.57,333.84 107.57,336.15 110.27,336.15 110.27,333.84 				"/>
				<rect x="112.19" y="330" class="st0" width="2.69" height="2.31"/>
				<rect x="112.19" y="333.84" class="st0" width="2.69" height="2.31"/>
				<polygon class="st0" points="129.11,286.93 129.11,284.62 126.42,284.62 126.42,286.93 128.88,286.93 				"/>
				<polygon class="st0" points="128.88,288.85 126.42,288.85 126.42,291.16 129.11,291.16 129.11,288.85 				"/>
				<rect x="131.03" y="284.62" class="st0" width="2.69" height="2.31"/>
				<rect x="131.03" y="288.85" class="st0" width="2.69" height="2.31"/>
				<polygon class="st0" points="129.11,299.62 129.11,297.31 126.42,297.31 126.42,299.62 128.88,299.62 				"/>
				<polygon class="st0" points="128.88,301.54 126.42,301.54 126.42,303.85 129.11,303.85 129.11,301.54 				"/>
				<rect x="131.03" y="297.31" class="st0" width="2.69" height="2.31"/>
				<rect x="131.03" y="301.54" class="st0" width="2.69" height="2.31"/>
				<polygon class="st0" points="129.11,312.31 129.11,310 126.42,310 126.42,312.31 128.88,312.31 				"/>
				<polygon class="st0" points="128.88,314.23 126.42,314.23 126.42,316.54 129.11,316.54 129.11,314.23 				"/>
				<rect x="131.03" y="310" class="st0" width="2.69" height="2.31"/>
				<rect x="131.03" y="314.23" class="st0" width="2.69" height="2.31"/>
				<polygon class="st0" points="129.11,325 129.11,322.69 126.42,322.69 126.42,325 128.88,325 				"/>
				<polygon class="st0" points="128.88,326.53 126.42,326.53 126.42,328.84 129.11,328.84 129.11,326.53 				"/>
				<rect x="131.03" y="322.69" class="st0" width="2.69" height="2.31"/>
				<rect x="131.03" y="326.53" class="st0" width="2.69" height="2.31"/>
				<rect x="89.12" y="286.93" class="st0" width="26.15" height="5.38"/>
				<rect x="89.12" y="298.08" class="st0" width="26.15" height="5.38"/>
				<rect x="89.12" y="308.85" class="st0" width="26.15" height="5.38"/>
				<rect x="89.12" y="319.61" class="st0" width="26.15" height="5.38"/>
				<rect x="-208.14" y="341.92" class="st0" width="371.48" height="0.77"/>
				<rect x="-125.85" y="316.15" class="st0" width="0.77" height="25.76"/>
				<path class="st2" d="M-119.08,319.52c0.04,9.03-6.31,16.37-6.31,16.37s-6.42-7.29-6.46-16.31c-0.04-9.03,6.31-16.37,6.31-16.37
					S-119.12,310.49-119.08,319.52z"/>
				<rect x="-60.47" y="316.15" class="st0" width="0.77" height="25.76"/>
				<path class="st2" d="M-53.73,319.52c0.04,9.03-6.31,16.37-6.31,16.37s-6.42-7.29-6.46-16.31c-0.04-9.03,6.31-16.37,6.31-16.37
					S-53.77,310.49-53.73,319.52z"/>
				<rect x="69.89" y="316.15" class="st0" width="0.77" height="25.76"/>
				<path class="st2" d="M76.65,319.52c0.04,9.03-6.31,16.37-6.31,16.37s-6.42-7.29-6.46-16.31c-0.04-9.03,6.31-16.37,6.31-16.37
					S76.61,310.49,76.65,319.52z"/>
				<ellipse class="st2" cx="-16.14" cy="226.84" rx="12.42" ry="2.79"/>
				<path class="st2" d="M-2.09,187.79c0,7.94-14.38,30.39-14.38,30.39s-14.38-22.45-14.38-30.39s6.44-14.38,14.38-14.38
					S-2.09,179.85-2.09,187.79z"/>
				<circle class="st3" cx="-16.46" cy="187.79" r="8.17"/>
			</g>
			<g id="undraw_travelers_qlt1_1_" transform="translate(0.000000, 190.000000)">
				<ellipse class="st0" cx="427.15" cy="626.25" rx="14.4" ry="12.43"/>
				<ellipse class="st0" cx="455.96" cy="669.17" rx="20.61" ry="23.16"/>
				<ellipse class="st0" cx="521.9" cy="874.47" rx="5.22" ry="5.93"/>
				<ellipse class="st0" cx="494.79" cy="874.47" rx="5.22" ry="5.93"/>
				<rect x="500.27" y="734.74" class="st0" width="2.54" height="70.88"/>
				<rect x="512.98" y="734.74" class="st0" width="2.54" height="70.88"/>
				<path class="st0" d="M500.87,736.52l-0.58-1.94c0,0,6.33-8.41,15.25-1.63l-0.58,2.91h-2.3c0,0-3.74-3.53-10.07,0.5
					L500.87,736.52z"/>
				<rect x="441.53" y="724.57" class="st9" width="20.61" height="29.65"/>
				<rect x="470.62" y="716.38" class="st9" width="6.49" height="14.12"/>
				<path class="st10" d="M444.27,868.33l-2.54,8.67c0,0-1.13,6.42,2.54,6.74c3.68,0.32,9.62-0.96,9.62-0.96s0.85-2.89,0-5.45
					s-3.39-9.63-3.39-9.63L444.27,868.33z"/>
				<path class="st10" d="M463.94,868.59c0,0-3.98,11.07-0.85,12.97s7.39,0.31,10.79,1.9c3.41,1.58,12.78-2.21,12.78-2.21
					s1.14-3.48-5.11-4.43c0,0-6.8-5.69-6.8-6.96s-3.98-1.27-3.98-1.27H463.94z"/>
				<path class="st0" d="M463.06,740.4c0,0-23.7,5.46-26.59,3.86c-2.89-1.61-5.78,21.87-5.78,21.87s-1.16,14.14,2.89,33.1
					c4.05,18.96,0,28.28,0,28.28s0.58,18,4.92,26.35c4.34,8.36,4.33,16.07,4.33,16.07s8.38,0.96,8.67-1.29c0,0-3.47-9-2.89-17.35
					c0.58-8.35-1.73-24.43-1.73-24.43s3.76-20.25,3.18-27.94c-0.58-7.69,2.02-24.1,3.47-21.21c1.44,2.89,5.2,17.03,5.2,19.93
					c0,2.9,1.46,22.17,2.31,23.46s0.58,5.14,0.29,7.07c-0.29,1.93-0.29,16.39,1.15,24.1c1.44,7.71,0.29,16.39,0.58,17.68
					c0.29,1.29,8.67,0.32,8.96-1.93c0,0,1.16-13.82,1.74-15.74c0.58-1.93,0.85-26.39,0.85-26.39s0.58-18.96,1.15-20.89
					c0.58-1.93,1.46-43.39-2.31-48.19c-3.77-4.8-2.31-17.03-2.31-17.03L463.06,740.4z"/>
				<path class="st9" d="M443.88,684.28c-1.07,2.26-2.15,4.54-2.81,6.99c-0.67,2.45-0.9,5.11-0.27,7.57
					c0.45,1.54,1.08,3.01,1.86,4.37c0.62,1.3,1.42,2.49,2.35,3.53c2.18,2.24,5.35,2.68,8.3,3.04c0.51,0.09,1.02,0.09,1.52-0.03
					c0.4-0.13,0.77-0.36,1.09-0.67c1.29-1.22,1.88-3.09,2.35-4.9c1.12-4.29,1.93-8.68,2.41-13.11c0.11-0.7,0.11-1.42,0-2.12
					c-0.25-1.22-1.13-2.17-1.76-3.23c-0.76-1.26-1.19-2.73-1.25-4.24c-0.03-0.74,0-1.55-0.41-2.12c-0.28-0.31-0.61-0.54-0.98-0.68
					c-1.72-0.82-3.44-1.63-5.16-2.42c-1.04-0.48-2.91-1.76-4-0.82c-0.93,0.82-0.48,2.71-0.88,3.84
					C445.62,681.01,444.65,682.64,443.88,684.28z"/>
				<path class="st6" d="M443.88,684.28c-1.07,2.26-2.15,4.54-2.81,6.99c-0.67,2.45-0.9,5.11-0.27,7.57
					c0.45,1.54,1.08,3.01,1.86,4.37c0.62,1.3,1.42,2.49,2.35,3.53c2.18,2.24,5.35,2.68,8.3,3.04c0.51,0.09,1.02,0.09,1.52-0.03
					c0.4-0.13,0.77-0.36,1.09-0.67c1.29-1.22,1.88-3.09,2.35-4.9c1.12-4.29,1.93-8.68,2.41-13.11c0.11-0.7,0.11-1.42,0-2.12
					c-0.25-1.22-1.13-2.17-1.76-3.23c-0.76-1.26-1.19-2.73-1.25-4.24c-0.03-0.74,0-1.55-0.41-2.12c-0.28-0.31-0.61-0.54-0.98-0.68
					c-1.72-0.82-3.44-1.63-5.16-2.42c-1.04-0.48-2.91-1.76-4-0.82c-0.93,0.82-0.48,2.71-0.88,3.84
					C445.62,681.01,444.65,682.64,443.88,684.28z"/>
				<ellipse class="st9" cx="455.11" cy="673.97" rx="10.17" ry="11.3"/>
				<path class="st3" d="M458.4,702.48c-1.9,0.77-3.87,1.43-5.89,1.51c-1.52,0.02-3.03-0.16-4.51-0.54
					c-3.05-0.68-6.05-1.64-8.97-2.87c-0.62,1.37-0.79,2.94-0.84,4.48c-0.16,4.66,0.67,9.28,0.99,13.93c0.4,5.91,0,11.95,1.36,17.67
					c0.08-0.97,0.42-1.9,0.97-2.65c0.46-0.56,1.01-1.01,1.63-1.34c2.74-1.59,5.89-2.03,8.9-1.24c1.74,0.46,3.59,1.33,5.24,0.55
					c0.98-0.47,1.7-1.45,2.24-2.48c0.93-1.86,1.59-3.87,1.96-5.95c1.09-5.37,1.23-10.92,1.36-16.42c0.04-1.47,0.6-5.85-0.49-6.92
					c-0.76-0.75-0.99,0.32-1.54,0.88C460.1,701.72,459.28,702.19,458.4,702.48z"/>
				<path class="st11" d="M444.44,683.09c-0.67-0.59-1.67-0.4-2.41,0.09c-0.74,0.5-1.34,1.19-2.1,1.64
					c-2.09,1.26-4.89,0.34-6.87,1.8c-1.86,1.38-2.18,4.22-2.33,6.7c-0.36,6.31-0.68,12.66-2.04,18.81c-0.36,1.62-0.8,3.28-0.66,4.94
					c0.11,0.95,0.31,1.89,0.6,2.79l1.79,6.22c0.83,2.89,1.67,5.82,1.76,8.85c0.09,3.03-0.55,5.91-1.19,8.8
					c-1.26,5.7-2.08,11.5-2.45,17.36c-0.11,1.94-0.16,3.96,0.55,5.74c0.73,1.86,2.2,3.24,3.76,4.28c1.56,1.05,3.25,1.86,4.77,2.97
					c3.06,2.24,5.51,5.76,9.09,6.68c1.64,0.4,3.36,0.24,5.01-0.11c0,0-0.93-47.21-3.54-53.96c-2.6-6.74-4.91-35.95-4.91-36.91
					C443.28,688.81,444.44,683.09,444.44,683.09z"/>
				<path class="st12" d="M458.22,684.42c0,0,13.68,0,15.7,8.06s-5.78,21.27-5.78,21.27s3.18,26.1,4.62,28.68
					c1.44,2.58,0.87,7.71,0.87,7.71c1.05,3.54,1.25,7.32,0.58,10.96c-1.15,5.8-5.49,16.11-5.49,16.11s-5.78,0-7.23,3.87
					s-1.73-16.76-1.73-16.76s-5.2-37.7-4.91-39.95c0.29-2.25,1.73-20.95,2.31-26.1C457.73,693.11,458.99,686.35,458.22,684.42z"/>
				<path class="st12" d="M468.78,689.5c0,0,6.58,2.25,6.58,4.83s2.01,16.42,2.01,20.92c0,4.51-0.86,5.15,0,6.76
					c0.86,1.61-9.14,0.97-9.14,0.97l-1.82-18.35L468.78,689.5z"/>
				<path class="st13" d="M429.71,712.97c0,0,12.94,0.97,15.24-0.97c2.3-1.94,12.08,2.58,12.94,5.17c0.86,2.58-13.81,2.91-16.1,2.91
					s-13.23,3.88-13.23,3.88L429.71,712.97z"/>
				<path class="st0" d="M402.99,862.88c0,0-6.02,16.96-2.89,18.98c3.13,2.02,36.13,0.58,36.13,0.58s5.5-3.8-0.79-6.43
					c0,0-5.24-0.29-8.64-2.63c-3.4-2.34-7.33-6.72-7.33-6.72s-0.26-6.43-2.36-4.97c-1.27,0.93-2.12,2.42-2.36,4.09L402.99,862.88z"
					/>
				<path class="st6" d="M402.99,862.88c0,0-6.02,16.96-2.89,18.98c3.13,2.02,36.13,0.58,36.13,0.58s5.5-3.8-0.79-6.43
					c0,0-5.24-0.29-8.64-2.63c-3.4-2.34-7.33-6.72-7.33-6.72s-0.26-6.43-2.36-4.97c-1.27,0.93-2.12,2.42-2.36,4.09L402.99,862.88z"
					/>
				<path class="st0" d="M393.76,868.08c0,0-6.62,18.48-3.17,20.72s39.76,0.64,39.76,0.64s6.05-4.14-0.86-7.01
					c0,0-5.76-0.32-9.51-2.87c-3.75-2.55-8.07-7.34-8.07-7.34s-0.29-7.01-2.59-5.42c-1.39,1.02-2.34,2.64-2.59,4.46L393.76,868.08z"
					/>
				<path class="st10" d="M427.72,749.5l-4.05,40.57c0,0-1.46,19.32-5.78,23.5c0,0,0,6.12-1.46,8.05l-2.03,25.44
					c0,0,2.89,9.33,2.6,10.95s1.15,6.76,0.87,7.4s-13.88,0-13.88,0l2.89-51.84l8.96-72.12L427.72,749.5z"/>
				<path class="st6" d="M427.72,749.5l-4.05,40.57c0,0-1.46,19.32-5.78,23.5c0,0,0,6.12-1.46,8.05l-2.03,25.44
					c0,0,2.89,9.33,2.6,10.95s1.15,6.76,0.87,7.4s-13.88,0-13.88,0l2.89-51.84l8.96-72.12L427.72,749.5z"/>
				<path class="st10" d="M420.38,748.14c0,0-3.17,33.08-4.6,40.15c-0.9,4.65-1.48,9.38-1.73,14.13c0,0-0.29,10.28-2.88,13.17
					c-1.53,1.69-2.36,4.01-2.3,6.42c0,0-2.59,32.44-1.15,36.3c1.44,3.86,2.88,7.07,1.45,9.63c-1.43,2.57-17.26,2.57-17.26,0.64
					s0-3.53-0.86-4.5c-0.86-0.96,0-7.07,0-7.07s-3.45-28.59-0.29-36.94c3.17-8.35,4.6-31.17,4.6-31.17s-2.3-26.02-5.18-30.19
					c-2.88-4.18,0.58-18.95,0.58-18.95L420.38,748.14z"/>
				<path class="st13" d="M412.19,645.56c0.33,0.84,1.14,1.31,1.87,1.76c4.23,2.57,7.77,6.3,11.26,9.99
					c-0.87-3.26-0.68-6.75,0.53-9.87c0.41-1.06,0.96-2.21,0.66-3.32c-0.22-0.8-0.85-1.41-1.45-1.93c-1.42-1.22-2.91-2.34-4.46-3.35
					c-1.09-0.71-3.3-2.61-4.54-2.4c-0.07,1.85-0.1,3.5-0.83,5.21C415.05,642.07,412.31,645.89,412.19,645.56z"/>
				<ellipse class="st13" cx="427.01" cy="636.27" rx="11.72" ry="13.13"/>
				<path class="st0" d="M427.51,667.22c0,0,2.01-11.25-3.73-15.1s-12.34-8.35-12.34-8.35s-2.01-0.32-2.87,4.5
					c0,0-16.36,3.53-18.08,20.88c-1.73,17.35,1.15,42.73,1.15,42.73s-2.58,22.17-5.74,34.06c0,0-2.59,2.57,8.9-1.28
					s31.57,10.93,31.57,10.93s2.01-2.25,2.01-3.86c0-1.61,2.3-10.93,2.3-10.93s2.01-39.52,2.87-44.02S430.09,667.86,427.51,667.22z"
					/>
				<path class="st14" d="M410.07,689.5c0,0,15.89-10.31,12.71-23.51s-10.11-17.39-10.11-17.39s-11.27-4.19-20.81,9.33l0.58,6.12
					c0,0,10.41-23.51,21.68-8.7C425.38,670.17,410.07,689.5,410.07,689.5z"/>
				<path class="st14" d="M392.96,658.65v52.61l-2.95,17.94l-1.38,8.36h-10.08l-14.12-5.78v-38.81c0,0,11.82-25.99,15.56-30.8
					C383.75,657.37,392.96,658.65,392.96,658.65z"/>
				<polygon class="st6" points="390.16,729.65 388.78,738.13 378.65,738.13 364.46,732.28 				"/>
				<polygon class="st15" points="389.31,718.08 414.16,684.42 392.2,719.36 389.89,720 				"/>
				<path class="st0" d="M424.27,637.72c0.67-0.51,1.51-0.6,2.32-0.69c0.81-0.09,1.65-0.21,2.29-0.76c1.11-0.96,1.2-2.81,2.02-4.08
					c1.18-1.85,3.54-2.08,5.57-1.99c1.25,0.06,2.59,0.14,3.63-0.61c1.05-0.75,1.56-2.23,1.92-3.6c0.43-1.62,0.71-3.6-0.36-4.8
					c-0.73-0.84-1.9-1-2.72-1.73c-0.82-0.73-1.2-1.99-1.66-3.09c-0.53-1.34-1.36-2.51-2.41-3.38c-1.55-1.22-3.52-1.47-5.41-1.45
					c-1.88,0.02-3.78,0.3-5.65,0.04c-1.53-0.21-3.06-0.78-4.59-0.53c-1.95,0.32-3.55,1.96-4.52,3.88c-0.96,1.92-1.37,4.11-1.77,6.25
					l-1.09,5.85c-0.33,1.82-0.67,3.68-0.41,5.5c0.54,3.79,3.54,6.81,3.75,10.64c0.4-2.15,1.74-3.93,3.57-4.74
					c0.23-0.12,0.48-0.16,0.73-0.1c0.3,0.11,0.47,0.44,0.66,0.72c0.49,0.73,2.04,1.84,2.9,1.33
					C423.87,639.93,423.28,638.47,424.27,637.72z"/>
				<path class="st10" d="M499.54,801.11c0,0-7.77,0.32-8.92,10.29c-1.15,9.97,0,56.26,0,56.26s8.92,7.39,19.86,6.43
					c10.94-0.96,28.49-4.5,28.49-4.5V815.3c0-8.1-6.05-14.71-13.29-14.24c-0.17,0-0.36,0.02-0.52,0.04L499.54,801.11z"/>
				<ellipse class="st0" cx="510.88" cy="875.88" rx="5.22" ry="5.93"/>
				<ellipse class="st0" cx="539.12" cy="873.34" rx="5.22" ry="5.93"/>
				<path class="st13" d="M394.61,697.87c0,0-2.01,14.01,6.3,12.73c0,0,4.3-0.64,4.87,0c0.57,0.64,21.78-3.5,24.65-7.01
					c0,0,3.44-1.27,5.16,0.64c1.72,1.91,18.91,3.82,13.76-1.91c-5.15-5.73-13.18-7.01-13.18-7.01l-10.89,0.63c0,0-5.73,1.91-9.17,0
					s-13.19-1.25-13.19-1.25L394.61,697.87z"/>
				<path class="st0" d="M406.1,653.08c0,0-12.85,1.62-12.85,22.48v26.65c0,0,7.14-3.53,8.57-3.21c1.43,0.32,7.14-4.18,7.14-4.18
					s6.57-17.34,6-22.15S414.67,653.72,406.1,653.08z"/>
				<polygon class="st0" points="465.47,704.75 452.57,714.82 460.59,715.77 471.77,705.38 				"/>
				<path class="st9" d="M475.74,720.37c0,0,3.15,10.93-1.14,14.13c-4.3,3.21-11.46-11.24-11.46-11.24s-7.74-10.28-2.58-12.53
					s7.26,7.55,7.26,7.55l6.77,6.58L475.74,720.37z"/>
				<ellipse class="st0" cx="456.1" cy="665.5" rx="11.44" ry="8.19"/>
				<ellipse class="st0" cx="457.79" cy="645.73" rx="8.33" ry="9.32"/>
				<ellipse class="st0" cx="427.15" cy="628.08" rx="11.01" ry="6.35"/>
				<ellipse class="st0" cx="416.71" cy="629.07" rx="3.95" ry="10.73"/>
				<path class="st16" d="M358.63,883.51c1.08-2.23-0.14-4.97-1.54-6.96c-1.4-1.99-3.11-4.05-3.07-6.6c0.05-3.65,3.5-5.8,6.25-7.73
					c2.04-1.43,3.93-3.13,5.61-5.07c0.71-0.74,1.29-1.62,1.72-2.59c0.57-1.43,0.56-3.05,0.52-4.61c-0.12-5.2-0.35-10.4-0.69-15.58"
					/>
				<path class="st17" d="M373.21,834.11c-0.08-1.93-1.04-3.68-2.54-4.64l-1.14,2.51l0.04-3.03c-2.12-0.69-4.4,0.22-5.64,2.25
					s-1.16,4.72,0.21,6.65c1.36,1.93,3.7,2.66,5.77,1.81S373.31,836.57,373.21,834.11z"/>
				<path class="st17" d="M363.9,872.54c-1.1,2.37-3.55,3.56-5.86,2.86c-2.32-0.71-3.87-3.12-3.73-5.78
					c0.14-2.66,1.95-4.85,4.32-5.25s4.68,1.11,5.51,3.62l-3.18,2.88l3.5-0.9C364.46,870.85,364.27,871.74,363.9,872.54z"/>
				<path class="st17" d="M361.26,861.47c-1.35,0.07-2.67-0.45-3.67-1.46c-1-1.01-1.59-2.42-1.65-3.92
					c-0.04-0.88,0.11-1.77,0.44-2.57c0.62-1.53,1.81-2.67,3.27-3.13l-0.03,2.33l1.15-2.53c1.35-0.07,2.67,0.45,3.67,1.46
					s1.59,2.42,1.65,3.92c0.03,0.65-0.04,1.3-0.22,1.93C365.24,859.77,363.4,861.36,361.26,861.47z"/>
				<path class="st17" d="M373.98,852.44c-2.15,0.09-4.11-1.33-4.91-3.54s-0.26-4.74,1.35-6.33s3.94-1.87,5.82-0.73l-0.9,2.74
					l1.85-1.98c1.53,1.54,2.08,3.95,1.37,6.11C377.86,850.88,376.05,852.35,373.98,852.44z"/>
				<path class="st6" d="M372.63,835.67c-1.19,0.15-2.35,0.56-3.55,0.64c-1.2,0.08-2.51-0.24-3.26-1.27
					c-0.41-0.55-0.61-1.26-0.96-1.86c-0.33-0.56-0.77-1.03-1.3-1.36c-0.86,1.97-0.62,4.31,0.6,6.02c1.23,1.71,3.23,2.5,5.16,2.03
					c1.93-0.47,3.44-2.13,3.9-4.25C373.02,835.64,372.83,835.65,372.63,835.67z"/>
				<path class="st6" d="M374.09,852.44c-1.81,0.09-3.52-0.88-4.52-2.55c-1-1.67-1.15-3.81-0.38-5.63c0.41,0.31,0.76,0.7,1.04,1.16
					c0.37,0.62,0.59,1.33,1.02,1.9c0.8,1.05,2.18,1.4,3.42,1.33c1.24-0.07,2.45-0.45,3.68-0.58c0.17,0,0.35-0.03,0.52-0.04
					C378.34,850.52,376.39,852.32,374.09,852.44z"/>
				<path class="st6" d="M361.28,861.47c-1.34,0.07-2.65-0.45-3.64-1.45s-1.58-2.4-1.64-3.89c-0.04-0.88,0.11-1.75,0.44-2.55
					c0.42,0.3,0.79,0.69,1.08,1.14c0.39,0.62,0.64,1.32,1.08,1.89c0.85,1.06,2.29,1.43,3.58,1.39c1.29-0.04,2.46-0.37,3.7-0.48
					C365.25,859.78,363.41,861.36,361.28,861.47z"/>
				<path class="st6" d="M363.62,872.56c-0.73,1.83-2.28,3.08-4.07,3.29c-1.78,0.21-3.53-0.67-4.58-2.29
					c-1.05-1.62-1.25-3.75-0.51-5.58c0.41,0.3,0.79,0.67,1.1,1.1c0.48,0.65,0.79,1.39,1.34,2c1.03,1.13,2.69,1.6,4.17,1.64
					C361.92,872.72,362.77,872.67,363.62,872.56z"/>
				<path class="st18" d="M351.19,881.13c0,0,4.02-0.14,5.23-1.1c1.21-0.96,6.17-2.11,6.49-0.57c0.32,1.55,6.04,7.69,1.5,7.71
					s-10.55-0.79-11.76-1.62C351.45,884.73,351.19,881.13,351.19,881.13z"/>
				<path class="st19" d="M364.51,886.67c-4.55,0.04-10.56-0.81-11.77-1.66c-0.92-0.64-1.29-2.94-1.41-4h-0.13
					c0,0,0.25,3.7,1.45,4.56c1.2,0.86,7.22,1.69,11.77,1.66c1.31,0,1.76-0.54,1.74-1.33C365.99,886.36,365.49,886.66,364.51,886.67z
					"/>
			</g>
		</g>
	</g>
</g>
<path class="st3" d="M239.07,651.81l-11.31,7.16l6.85-12.47c-1.94-1.55-4.34-2.41-6.82-2.83h-0.18c-0.78,0.4-1.57,0.34-2.34,0.21
	l-3.83,2.43l1.64-2.98c-2.71-0.95-5.05-2.73-6.69-5.09l-6.84,4.37l4.32-7.87c-4-4.81-9.4-7.76-15.34-7.76
	c-7.12,0-13.46,4.24-17.56,10.84c-2.47,4.03-6.92,6.42-11.64,6.27h-0.38c-7.86-0.01-14.23,8.9-14.23,19.9
	c0,11,6.37,19.92,14.23,19.92c1.73-0.01,3.43-0.43,4.95-1.24c5.42-2.63,11.71-2.75,17.23-0.33c4.66,2.09,9.98,2.11,14.65,0.04
	c5.47-2.37,11.7-2.25,17.07,0.33c1.52,0.79,3.2,1.21,4.91,1.22c7.86,0,14.23-8.92,14.23-19.92
	C242.06,659.75,241.05,655.56,239.07,651.81z"/>
<path class="st3" d="M1763.71,913.66l-8.59,5.44l5.21-9.47c-1.47-1.18-3.3-1.83-5.18-2.15H1755c-0.6,0.31-1.19,0.26-1.78,0.16
	l-2.91,1.85l1.24-2.27c-2.06-0.72-3.84-2.08-5.08-3.87l-5.2,3.32l3.28-5.98c-3.04-3.66-7.14-5.9-11.66-5.9
	c-5.41,0-10.23,3.22-13.34,8.24c-1.88,3.06-5.26,4.88-8.84,4.77h-0.29c-5.97-0.01-10.82,6.76-10.82,15.13
	c0,8.36,4.84,15.14,10.82,15.14c1.31,0,2.6-0.33,3.76-0.95c4.12-2,8.9-2.09,13.09-0.25c3.54,1.59,7.59,1.6,11.13,0.03
	c4.16-1.8,8.89-1.71,12.97,0.25c1.15,0.6,2.43,0.92,3.73,0.92c5.97,0,10.82-6.77,10.82-15.14
	C1765.98,919.7,1765.22,916.51,1763.71,913.66z"/>
</svg>
