<?xml version="1.0" encoding="utf-8"?>
<!-- Generator: Adobe Illustrator 23.0.6, SVG Export Plug-In . SVG Version: 6.00 Build 0)  -->
<svg version="1.1" id="Layer_1" xmlns="http://www.w3.org/2000/svg" xmlns:xlink="http://www.w3.org/1999/xlink" x="0px" y="0px"
	 viewBox="0 0 511 511" style="enable-background:new 0 0 511 511;" xml:space="preserve">
<style type="text/css">
	.st0{fill:#FFFFFF;}
</style>
<path class="st0" d="M487.7,319.05l14.62-14.62c9.2-9.2,9.2-24.18,0-33.38c-4.46-4.46-10.39-6.91-16.69-6.91
	c-4.73,0-9.26,1.38-13.1,3.96l-3.08-10.34l15.82-15.83c9.2-9.2,9.2-24.18,0-33.38c-8.47-8.48-21.83-9.13-31.08-2l-18.75-62.96
	c7.49-7.21,14.66-14.23,21.42-20.99c19.48-19.49,35.32-40.11,44.6-58.07c15.68-30.36,9.12-46.59,0.85-54.86
	c-8.27-8.27-24.5-14.83-54.86,0.85c-17.96,9.28-38.58,25.12-58.07,44.6c-6.76,6.76-13.78,13.93-20.99,21.42L305.44,57.8
	c7.13-9.25,6.48-22.6-1.99-31.08c-9.2-9.2-24.18-9.2-33.38,0l-15.83,15.83l-10.34-3.08c2.58-3.85,3.96-8.37,3.96-13.1
	c0-6.3-2.46-12.23-6.91-16.69c-9.2-9.2-24.18-9.2-33.38,0l-14.62,14.62L118.45,2.1c-2.65-0.79-5.52-0.06-7.48,1.89L91.8,23.17
	c-3.22,3.22-2.8,8.72,0.88,11.4l187.97,137.59c-42.38,47.79-83.21,95.63-112.03,129.81l-55.29-21.27c-2.78-1.07-5.93-0.4-8.03,1.7
	l-22.73,22.73c-2.94,2.94-2.94,7.71,0,10.65L196.2,429.43c2.9,2.9,7.75,2.9,10.65,0l22.73-22.73c2.11-2.11,2.78-5.26,1.7-8.04
	l-21.26-55.29c34.18-28.82,82.02-69.65,129.81-112.03l14.93,20.41c2.65,3.62,8.03,4.09,11.28,1c2.71-2.57,3.08-6.89,0.88-9.9
	l-15.79-21.57c24.99-22.3,49.67-44.81,72.06-66.01l70.97,238.26l-9.79,9.79l-97.55-133.27c-2.46-3.36-7.17-4.09-10.53-1.63
	c-3.36,2.46-4.09,7.17-1.63,10.53l102.74,140.36c2.69,3.67,8.19,4.1,11.4,0.88L508,401.02c1.96-1.95,2.68-4.83,1.89-7.48
	L487.7,319.05z M280.72,37.38c3.29-3.29,8.78-3.29,12.07,0c3.33,3.33,3.33,8.74,0,12.07l-3.53,3.53l-18.61-5.54L280.72,37.38z
	 M218.22,20.33c3.33-3.33,8.74-3.33,12.07,0c3.33,3.33,3.33,8.74,0,12.07l-2.32,2.32l-18.6-5.54L218.22,20.33z M108.66,27.61
	l9.79-9.79l238.26,70.97c-21.2,22.39-43.71,47.07-66.02,72.06L108.66,27.61z M112.48,296.53l45.87,17.64
	c-11.5,13.7-20.33,24.3-25.53,30.57l-34.28-34.28L112.48,296.53z M143.52,355.45c26.26-31.68,165.07-198.21,256.53-289.66
	c18.14-18.15,37.95-33.41,54.33-41.87c12.3-6.35,28.75-12.13,37.29-3.59c8.55,8.55,2.76,25-3.59,37.29
	c-8.46,16.38-23.72,36.18-41.87,54.33c-91.45,91.45-257.97,230.26-289.66,256.53L143.52,355.45z M215.47,399.52l-13.94,13.94
	l-34.28-34.28c6.27-5.2,16.87-14.02,30.57-25.53L215.47,399.52z M479.59,281.7c3.33-3.33,8.74-3.33,12.07,0s3.33,8.74,0,12.07
	l-8.85,8.85l-5.54-18.6L479.59,281.7z M462.55,219.2c3.33-3.33,8.74-3.33,12.07,0c3.29,3.29,3.29,8.78,0,12.07l-10.07,10.07
	l-5.54-18.61L462.55,219.2z"/>
<path class="st0" d="M452.2,434.85l-64.28,64.28c-2.74,2.74-2.92,7.27-0.4,10.22c2.82,3.29,7.99,3.5,11.06,0.43l64.28-64.28
	c2.94-2.94,2.94-7.71,0-10.65C459.91,431.91,455.14,431.91,452.2,434.85z"/>
<path class="st0" d="M430.71,413.36c2.94-2.94,2.94-7.71,0-10.65c-2.94-2.94-7.71-2.94-10.65,0l-40.18,40.18
	c-2.74,2.74-2.92,7.27-0.4,10.22c2.82,3.29,7.99,3.5,11.06,0.43L430.71,413.36z"/>
<path class="st0" d="M406.6,373.19c2.94-2.94,2.94-7.72,0-10.65c-2.94-2.94-7.71-2.94-10.65,0l-28.12,28.12
	c-2.74,2.74-2.92,7.27-0.4,10.22c2.81,3.29,7.99,3.5,11.05,0.43L406.6,373.19z"/>
<path class="st0" d="M77.15,53.16c-2.94-2.94-7.72-2.94-10.65,0L2.21,117.45c-2.94,2.94-2.94,7.71,0,10.65c2.9,2.9,7.75,2.9,10.65,0
	l64.28-64.28C80.09,60.87,80.09,56.1,77.15,53.16z"/>
<path class="st0" d="M109.29,85.31c-2.94-2.94-7.71-2.94-10.65,0l-40.18,40.18c-2.74,2.74-2.92,7.27-0.4,10.22
	c2.82,3.29,7.99,3.5,11.05,0.43l40.18-40.18C112.23,93.02,112.23,88.25,109.29,85.31z"/>
<path class="st0" d="M110.69,148.19c2.9,2.9,7.75,2.9,10.65,0l28.12-28.12c2.94-2.94,2.94-7.71,0-10.65
	c-2.94-2.94-7.71-2.94-10.65,0l-28.12,28.12C107.75,140.48,107.75,145.25,110.69,148.19z"/>
</svg>
