<?xml version="1.0" encoding="UTF-8"?>
<svg width="72px" height="95px" viewBox="0 0 72 95" version="1.1" xmlns="http://www.w3.org/2000/svg" xmlns:xlink="http://www.w3.org/1999/xlink">
    <!-- Generator: Sketch 49.3 (51167) - http://www.bohemiancoding.com/sketch -->
    <title>Shape</title>
    <desc>Created with Sketch.</desc>
    <defs></defs>
    <g id="Page-1" stroke="none" stroke-width="1" fill="none" fill-rule="evenodd">
        <g id="last-frame" fill="#FFFFFF" fill-rule="nonzero">
            <path d="M67.8188672,45.7916699 C64.0960547,47.8948438 60.5845801,47.9649805 57.3812988,46.0002246 C54.8348535,44.4384766 53.4078125,42.1508691 53.3508496,42.0584668 C52.8819727,41.2908594 52.0811523,40.8191992 51.1892285,40.7761523 C48.6001074,33.5270215 44.2789063,28.4916504 41.0236719,25.4937695 C38.9475879,23.5818945 36.2528906,22.5291016 33.4357324,22.5291016 C32.0827246,22.5291016 21.6650098,22.5291016 20.3478125,22.5291016 C17.3400977,22.5291016 14.4772949,23.6592676 12.2869141,25.7112305 C7.77701172,29.9365039 0.204287109,39.1670898 0.159941406,53.5117188 C0.150478516,56.5194336 2.5384668,59.0322949 5.48291016,59.1133789 C8.5587207,59.2033691 11.1140723,56.7350391 11.1140723,53.6384473 C11.1140723,48.2549902 12.6260938,43.1871484 15.5195117,38.7792969 L15.5195117,90.1713281 C15.5195117,92.8337402 17.6855859,94.9998145 20.347998,94.9998145 L23.4553516,94.9998145 C24.7987109,94.9998145 26.0158984,94.4483691 26.8920508,93.5597852 C27.7682031,94.4483691 28.9852051,94.9998145 30.32875,94.9998145 L33.4361035,94.9998145 C36.0985156,94.9998145 38.2645898,92.8337402 38.2645898,90.1713281 L38.2645898,82.8346191 C40.8390527,85.420957 43.9042871,87.4616016 47.2912598,88.8183203 C48.0052441,89.104248 48.8151563,88.7570898 49.1007129,88.0440332 C49.3866406,87.3306055 49.0398535,86.5205078 48.3264258,86.2345801 C39.3663672,82.6448047 33.0635254,73.7454199 33.0635254,63.4631543 L33.0635254,48.293584 C38.6978418,51.4141113 44.1531055,50.652998 48.6097559,46.4941504 C49.6321191,45.5549121 50.4652246,44.5609375 51.0283594,43.6777344 C51.0370801,43.664375 51.048584,43.6474902 51.0561914,43.6356152 C51.4558594,44.2529297 53.1255957,46.654834 55.9269824,48.372998 C58.7439551,50.1011816 63.2985742,51.4792383 69.049043,48.2933984 L69.049043,62.1075488 C69.049043,62.8762695 69.6721094,63.4991504 70.4406445,63.4991504 C71.2091797,63.4991504 71.8322461,62.8762695 71.8322461,62.1075488 L71.8322461,48.1336426 C71.8316895,46.0766699 69.6131055,44.7787695 67.8188672,45.7916699 Z M29.3386719,25.3124902 L27.6722754,27.2919043 C27.2642578,27.7763672 26.5194727,27.7763672 26.1112695,27.2919043 L24.4446875,25.3124902 L29.3386719,25.3124902 Z M38.2642187,47.2971973 L38.2642187,39.1394434 C39.8675293,41.6569434 41.0166211,44.3701953 41.6968359,47.2493262 C40.5813281,47.493877 39.4391016,47.5090918 38.2642187,47.2971973 Z M44.3126758,46.227334 C43.1949414,41.7606641 41.0516895,37.6673145 37.926709,34.0383887 C37.0852539,33.0612988 35.4802734,33.6617285 35.4802734,34.9464551 L35.4802734,46.3982227 C34.8807715,46.1252832 34.1289355,45.7076172 34.1083398,45.6979687 C32.3400781,44.865791 30.2790234,46.1536719 30.2790234,48.1338281 L30.2790234,63.4635254 C30.2790234,69.2893262 32.080498,74.8609277 35.4802734,79.5630566 L35.4802734,90.1716992 C35.4810156,91.2992676 34.5636719,92.2167969 33.435918,92.2167969 L30.3285645,92.2167969 C29.2009961,92.2167969 28.2834668,91.2996387 28.2834668,90.1716992 L28.2834668,61.5715039 C28.2834668,60.8027832 27.6604004,60.1799023 26.8918652,60.1799023 C26.1233301,60.1799023 25.5002637,60.8027832 25.5002637,61.5715039 L25.5002637,90.1715137 C25.5002637,91.299082 24.5829199,92.2166113 23.455166,92.2166113 L20.3478125,92.2166113 C19.2202441,92.2166113 18.3027148,91.2994531 18.3027148,90.1715137 L18.3027148,34.672959 C18.3027148,33.3928711 16.7123926,32.7944824 15.8674121,33.7522754 C10.9365039,39.3402051 8.3303125,46.2169434 8.3303125,53.6386328 C8.3303125,55.1369238 7.10681641,56.3682129 5.55935547,56.3312891 C4.11208984,56.2913965 2.93832031,55.0306055 2.94314453,53.520625 C2.98433594,40.2209961 10.0070996,31.6613477 14.1898828,27.7427832 C15.8625879,26.1756543 18.0492578,25.3124902 20.347627,25.3124902 L20.8061133,25.3124902 L23.9819336,29.0842871 C25.5021191,30.8904004 28.2829102,30.8879883 29.8012402,29.0842871 L32.976875,25.3124902 L33.4353613,25.3124902 C35.5522656,25.3124902 37.5773242,26.1040332 39.137959,27.5410937 C42.2208203,30.380332 46.3347656,35.1858105 48.7149609,42.1276758 C47.6551172,43.7269043 46.0388184,45.2530273 44.3126758,46.227334 Z M62.5292969,57.9414648 C63.077959,58.4795508 63.0866797,59.3605273 62.5485938,59.9097461 L49.861084,72.849043 C49.3103809,73.4105078 48.4041699,73.4045703 47.8612598,72.8362402 L42.7427637,67.4809863 C42.2117285,66.9250879 42.2317676,66.0442969 42.7872949,65.5132617 C43.3430078,64.982041 44.2239844,65.0018945 44.7550195,65.557793 L48.8800977,69.8737988 L60.5612012,57.9607617 C61.0992871,57.4119141 61.9804492,57.40375 62.5292969,57.9414648 Z M70.2077832,67.2369922 C70.9614746,67.3867285 71.4515039,68.1192676 71.3013965,68.8733301 C69.5578125,77.6483984 63.48375,85.3480371 54.8203809,88.8186914 C54.1069531,89.1044336 53.2966699,88.7580176 53.0109277,88.0444043 C52.7251855,87.330791 53.0717871,86.5206934 53.7852148,86.2349512 C61.3102539,83.2201855 66.9759277,76.3599609 68.5716309,68.330791 C68.7213672,67.5767285 69.4544629,67.087627 70.2077832,67.2369922 Z M26.8916797,0 C21.6499805,0 17.3857422,4.26423828 17.3857422,9.5059375 C17.3857422,14.7476367 21.650166,19.011875 26.8916797,19.011875 C32.1333789,19.011875 36.3976172,14.7476367 36.3976172,9.5059375 C36.3976172,4.26423828 32.1333789,0 26.8916797,0 Z M26.8916797,16.2284863 C23.1848242,16.2284863 20.1691309,13.212793 20.1691309,9.5059375 C20.1691309,5.79908203 23.1850098,2.78338867 26.8916797,2.78338867 C30.5985352,2.78338867 33.6142285,5.79926758 33.6142285,9.5059375 C33.6142285,13.2126074 30.5985352,16.2284863 26.8916797,16.2284863 Z" id="Shape"></path>
        </g>
    </g>
</svg>