<?xml version="1.0" encoding="UTF-8"?>
<svg width="388px" height="512px" viewBox="0 0 388 512" version="1.1" xmlns="http://www.w3.org/2000/svg" xmlns:xlink="http://www.w3.org/1999/xlink">
    <!-- Generator: Sketch 49.3 (51167) - http://www.bohemiancoding.com/sketch -->
    <title>Shape</title>
    <desc>Created with Sketch.</desc>
    <defs></defs>
    <g id="Page-1" stroke="none" stroke-width="1" fill="none" fill-rule="evenodd">
        <g id="last-frame" fill="#FFFFFF" fill-rule="nonzero">
            <path d="M365.508,246.793 C345.444,258.128 326.519,258.506 309.255,247.917 C295.531,239.5 287.84,227.171 287.533,226.673 C285.006,222.536 280.69,219.994 275.883,219.762 C261.929,180.693 238.64,153.555 221.096,137.398 C209.907,127.094 195.384,121.42 180.201,121.42 C172.909,121.42 116.763,121.42 109.664,121.42 C93.454,121.42 78.025,127.511 66.22,138.57 C41.914,161.342 1.101,211.09 0.862,288.4 C0.811,304.61 13.681,318.153 29.55,318.59 C46.127,319.075 59.899,305.772 59.899,289.083 C59.899,260.069 68.048,232.756 83.642,209 L83.642,485.976 C83.642,500.325 95.316,511.999 109.665,511.999 L126.412,511.999 C133.652,511.999 140.212,509.027 144.934,504.238 C149.656,509.027 156.215,511.999 163.456,511.999 L180.203,511.999 C194.552,511.999 206.226,500.325 206.226,485.976 L206.226,446.435 C220.101,460.374 236.621,471.372 254.875,478.684 C258.723,480.225 263.088,478.354 264.627,474.511 C266.168,470.666 264.299,466.3 260.454,464.759 C212.164,445.412 178.195,397.449 178.195,342.033 L178.195,260.277 C208.561,277.095 237.962,272.993 261.981,250.579 C267.491,245.517 271.981,240.16 275.016,235.4 C275.063,235.328 275.125,235.237 275.166,235.173 C277.32,238.5 286.319,251.445 301.417,260.705 C316.599,270.019 341.146,277.446 372.138,260.276 L372.138,334.727 C372.138,338.87 375.496,342.227 379.638,342.227 C383.78,342.227 387.138,338.87 387.138,334.727 L387.138,259.415 C387.135,248.329 375.178,241.334 365.508,246.793 Z M158.12,136.421 L149.139,147.089 C146.94,149.7 142.926,149.7 140.726,147.089 L131.744,136.421 L158.12,136.421 Z M206.224,254.907 L206.224,210.941 C214.865,224.509 221.058,239.132 224.724,254.649 C218.712,255.967 212.556,256.049 206.224,254.907 Z M238.822,249.141 C232.798,225.068 221.247,203.007 204.405,183.449 C199.87,178.183 191.22,181.419 191.22,188.343 L191.22,250.062 C187.989,248.591 183.937,246.34 183.826,246.288 C174.296,241.803 163.188,248.744 163.188,259.416 L163.188,342.035 C163.188,373.433 172.897,403.461 191.22,428.803 L191.22,485.978 C191.224,492.055 186.28,497 180.202,497 L163.455,497 C157.378,497 152.433,492.057 152.433,485.978 L152.433,331.838 C152.433,327.695 149.075,324.338 144.933,324.338 C140.791,324.338 137.433,327.695 137.433,331.838 L137.433,485.977 C137.433,492.054 132.489,496.999 126.411,496.999 L109.664,496.999 C103.587,496.999 98.642,492.056 98.642,485.977 L98.642,186.869 C98.642,179.97 90.071,176.745 85.517,181.907 C58.942,212.023 44.896,249.085 44.896,289.084 C44.896,297.159 38.302,303.795 29.962,303.596 C22.162,303.381 15.836,296.586 15.862,288.448 C16.084,216.77 53.933,170.638 76.476,149.519 C85.491,141.073 97.276,136.421 109.663,136.421 L112.134,136.421 L129.25,156.749 C137.443,166.483 152.43,166.47 160.613,156.749 L177.728,136.421 L180.199,136.421 C191.608,136.421 202.522,140.687 210.933,148.432 C227.548,163.734 249.72,189.633 262.548,227.046 C256.836,235.665 248.125,243.89 238.822,249.141 Z M337,312.274 C339.957,315.174 340.004,319.922 337.104,322.882 L268.725,392.618 C265.757,395.644 260.873,395.612 257.947,392.549 L230.361,363.687 C227.499,360.691 227.607,355.944 230.601,353.082 C233.596,350.219 238.344,350.326 241.206,353.322 L263.438,376.583 L326.393,312.378 C329.293,309.42 334.042,309.376 337,312.274 Z M378.383,362.372 C382.445,363.179 385.086,367.127 384.277,371.191 C374.88,418.484 342.144,459.981 295.453,478.686 C291.608,480.226 287.241,478.359 285.701,474.513 C284.161,470.667 286.029,466.301 289.874,464.761 C330.43,448.513 360.965,411.54 369.565,368.267 C370.372,364.203 374.323,361.567 378.383,362.372 Z M144.932,0 C116.682,0 93.7,22.982 93.7,51.232 C93.7,79.482 116.683,102.464 144.932,102.464 C173.182,102.464 196.164,79.482 196.164,51.232 C196.164,22.982 173.182,0 144.932,0 Z M144.932,87.463 C124.954,87.463 108.701,71.21 108.701,51.232 C108.701,31.254 124.955,15.001 144.932,15.001 C164.91,15.001 181.163,31.255 181.163,51.232 C181.163,71.209 164.91,87.463 144.932,87.463 Z" id="Shape"></path>
        </g>
    </g>
</svg>