<?xml version="1.0" encoding="utf-8"?>
<!-- Generator: Adobe Illustrator 23.0.6, SVG Export Plug-In . SVG Version: 6.00 Build 0)  -->
<svg version="1.1" id="Capa_1" xmlns="http://www.w3.org/2000/svg" xmlns:xlink="http://www.w3.org/1999/xlink" x="0px" y="0px"
	 viewBox="0 0 512 512" style="enable-background:new 0 0 512 512;" xml:space="preserve">
<style type="text/css">
	.st0{fill:#FFFFFF;}
</style>
<g>
	<g>
		<path class="st0" d="M506.95,1.31c-3.12-1.78-6.95-1.75-10.05,0.08L313.66,109.76c-4.75,2.81-6.33,8.94-3.52,13.7
			c2.81,4.75,8.94,6.33,13.7,3.52l131.48-77.75L210.41,303.33L88.6,266.07l158.96-94c4.75-2.81,6.33-8.94,3.52-13.7
			c-2.81-4.75-8.94-6.33-13.7-3.52L58.91,260.39c-3.41,2.02-5.31,5.86-4.84,9.79s3.22,7.22,7,8.38l145.47,44.5l64.18,116.81
			c0.07,0.12,0.14,0.22,0.21,0.31c1.07,1.79,2.68,3.24,4.68,4.09c1.25,0.53,2.57,0.78,3.88,0.78c2.56,0,5.09-0.99,6.99-2.85
			l73.79-72.12l138.81,42.47c0.96,0.29,1.95,0.44,2.92,0.44c2.12,0,4.21-0.67,5.95-1.96c2.55-1.89,4.05-4.87,4.05-8.04V10
			C512,6.41,510.07,3.09,506.95,1.31z M271.27,329.23c-1.16,1.67-1.78,3.66-1.78,5.69v61.17l-43.82-79.76l193.92-201.21
			L271.27,329.23z M289.49,411.31v-62.87l48.99,14.99L289.49,411.31z M492,389.48l-196.5-60.12L492,45.7V389.48z"/>
	</g>
</g>
<g>
	<g>
		<path class="st0" d="M164.42,347.58c-3.91-3.9-10.24-3.9-14.14,0l-93.35,93.35c-3.9,3.9-3.9,10.24,0,14.14
			c1.95,1.95,4.51,2.93,7.07,2.93s5.12-0.98,7.07-2.93l93.35-93.35C168.33,357.82,168.33,351.48,164.42,347.58z"/>
	</g>
</g>
<g>
	<g>
		<path class="st0" d="M40.07,471.93c-3.91-3.9-10.24-3.9-14.14,0l-23,23c-3.9,3.9-3.9,10.24,0,14.14C4.88,511.02,7.44,512,10,512
			s5.12-0.98,7.07-2.93l23-23C43.98,482.17,43.98,475.83,40.07,471.93z"/>
	</g>
</g>
<g>
	<g>
		<path class="st0" d="M142.65,494.34c-1.86-1.86-4.44-2.93-7.07-2.93c-2.64,0-5.21,1.07-7.07,2.93s-2.93,4.43-2.93,7.07
			c0,2.63,1.07,5.21,2.93,7.07c1.86,1.86,4.44,2.93,7.07,2.93s5.21-1.07,7.07-2.93c1.86-1.86,2.93-4.44,2.93-7.07
			C145.58,498.77,144.51,496.2,142.65,494.34z"/>
	</g>
</g>
<g>
	<g>
		<path class="st0" d="M217.05,419.93c-3.9-3.9-10.23-3.9-14.14,0l-49.45,49.45c-3.9,3.9-3.9,10.24,0,14.14
			c1.95,1.95,4.51,2.93,7.07,2.93s5.12-0.98,7.07-2.93l49.45-49.45C220.96,430.17,220.96,423.84,217.05,419.93z"/>
	</g>
</g>
<g>
	<g>
		<path class="st0" d="M387.7,416.14c-3.91-3.9-10.24-3.9-14.14,0l-49.58,49.58c-3.9,3.9-3.9,10.24,0,14.14
			c1.95,1.95,4.51,2.93,7.07,2.93s5.12-0.98,7.07-2.93l49.58-49.58C391.61,426.38,391.61,420.05,387.7,416.14z"/>
	</g>
</g>
<g>
	<g>
		<path class="st0" d="M283.5,136.31c-1.86-1.86-4.44-2.93-7.07-2.93s-5.21,1.07-7.07,2.93c-1.86,1.86-2.93,4.44-2.93,7.08
			c0,2.63,1.07,5.2,2.93,7.06c1.86,1.87,4.44,2.93,7.07,2.93s5.21-1.06,7.07-2.93c1.86-1.86,2.93-4.43,2.93-7.06
			C286.43,140.75,285.36,138.17,283.5,136.31z"/>
	</g>
</g>
</svg>
