<?xml version="1.0" encoding="utf-8"?>
<!-- Generator: Adobe Illustrator 23.0.6, SVG Export Plug-In . SVG Version: 6.00 Build 0)  -->
<svg version="1.1" id="Layer_1" xmlns="http://www.w3.org/2000/svg" xmlns:xlink="http://www.w3.org/1999/xlink" x="0px" y="0px"
	 viewBox="0 0 1000 1000" style="enable-background:new 0 0 1000 1000;" xml:space="preserve">
<style type="text/css">
	.st0{fill:#FFFFFF;}
</style>
<g>
	<path class="st0" d="M103.93,503.74c-0.14,4.1,1.87,7.46,3.78,10.85c0.23,0.46,0.48,0.9,0.72,1.35v-59.04
		C100.83,471.74,97.99,487.18,103.93,503.74z"/>
	<path class="st0" d="M801.03,423.92c-0.24,0.06-0.46,20.95-0.69,21.02v156.69c0,72.19-85.23,139.88-156.72,183.96
		c-64.1,39.51-129.1,67.55-153.68,77.62c-24.58-10.07-89.58-38.11-153.68-77.62c-71.5-44.08-156.73-111.77-156.73-183.96v-6.91
		c-7.28-1.69-14.57-3.37-21.85-5.06c-9.78-4.3-19.39-8.82-28.21-14.38v26.33c0,40.79,19.43,82.54,57.74,124.1
		c29.26,31.74,69.75,63.61,120.33,94.73c84.97,52.28,168.64,84.35,172.16,85.68c3.26,1.24,6.75,1.86,10.24,1.86
		c3.49,0,6.98-0.62,10.24-1.86c3.52-1.34,87.19-33.41,172.16-85.68c50.58-31.12,91.07-62.99,120.33-94.73
		c38.32-41.56,57.74-83.31,57.74-124.1l-0.14-202.9c-10.56,4.02-19.76,9.38-29.03,14.77C813.83,416.29,807.14,419.82,801.03,423.92z
		"/>
	<path class="st0" d="M614.01,260.81c0.02,0.01,0.04,0.02,0.05,0.04c0.01,0,0.02,0,0.04,0C614.1,260.85,614.01,260.81,614.01,260.81
		z"/>
	<g>
		<path class="st0" d="M122.12,525.8c-1.92-3.39-3.92-6.74-3.78-10.85c-5.94-16.56-3.09-32,4.5-46.85v-37.85
			c-8.74,11.31-15.63,23.64-21.5,36.61c-1.89,8.4-5.54,16.42-5.54,25.24c-0.31,12.6,0.86,24.99,5.13,36.95
			c4.86,10.77,12.02,19.95,19.71,28.77c0.5,0.32,1,0.65,1.5,0.97c0.23,0.18,0.47,0.35,0.7,0.52v-32.18
			C122.6,526.69,122.35,526.25,122.12,525.8z"/>
		<path class="st0" d="M192.6,587.15c22.11,2.64,43.99,0.7,65.78-3.21c5.91-1.2,11.83-2.4,17.74-3.6
			c11.78-3.54,23.57-7.09,35.35-10.63c21.39-7.3,42.78-14.6,64.17-21.9c10.64-4.24,21.28-8.49,31.92-12.73
			c-0.05-0.48,0.07-0.91,0.38-1.28c0.79-5.23,1.14-10.36-3.24-14.43c-4.59-1.91-8.84-0.23-13.14,1.19
			c-5.27,1.74-10.57,3.39-15.86,5.08c-3.2,1.27-6.12,3.38-9.78,3.32c-8.09,4.24-16.9,6.49-25.52,9.26
			c-9.66,3.28-19.32,6.55-28.99,9.83c-10.53,3.85-21.06,7.69-32.11,9.8c-25.18,8.11-50.85,12.39-77.38,9.94
			c-10.08,0.24-19.7-1.53-29.03-4.54v19.7c4.44,1.25,8.87,2.5,13.31,3.74C188.34,586.85,190.47,587,192.6,587.15z"/>
		<path class="st0" d="M172.91,582.96v-19.7c-4.77-1.54-9.47-3.4-14.11-5.49c-0.65-0.37-1.3-0.74-1.95-1.12c0,0,0.11,0.13,0.11,0.13
			c-14.8-6.03-26.56-15.47-34.12-29.64v32.18c8.83,6.76,18.44,12.26,28.21,17.49C158.34,578.86,165.62,580.91,172.91,582.96z"/>
		<path class="st0" d="M909.63,297.7c-5.01-0.11-10.03-0.22-15.04-0.33c-13.93,4-27.95,7.74-42.05,11.29v64.48
			c1.29-0.58,2.6-1.15,3.93-1.68c10.86-10.12,25.07-16.5,37.98-24.34c3.87-3.11,7.8-6.15,12.88-7.85
			C927.89,329.36,930.17,309.11,909.63,297.7z"/>
		<path class="st0" d="M745.72,335.95c-1.81,0.49-3.76,0.34-5.11-1.16c-25.17-12.78-50.35-25.54-74.19-40.07
			c-12.72-5.58-24.81-11.99-36.11-19.45c-1.15-0.07-2.1-0.37-2.24-1.52c0,0,0,0.28,0.01,0.27c-12.12-4.93-22.96-11.56-33.89-18.09
			c-8.66-3.6-16.81-7.88-24.35-12.97c-6.3-2.55-12.14-5.7-17.43-9.56c-6.32-3.9-12.33-3.41-18.94,0.02
			c-6.93,3.59-14.32,6.62-21.77,9.39c-6.08,2.25-7.78,4.2-1.41,7.89c2.25,1.3,3.78,3.49,5.63,5.27
			c8.45,5.89,16.03,12.52,23.14,19.54c1.07-0.04,1.64,0.35,1.58,1.29c0.5,0.24,0.74,0.6,0.72,1.08c3.98,1.66,6.64,4.51,9.29,7.37
			c9.18,7.01,18.57,13.84,26.29,22.1c4.87,2.42,8.34,6.03,11.64,9.79c0.59,0.47,1.17,0.95,1.76,1.42c0,0,0.08,0.11,0.08,0.11
			c10.29,7.34,19.59,15.52,28.62,23.94c4,1.91,6.88,4.79,9.53,7.87c6.97,4.84,13.21,10.3,19.08,16.08
			c4.22,2.43,7.54,5.59,11.11,9.62c-12.08,6.1-23.94,12.09-35.79,18.07c-5.67,3.92-11.9,7.08-18.54,9.68
			c-4.09,3.3-8.72,5.88-14.07,7.52c-14.63,8.82-30.08,16.54-45.65,24.09c-6.47,3.66-12.99,7.26-19.39,11
			c-2.34,1.37-4.31,1.66-6.79,0.15c-6.3-3.83-13.9-5.99-19.5-10.75c-8.07-3-15.77-6.54-22.7-11.19
			c-8.38-3.94-17.09-7.47-25.01-11.99c-4.59-2.62-8.39-2.62-12.89-0.91c-0.76,1.41-2.29,1.49-3.82,1.58
			c-4.46,2.44-5.45,4.33-0.73,8.12c16.12,12.95,31.53,26.53,47.44,39.68c11.86,9.81,12.02,9.67-2.75,16.54
			c-12.73,8.26-25.99,15.85-40,22.5l0.02,0c-5.37,3.49-10.73,7-16.12,10.46c-4.18,2.68-6.3,5.79-3.43,10.17
			c2.86,4.35,7.17,4.41,12.08,3.12c2.36-0.62,4.8-0.99,7.21-1.47c10.51-4.07,21.48-7.02,32.61-9.58c11.22-3.49,22.44-7,33.68-10.47
			c3.78-1.17,5.79-0.44,6.15,3.42c0.86,9.31,2.16,18.59,3.28,27.88c0.09,1.7,0.18,3.41,0.28,5.11c2.52,9.43,3.76,18.98,3.7,28.65
			c1.74,2.79-1.33,9.19,4.51,8.16c6.43-1.14,15.13-2.85,15.02-11.37c1.92-14,3.17-28.09,7.15-41.84c0.19-2.15,0.38-4.29,0.57-6.44
			c-0.82-6.38,4.17-12.01,3.25-18.44c-0.43-3.02,2.43-3.93,5.14-4.79c12.26-3.88,24.51-7.78,36.77-11.68
			c13.84-4.62,27.39-9.9,41.77-13.32c11-4.65,22.43-8.4,34.25-11.3c5.7-2.04,11.37-4.14,17.11-6.1c17.06-5.81,17.07-5.78,17.27,9.48
			c4.96,28.79,7.72,57.78,10.99,86.73c0.11,1.66,0.21,3.32,0.32,4.98c4.09,18.52,4.9,37.35,7.34,56.03c0.22,3.05,0.45,6.1,0.67,9.15
			c3.64,3.62-1.85,10.95,4.79,12.03c4.16,0.68,9.2-4.15,14.23-5.34c18.08-4.27,26.55-13.84,24.77-29.78
			c-0.13-1.2,0.84-2.49,1.3-3.74c0.15-2.68,0.3-5.35,0.45-8.02c2.33-18.19,3.19-36.53,7.22-54.56c1.49-19.95,3.77-39.84,7.6-59.58
			c-0.4-10.81,1.41-21.42,3.86-31.98c-0.19-12.81-1.08-25.89,16.52-31.89v-82.16c-6.67,1.8-13.4,3.41-20.3,4.56
			C768.96,329.58,757.36,332.82,745.72,335.95z"/>
		<path class="st0" d="M818.6,316.77c-5.9,1.71-11.79,3.45-17.73,5.05v82.16c0.24-0.08,0.47-0.17,0.71-0.24
			c6.3-4.99,13.21-9.28,20.86-12.68c9.57-6.54,19.2-13.02,30.11-17.91v-64.48C841.28,311.5,829.97,314.21,818.6,316.77z"/>
	</g>
	<path class="st0" d="M129.47,436.07v75.06c7.56,14.17,19.32,23.61,34.12,29.64c0,0,1.19,0.62,1.84,0.99
		c4.64,2.09,9.34,3.95,14.11,5.49v-350.1l310.41-96.26l310.41,96.26l0.28,111.9c5.75-1.6,19.91-6.3,25.62-8.01
		c11.01-2.56,13.1-5.17,24.02-8.01l0.14-115.11c0-11.44-7.25-21.52-17.85-24.8L497.14,49.09c-4.69-1.46-9.7-1.46-14.4,0
		L147.32,153.11c-10.6,3.29-17.85,13.37-17.85,24.8v220.31c0.1-0.13,0.2-0.27,0.3-0.4"/>
</g>
</svg>
