<?xml version="1.0" encoding="utf-8"?>
<!-- Generator: Adobe Illustrator 23.0.6, SVG Export Plug-In . SVG Version: 6.00 Build 0)  -->
<svg version="1.1" id="Layer_1" xmlns="http://www.w3.org/2000/svg" xmlns:xlink="http://www.w3.org/1999/xlink" x="0px" y="0px"
	 viewBox="0 0 1000 1000" style="enable-background:new 0 0 1000 1000;" xml:space="preserve">
<style type="text/css">
	.st0{fill:#9FC5FF;}
	.st1{fill:#003755;}
	.st2{fill:#FDFF9F;}
	.st3{fill:#FFFFFF;}
	.st4{fill:#F2F2F2;}
	.st5{opacity:0.03;enable-background:new    ;}
	.st6{fill:#57B894;}
	.st7{fill:#F46E00;}
	.st8{fill:#2F2E41;}
	.st9{fill:#FFB9B9;}
	.st10{opacity:0.1;enable-background:new    ;}
	.st11{fill:#3F3D56;}
	.st12{fill:none;stroke:#2F2E41;stroke-width:3;stroke-miterlimit:10;}
	.st13{fill:#3595E2;}
	.st14{fill:#CCCCCC;}
	.st15{fill:#A0616A;}
	.st16{fill:#FDD546;}
	.st17{fill:#9E005D;}
</style>
<circle class="st0" cx="500" cy="479" r="375"/>
<g>
	<path class="st0" d="M869,481.99v2.23c-0.05,5.59-0.21,11.16-0.48,16.7c-10.44,205.17-185.22,363.03-390.39,352.6
		c-188.72-9.6-340.25-159.16-352.32-347.74c-0.51-7.87-0.76-15.8-0.76-23.79c-0.13-77.04,23.78-152.21,68.4-215.01
		c3.57-5.06,7.28-10.03,11.13-14.9c2.66-3.39,5.39-6.71,8.15-10c130.62-154.74,361-176.6,518.39-49.19
		c4.48,3.62,8.88,7.36,13.18,11.18c3.44,3.06,6.82,6.19,10.15,9.39c65.45,62.61,105.74,146.99,113.26,237.25
		C868.56,461.03,869,471.46,869,481.99z"/>
	<path class="st6" d="M204.89,252.07c0.18,0.08,0.35,0.18,0.51,0.3c2,1.64-0.51,4.81-0.2,7.41c0.35,3.34,4.81,4.07,8.17,4.4
		c3.37,0.35,7.62,3.06,6.02,6.05c-8.45,2.91-17,0.05-25.63-3.26c-44.62,62.81-68.53,137.97-68.4,215.01c0,8,0.25,15.92,0.76,23.79
		c0.71,0.52,1.48,0.93,2.3,1.24c2.53,0.96,5.47,0.78,7.79,2.15c1.85,1.09,3.09,3.01,4.93,4.02c5.29,2.88,12.63-2.66,17.56,0.78
		c1.28,1.16,2.48,2.4,3.62,3.69c4.55,3.95,12.04,1.29,17.31,4.25c3.39,1.9,5.14,5.69,6.96,9.13c4.53,8.6,11.87,17.06,21.56,17.74
		c3.06-0.14,6.12-0.04,9.16,0.3c2.99,0.68,5.92,3.29,5.44,6.3c-0.84,5.19,1.72,10.86,1.04,16.04c-1.24,9.49-14.68,13.64-15.82,23.13
		c0,2.09-0.12,4.17-0.35,6.25c-0.61,2.48-2.48,4.5-3.14,6.98c-1.27,4.68,2.1,9.36,5.77,12.5c3.69,3.16,8.1,5.9,10.12,10.3
		c2.13,4.68,1.09,10.12,1.77,15.21c1.52,11.11,11.11,19.33,20.98,24.65c3.16,1.32,5.97,3.37,8.2,5.97c2.53,3.67,2.28,8.5,3.14,12.88
		c2.08,10.7,11.08,19.54,11.34,30.44c0.18,7.77-4.12,14.8-6.71,22.12c-2.66,7.67-3.44,15.85-2.3,23.89
		c14.43,12.24,29.76,23.36,45.88,33.28c0.88-1.3,1.52-2.73,1.9-4.25c0.63-3.43-0.93-6.9-3.92-8.7c2.72-1.03,5.19-2.61,7.26-4.66
		c2.08-2.14,2.61-5.35,1.32-8.05c4.45,0.56,9.74,0.84,12.68-2.58c2.35-2.73,2.2-6.83,1.27-10.3c-1.28-3.37-2.14-6.89-2.53-10.48
		c10.32,0.5,20.66,0.16,30.92-1.04c-1.48-5.01-4.86-9.23-9.41-11.79c4.66-0.78,8.88-6.35,10.35-10.83c1.27-4.57,1.34-9.39,0.2-13.99
		c-0.35-1.18-0.4-2.44-0.15-3.64c0.75-1.6,2.06-2.88,3.69-3.57c7.69-4.43,15.39-8.85,23.08-13.26c1.37-0.69,2.62-1.61,3.69-2.71
		c2.4-2.86,2.05-7.14,0.81-10.65s-3.21-6.83-3.69-10.53c-1.42-11.06,10.43-19,14.42-29.43c1.36-4.16,2.09-8.5,2.18-12.88
		c0.33-4.71,0.35-10.15-3.24-13.16c-3.47-2.91-8.86-2.25-12.48-4.96c-3.31-2.48-4.45-7.26-8.07-9.26
		c-3.29-1.82-7.39-0.66-11.06-1.52c-6.43-1.49-10.48-8.91-17.06-9.59c-3.69-0.4-7.9,1.42-10.93-0.73c-2.68-1.92-2.78-5.74-3.29-8.98
		c-1.84-10.33-9.92-18.43-20.24-20.29c-3.82-0.61-7.97-0.38-11.24-2.48c-3.29-2.13-4.78-6.1-7.39-9.06
		c-4.15-4.73-10.73-6.43-16.88-7.87c-8.35-1.95-16.69-3.91-25.03-5.87c-4.43-1.06-10.15-1.62-12.55,2.28
		c-0.71,1.48-1.21,3.06-1.47,4.68c-1.85,5.99-7.34,10.11-13.61,10.22c-2.09-3.57-5.48-6.2-9.46-7.34c-2.6-0.44-5.17-1.05-7.69-1.82
		c-5.35-2.62-7.56-9.07-4.94-14.42c0.09-0.18,0.18-0.36,0.28-0.53c2.95-5.28,2.01-11.88-2.3-16.12c-4.25-3.82-10.4-4.76-16.12-4.38
		c-1.49-3.26,1.01-6.93,3.69-9.31c2.71-2.35,5.97-4.68,6.55-8.22c0.94-5.57-6.17-9.79-11.56-8.15c-5.39,1.67-8.83,6.91-11.11,12.07
		c-1.1,3.05-2.61,5.93-4.48,8.58c-1.95,2.67-5.24,4.02-8.5,3.49c-4.45-1.14-6.15-6.43-7.14-10.88c-1.58-5.95-2.38-12.09-2.38-18.24
		c0.04-6.22,2.51-12.18,6.88-16.6c7.36-6.78,18.7-6.12,28.64-5.04c-2.2-2.94-1.88-7.06,0.76-9.62c2.7-2.4,6.41-3.31,9.92-2.43
		c3,0.62,5.7,2.23,7.67,4.58c2.83,3.44,3.64,8.12,5.77,12.02c2.15,3.92,6.96,7.26,10.88,5.16c3.42-1.82,3.95-6.53,3.11-10.3
		c-0.86-3.75-2.66-7.41-2.35-11.26c0.58-7.31,8.2-11.74,14.9-14.75c6.71-3.01,14.37-7.09,15.44-14.37c0.05-1.42,0.32-2.82,0.81-4.15
		c0.74-1.19,1.78-2.17,3.01-2.83c19.56-12.93,39.47-26.04,61.84-33.1c1.16-0.38,1.29,0.03,2.48-0.25c1.67-0.96,0.56-3.62-1.04-4.68
		s-3.72-1.9-4.12-3.77c-0.28-1.37,0.53-2.73,0.73-4.12c0.18-2.84-1.98-5.28-4.82-5.46c-0.66-0.04-1.32,0.04-1.94,0.25
		c-1.8-2.38,1.75-5.14,4.63-5.95c8.64-2.37,17.5-3.81,26.44-4.3c1.03-0.17,2.09,0.01,3.01,0.51c1.37,1.32,1.47,3.47,0.23,4.91
		c-1.22,1.35-2.57,2.58-4.02,3.67c-2.96,2.87-4.07,7.16-2.88,11.11c4.68,2.38,9.74,4.83,14.93,4c5.16-0.84,9.74-6.66,7.31-11.29
		c-2.25-4.33-9.06-5.31-10.22-10.05c-1.37-5.54,6.48-10.48,4.71-15.89c-0.76-2.38-3.14-3.8-4.96-5.49
		c-4.39-4.32-5.68-10.89-3.26-16.55c-6.01,1.05-12.16-0.87-16.5-5.16c-3.95-3.97-7.09-10.27-12.7-10.07
		c-5.14,0.15-9.57,6.15-14.37,4.33c-1.19-0.46-2.43-1.37-3.57-0.84c-0.76,0.49-1.26,1.3-1.34,2.2c-1.21,5.85,0.89,12.5-2.3,17.56
		c-3.47,5.49-11.49,6.25-15.69,11.21c-2.28,2.68-3.16,6.3-5.26,9.13c-2.1,2.83-6.53,4.66-9.06,2.18c2.55-5.23,1.14-11.53-3.39-15.18
		c-2.33-1.53-4.85-2.75-7.49-3.64c-2.95-1.25-5.76-2.81-8.38-4.66c-1.3-0.79-2.36-1.93-3.06-3.29c-0.55-1.71-0.48-3.55,0.2-5.21
		c2.61-7.45,9.12-12.84,16.93-14.02c3.34-0.46,7.24-0.3,9.46-2.86c1.16-1.34,1.77-3.39,3.49-3.92c1.08-0.23,2.21-0.09,3.21,0.38
		c4.18,1.47,8.33,2.94,12.5,4.4c1.39,0.64,2.93,0.89,4.45,0.73c1.57-0.2,2.71-1.59,2.61-3.16c-0.4-2.07-3.59-3.06-3.29-5.16
		c0.15-0.69,0.51-1.31,1.04-1.77c9.14-9.72,22.14-14.85,35.45-13.99c1.57,2.61-0.91,5.67-3.01,7.87c-2.07,2.23-3.75,6.17-1.21,7.87
		c1.02,0.54,2.16,0.8,3.31,0.76c3.08,0.41,6.07,1.32,8.86,2.68c4.33,1.87,8.58,3.95,12.73,6.17c-0.61-2.71-0.51-5.54,0.3-8.2
		c0.95-2.71,3.79-4.25,6.58-3.57c2.48,0.96,3.75,4.25,6.4,4.55c3.52,0.4,4.91-4.81,3.44-8.05c-1.47-3.24-4.4-5.92-4.63-9.49
		c-0.18-2.38,0.73-5.34-1.16-6.78c-0.67-0.45-1.45-0.72-2.25-0.81c-15.89-2.91-31.79-5.83-47.7-8.76c-2.83-0.53-6.91-0.13-7.03,2.73
		c-0.08,1.62,1.37,3.21,0.73,4.68c-0.68,1.57-2.91,1.44-4.53,2c-2.5,1.13-3.95,3.79-3.54,6.5c0.43,2.63,1.45,5.13,2.99,7.31
		c-3.11-1.29-7.79-1.52-10.91-2.83c-0.45-3.6-1.37-7.13-2.73-10.5c-0.29-2.03-2.18-3.43-4.2-3.14c-0.21,0.03-0.43,0.08-0.63,0.15
		c-4.1,0.63-8.2,1.24-12.3,1.87c-1.03,0.05-2.02,0.43-2.81,1.09c-1.59,1.7-0.03,4.4-0.08,6.73c-0.3,2.67-2.26,4.85-4.88,5.44
		c-2.58,0.52-5.23,0.49-7.79-0.1c-5.74-0.89-11.46-1.77-17.21-2.66c5.07-1.62,9.58-4.63,13.01-8.7c2.28-2.68,3.49-7.69,0.2-8.96
		c-0.97-0.27-1.99-0.34-2.99-0.23c-7.79,0.05-13.94-6.45-21.23-9.21c-2.29-0.85-4.72-1.3-7.16-1.32L204.89,252.07z"/>
	<path class="st6" d="M868.83,500.91c-1.81,2.43-4.71,3.81-7.74,3.67c-7.92-0.68-11.26-12.1-19.1-13.39
		c-0.69-0.18-1.43-0.11-2.07,0.2c-1.16,0.63-1.37,2.2-1.44,3.52c-0.33,6.53-0.61,13.31,1.95,19.33
		c3.72,8.81,13.36,16.19,11.34,25.53c-10.88-5.04-16.55-17.26-19.1-28.97c-2.58-11.72-2.99-24.01-7.59-35.1
		c-3.52,4.48-10.86,0.78-14.04-3.92c-3.04-4.45-4.91-9.62-7.84-14.15c-2.94-4.5-7.44-8.55-12.8-8.81
		c-5.64-0.25-10.55,3.62-14.85,7.29c-3.74,2.76-6.88,6.26-9.24,10.27c-3.01,6.07-2.23,13.21-2.38,19.97
		c-0.15,7.29-1.7,15.01-6.68,20.37c-4.98,5.34-14.17,7.21-19.66,2.38c-2.65-2.77-4.55-6.18-5.49-9.89
		c-5.97-17.4-10.94-35.12-14.88-53.09c-0.91,4.1-4.53,9.39-7.97,6.98c-0.77-0.65-1.39-1.47-1.82-2.38
		c-6.43-10.86-18.3-17.38-30.31-21.31c-11.99-3.9-24.62-5.72-36.49-10.02c-6.66-2.42-13.01-5.58-18.95-9.44
		c-3.07,4.53-3.42,10.37-0.91,15.23c2.74,4.8,8.37,7.16,13.72,5.74c2.63-0.86,4.86-2.68,7.46-3.59c2.61-0.89,6.12-0.46,7.26,2.07
		c1.11,2.4-0.56,5.31,0.28,7.84c1.24,3.82,7.03,4.12,9.06,7.62c1.22,2.84,0.45,6.14-1.9,8.15c-2.33,1.9-4.9,3.48-7.64,4.71
		c-8.5,4.73-14.55,12.8-21.99,19.08c-7.44,6.3-17.94,10.88-26.8,6.86c2.1-10.7-10.63-18.55-12.98-29.2
		c-0.78-3.52-0.38-7.24-1.47-10.65c-1.59-4.96-6-8.35-9.59-12.1c-8.82-9.29-13.52-21.74-13.03-34.54c0.2-4.4,1.01-8.88,0-13.18
		c-0.99-4.28-4.55-8.43-8.96-8.25c-10.05,0.46-22.72,1.21-27.99-7.36c-1.9-3.06-2.71-7.54,0.03-9.89c2.16-1.37,4.77-1.81,7.26-1.24
		c7.57,0.73,15.11,1.49,22.67,2.23c5.29,0.51,11.01,0.94,15.56-1.82c4.55-2.76,6.53-10.12,2.3-13.39c-3.06-2.38-8.58-2.25-9.49-6.02
		c-0.73-3.16,2.76-6.73,0.86-9.39c-1.34-1.87-4.38-1.37-6.22,0.05c-1.61,1.67-3.36,3.21-5.24,4.58c-3.62,1.87-7.92,0.08-11.82-1.14
		c-3.9-1.21-9.11-1.32-10.98,2.3c-2.13,4.02,1.85,9.34-0.23,13.39c-2.78,5.34-12.15,2.3-16.04,6.91
		c-4.45,5.26,3.04,13.16,1.54,19.89c-3.91,1.94-8.55,1.68-12.22-0.68c-3.61-2.45-5.57-6.69-5.11-11.03
		c0.35-3.04,1.95-6.15,0.89-9.01c-1.15-2.21-3.04-3.94-5.34-4.88c-7.34-4.07-14.68-8.13-22.01-12.17c-2.05,3.8,0.53,8.48,3.77,11.34
		c3.21,2.83,7.26,4.98,9.39,8.73c2.79,5.39,0.91,12.02-4.3,15.13c-0.64,0.44-1.45,0.58-2.2,0.38c-0.71-0.42-1.22-1.1-1.42-1.9
		c-3.87-9.94-9.72-19.74-19.03-24.92c-9.34-5.21-22.72-4.12-28.85,4.61c-1.44,2.07-2.43,4.45-3.69,6.66
		c-6.71,11.67-21.13,17.18-34.59,16.83c-1.32,0.08-2.63-0.22-3.77-0.89c-2.18-1.49-2.08-4.68-1.75-7.31
		c0.48-3.72,0.94-7.41,1.42-11.13c0.01-2.27,0.89-4.45,2.45-6.1c2.51-1.97,6.1-0.73,9.29-0.78c4.93-0.22,9.19-3.51,10.65-8.22
		c1.31-4.73-0.12-9.8-3.69-13.16c-1.44-1.37-3.39-3.09-2.63-4.93c0.62-1.03,1.67-1.73,2.86-1.92c5.69-1.64,11.74-2.07,17.33-4.05
		c5.62-1.95,11.06-5.95,12.4-11.74c0.4-1.77,0.58-3.92,2.18-4.81c0.81-0.32,1.66-0.49,2.53-0.51c6.31-0.9,10.88-6.47,10.55-12.83
		c2.68-1.87,6.45-0.48,9.06,1.52c2.58,2,4.88,4.63,8.05,5.49c5.9,1.62,11.59-3.62,17.71-3.64c2.58,0,5.24,0.91,7.64,0.03
		c2.45-0.89,3.92-3.31,5.79-5.11c1.9-1.82,5.19-2.91,6.93-0.96c-0.51-3.67-0.99-7.31-1.49-10.96c6.03,1.52,12.43,0.36,17.54-3.19
		c-6.38-2.15-12.73-4.3-19.1-6.45c-0.67-0.17-1.29-0.5-1.8-0.96c-1.39-1.49,0-3.82,1.11-5.52c2.71-4.07,3.16-10.78-1.29-12.8
		c-3.04-1.39-6.5,0.28-9.41,1.9c-4.66,2.58-9.31,5.19-13.97,7.77c-0.43,2.66,2.81,4.18,4.81,5.95c3.33,2.96,3.64,8.05,0.68,11.38
		c-1.51,1.7-3.67,2.69-5.94,2.71c1.86,2.42,2.52,5.56,1.8,8.53c-3.11,0.23-6.25,0.46-9.39,0.68c-1.05,0.21-2.15-0.01-3.04-0.61
		c-1.01-0.89-0.86-2.45-1.11-3.77c-0.85-3.22-3.58-5.59-6.88-6c-3.22-0.36-6.49-0.06-9.59,0.89c-1.35,0.48-2.83,0.44-4.15-0.1
		c-0.75-0.5-1.32-1.23-1.62-2.07c-1.12-3.53-0.31-7.39,2.13-10.17c2.43-2.7,5.11-5.16,8-7.36c6.55-5.73,11.36-13.18,13.89-21.51
		c5.16-2.18,10.5-5.11,15.69-7.29c4.17-1.93,8.54-3.4,13.03-4.38c4.23-0.65,8.51-0.85,12.78-0.61c5.82,0.1,11.67,0.2,17.49,0.33
		c5.2-0.22,10.39,0.53,15.31,2.2c4.78,1.97,9.01,6.25,9.34,11.41c0.2,1.2-0.23,2.41-1.14,3.21c-0.67,0.37-1.43,0.55-2.2,0.51
		c-4.83,0.15-6.88,1.37-11.72,1.54c3.06,3.26,6.5,6.71,10.96,7.29c7.84,1.01,13.49-7.11,17.11-14.17c0.27,3.74,3.47,6.58,7.21,6.4
		c1.94-0.33,3.79-1.06,5.44-2.13c15.56-8.51,33-13.01,50.74-13.11c-0.36-2.78,1.44-5.38,4.18-6.02c3.62-0.71,6.86,2.4,8.6,5.64
		c1.72,3.24,2.81,6.98,5.59,9.41c2.76,2.43,8.1,2.3,9.19-1.19c1.06-3.37-2.45-6.25-5.36-8.25c-2.94-1.97-6-5.64-4.02-8.58
		c14.88-3.31,29.88-6.6,45.14-7.26c2.59,0.08,5.18-0.37,7.59-1.32c2.46-1.04,3.91-3.61,3.54-6.25c-6.81,1.59-13.91-1.09-17.97-6.78
		c15.66-1.29,32.06-2.43,47.12,1.09l13.18,11.18c-2.51,2.61-5.85,5.06-4.02,7.67c1.22,1.21,2.92,1.8,4.63,1.59
		c3.19,0.05,6.38,0.13,9.54,0.13c65.45,62.61,105.74,146.99,113.26,237.25c-5.31-0.2-10.2,6.53-9.51,12.4
		c0.81,6.81,5.72,12.27,9.24,18.14c0.58,0.95,1.11,1.94,1.57,2.96L868.83,500.91z"/>
	<circle class="st3" cx="806.22" cy="201.11" r="47.48"/>
	<path class="st7" d="M173.05,175.42c-32.84,0.41-59.14,27.36-58.73,60.2c0.41,32.84,61.21,139.95,61.21,139.95
		s58.13-108.58,57.72-141.42S205.89,175.02,173.05,175.42z M174.14,263.9c-15.22,0.19-27.71-12-27.9-27.22
		c-0.19-15.22,12-27.71,27.22-27.9c15.22-0.19,27.71,12,27.9,27.22c0,0,0,0,0,0C201.55,251.22,189.36,263.71,174.14,263.9z"/>
	<circle class="st8" cx="609.19" cy="460.98" r="24.17"/>
	<path class="st8" d="M535.59,751.93l14.85-51.49l5.05,1.58c0,0-6,38.54-15.48,48.33L535.59,751.93z"/>
	<path class="st9" d="M592.13,475.51c0,0,1.9,20.22-2.53,25.9c-4.42,5.69,2.84,16.74,2.84,16.74l13.27,15.8l19.59-8.85l2.84-16.43
		l-1.9-11.37c0,0-6.63-6.63-3.79-18.64C625.3,466.67,592.13,475.51,592.13,475.51z"/>
	<path class="st10" d="M592.13,475.51c0,0,1.9,20.22-2.53,25.9c-4.42,5.69,2.84,16.74,2.84,16.74l13.27,15.8l19.59-8.85l2.84-16.43
		l-1.9-11.37c0,0-6.63-6.63-3.79-18.64C625.3,466.67,592.13,475.51,592.13,475.51z"/>
	<polygon class="st9" points="603.61,853.65 603.61,866.6 620.98,870.07 619.4,848.59 	"/>
	<polygon class="st9" points="655.63,848.59 651.84,866.6 659.42,871.97 672.69,862.18 671.11,846.7 	"/>
	<path class="st8" d="M622.46,868.49c0,0-6.63-11.21-18.95-4.19c0,0-2.21,12.4-4.42,13.35c-2.21,0.95-14.53,18.95,0,20.53
		s21.8-3.16,21.8-3.16s-2.84,2.45,1.58,1.18c4.42-1.26,2.53-8.21,2.53-8.21L622.46,868.49z"/>
	<path class="st8" d="M665.74,860.91c0,0-9.79,6.95-11.37,3.79c-1.58-3.16-4.11-2.84-4.11-2.84s-8.85,33.34-3.16,34.92
		c3.66,0.9,7.51,0.7,11.06-0.57c0,0,7.58-5.31,7.58-1.2s21.17,3.81,30.01,3.5c8.85-0.32,4.11-6.95,4.11-6.95l-11.69-11.37
		l-13.27-19.27C674.9,860.91,668.9,855.54,665.74,860.91z"/>
	<path class="st8" d="M572.55,649.57l13.27,127.31c0,0,7.27,77.71,8.53,78.98c1.26,1.26,9.48,5.37,27.48,0l-4.11-101.72l7.58-63.18
		l17.37,43.59c0,0,4.11,117.2,6.95,117.2c2.84,0,20.22,5.69,24.32-1.26c4.11-6.95,3.47-81.82,3.47-81.82s-1.9-118.15-15.8-121.94
		S572.55,649.57,572.55,649.57z"/>
	<circle class="st9" cx="609.19" cy="465.4" r="21.8"/>
	<path class="st1" d="M610.46,526.06c0,0-2.21-13.58-2.21-16.11c0-2.53-9.79-4.11-9.79-4.11s-7.58-8.53-9.16-7.27
		c-1.58,1.26-25.59,17.37-29.38,19.59s-7.9,11.69-7.58,12.32s19.9,41.7,19.9,41.7s8.53,25.27,2.53,38.54s-13.58,39.49-2.53,44.86
		c11.06,5.37,64.76,17.06,74.55,6.95s16.74-12.95,19.27-12.95c2.53,0-10.42-43.91-7.58-48.02s-1.26-29.69-1.26-29.69l14.53-40.75
		c0,0-1.26-22.74-30.01-27.8l-17.2-8.34L610.46,526.06z"/>
	<path class="st9" d="M551.06,655.26c0,0-1.58,15.16-1.58,19.59c0,4.42-7.58,30.33,3.47,33.49c11.06,3.16,10.11-34.43,10.11-34.43
		v-19.27L551.06,655.26z"/>
	<path class="st9" d="M682.68,640.86c0,0,1.9,14.53,0.95,17.69s9.16,30.64-4.42,32.22c-13.58,1.58-10.11-32.85-10.11-32.85v-17.06
		L682.68,640.86z"/>
	<path class="st8" d="M548.59,746.9l9.1-48.34h2.82c4.02,5.18,5.08,12.06,2.82,18.21c-3.77,10.67-6.91,30.13-6.91,30.13H548.59z"/>
	<path class="st1" d="M557.07,526.69l-4.74,3.79c0,0-6.32,100.46-4.74,108.04c1.58,7.58-5.69,18.32,0.63,19.27
		c6.32,0.95,13.9,5.05,17.37,2.53c3.47-2.53,4.11-11.69,5.37-13.9c1.26-2.21,3.47-28.43,3.47-28.43s6.63-26.22,2.53-45.81
		c-4.11-19.59-7.9-39.49-7.9-39.49L557.07,526.69z"/>
	<path class="st1" d="M657.21,518.79l14.53,12.32l11.06,64.44c0,0,6.95,50.23,1.58,50.86c-5.37,0.63-13.58-0.95-17.06,0
		c-3.47,0.95-6.32-1.58-6.32-1.58s-3.79-20.22-3.79-20.53c0-0.32-2.53-23.38-2.53-23.38l-3.16-25.9l4.74-28.43L657.21,518.79z"/>
	<path class="st11" d="M588.66,817c0,0-2.05,5.9-4.88,13.93c-1.31,3.73-2.8,7.93-4.32,12.21c-0.98,2.77-1.98,5.57-2.96,8.31
		c-1.57,4.38-3.09,8.58-4.42,12.18c-1.76,4.76-3.18,8.49-3.95,10.23c-3.47,7.9-66.97-4.74-72.03-7.9s-6.32-13.9-6.95-29.06
		c0-0.08-0.01-0.16-0.01-0.24c-0.08-3.06,0.7-7.62,2-12.97c0.65-2.67,1.43-5.54,2.31-8.52c1.17-4,2.5-8.18,3.88-12.35
		c5.96-17.91,12.98-35.42,12.98-35.42s12.32-8.53,16.74-14.22c4.42-5.69,28.75-10.11,28.75-10.11c6.95,0.32,22.74,27.17,29.06,35.38
		C591.19,786.67,588.66,817,588.66,817z"/>
	<circle class="st8" cx="553.28" cy="766.14" r="2.84"/>
	<circle class="st8" cx="557.7" cy="769.3" r="1.58"/>
	<path class="st4" d="M583.78,830.93c-1.31,3.73-2.8,7.93-4.32,12.21l-86-27.96c1.17-4,2.5-8.18,3.88-12.35L583.78,830.93z"/>
	<path class="st4" d="M576.49,851.45c-1.57,4.38-3.09,8.58-4.42,12.18l-82.93-26.97c-0.08-3.06,0.7-7.62,2-12.97L576.49,851.45z"/>
	<path class="st12" d="M553.28,766.77c0,0,6.32,27.8,2.53,52.44s9.48,47.7,9.48,47.7"/>
	<path class="st12" d="M557.7,768.98c0,0-12.32,44.86-12.64,51.18c-0.32,6.32-5.37,51.49-11.69,56.23"/>
	<path class="st8" d="M592.46,452.1c0,0-4.93-12.83,2.22-17.02l1.97,5.67c0,0,18.01-10.85,22.7-8.39l-4.44,5.92
		c0,0,20.97,0,22.45,8.14l-7.4,0.25c0,0,7.89,5.18,8.14,13.57l-15.79,0.99l7.65,4.44c0,0-28.62,3.95-35.52-7.4L592.46,452.1z"/>
	<path class="st8" d="M588.19,452.61c0,0,5.69,11.37,13.27,8.53c7.58-2.84,0-13.27,0-13.27l-5.05-2.53L588.19,452.61z"/>
</g>
</svg>
