<svg id="Layer_1" data-name="Layer 1" xmlns="http://www.w3.org/2000/svg" viewBox="0 0 1000 1000"><defs><style>.cls-1{fill:#3ba7e6;}.cls-2{fill:#003755;}.cls-3{fill:#fdff9f;}.cls-4{fill:#fff;}.cls-5{fill:#f2f2f2;}.cls-6{opacity:0.03;isolation:isolate;}</style></defs><title>safescore_header_image</title><circle class="cls-1" cx="500" cy="479" r="375"/><path class="cls-2" d="M775.06,533.12c-7.72,2.85-21.3,5.19-37,7.07-42.71,5.12-101.24,6.94-101.24,6.94s-300.87,25-526.37-67.85c0,0-32.8-17.19-2.37-40.34A100.45,100.45,0,0,1,123,429.86l.38-.37a78.9,78.9,0,0,1,11.17-8.61c11.68-7.55,31.41-16.51,55.42-12.45l592.25,95.79S803.81,522.5,775.06,533.12Z"/><path class="cls-2" d="M657.06,489.71l124-88,54.65,9.45-53.51,93S658.48,505.21,657.06,489.71Z"/><polygon class="cls-2" points="344.92 436.26 591.88 367 631.69 375.32 520.13 425.51 485.27 464.51 344.92 436.26"/><path class="cls-3" d="M738.06,540.19c-42.71,5.12-101.24,6.94-101.24,6.94s-300.87,25-526.37-67.85c0,0-32.8-17.19-2.37-40.34l.1.43s48.66,32.89,281.14,60.34Z"/><path class="cls-2" d="M698.36,538.29l110.41,45.08,27.74-3.07-66-49.64S690.59,513.61,698.36,538.29Z"/><path class="cls-4" d="M148.22,444.19c-5.27.09-17.34-8.75-24.84-14.7a78.9,78.9,0,0,1,11.17-8.61c6,4.64,16.82,12.16,22.8,11.86C166,432.39,156.15,444.05,148.22,444.19Z"/><path class="cls-2" d="M649.82,694.12l-70.89,3.71L379.62,563.44l-37-25-18-12.13c33.71-28.47,171.28,10.8,171.28,10.8,2.63,2.22,3.47,5.92,3.35,10-.23,7.64-3.82,16.61-5.21,19.83-.33.79-.53,1.21-.53,1.21Z"/><path class="cls-5" d="M416.36,624.45l-12.3,7.78,7.45-13.55a16.15,16.15,0,0,0-7.42-3.08h-.19a3.84,3.84,0,0,1-2.55.24l-4.16,2.64,1.78-3.24a14.89,14.89,0,0,1-7.28-5.54l-7.44,4.75,4.7-8.56c-4.35-5.23-10.22-8.43-16.68-8.43-7.75,0-14.64,4.6-19.09,11.78a15.38,15.38,0,0,1-12.66,7.15h-.41c-8.55-.34-15.48,9.34-15.48,21.3s6.93,21.65,15.48,21.65A11.64,11.64,0,0,0,345.5,658a22.37,22.37,0,0,1,18.73-.37,19.48,19.48,0,0,0,15.93,0,22.39,22.39,0,0,1,18.56.36,11.68,11.68,0,0,0,5.34,1.32c8.55,0,15.48-9.69,15.48-21.65A27.44,27.44,0,0,0,416.36,624.45Z"/><path class="cls-6" d="M393.23,656A22.94,22.94,0,0,0,380,657.4a19.46,19.46,0,0,1-15.92,0,22.3,22.3,0,0,0-18.73.37,11.71,11.71,0,0,1-5.4,1.35c-7.59,0-13.91-7.65-15.22-17.75a14.22,14.22,0,0,0,3.79-4.09c4.46-7.17,11.35-11.77,19.1-11.77s14.56,4.51,19,11.62a14.62,14.62,0,0,0,12.61,6.94h.2C385.44,644.05,390.68,648.89,393.23,656Z"/><path class="cls-5" d="M763.57,614.16,751.27,622l7.45-13.55a16,16,0,0,0-7.42-3.08h-.19a3.91,3.91,0,0,1-2.55.24l-4.16,2.64,1.78-3.24a14.89,14.89,0,0,1-7.28-5.54l-7.44,4.75,4.7-8.56c-4.35-5.23-10.22-8.43-16.68-8.43-7.74,0-14.64,4.6-19.09,11.78a15.38,15.38,0,0,1-12.66,7.15h-.41c-8.55-.35-15.48,9.34-15.48,21.3s6.93,21.65,15.48,21.65a11.64,11.64,0,0,0,5.39-1.35,22.33,22.33,0,0,1,18.73-.37,19.56,19.56,0,0,0,15.93,0,22.32,22.32,0,0,1,18.56.36,11.68,11.68,0,0,0,5.34,1.32c8.55,0,15.48-9.69,15.48-21.65A27.5,27.5,0,0,0,763.57,614.16Z"/><path class="cls-6" d="M740.44,645.68a23,23,0,0,0-13.27,1.44,19.46,19.46,0,0,1-15.92,0,22.3,22.3,0,0,0-18.73.37,11.71,11.71,0,0,1-5.4,1.35c-7.59,0-13.91-7.66-15.22-17.75a14.22,14.22,0,0,0,3.79-4.09c4.46-7.17,11.35-11.77,19.1-11.77s14.56,4.5,19,11.62a14.64,14.64,0,0,0,12.65,6.94h.2C732.66,633.77,737.89,638.61,740.44,645.68Z"/><path class="cls-5" d="M763.57,354.74l-12.3,7.79L758.72,349a16,16,0,0,0-7.42-3.08h-.19a3.84,3.84,0,0,1-2.55.24l-4.16,2.64,1.78-3.24A14.89,14.89,0,0,1,738.9,340l-7.44,4.75,4.7-8.56c-4.35-5.23-10.22-8.43-16.68-8.43-7.74,0-14.64,4.6-19.09,11.78a15.38,15.38,0,0,1-12.66,7.15h-.41c-8.55-.35-15.48,9.34-15.48,21.3s6.93,21.65,15.48,21.65a11.64,11.64,0,0,0,5.39-1.35,22.37,22.37,0,0,1,18.73-.37,19.52,19.52,0,0,0,15.93,0,22.32,22.32,0,0,1,18.56.36,11.68,11.68,0,0,0,5.34,1.32c8.55,0,15.48-9.69,15.48-21.65A27.43,27.43,0,0,0,763.57,354.74Z"/><path class="cls-6" d="M740.44,386.26a23,23,0,0,0-13.27,1.44,19.46,19.46,0,0,1-15.92,0,22.3,22.3,0,0,0-18.73.37,11.71,11.71,0,0,1-5.4,1.35c-7.59,0-13.91-7.66-15.22-17.75a14.22,14.22,0,0,0,3.79-4.09c4.46-7.17,11.35-11.77,19.1-11.77s14.56,4.5,19,11.62a14.64,14.64,0,0,0,12.65,6.94h.2C732.66,374.35,737.89,379.19,740.44,386.26Z"/><path class="cls-5" d="M255.79,326.75l-6.13,3.89,3.72-6.76a4.07,4.07,0,0,0-3.7-.92h-.1a2.07,2.07,0,0,0-1.27-.5l-2.07,1.31.88-1.58a7.43,7.43,0,0,1-3.63-2.76l-3.71,2.37,2.37-4.26a10.85,10.85,0,0,0-8.32-4.21c-3.86,0-7.3,2.3-9.49,5.88A8.34,8.34,0,0,1,218,323h-.21c-4.26-.36-7.72,4.48-7.72,10.45s3.46,10.79,7.72,10.79a5.73,5.73,0,0,0,2.69-.67,11.11,11.11,0,0,1,9.35-.18,9.73,9.73,0,0,0,7.91,0,11.13,11.13,0,0,1,9.26.18,6,6,0,0,0,2.66.66c4.26,0,7.72-4.84,7.72-10.8A13.86,13.86,0,0,0,255.79,326.75Z"/><path class="cls-6" d="M244.25,342.35a11.47,11.47,0,0,0-6.62.72,9.8,9.8,0,0,1-3.95.84,9.69,9.69,0,0,1-4-.86,11.15,11.15,0,0,0-9.35.19,5.66,5.66,0,0,1-2.68.67c-3.79,0-6.94-3.82-7.6-8.85a7.39,7.39,0,0,0,1.9-2c2.21-3.58,5.65-5.88,9.49-5.88s7.26,2.27,9.49,5.81a7.27,7.27,0,0,0,6.33,3.45h.1C240.34,336.4,243,338.83,244.25,342.35Z"/><path class="cls-5" d="M785.94,766.52,764.69,780l12.89-23.41c-3.64-2.93-8.16-4.55-12.83-3.2h-.33a7.16,7.16,0,0,0-4.41-1.73l-7.19,4.55,3.07-5.49a25.64,25.64,0,0,1-12.58-9.56l-12.86,8.22,8.23-14.78A37.61,37.61,0,0,0,709.84,720c-13.38,0-25.31,8-32.9,20.37-4.66,7.59-13,12.08-21.93,13h-.72c-14.77-1.24-26.75,15.54-26.75,36.21s12,37.42,26.75,37.42a20,20,0,0,0,9.32-2.33A38.57,38.57,0,0,1,696,824a33.73,33.73,0,0,0,27.41,0,38.63,38.63,0,0,1,32.11.63,20.46,20.46,0,0,0,9.21,2.28c14.77,0,26.75-16.76,26.75-37.43A47.75,47.75,0,0,0,785.94,766.52Z"/><path class="cls-6" d="M745.94,820.59a39.35,39.35,0,0,0-23,2.5,33.74,33.74,0,0,1-27.55-.08,38.66,38.66,0,0,0-32.4.65,19.93,19.93,0,0,1-9.29,2.33c-13.14,0-24.08-13.24-26.35-30.67a25.68,25.68,0,0,0,6.58-7.08c7.68-12.42,19.6-20.37,32.9-20.37S692,775.74,699.77,788a25.3,25.3,0,0,0,21.94,12h.35C732.4,800,741.53,808.37,745.94,820.59Z"/><path class="cls-5" d="M248.25,721.27,237.62,728l6.45-11.71a7.07,7.07,0,0,0-6.42-1.6h-.16a3.65,3.65,0,0,0-2.21-.87l-3.59,2.28,1.53-2.74a12.79,12.79,0,0,1-6.29-4.79l-6.43,4.12,4.11-7.39a18.75,18.75,0,0,0-14.42-7.3c-6.7,0-12.66,4-16.46,10.19a14.45,14.45,0,0,1-11,6.5h-.36C175,714.07,169,722.46,169,732.8s6,18.72,13.38,18.72a10,10,0,0,0,4.67-1.16,19.27,19.27,0,0,1,16.2-.32A16.9,16.9,0,0,0,217,750a19.27,19.27,0,0,1,16,.32,10.29,10.29,0,0,0,4.61,1.13c7.39,0,13.39-8.37,13.39-18.71A23.91,23.91,0,0,0,248.25,721.27Z"/><path class="cls-6" d="M228.09,748.7a19.65,19.65,0,0,0-11.49,1.1,17,17,0,0,1-6.88,1.36,16.78,16.78,0,0,1-6.9-1.58,19.35,19.35,0,0,0-16.22.12,9.93,9.93,0,0,1-4.66,1.1c-6.57-.08-11.95-6.78-13-15.51a12.79,12.79,0,0,0,3.34-3.5c3.92-6.16,9.94-10.06,16.59-10s12.53,4.1,16.32,10.28a12.64,12.64,0,0,0,10.89,6.13h.18C221.45,738.3,226,742.56,228.09,748.7Z"/><path class="cls-5" d="M515.23,246.39l-12.3,7.78,7.45-13.55a16.26,16.26,0,0,0-7.42-3.08h-.2a3.78,3.78,0,0,1-2.55.24l-4.16,2.65,1.78-3.25a14.84,14.84,0,0,1-7.27-5.53l-7.45,4.74,4.7-8.56c-4.35-5.22-10.22-8.43-16.68-8.43-7.74,0-14.64,4.61-19.09,11.79a15.37,15.37,0,0,1-12.66,7.14H439c-8.55-.34-15.47,9.35-15.47,21.31s6.92,21.64,15.47,21.64a11.52,11.52,0,0,0,5.39-1.35,22.36,22.36,0,0,1,18.74-.36,19.56,19.56,0,0,0,15.93,0,22.36,22.36,0,0,1,18.56.35,11.56,11.56,0,0,0,5.34,1.32c8.55,0,15.47-9.68,15.47-21.64A27.51,27.51,0,0,0,515.23,246.39Z"/><path class="cls-6" d="M492.09,277.91a22.92,22.92,0,0,0-13.26,1.44,19.46,19.46,0,0,1-15.92,0,22.32,22.32,0,0,0-18.74.36,11.52,11.52,0,0,1-5.39,1.35c-7.6,0-13.92-7.65-15.23-17.74a14.66,14.66,0,0,0,3.8-4.09c4.45-7.18,11.35-11.78,19.09-11.78s14.57,4.51,19,11.63A14.63,14.63,0,0,0,478.11,266h.2C484.31,266,489.54,270.84,492.09,277.91Z"/><path class="cls-5" d="M794.35,194.5l-10.11,6.41,6.13-11.14a6.7,6.7,0,0,0-6.1-1.52h-.16a3.4,3.4,0,0,0-2.1-.83l-3.41,2.17,1.46-2.61a12.2,12.2,0,0,1-6-4.55L768,186.34l3.91-7a17.91,17.91,0,0,0-13.72-6.94c-6.36,0-12,3.78-15.65,9.69a13.76,13.76,0,0,1-10.43,6.19h-.34c-7-.59-12.73,7.39-12.73,17.22s5.7,17.8,12.73,17.8a9.39,9.39,0,0,0,4.43-1.11,18.35,18.35,0,0,1,15.42-.3,16,16,0,0,0,13,0,18.38,18.38,0,0,1,15.27.3,9.79,9.79,0,0,0,4.38,1.09c7,0,12.73-8,12.73-17.81A22.68,22.68,0,0,0,794.35,194.5Z"/></svg>