<?xml version="1.0" encoding="utf-8"?>
<!-- Generator: Adobe Illustrator 23.0.6, SVG Export Plug-In . SVG Version: 6.00 Build 0)  -->
<svg version="1.1" id="Layer_1" xmlns="http://www.w3.org/2000/svg" xmlns:xlink="http://www.w3.org/1999/xlink" x="0px" y="0px"
	 viewBox="0 0 1000 1000" style="enable-background:new 0 0 1000 1000;" xml:space="preserve">
<style type="text/css">
	.st0{fill:#9FC5FF;}
	.st1{fill:#003755;}
	.st2{fill:#FDFF9F;}
	.st3{fill:#FFFFFF;}
	.st4{fill:#F2F2F2;}
	.st5{opacity:0.03;enable-background:new    ;}
	.st6{fill:#57B894;}
	.st7{fill:#F46E00;}
	.st8{fill:#2F2E41;}
	.st9{fill:#FFB9B9;}
	.st10{opacity:0.1;enable-background:new    ;}
	.st11{fill:#3F3D56;}
	.st12{fill:none;stroke:#2F2E41;stroke-width:3;stroke-miterlimit:10;}
	.st13{fill:#3595E2;}
	.st14{fill:#CCCCCC;}
	.st15{fill:#A0616A;}
	.st16{fill:#FDD546;}
	.st17{fill:#9E005D;}
</style>
<circle class="st0" cx="500" cy="479" r="375"/>
<g>
	<path class="st13" d="M474.63,489.92H258.68c-11.87-0.01-21.48-9.62-21.5-21.47V356.55c0.01-11.85,9.63-21.46,21.5-21.47h215.95
		c11.87,0.01,21.48,9.62,21.5,21.47v111.91C496.11,480.3,486.5,489.91,474.63,489.92z"/>
	<path class="st13" d="M758.3,489.92H542.35c-11.87-0.01-21.48-9.62-21.5-21.47V356.55c0.01-11.85,9.63-21.46,21.5-21.47H758.3
		c11.87,0.01,21.48,9.62,21.5,21.47v111.91C779.78,480.3,770.16,489.91,758.3,489.92z"/>
	<path class="st13" d="M496.13,676H237.18V533.51c0.01-11.85,9.63-21.46,21.5-21.47h215.95c11.87,0.01,21.48,9.62,21.5,21.47V676z"
		/>
	<path class="st13" d="M779.79,676H520.85V533.51c0.01-11.85,9.63-21.46,21.5-21.47H758.3c11.87,0.01,21.48,9.62,21.5,21.47V676z"/>
	<path class="st13" d="M758.3,312.95H542.35c-11.87-0.01-21.48-4.81-21.5-10.73v-60.49c0.01-5.92,9.63-10.73,21.5-10.73H758.3
		c11.87,0.01,21.48,4.81,21.5,10.73v60.49C779.78,308.15,770.16,312.95,758.3,312.95z"/>
	<path class="st13" d="M474.63,312.95H258.68c-11.87-0.01-21.48-4.81-21.5-10.73v-60.49c0.01-5.92,9.63-10.73,21.5-10.73h215.95
		c11.87,0.01,21.48,4.81,21.5,10.73v60.49C496.11,308.15,486.5,312.95,474.63,312.95z"/>
	<path class="st14" d="M773.03,682.5H250.32c-6.2,0-11.73-4.39-12.62-10.53c-1.1-7.64,4.8-14.2,12.23-14.2h522.71
		c6.2,0,11.73,4.39,12.62,10.53C786.36,675.95,780.46,682.5,773.03,682.5z"/>
	<path class="st14" d="M488.32,669.49h-213.4v-48.14c0-57.72,45.33-105.99,103.01-107.94c60.61-2.04,110.39,46.48,110.39,106.64
		V669.49z"/>
	<path class="st14" d="M743.36,669.49h-213.4v-48.14c0-57.72,45.33-105.99,103.01-107.94c60.61-2.04,110.39,46.48,110.39,106.64
		V669.49z"/>
	<rect x="627.55" y="673.4" class="st14" width="16.92" height="109.3"/>
	<path class="st14" d="M579.15,782.32c0,1.83,25.63,0.71,57.25,0.71c31.62,0,57.25,1.12,57.25-0.71c0-1.83-25.63-16.32-57.25-16.32
		C604.78,766,579.15,780.49,579.15,782.32z"/>
	<rect x="372.51" y="673.4" class="st14" width="16.92" height="109.3"/>
	<path class="st14" d="M324.1,782.32c0,1.83,25.63,0.71,57.25,0.71s57.25,1.12,57.25-0.71c0-1.83-25.63-16.32-57.25-16.32
		S324.1,780.49,324.1,782.32z"/>
	<polygon class="st15" points="457.09,768.39 472.95,768.39 480.49,707.23 457.09,707.23 	"/>
	<path class="st8" d="M503.71,782.7l-50.52,0l0,0l0-19.52l0,0l31.15,0c10.7,0,19.37,8.67,19.37,19.37L503.71,782.7L503.71,782.7
		L503.71,782.7z"/>
	<polygon class="st15" points="481.64,759.11 496.86,754.34 485.68,693.35 463.22,700.4 	"/>
	<path class="st8" d="M530.65,759.26l-47.84,15.01l0,0l-5.8-18.48l0,0l29.35-9.21C516.57,743.37,527.45,749.05,530.65,759.26
		L530.65,759.26L530.65,759.26z"/>
	<path class="st8" d="M470.97,730.79l-29.18-76.6c-6.55,1.54-61.45,13.69-79.84-5.89c-6.3-6.71-7.53-16.43-3.65-28.9l10.73-13.49
		l0.33,0.02c4.06,0.21,99.46,5.56,106,34.34c5.51,24.26,15.58,69.49,18.54,82.78c0.62,2.85-0.94,5.71-3.66,6.75l-11.74,4.4
		c-0.65,0.25-1.35,0.37-2.05,0.37C474.02,734.56,471.84,733.06,470.97,730.79z"/>
	<path class="st8" d="M454.05,739.9l-29.18-76.6c-6.55,1.54-61.45,13.69-79.84-5.89c-6.3-6.71-7.53-16.43-3.65-28.9l10.73-13.49
		l0.33,0.02c4.06,0.21,99.46,5.56,106,34.34c5.51,24.26,15.58,69.49,18.54,82.78c0.62,2.85-0.94,5.71-3.66,6.75l-11.74,4.4
		c-0.65,0.25-1.35,0.37-2.05,0.37C457.1,743.67,454.92,742.17,454.05,739.9z"/>
	<path class="st15" d="M427.8,591.28c-8.8,0-16.95-4.64-21.45-12.19l-9.27-15.7l22.03-12.04l9.35,12.82l63.47-6.69
		c0.31-0.56,0.66-1.1,1.04-1.61l0,0c2.46-3.24,6.19-5.28,10.24-5.61c4.08-0.35,8.11,1.08,11.05,3.92
		c4.81,4.61,5.81,11.92,2.42,17.65c-4.04,6.8-12.82,9.04-19.62,5.01c-0.47-0.28-0.92-0.58-1.35-0.91c-0.37-0.28-0.73-0.59-1.07-0.91
		l-60.79,15.5C431.88,591.02,429.84,591.28,427.8,591.28z"/>
	<path class="st2" d="M340.96,632.55c-1.79-1.29-2.71-3.48-2.37-5.66c3.62-23.87-0.55-58.06-4.68-82.54
		c-2.99-17.57,8.82-34.23,26.39-37.22c3.13-0.53,6.32-0.6,9.47-0.2c4.35,0.57,8.66,1.42,12.9,2.54l0,0
		c14.51,3.65,24.55,16.88,24.18,31.84c-0.62,23.62,4.18,53.1,6.27,64.67c0.29,1.61-0.1,3.26-1.08,4.57
		c-0.96,1.29-2.42,2.12-4.03,2.28c-23.17,2.36-48.16,13.67-60.99,20.19c-0.82,0.43-1.74,0.65-2.67,0.65
		C343.13,633.66,341.94,633.27,340.96,632.55z"/>
	<path class="st2" d="M403.51,570.99c-1.45-0.57-2.61-1.69-3.22-3.12l-12.92-29.85c-3.29-7.58,0.19-16.39,7.77-19.68
		s16.39,0.19,19.68,7.77c0,0.01,0.01,0.02,0.01,0.02l12.92,29.85c1.28,2.97-0.08,6.41-3.05,7.7l-16.72,7.24
		C406.57,571.54,404.95,571.56,403.51,570.99L403.51,570.99z"/>
	<circle class="st15" cx="367.4" cy="464.81" r="31.96"/>
	<path class="st8" d="M348.08,493.2c-1.87,2.16-5.14,2.39-7.3,0.52c-0.04-0.03-0.07-0.06-0.11-0.1
		c-7.13-5.77-12.78-13.15-16.49-21.53c-4.15-9.9-4.76-21.99-0.04-31.27c4-7.85,11.17-12.84,18.34-16.93c2.75-1.73,5.76-3,8.91-3.77
		c3.22-0.73,6.6-0.07,9.31,1.83c2.89,2.2,4.33,5.82,3.74,9.4c3.28-4.32,7.69-7.63,12.75-9.57c3.1-1.34,6.57-1.57,9.83-0.66
		c4.6,1.54,8.01,6.18,9.9,11.17c1.53,3.82,2.09,7.96,1.63,12.05c-0.41,3.95-2.41,7.56-5.56,9.98c-3.75,2.59-8.59,2.33-12.95,1.18
		s-8.6-3.09-13.04-3.63c-4.44-0.54-9.36,0.63-12.01,4.59c-1.86,2.79-2.3,6.46-2.68,9.97l-1.98,18.22c-0.14,2.61-0.7,5.17-1.66,7.6
		C348.54,492.6,348.33,492.92,348.08,493.2z"/>
	<path class="st15" d="M416.85,624.65c-3.84-1.34-6.93-4.26-8.5-8.01c-0.18-0.43-0.33-0.88-0.47-1.33l-68.08-19.38
		c-6.01-1.73-10.17-7.21-10.23-13.46l-0.17-26.29l25.1,0.67l1.64,15.79l58.22,26.14c0.55-0.33,1.12-0.62,1.71-0.86l6.67,0
		c5.23,0,10.17,2.97,12.14,7.81c2.96,7.26-0.48,15.57-7.73,18.61C423.87,625.72,420.2,625.82,416.85,624.65L416.85,624.65z"/>
	<path class="st2" d="M329.34,567.72c-1.03-1.16-1.56-2.69-1.46-4.24l2-32.47c0.49-8.25,7.58-14.54,15.83-14.05
		c8.25,0.49,14.54,7.58,14.05,15.83c0,0.02,0,0.04,0,0.06l-2,32.47c-0.2,3.23-2.98,5.68-6.2,5.48l-18.18-1.12
		C331.82,569.6,330.37,568.89,329.34,567.72L329.34,567.72z"/>
	<path class="st2" d="M507.12,583.61h-18.6c-1.24,0-2.27-0.94-2.39-2.17l-3.72-38.17h30.83l-3.72,38.17
		C509.39,582.67,508.36,583.61,507.12,583.61z"/>
	<path class="st16" d="M513.27,548.48h-30.39c-1.31,0-2.37-1.06-2.37-2.37v-5.68c0-1.31,1.06-2.36,2.37-2.37h30.39
		c1.31,0,2.37,1.06,2.37,2.37v5.68C515.64,547.42,514.58,548.48,513.27,548.48z"/>
	<path class="st17" d="M260.77,590.78h-36.66c-2.25,0-4.07,1.84-4.07,4.1l0,0v77.88h6.51v-71.35c0-2.28,1.85-4.12,4.12-4.12h0.01
		h26.87c2.28,0,4.13,1.83,4.13,4.08l0,0v71.39h5.2v-77.9c0-2.25-1.82-4.07-4.07-4.07l0,0H260.77z"/>
	<path class="st17" d="M285.8,823.7h-88.59c-9.67-0.01-17.5-7.87-17.51-17.56V676c0.01-9.69,7.85-17.55,17.51-17.56h88.59
		c9.67,0.01,17.5,7.87,17.51,17.56v130.14C303.3,815.83,295.47,823.69,285.8,823.7z"/>
	<path class="st17" d="M181.65,767.08c-6.02,0-9.28-12.48-9.28-24.22c0-11.74,3.25-24.22,9.28-24.22c6.02,0,9.28,12.48,9.28,24.22
		C190.92,754.6,187.67,767.08,181.65,767.08z M181.65,720.7c-3.41,0-7.21,9.1-7.21,22.16c0,13.06,3.8,22.16,7.21,22.16
		s7.21-9.1,7.21-22.16S185.06,720.7,181.65,720.7z"/>
	<path class="st3" d="M279.84,746.93h-16.82c-2.9,0-5.25-2.25-5.25-5.03v-12.07c0-2.78,2.35-5.02,5.25-5.03h16.82
		c2.9,0,5.25,2.25,5.25,5.03v12.07C285.09,744.67,282.74,746.92,279.84,746.93z"/>
	<path class="st3" d="M285.15,814.59h-94.23c-1.14,0.59-2.12-1.47-2.12-1.47v-143.8c0,0,0.98-2.06,2.12-1.77h94.23
		c1.14-0.29,2.06,0.63,2.06,1.77c0,1.14-0.92,2.06-2.06,2.13h-92.44v139.23h92.44c1.14,0.38,2.06,1.3,2.06,2.44
		C287.21,814.26,286.29,815.18,285.15,814.59z"/>
	<path class="st3" d="M751.21,388.59c-1.21-1.05-2.62-1.84-4.14-2.35c-3.4-1.05-6.96-1.44-10.51-1.14c-2.6,0.15-5.18,0.51-7.72,1.08
		l-118.63,33.56c-2.24,0.63-4.44,1.36-6.61,2.2c-7.65-2.99-29.27-11.65-31.63-14.76l-9.3,2.72l15.5,23.14
		c-1.08,0.47-1.57,1.72-1.1,2.8c0.24,0.54,0.69,0.97,1.26,1.16c17.87,6.14,44.86-2.01,44.86-2.01l103.65-29.61
		C726.85,405.36,758.14,394.78,751.21,388.59z"/>
	<polygon class="st4" points="692.43,407.14 625.06,425.33 621.08,433.29 	"/>
	<path class="st3" d="M691.05,262.21c-5.41,0-10.58,2.25-14.26,6.22c-7.34-2.92-15.65,0.66-18.56,8c-0.67,1.69-1.01,3.49-1.01,5.3
		h53.35C710.57,270.95,701.83,262.21,691.05,262.21L691.05,262.21z"/>
	<path class="st3" d="M316.3,368.91c-5.41,0-10.58,2.25-14.26,6.22c-7.34-2.92-15.65,0.66-18.56,8c-0.67,1.69-1.01,3.49-1.01,5.3
		h53.35C335.82,377.65,327.08,368.91,316.3,368.91z"/>
</g>
</svg>
