<svg id="Layer_1" data-name="Layer 1" xmlns="http://www.w3.org/2000/svg" viewBox="0 0 1000 1000"><defs><style>.cls-1{fill:#3ba7e6;}.cls-2{fill:#6ad3ff;}.cls-3{fill:#ccc;}.cls-4{fill:#a0616a;}.cls-5{fill:#2f2e41;}.cls-6{fill:#fdff9f;}.cls-7{fill:#fdd546;}.cls-8{fill:#93278f;}.cls-9{fill:#fff;}.cls-10{fill:#f2f2f2;}</style></defs><title>safescore_header_image</title><circle class="cls-1" cx="500" cy="479" r="375"/><path class="cls-2" d="M474.63,489.92H258.68a21.51,21.51,0,0,1-21.5-21.47V356.55a21.51,21.51,0,0,1,21.5-21.47h216a21.51,21.51,0,0,1,21.5,21.47v111.9A21.51,21.51,0,0,1,474.63,489.92Z"/><path class="cls-2" d="M758.3,489.92H542.35a21.51,21.51,0,0,1-21.5-21.47V356.55a21.5,21.5,0,0,1,21.5-21.47H758.3a21.5,21.5,0,0,1,21.49,21.47v111.9A21.5,21.5,0,0,1,758.3,489.92Z"/><path class="cls-2" d="M496.13,676H237.18V533.51A21.52,21.52,0,0,1,258.68,512h216a21.52,21.52,0,0,1,21.5,21.47Z"/><path class="cls-2" d="M779.79,676H520.85V533.51A21.51,21.51,0,0,1,542.35,512H758.3a21.51,21.51,0,0,1,21.49,21.47Z"/><path class="cls-2" d="M758.3,313H542.35c-11.87,0-21.49-4.8-21.5-10.73V241.73c0-5.92,9.63-10.72,21.5-10.73H758.3c11.86,0,21.48,4.81,21.49,10.73v60.49C779.78,308.15,770.16,313,758.3,313Z"/><path class="cls-2" d="M474.63,313H258.68c-11.87,0-21.48-4.8-21.5-10.73V241.73c0-5.92,9.63-10.72,21.5-10.73h216c11.87,0,21.48,4.81,21.5,10.73v60.49C496.11,308.15,486.5,313,474.63,313Z"/><path class="cls-3" d="M773,682.5H250.32A12.62,12.62,0,0,1,237.7,672a12.38,12.38,0,0,1,12.23-14.2H772.64a12.62,12.62,0,0,1,12.62,10.53A12.36,12.36,0,0,1,773,682.5Z"/><path class="cls-3" d="M488.32,669.49H274.92V621.35c0-57.72,45.32-106,103-107.94A106.7,106.7,0,0,1,488.32,620.05Z"/><path class="cls-3" d="M743.36,669.49H530V621.35c0-57.72,45.33-106,103-107.94A106.7,106.7,0,0,1,743.36,620.05Z"/><rect class="cls-3" x="627.55" y="673.4" width="16.92" height="109.3"/><path class="cls-3" d="M579.15,782.32c0,1.83,25.63.71,57.25.71s57.25,1.12,57.25-.71S668,766,636.4,766,579.15,780.49,579.15,782.32Z"/><rect class="cls-3" x="372.51" y="673.4" width="16.92" height="109.3"/><path class="cls-3" d="M324.1,782.32c0,1.83,25.64.71,57.26.71s57.25,1.12,57.25-.71S413,766,381.36,766,324.1,780.49,324.1,782.32Z"/><polygon class="cls-4" points="457.09 768.38 472.95 768.38 480.49 707.23 457.09 707.23 457.09 768.38"/><path class="cls-5" d="M503.71,782.7H453.19V763.18h31.15a19.37,19.37,0,0,1,19.37,19.37v.15Z"/><polygon class="cls-4" points="481.64 759.11 496.86 754.34 485.68 693.35 463.21 700.4 481.64 759.11"/><path class="cls-5" d="M530.65,759.26l-47.84,15h0L477,755.79h0l29.36-9.21a19.36,19.36,0,0,1,24.28,12.68Z"/><path class="cls-5" d="M471,730.79l-29.19-76.6c-6.54,1.53-61.45,13.68-79.84-5.9-6.3-6.71-7.53-16.43-3.65-28.89L369,605.91l.33,0c4.06.21,99.46,5.56,106,34.34,5.52,24.26,15.59,69.49,18.54,82.77a5.88,5.88,0,0,1-3.66,6.75l-11.74,4.4a5.67,5.67,0,0,1-2,.37A5.87,5.87,0,0,1,471,730.79Z"/><path class="cls-5" d="M454.05,739.9l-29.18-76.6c-6.55,1.53-61.46,13.68-79.84-5.9-6.31-6.71-7.54-16.43-3.66-28.89L352.1,615l.34,0c4.06.21,99.46,5.56,106,34.33C464,673.64,474,718.87,477,732.15a5.88,5.88,0,0,1-3.67,6.75l-11.73,4.4a6,6,0,0,1-2.05.37A5.87,5.87,0,0,1,454.05,739.9Z"/><path class="cls-4" d="M427.8,591.28a25,25,0,0,1-21.45-12.2l-9.27-15.7,22-12,9.35,12.83,63.47-6.69a14.27,14.27,0,0,1,1-1.61h0a14.32,14.32,0,1,1,4.1,21,13.86,13.86,0,0,1-1.35-.91c-.37-.29-.73-.59-1.07-.91l-60.79,15.5A24.79,24.79,0,0,1,427.8,591.28Z"/><path class="cls-6" d="M341,632.55a5.87,5.87,0,0,1-2.37-5.66c3.62-23.87-.54-58.06-4.67-82.54a32.26,32.26,0,0,1,35.86-37.42,103.19,103.19,0,0,1,12.9,2.54h0a32,32,0,0,1,24.17,31.84c-.61,23.62,4.18,53.09,6.27,64.67a5.88,5.88,0,0,1-1.08,4.57,5.68,5.68,0,0,1-4,2.27c-23.17,2.37-48.16,13.67-61,20.19a5.92,5.92,0,0,1-2.67.66A5.81,5.81,0,0,1,341,632.55Z"/><path class="cls-6" d="M403.51,571a5.8,5.8,0,0,1-3.22-3.12L387.37,538a15,15,0,1,1,27.45-11.91v0L427.76,556a5.87,5.87,0,0,1-3.05,7.7L408,570.92a5.85,5.85,0,0,1-4.48.07Z"/><circle class="cls-4" cx="367.4" cy="464.81" r="31.96"/><path class="cls-5" d="M348.08,493.2a5.17,5.17,0,0,1-7.29.53l-.11-.1a57.79,57.79,0,0,1-16.49-21.53c-4.15-9.91-4.76-22,0-31.28,4-7.84,11.17-12.84,18.33-16.92a29.93,29.93,0,0,1,8.91-3.77,11.69,11.69,0,0,1,9.31,1.83,9.83,9.83,0,0,1,3.75,9.41,29,29,0,0,1,12.75-9.58,14.77,14.77,0,0,1,9.83-.65c4.6,1.53,8,6.18,9.9,11.17a24.92,24.92,0,0,1,1.64,12.05,14.49,14.49,0,0,1-5.56,10c-3.75,2.59-8.59,2.33-12.95,1.18s-8.6-3.08-13-3.63-9.36.64-12,4.6c-1.86,2.79-2.3,6.46-2.68,10l-2,18.22a24.25,24.25,0,0,1-1.66,7.6A4.08,4.08,0,0,1,348.08,493.2Z"/><path class="cls-4" d="M416.85,624.65a14.38,14.38,0,0,1-8.5-8,13.15,13.15,0,0,1-.47-1.33L339.8,595.93a14.15,14.15,0,0,1-10.23-13.46l-.17-26.29,25.1.68,1.63,15.79,58.22,26.13a15.18,15.18,0,0,1,1.71-.86h6.67a13,13,0,0,1,12.14,7.81,14.33,14.33,0,0,1-18,18.92Z"/><path class="cls-6" d="M329.34,567.72a5.8,5.8,0,0,1-1.45-4.23l2-32.47a15,15,0,1,1,29.88,1.78v.05l-2,32.47a5.87,5.87,0,0,1-6.2,5.49l-18.19-1.12a5.82,5.82,0,0,1-4-2Z"/><path class="cls-6" d="M507.12,583.61h-18.6a2.39,2.39,0,0,1-2.39-2.17l-3.73-38.17h30.83l-3.72,38.17A2.4,2.4,0,0,1,507.12,583.61Z"/><path class="cls-7" d="M513.27,548.48H482.89a2.38,2.38,0,0,1-2.38-2.37v-5.68a2.38,2.38,0,0,1,2.38-2.36h30.38a2.38,2.38,0,0,1,2.38,2.36v5.68A2.38,2.38,0,0,1,513.27,548.48Z"/><path class="cls-8" d="M260.77,590.78H224.11a4.08,4.08,0,0,0-4.07,4.1h0v77.88h6.5V601.41a4.13,4.13,0,0,1,4.13-4.13h26.87a4.11,4.11,0,0,1,4.14,4.08h0v71.4h5.2V594.85a4.07,4.07,0,0,0-4.07-4.07h-2Z"/><path class="cls-8" d="M285.8,823.7H197.21a17.55,17.55,0,0,1-17.51-17.56V676a17.55,17.55,0,0,1,17.51-17.56H285.8A17.57,17.57,0,0,1,303.32,676V806.14A17.57,17.57,0,0,1,285.8,823.7Z"/><path class="cls-8" d="M181.65,767.08c-6,0-9.28-12.48-9.28-24.22s3.25-24.22,9.28-24.22,9.27,12.48,9.27,24.22S187.67,767.08,181.65,767.08Zm0-46.38c-3.42,0-7.22,9.1-7.22,22.16s3.8,22.16,7.22,22.16,7.21-9.1,7.21-22.16S185.06,720.7,181.65,720.7Z"/><path class="cls-9" d="M279.84,746.93H263a5.17,5.17,0,0,1-5.26-5V729.83a5.16,5.16,0,0,1,5.26-5h16.81a5.16,5.16,0,0,1,5.26,5V741.9A5.17,5.17,0,0,1,279.84,746.93Z"/><path class="cls-9" d="M285.15,814.59H190.92c-1.14.59-2.11-1.47-2.11-1.47V669.32s1-2.06,2.11-1.77h94.23a1.7,1.7,0,0,1,2.07,1.77,2.17,2.17,0,0,1-2.07,2.13H192.71V810.69h92.44a2.74,2.74,0,0,1,2.06,2.44C287.21,814.26,286.29,815.18,285.15,814.59Z"/><path class="cls-9" d="M751.21,388.59a12.08,12.08,0,0,0-4.14-2.35,27.63,27.63,0,0,0-10.5-1.15,47.94,47.94,0,0,0-7.73,1.08L610.22,419.73q-3.37.94-6.61,2.2c-7.65-3-29.27-11.65-31.64-14.76l-9.3,2.72L578.17,433a2.13,2.13,0,0,0-1.09,2.8,2.16,2.16,0,0,0,1.25,1.16c17.88,6.13,44.87-2,44.87-2l103.65-29.62S758.14,394.78,751.21,388.59Z"/><polygon class="cls-10" points="692.43 407.14 625.06 425.33 621.08 433.29 692.43 407.14"/><path class="cls-9" d="M691.05,262.21a19.45,19.45,0,0,0-14.25,6.21,14.29,14.29,0,0,0-19.58,13.31h53.35a19.52,19.52,0,0,0-19.52-19.52Z"/><path class="cls-9" d="M316.3,368.91A19.47,19.47,0,0,0,302,375.12a14.29,14.29,0,0,0-19.57,13.31h53.35A19.52,19.52,0,0,0,316.3,368.91Z"/></svg>