<?xml version="1.0" encoding="utf-8"?>
<!-- Generator: Adobe Illustrator 23.0.6, SVG Export Plug-In . SVG Version: 6.00 Build 0)  -->
<svg version="1.1" id="Layer_1" xmlns="http://www.w3.org/2000/svg" xmlns:xlink="http://www.w3.org/1999/xlink" x="0px" y="0px"
	 viewBox="0 0 1000 1000" style="enable-background:new 0 0 1000 1000;" xml:space="preserve">
<style type="text/css">
	.st0{fill:#9FC5FF;}
	.st1{fill:#003755;}
	.st2{fill:#FDFF9F;}
	.st3{fill:#FFFFFF;}
	.st4{fill:#F2F2F2;}
	.st5{opacity:0.03;enable-background:new    ;}
</style>
<circle class="st0" cx="499" cy="471" r="375"/>
<g>
	<title>aircraft</title>
	<path class="st1" d="M775.06,533.12c-7.73,2.85-21.3,5.19-37.01,7.07c-42.71,5.13-101.24,6.94-101.24,6.94
		s-300.87,24.95-526.37-67.85c0,0-32.8-17.19-2.37-40.34c4.69-3.46,9.67-6.5,14.88-9.08l0.37-0.37c3.46-3.2,7.2-6.08,11.18-8.61
		c11.68-7.55,31.41-16.51,55.42-12.45l592.25,95.79C782.18,504.22,803.81,522.5,775.06,533.12z"/>
	<path class="st1" d="M657.06,489.71l123.98-87.97l54.64,9.45l-53.51,93.03C782.18,504.22,658.48,505.21,657.06,489.71z"/>
	<polygon class="st1" points="344.92,436.26 591.88,367 631.69,375.32 520.13,425.51 485.27,464.51 	"/>
	<path class="st2" d="M738.06,540.19c-42.71,5.13-101.24,6.94-101.24,6.94s-300.87,24.95-526.37-67.85c0,0-32.8-17.19-2.37-40.34
		l0.1,0.43c0,0,48.66,32.89,281.14,60.34L738.06,540.19z"/>
	<path class="st1" d="M698.36,538.29l110.41,45.08l27.74-3.08l-66.04-49.64C770.47,530.66,690.59,513.61,698.36,538.29z"/>
	<path class="st3" d="M148.22,444.19c-5.27,0.09-17.34-8.75-24.84-14.7c3.46-3.2,7.2-6.08,11.18-8.61
		c6.05,4.64,16.81,12.16,22.8,11.86C166,432.39,156.15,444.05,148.22,444.19z"/>
	<path class="st1" d="M649.82,694.12l-70.89,3.71L379.62,563.44l-37-24.95l-17.97-12.12c33.72-28.47,171.28,10.8,171.28,10.8
		c2.63,2.22,3.47,5.92,3.35,10c-0.23,7.64-3.82,16.61-5.2,19.84c-0.33,0.79-0.54,1.21-0.54,1.21L649.82,694.12z"/>
	<path class="st4" d="M416.36,624.45l-12.3,7.78l7.45-13.55c-2.11-1.68-4.72-2.62-7.42-3.08h-0.2c-0.85,0.45-1.71,0.39-2.55,0.24
		l-4.16,2.64l1.78-3.24c-2.95-1.03-5.49-2.97-7.28-5.54l-7.44,4.75l4.7-8.56c-4.35-5.23-10.22-8.43-16.68-8.43
		c-7.74,0-14.64,4.6-19.09,11.78c-2.69,4.38-7.52,6.98-12.65,7.14h-0.41c-8.55-0.34-15.48,9.35-15.48,21.3
		c0,11.96,6.93,21.65,15.48,21.65c1.88-0.01,3.73-0.47,5.39-1.35c5.89-2.86,12.74-2.99,18.74-0.36c5.07,2.26,10.86,2.26,15.93,0
		c5.95-2.58,12.72-2.45,18.56,0.36c1.65,0.86,3.48,1.31,5.34,1.32c8.55,0,15.48-9.69,15.48-21.65
		C419.6,633.05,418.51,628.51,416.36,624.45z"/>
	<path class="st5" d="M393.23,655.97c-4.47-0.85-9.08-0.34-13.26,1.44c-5.06,2.27-10.86,2.27-15.92,0c-6-2.63-12.85-2.5-18.74,0.36
		c-1.66,0.88-3.51,1.34-5.39,1.35c-7.59,0-13.91-7.66-15.23-17.75c1.52-1.1,2.81-2.49,3.8-4.09c4.45-7.17,11.35-11.78,19.09-11.78
		c7.74,0,14.57,4.51,19.01,11.63c2.7,4.36,7.48,7,12.62,6.94h0.2C385.44,644.05,390.68,648.89,393.23,655.97z"/>
	<path class="st4" d="M763.57,614.16l-12.3,7.78l7.45-13.55c-2.11-1.68-4.72-2.62-7.42-3.08h-0.2c-0.85,0.45-1.71,0.39-2.55,0.24
		l-4.16,2.64l1.78-3.24c-2.95-1.03-5.49-2.97-7.28-5.54l-7.44,4.75l4.7-8.56c-4.35-5.23-10.22-8.43-16.68-8.43
		c-7.74,0-14.64,4.6-19.09,11.78c-2.69,4.38-7.52,6.98-12.65,7.14h-0.41c-8.55-0.34-15.48,9.35-15.48,21.3
		c0,11.96,6.93,21.65,15.48,21.65c1.88-0.01,3.73-0.47,5.39-1.35c5.89-2.86,12.74-2.99,18.74-0.36c5.07,2.26,10.86,2.26,15.93,0
		c5.95-2.58,12.72-2.45,18.56,0.36c1.65,0.86,3.48,1.31,5.34,1.32c8.55,0,15.48-9.69,15.48-21.65
		C766.81,622.77,765.72,618.23,763.57,614.16z"/>
	<path class="st5" d="M740.44,645.68c-4.47-0.85-9.08-0.34-13.26,1.44c-5.06,2.27-10.86,2.27-15.92,0c-6-2.63-12.85-2.5-18.74,0.36
		c-1.66,0.88-3.51,1.34-5.39,1.35c-7.59,0-13.91-7.66-15.23-17.75c1.52-1.1,2.81-2.49,3.8-4.09c4.45-7.17,11.35-11.78,19.09-11.78
		c7.74,0,14.57,4.51,19.01,11.63c2.71,4.38,7.51,7.01,12.65,6.94h0.2C732.66,633.77,737.89,638.61,740.44,645.68z"/>
	<path class="st4" d="M763.57,354.74l-12.3,7.78l7.45-13.55c-2.11-1.68-4.72-2.62-7.42-3.08h-0.2c-0.85,0.45-1.71,0.39-2.55,0.24
		l-4.16,2.64l1.78-3.24c-2.95-1.03-5.49-2.97-7.28-5.54l-7.44,4.75l4.7-8.56c-4.35-5.23-10.22-8.43-16.68-8.43
		c-7.74,0-14.64,4.6-19.09,11.78c-2.69,4.38-7.52,6.98-12.65,7.14h-0.41c-8.55-0.34-15.48,9.35-15.48,21.3s6.93,21.65,15.48,21.65
		c1.88-0.01,3.73-0.47,5.39-1.35c5.89-2.86,12.74-2.99,18.74-0.36c5.06,2.27,10.85,2.29,15.93,0.04c5.95-2.58,12.72-2.45,18.56,0.36
		c1.65,0.86,3.48,1.31,5.34,1.32c8.55,0,15.48-9.69,15.48-21.65C766.82,363.38,765.73,358.82,763.57,354.74z"/>
	<path class="st5" d="M740.44,386.26c-4.47-0.85-9.08-0.34-13.26,1.44c-5.06,2.27-10.86,2.27-15.92,0c-6-2.63-12.85-2.5-18.74,0.36
		c-1.66,0.88-3.51,1.34-5.39,1.35c-7.59,0-13.91-7.66-15.23-17.75c1.52-1.1,2.81-2.49,3.8-4.09c4.45-7.17,11.35-11.78,19.09-11.78
		c7.74,0,14.57,4.51,19.01,11.63c2.71,4.38,7.51,7.01,12.65,6.94h0.2C732.66,374.35,737.89,379.19,740.44,386.26z"/>
	<path class="st4" d="M255.79,326.75l-6.13,3.88l3.72-6.75c-1.05-0.84-2.35-1.31-3.7-0.92h-0.09c-0.43-0.4-0.85-0.43-1.27-0.5
		l-2.07,1.31l0.89-1.58c-1.47-0.52-2.74-1.48-3.63-2.76l-3.71,2.37l2.37-4.26c-2-2.58-5.05-4.13-8.32-4.21
		c-3.86,0-7.3,2.29-9.49,5.88c-1.34,2.19-3.76,3.49-6.33,3.75h-0.21c-4.26-0.36-7.72,4.48-7.72,10.45c0,5.96,3.46,10.8,7.72,10.8
		c0.94,0,1.86-0.23,2.69-0.67c2.94-1.43,6.36-1.5,9.35-0.18c2.52,1.12,5.39,1.12,7.91,0c2.97-1.29,6.35-1.22,9.26,0.18
		c0.82,0.43,1.73,0.65,2.66,0.66c4.26,0,7.72-4.83,7.72-10.8C257.43,331.08,256.87,328.8,255.79,326.75z"/>
	<path class="st5" d="M244.25,342.35c-2.23-0.43-4.53-0.18-6.62,0.72c-1.25,0.55-2.59,0.84-3.95,0.84c-1.38,0-2.74-0.29-3.99-0.86
		c-2.99-1.31-6.41-1.24-9.35,0.19c-0.83,0.44-1.75,0.67-2.68,0.67c-3.79,0-6.94-3.82-7.6-8.85c0.76-0.55,1.4-1.25,1.9-2.04
		c2.21-3.58,5.66-5.88,9.49-5.88c3.84,0,7.26,2.27,9.49,5.81c1.35,2.19,3.76,3.5,6.33,3.46h0.1
		C240.34,336.4,242.98,338.83,244.25,342.35z"/>
	<path class="st4" d="M785.94,766.52l-21.25,13.46l12.89-23.41c-3.64-2.93-8.16-4.55-12.83-3.2h-0.33c-1.48-1.39-2.95-1.5-4.41-1.74
		l-7.18,4.55l3.07-5.48c-5.1-1.79-9.5-5.13-12.58-9.57l-12.86,8.22l8.22-14.78c-6.93-8.96-17.52-14.32-28.84-14.58
		c-13.38,0-25.3,7.95-32.9,20.37c-4.65,7.59-13.03,12.08-21.93,13h-0.71c-14.78-1.24-26.76,15.54-26.76,36.21S639.52,827,654.29,827
		c3.25-0.01,6.45-0.81,9.32-2.33c10.18-4.96,22.03-5.19,32.4-0.63c8.73,3.88,18.69,3.88,27.41,0c10.28-4.46,22-4.23,32.1,0.63
		c2.85,1.47,6,2.25,9.21,2.28c14.78,0,26.76-16.75,26.76-37.42C791.61,781.51,789.69,773.6,785.94,766.52z"/>
	<path class="st5" d="M745.94,820.59c-7.73-1.48-15.72-0.61-22.95,2.49c-4.32,1.91-8.99,2.9-13.71,2.91
		c-4.77,0-9.49-1.02-13.84-2.99c-10.38-4.54-22.22-4.3-32.4,0.66c-2.86,1.52-6.05,2.32-9.29,2.33c-13.13,0-24.07-13.24-26.35-30.68
		c2.62-1.92,4.85-4.32,6.58-7.07c7.68-12.42,19.6-20.37,32.9-20.37c13.3,0,25.17,7.87,32.9,20.12c4.69,7.58,13.02,12.13,21.93,11.98
		h0.36C732.4,799.98,741.53,808.37,745.94,820.59z"/>
	<path class="st4" d="M248.25,721.27L237.62,728l6.45-11.71c-1.82-1.46-4.08-2.28-6.42-1.6h-0.16c-0.74-0.7-1.48-0.75-2.21-0.87
		l-3.59,2.28l1.54-2.74c-2.55-0.89-4.75-2.57-6.29-4.79l-6.43,4.11l4.11-7.39c-3.46-4.48-8.76-7.16-14.43-7.3
		c-6.69,0-12.66,3.98-16.46,10.19c-2.33,3.8-6.52,6.04-10.97,6.5h-0.36c-7.39-0.62-13.38,7.77-13.38,18.11s5.99,18.72,13.38,18.72
		c1.63-0.01,3.23-0.41,4.66-1.17c5.09-2.48,11.02-2.6,16.21-0.32c4.37,1.94,9.35,1.94,13.71,0c5.14-2.23,11-2.12,16.06,0.32
		c1.42,0.74,3,1.13,4.61,1.14c7.39,0,13.38-8.38,13.38-18.72C251.09,728.77,250.13,724.81,248.25,721.27z"/>
	<path class="st5" d="M228.09,748.7c-3.85-0.79-7.86-0.41-11.49,1.1c-2.17,0.93-4.51,1.39-6.87,1.36c-2.39-0.03-4.74-0.57-6.9-1.58
		c-5.16-2.34-11.09-2.29-16.21,0.12c-1.44,0.74-3.04,1.12-4.66,1.11c-6.57-0.09-11.95-6.78-12.98-15.51
		c1.32-0.94,2.45-2.13,3.34-3.49c3.92-6.16,9.94-10.06,16.59-9.97s12.54,4.1,16.32,10.28c2.3,3.82,6.43,6.15,10.89,6.13l0.18,0
		C221.45,738.3,225.96,742.56,228.09,748.7z"/>
	<path class="st4" d="M515.23,246.39l-12.3,7.78l7.45-13.55c-2.11-1.68-4.72-2.62-7.42-3.08h-0.2c-0.85,0.45-1.71,0.39-2.55,0.24
		l-4.16,2.64l1.78-3.24c-2.95-1.03-5.49-2.97-7.28-5.54l-7.44,4.75l4.7-8.56c-4.35-5.23-10.22-8.43-16.68-8.43
		c-7.74,0-14.64,4.6-19.09,11.78c-2.69,4.38-7.52,6.98-12.65,7.14h-0.41c-8.55-0.34-15.48,9.35-15.48,21.3s6.93,21.65,15.48,21.65
		c1.88-0.01,3.73-0.47,5.39-1.35c5.89-2.86,12.74-2.99,18.74-0.36c5.06,2.27,10.85,2.29,15.93,0.04c5.95-2.58,12.72-2.45,18.56,0.36
		c1.65,0.86,3.48,1.31,5.34,1.32c8.55,0,15.48-9.69,15.48-21.65C518.47,255.02,517.38,250.47,515.23,246.39z"/>
	<path class="st5" d="M492.09,277.91c-4.47-0.85-9.08-0.34-13.26,1.44c-5.06,2.27-10.86,2.27-15.92,0c-6-2.63-12.85-2.5-18.74,0.36
		c-1.66,0.88-3.51,1.34-5.39,1.35c-7.59,0-13.91-7.66-15.23-17.75c1.52-1.1,2.81-2.49,3.8-4.09c4.45-7.17,11.35-11.78,19.09-11.78
		c7.74,0,14.57,4.51,19.01,11.63c2.71,4.38,7.51,7.01,12.65,6.94h0.2C484.31,266,489.54,270.84,492.09,277.91z"/>
	<path class="st4" d="M794.35,194.5l-10.11,6.4l6.13-11.14c-1.73-1.39-3.88-2.16-6.1-1.52h-0.16c-0.7-0.66-1.41-0.71-2.1-0.83
		l-3.42,2.16l1.46-2.61c-2.42-0.85-4.52-2.44-5.99-4.55l-6.12,3.91l3.91-7.03c-3.29-4.26-8.33-6.81-13.72-6.94
		c-6.36,0-12.04,3.78-15.65,9.69c-2.21,3.61-6.2,5.75-10.43,6.19h-0.34c-7.03-0.59-12.73,7.39-12.73,17.22s5.7,17.8,12.73,17.8
		c1.55-0.01,3.07-0.39,4.43-1.11c4.84-2.36,10.48-2.47,15.41-0.3c4.15,1.85,8.89,1.85,13.04,0c4.89-2.12,10.47-2.01,15.27,0.3
		c1.35,0.7,2.86,1.07,4.38,1.08c7.03,0,12.73-7.97,12.73-17.8C797.05,201.63,796.14,197.87,794.35,194.5z"/>
</g>
</svg>
