<svg id="Layer_1" data-name="Layer 1" xmlns="http://www.w3.org/2000/svg" viewBox="0 0 1000 1000"><defs><style>.cls-1{fill:#3ba7e6;}.cls-2{fill:#0cdb94;}.cls-3{fill:#f46e00;}.cls-4{fill:#2f2e41;}.cls-5{fill:#ffb9b9;}.cls-6{opacity:0.1;isolation:isolate;}.cls-7{fill:#003755;}.cls-8{fill:#3f3d56;}.cls-9{fill:#f2f2f2;}.cls-10{fill:none;stroke:#2f2e41;stroke-miterlimit:10;stroke-width:3px;}</style></defs><title>safescore_header_image</title><path class="cls-1" d="M869,482v2.22q-.09,8.39-.49,16.7c-10.43,205.17-185.22,363-390.39,352.6-188.71-9.6-340.25-159.16-352.32-347.74Q125.05,494,125,482a370.18,370.18,0,0,1,68.4-215q5.35-7.59,11.14-14.9c2.65-3.39,5.39-6.71,8.14-10,130.62-154.73,361-176.6,518.39-49.19,4.48,3.62,8.88,7.37,13.18,11.19q5.18,4.59,10.15,9.38A371,371,0,0,1,867.7,450.71Q869,466.19,869,482Z"/><path class="cls-2" d="M204.89,252.07a2.62,2.62,0,0,1,.51.3c2,1.65-.51,4.81-.21,7.42.36,3.34,4.81,4.07,8.18,4.4s7.61,3.06,6,6.05c-8.45,2.91-17,.05-25.63-3.27a370,370,0,0,0-68.4,215q0,12,.76,23.78a9.46,9.46,0,0,0,2.3,1.24c2.53,1,5.47.79,7.79,2.15,1.85,1.09,3.09,3,4.94,4,5.29,2.88,12.62-2.66,17.56.78a48.48,48.48,0,0,1,3.62,3.69c4.55,4,12,1.3,17.31,4.26,3.39,1.89,5.13,5.69,7,9.13,4.53,8.6,11.87,17.06,21.56,17.74a58.37,58.37,0,0,1,9.16.3c3,.69,5.93,3.29,5.44,6.3-.83,5.19,1.73,10.86,1,16.05-1.24,9.49-14.67,13.64-15.81,23.12a56.65,56.65,0,0,1-.36,6.25c-.6,2.48-2.48,4.51-3.13,7-1.27,4.68,2.1,9.36,5.76,12.5s8.1,5.9,10.13,10.3c2.12,4.68,1.08,10.12,1.77,15.21,1.52,11.1,11.11,19.33,21,24.64a21.81,21.81,0,0,1,8.2,6c2.53,3.67,2.28,8.51,3.14,12.88,2.08,10.71,11.08,19.54,11.34,30.45.17,7.76-4.13,14.8-6.71,22.11a51.15,51.15,0,0,0-2.3,23.89A372.49,372.49,0,0,0,302.67,799a13.21,13.21,0,0,0,1.89-4.25,8.39,8.39,0,0,0-3.92-8.7,20.65,20.65,0,0,0,7.26-4.66,7.1,7.1,0,0,0,1.32-8c4.45.55,9.74.83,12.68-2.58,2.35-2.74,2.2-6.84,1.26-10.3A42.88,42.88,0,0,1,320.63,750a187.87,187.87,0,0,0,30.92-1,20.08,20.08,0,0,0-9.41-11.79c4.66-.78,8.88-6.35,10.35-10.83a27.53,27.53,0,0,0,.2-14,7.52,7.52,0,0,1-.15-3.65,7.18,7.18,0,0,1,3.7-3.56l23.07-13.26a14.12,14.12,0,0,0,3.7-2.71c2.4-2.86,2.05-7.14.81-10.66s-3.22-6.83-3.7-10.52c-1.41-11.06,10.43-19,14.43-29.43a44,44,0,0,0,2.17-12.88c.33-4.71.36-10.15-3.24-13.16s-8.85-2.25-12.47-5c-3.32-2.48-4.45-7.26-8.07-9.26-3.29-1.82-7.39-.66-11.06-1.52-6.43-1.49-10.48-8.91-17.06-9.59-3.69-.4-7.89,1.42-10.93-.73-2.68-1.93-2.78-5.75-3.29-9a25.09,25.09,0,0,0-20.24-20.29c-3.82-.61-8-.38-11.24-2.48s-4.78-6.1-7.39-9.06c-4.15-4.73-10.72-6.43-16.87-7.87q-12.53-2.92-25-5.87c-4.43-1.06-10.15-1.62-12.55,2.28a17.11,17.11,0,0,0-1.47,4.68,14.51,14.51,0,0,1-13.61,10.22,16.09,16.09,0,0,0-9.47-7.34,58,58,0,0,1-7.69-1.82,10.78,10.78,0,0,1-4.93-14.42,5.36,5.36,0,0,1,.28-.53,13.43,13.43,0,0,0-2.31-16.12c-4.25-3.82-10.4-4.76-16.12-4.38-1.49-3.26,1-6.93,3.7-9.31s6-4.68,6.55-8.23c.94-5.56-6.17-9.79-11.56-8.14s-8.83,6.9-11.11,12.07a36.35,36.35,0,0,1-4.48,8.58,8.79,8.79,0,0,1-8.5,3.49c-4.45-1.14-6.15-6.43-7.14-10.88A71.19,71.19,0,0,1,147,473.81a23.8,23.8,0,0,1,6.89-16.6c7.36-6.78,18.7-6.12,28.64-5a7.3,7.3,0,0,1,.76-9.62,10.93,10.93,0,0,1,9.92-2.43,13.64,13.64,0,0,1,7.67,4.58c2.83,3.44,3.64,8.12,5.77,12s7,7.26,10.88,5.16c3.41-1.82,4-6.53,3.11-10.3s-2.66-7.41-2.35-11.26c.58-7.31,8.2-11.74,14.9-14.75s14.37-7.08,15.44-14.37a13.35,13.35,0,0,1,.81-4.15,8.12,8.12,0,0,1,3-2.84c19.56-12.93,39.47-26,61.84-33.09,1.17-.38,1.29,0,2.48-.26,1.67-1,.56-3.62-1-4.68s-3.72-1.9-4.12-3.77c-.28-1.36.53-2.73.73-4.12a5.15,5.15,0,0,0-4.81-5.47,5.29,5.29,0,0,0-1.94.25c-1.8-2.37,1.74-5.13,4.63-5.94a126,126,0,0,1,26.44-4.3,4.7,4.7,0,0,1,3,.5,3.57,3.57,0,0,1,.23,4.91,28,28,0,0,1-4,3.67A11.07,11.07,0,0,0,333,363c4.68,2.38,9.74,4.83,14.93,4s9.74-6.66,7.31-11.29c-2.25-4.33-9-5.31-10.22-10-1.36-5.55,6.48-10.48,4.71-15.9-.76-2.37-3.14-3.79-5-5.49a15,15,0,0,1-3.27-16.55A18.84,18.84,0,0,1,325,302.6c-4-4-7.09-10.27-12.71-10.07-5.13.15-9.56,6.15-14.37,4.33-1.19-.46-2.43-1.37-3.57-.84a3,3,0,0,0-1.34,2.2c-1.21,5.85.89,12.5-2.3,17.57-3.47,5.49-11.49,6.25-15.69,11.21-2.28,2.68-3.16,6.3-5.26,9.13s-6.53,4.66-9.06,2.18a12.49,12.49,0,0,0-3.39-15.19,32.64,32.64,0,0,0-7.49-3.64,44.57,44.57,0,0,1-8.38-4.66,8.29,8.29,0,0,1-3.06-3.29,7.59,7.59,0,0,1,.2-5.21,21.31,21.31,0,0,1,16.93-14c3.34-.45,7.24-.3,9.46-2.86,1.17-1.34,1.77-3.39,3.5-3.92a5.08,5.08,0,0,1,3.21.38c4.17,1.47,8.32,2.94,12.5,4.4a8.52,8.52,0,0,0,4.45.74,3,3,0,0,0,2.61-3.17c-.41-2.07-3.59-3.06-3.29-5.16a3.32,3.32,0,0,1,1-1.77,44.7,44.7,0,0,1,35.45-14c1.57,2.6-.91,5.67-3,7.87s-3.75,6.17-1.22,7.87a6.83,6.83,0,0,0,3.32.76,28.53,28.53,0,0,1,8.85,2.68c4.33,1.87,8.58,3.95,12.73,6.17a16.06,16.06,0,0,1,.31-8.2,5.56,5.56,0,0,1,6.58-3.56c2.48,1,3.74,4.25,6.4,4.55,3.51.41,4.91-4.81,3.44-8s-4.4-5.92-4.63-9.48c-.18-2.38.73-5.34-1.17-6.79a5.13,5.13,0,0,0-2.25-.81q-23.83-4.36-47.7-8.75c-2.83-.53-6.91-.13-7,2.73-.08,1.62,1.36,3.22.73,4.68s-2.91,1.45-4.53,2a6.16,6.16,0,0,0-3.54,6.5,17.57,17.57,0,0,0,3,7.32c-3.12-1.29-7.8-1.52-10.91-2.84a42,42,0,0,0-2.73-10.5,3.71,3.71,0,0,0-4.2-3.13,3.5,3.5,0,0,0-.64.15L264,260a4.74,4.74,0,0,0-2.81,1.09c-1.6,1.69,0,4.4-.08,6.73a6.3,6.3,0,0,1-4.88,5.44,18.48,18.48,0,0,1-7.8-.1l-17.2-2.66a28.17,28.17,0,0,0,13-8.7c2.28-2.69,3.5-7.7.21-9a7.75,7.75,0,0,0-3-.23c-7.79.05-13.94-6.45-21.23-9.21a20.87,20.87,0,0,0-7.16-1.32Z"/><path class="cls-2" d="M868.83,500.91a9.12,9.12,0,0,1-7.75,3.67c-7.92-.68-11.26-12.09-19.1-13.38a3.05,3.05,0,0,0-2.08.2c-1.16.63-1.36,2.2-1.44,3.52-.33,6.52-.6,13.31,1.95,19.33,3.72,8.8,13.36,16.19,11.34,25.53-10.88-5-16.55-17.26-19.11-29s-3-24-7.59-35.1c-3.52,4.48-10.85.78-14-3.92-3-4.46-4.91-9.62-7.85-14.15s-7.44-8.55-12.8-8.8c-5.64-.26-10.55,3.61-14.85,7.28a34.28,34.28,0,0,0-9.24,10.28c-3,6.07-2.23,13.21-2.38,20-.15,7.29-1.69,15-6.68,20.37s-14.17,7.21-19.66,2.38a22.13,22.13,0,0,1-5.49-9.89,481.6,481.6,0,0,1-14.88-53.09c-.91,4.1-4.53,9.39-8,7a7,7,0,0,1-1.82-2.38c-6.43-10.85-18.3-17.38-30.32-21.3s-24.62-5.72-36.49-10a93.88,93.88,0,0,1-19-9.44,14.93,14.93,0,0,0-.91,15.23A12.21,12.21,0,0,0,634.43,431c2.63-.86,4.86-2.69,7.47-3.6s6.12-.45,7.26,2.08-.56,5.31.28,7.84c1.24,3.82,7,4.13,9.06,7.62a7.06,7.06,0,0,1-1.9,8.15,33.93,33.93,0,0,1-7.64,4.7c-8.5,4.74-14.55,12.81-22,19.08s-17.94,10.88-26.8,6.86c2.1-10.7-10.63-18.55-13-29.2-.79-3.52-.38-7.24-1.47-10.65-1.59-5-6-8.35-9.59-12.1a47.52,47.52,0,0,1-13-34.54c.2-4.4,1-8.88,0-13.18s-4.56-8.43-9-8.25c-10,.45-22.72,1.21-28-7.37-1.9-3.06-2.71-7.54,0-9.89a9.51,9.51,0,0,1,7.26-1.24c7.57.73,15.11,1.49,22.68,2.23,5.28.5,11,.93,15.56-1.83s6.53-10.12,2.3-13.38c-3.06-2.38-8.58-2.25-9.49-6-.73-3.17,2.76-6.74.86-9.39-1.34-1.87-4.38-1.37-6.22.05a41.53,41.53,0,0,1-5.24,4.58c-3.62,1.87-7.92.07-11.82-1.14s-9.11-1.32-11,2.3c-2.13,4,1.85,9.34-.23,13.39-2.78,5.34-12.14,2.3-16,6.91-4.45,5.26,3,13.15,1.54,19.89a12.38,12.38,0,0,1-12.22-.69,11.82,11.82,0,0,1-5.11-11c.35-3,2-6.15.88-9a10.44,10.44,0,0,0-5.33-4.88q-11-6.12-22-12.17c-2.05,3.79.53,8.47,3.77,11.33s7.26,5,9.39,8.73a11.47,11.47,0,0,1-4.3,15.13,2.61,2.61,0,0,1-2.2.38,3,3,0,0,1-1.42-1.89c-3.87-9.95-9.72-19.74-19-24.93s-22.72-4.12-28.85,4.61c-1.44,2.07-2.43,4.45-3.69,6.65-6.71,11.67-21.13,17.18-34.59,16.83a6.63,6.63,0,0,1-3.77-.89c-2.18-1.49-2.08-4.68-1.75-7.31.48-3.72.94-7.41,1.42-11.13a8.92,8.92,0,0,1,2.45-6.1c2.51-2,6.1-.74,9.29-.79a11.7,11.7,0,0,0,10.65-8.22,13.21,13.21,0,0,0-3.69-13.16c-1.44-1.36-3.39-3.09-2.63-4.93a4.1,4.1,0,0,1,2.86-1.93c5.69-1.64,11.74-2.07,17.33-4s11.06-6,12.4-11.75c.4-1.77.58-3.92,2.17-4.8a6.92,6.92,0,0,1,2.53-.51,12.32,12.32,0,0,0,10.56-12.83c2.68-1.87,6.45-.48,9.06,1.52s4.88,4.63,8,5.49c5.9,1.62,11.59-3.62,17.72-3.64,2.58,0,5.23.91,7.64,0s3.92-3.31,5.79-5.11,5.19-2.91,6.94-1c-.51-3.67-1-7.31-1.5-11a21.53,21.53,0,0,0,17.54-3.19l-19.11-6.45a4,4,0,0,1-1.79-1c-1.39-1.49,0-3.82,1.11-5.52,2.71-4.07,3.16-10.78-1.29-12.8-3-1.39-6.5.28-9.41,1.9q-7,3.87-14,7.77c-.43,2.65,2.81,4.17,4.81,5.94a8.07,8.07,0,0,1-5.27,14.1,10.08,10.08,0,0,1,1.8,8.52l-9.39.69a4,4,0,0,1-3-.61c-1-.89-.86-2.45-1.12-3.77a8.15,8.15,0,0,0-6.88-6,23.75,23.75,0,0,0-9.59.89,5.87,5.87,0,0,1-4.15-.1,4.17,4.17,0,0,1-1.62-2.08A10.57,10.57,0,0,1,445.92,260a58,58,0,0,1,8-7.36,46.65,46.65,0,0,0,13.89-21.51c5.17-2.18,10.51-5.11,15.69-7.29a63,63,0,0,1,13-4.38,62.11,62.11,0,0,1,12.78-.61c5.82.11,11.67.21,17.49.33a42.37,42.37,0,0,1,15.31,2.2c4.78,2,9,6.26,9.34,11.42a3.51,3.51,0,0,1-1.14,3.21,4.16,4.16,0,0,1-2.21.51c-4.83.15-6.88,1.36-11.71,1.54,3.06,3.26,6.5,6.71,11,7.29,7.84,1,13.48-7.11,17.1-14.17a6.91,6.91,0,0,0,7.21,6.4,14.46,14.46,0,0,0,5.44-2.13,107,107,0,0,1,50.74-13.1,5.47,5.47,0,0,1,4.17-6c3.62-.7,6.86,2.41,8.61,5.65s2.81,7,5.59,9.41,8.1,2.3,9.19-1.19S652.93,224,650,222s-6-5.64-4-8.58c14.88-3.31,29.88-6.6,45.14-7.26a19.29,19.29,0,0,0,7.59-1.31,5.91,5.91,0,0,0,3.54-6.25,17.26,17.26,0,0,1-18-6.79c15.66-1.29,32.06-2.43,47.12,1.09l13.18,11.19c-2.51,2.6-5.85,5.06-4,7.66a5.6,5.6,0,0,0,4.63,1.6c3.18,0,6.37.12,9.54.12A371,371,0,0,1,868,450.71c-5.32-.2-10.2,6.53-9.52,12.4.81,6.8,5.72,12.27,9.24,18.14a27.93,27.93,0,0,1,1.57,3Z"/><path class="cls-3" d="M173.05,175.42a59.47,59.47,0,0,0-58.73,60.21c.41,32.84,61.21,140,61.21,140S233.66,267,233.25,234.15A59.48,59.48,0,0,0,173.05,175.42Zm1.09,88.48A27.56,27.56,0,1,1,201.36,236h0A27.56,27.56,0,0,1,174.14,263.9Z"/><circle class="cls-4" cx="609.19" cy="460.98" r="24.17"/><path class="cls-4" d="M535.59,751.93l14.85-51.5,5,1.58s-6,38.54-15.48,48.34Z"/><path class="cls-5" d="M592.13,475.51s1.9,20.22-2.52,25.9,2.84,16.75,2.84,16.75L605.72,534l19.58-8.84,2.85-16.43-1.9-11.37s-6.63-6.64-3.79-18.64S592.13,475.51,592.13,475.51Z"/><path class="cls-6" d="M592.13,475.51s1.9,20.22-2.52,25.9,2.84,16.75,2.84,16.75L605.72,534l19.58-8.84,2.85-16.43-1.9-11.37s-6.63-6.64-3.79-18.64S592.13,475.51,592.13,475.51Z"/><polygon class="cls-5" points="603.61 853.65 603.61 866.6 620.98 870.07 619.4 848.59 603.61 853.65"/><polygon class="cls-5" points="655.63 848.59 651.84 866.6 659.42 871.97 672.69 862.18 671.11 846.7 655.63 848.59"/><path class="cls-4" d="M622.46,868.49s-6.63-11.21-19-4.18c0,0-2.21,12.4-4.43,13.34s-14.53,19,0,20.54,21.8-3.16,21.8-3.16-2.84,2.45,1.58,1.18S625,888,625,888Z"/><path class="cls-4" d="M665.74,860.91s-9.79,7-11.37,3.79-4.11-2.84-4.11-2.84-8.84,33.34-3.16,34.92a19.14,19.14,0,0,0,11.06-.57s7.58-5.31,7.58-1.2,21.17,3.81,30,3.49,4.11-7,4.11-7l-11.69-11.37L674.9,860.91S668.9,855.54,665.74,860.91Z"/><path class="cls-4" d="M572.55,649.57l13.27,127.31s7.26,77.71,8.53,79,9.47,5.37,27.48,0l-4.11-101.72L625.3,691l17.38,43.59s4.11,117.2,7,117.2,20.22,5.69,24.32-1.26,3.48-81.82,3.48-81.82-1.9-118.15-15.8-121.94S572.55,649.57,572.55,649.57Z"/><circle class="cls-5" cx="609.19" cy="465.4" r="21.8"/><path class="cls-7" d="M610.46,526.06s-2.21-13.59-2.21-16.12-9.8-4.1-9.8-4.1-7.58-8.53-9.16-7.27S563.7,516,559.91,518.16s-7.9,11.69-7.58,12.32,19.9,41.7,19.9,41.7,8.53,25.27,2.53,38.54-13.58,39.48-2.53,44.86,64.76,17,74.56,6.94,16.74-12.95,19.27-12.95-10.43-43.91-7.59-48-1.26-29.7-1.26-29.7l14.53-40.75s-1.26-22.75-30-27.8L624.53,495Z"/><path class="cls-5" d="M551.06,655.26s-1.58,15.16-1.58,19.59-7.58,30.32,3.47,33.48,10.11-34.43,10.11-34.43V654.63Z"/><path class="cls-5" d="M682.68,640.86s1.89,14.54,1,17.69,9.16,30.65-4.43,32.23-10.1-32.86-10.1-32.86V640.86Z"/><path class="cls-4" d="M548.59,746.9l9.11-48.34h2.82a19,19,0,0,1,2.83,18.2c-3.77,10.68-6.91,30.14-6.91,30.14Z"/><path class="cls-7" d="M557.07,526.69l-4.74,3.79s-6.32,100.45-4.74,108-5.68,18.32.63,19.27,13.9,5.05,17.38,2.52,4.11-11.68,5.37-13.9S574.44,618,574.44,618s6.64-26.22,2.53-45.8-7.9-39.49-7.9-39.49Z"/><path class="cls-7" d="M657.21,518.79l14.53,12.32,11.06,64.44s7,50.23,1.58,50.86-13.59-.94-17.06,0a7.39,7.39,0,0,1-6.32-1.58s-3.79-20.21-3.79-20.53-2.53-23.38-2.53-23.38L651.52,575l4.74-28.43Z"/><path class="cls-8" d="M588.66,817s-2,5.9-4.88,13.93c-1.32,3.73-2.8,7.93-4.33,12.21-1,2.77-2,5.57-3,8.31-1.57,4.37-3.09,8.57-4.42,12.18-1.76,4.76-3.18,8.49-3.94,10.23-3.48,7.9-67-4.73-72-7.89s-6.32-13.9-7-29.07c0-.08,0-.15,0-.23-.08-3.06.7-7.62,2-13,.65-2.67,1.43-5.54,2.3-8.52,1.17-4,2.5-8.19,3.89-12.36,6-17.91,13-35.42,13-35.42s12.32-8.52,16.74-14.21,28.75-10.11,28.75-10.11c7,.32,22.74,27.17,29.06,35.38S588.66,817,588.66,817Z"/><circle class="cls-4" cx="553.28" cy="766.14" r="2.84"/><circle class="cls-4" cx="557.7" cy="769.3" r="1.58"/><path class="cls-9" d="M583.78,830.93c-1.32,3.73-2.8,7.93-4.33,12.21l-86-28c1.17-4,2.5-8.19,3.89-12.36Z"/><path class="cls-9" d="M576.49,851.45c-1.57,4.37-3.09,8.57-4.42,12.18l-82.93-27c-.08-3.06.7-7.62,2-13Z"/><path class="cls-10" d="M553.28,766.77s6.32,27.8,2.53,52.44,9.47,47.7,9.47,47.7"/><path class="cls-10" d="M557.7,769s-12.32,44.86-12.64,51.18-5.37,51.49-11.68,56.23"/><path class="cls-4" d="M592.46,452.1s-4.94-12.83,2.22-17l2,5.67s18-10.85,22.7-8.39l-4.44,5.93s21,0,22.45,8.14l-7.4.24s7.89,5.18,8.14,13.57l-15.79,1,7.65,4.44s-28.62,3.95-35.53-7.4Z"/><path class="cls-4" d="M588.19,452.61s5.68,11.37,13.26,8.53,0-13.27,0-13.27l-5.05-2.53Z"/></svg>