<svg id="Layer_1" data-name="Layer 1" xmlns="http://www.w3.org/2000/svg" viewBox="0 0 1780.43 1163.3"><defs><style>.cls-1{fill:#fff;}</style></defs><title>wright_flyer</title><path class="cls-1" d="M115.22,910.2c4.26-14.72,11.55-28.14,19.05-41.47q21.42-24.66,44-48.26c16.23-16.89,36.82-27.2,56.29-39.35l85.32-47.57c29.76-15.39,58.87-31.88,87.72-48.82,13.65-7,27.4-13.89,40-22.61,1.94.53,2.78-.56,3.28-2.12,14.29-5.47,26.79-14,39.82-21.64,10.57-5.47,21.55-10.28,30.93-17.71,5-.4,8.42-3.4,11.85-6.46,30.53-15.51,60.34-32.24,89.64-49.83C651.78,549.85,679.52,534,706.62,517a199.49,199.49,0,0,0,32.1-18.48c4-1.36,7.95-2.87,10.6-6.38,15.09-6.06,28.26-15.41,42.3-23.25,33.84-18.9,67.34-38.37,101-57.6L920,396.14l40.18-23.47c1.43.08,2.59-.27,3-1.78,27.78-15.09,55.6-30.1,83.32-45.28,21.23-11.62,42.92-22.5,63.18-35.73a130.08,130.08,0,0,0,26.33-14.66c29.24-15.17,58.07-31,86-48.35,11.83-5.07,22.66-11.84,33.57-18.47,3.87-.12,6.22-2.61,8.55-5.14,15-6,28.39-14.8,42.36-22.61,9-5.07,19-8.59,27-15.35,5.82-2,11.63-4,15.81-8.72,28.86-13.12,55.88-29.52,83.71-44.47,17.23-9.26,35-17.67,51.15-28.74,14.74-6.43,28.64-14.35,42.34-22.62,12.12-5.92,24.18-11.92,35.13-19.8l3.31-1,51.41-17.7,6.25-1c2.38.35,4.62.21,6.33-1.74,3.73.79,7.28,0,10.78-1.19,19.4.17,38.88-.34,57.71,5.49,5.34,4.64,17.93,3.77,13.06,16.16a717.27,717.27,0,0,0-70.83,39.71,127.63,127.63,0,0,0-28.1,15.64c-21.19,11.57-42.28,23.3-63.6,34.62-6,3.21-5.3,6.15-2.33,11.13,11.52,19.23,22.15,39,33.92,58,10.64,17.27,19.27,35.69,31.58,52a242.86,242.86,0,0,0,22.2,37.89,193.55,193.55,0,0,0,21.08,35.83,1,1,0,0,0,.46,1.41c8.75,20,9.48,20.3,28,10.2,2.11-1.14,4-2.62,6-3.94,2.66.52,4.52-.93,6.36-2.43l47.08-20.19c5.19-2,10.38-4,15.56-6l67.86-26.79c15.54-3.25,30.55-8.85,47-7.88a26.37,26.37,0,0,1,17.08,7c8.43,7.7,7.73,16.16-2.25,21.91-20.39,11.76-41.08,23-61.62,34.56a40.09,40.09,0,0,0-4.12,3c-28.26,13.72-54.32,31.11-81.9,46-9.84,5.21-19.9,10.08-29.5,15.7-19.5,11.42-40.12,21-58.71,34-14.1,5.67-26.66,14-39.6,21.64-2.38-.08-4,1.31-5.5,2.78-12.54,7.05-25.66,13.12-37.37,21.52a153.15,153.15,0,0,0-31.54,17.93c-4.31.7-7.73,3.07-11.08,5.57-4.92,2.58-9.93,5-14.74,7.76-24.77,14.26-50.45,27-74.5,42.51a357.82,357.82,0,0,0-46.7,26.33c-20.63,6.73-27.74,25.72-39.27,40.7l-50,45.83c17.87-3,34.93-5.48,52.18-6.86,11.4-.92,20.94,1.68,26.13,12.71.43,2.09.85,4.19,1.28,6.28v10.54l-1.14,6.35c-6.53,18.63-16.9,35.19-29.06,50.78-9.81,10.76-19.31,21.81-29.55,32.18-5.4,5.46-5.6,9.73.15,14.52,6.12,10.92,13.64,21.68,4.22,34.39-10.15,6.2-20.69,7.79-31.8,2.51l-.26-.59-.65,0c-2.52-4.12-5.13-8.2-7.52-12.39-1.77-3.1-3.45-4.87-7.45-2.57-18.79,10.81-38.81,19.57-56.84,31.67-14.52,5.69-27.65,13.83-41,21.59l-1,0-.51.8c-14.54,7.37-29.38,14.23-42.9,23.36A259.59,259.59,0,0,0,1097.06,910c-1.67.09-3.34.21-4,2.08-15.56,7.52-31.12,15-45.5,24.59-2.85,1.18-5.69,2.4-8.57,3.52-8.13,3.15-10.79,7.57-3.7,14.4a37.6,37.6,0,0,1,2.66,3.11c.83,3.7,1.5,7.48,4.8,10.08-.06,1.55-.13,3.1-.19,4.65-4.11,7.38-8.73,14.26-17.55,17.08l-13.34.15c-.81-1.7-2.27-2.22-4.07-2.12-3.61-3.17-7.07-6.21-9.59-10.58-9.67-16.74-9.89-16.62-28.7-10l-55.39,14.11L877.4,985c-14.54-.42-29.18-.14-42.79-6.38-10.09-6.41-17.45-14.45-17.28-27,1-13.18,11.36-21.41,17.73-31.76,2.47-1.51,4.63-3.29,5.8-6,10.72-10.23,22.78-19.14,32.15-30.7l2.54-.87c-.45-.22-.93-.67-1.35-.63-1,.11-1.89.47-1,1.69-14.42.28-27.19,6.7-40.71,10.31-14.52,2.29-25.61,11.31-37.8,18.15-2.71.45-5.44.85-6.8,3.65-5.38,2-10.68,4.1-15.16,7.73a5,5,0,0,0-5.43,3.12c-3.24,1.49-7,2-9.43,5a6.74,6.74,0,0,0-5.87,3.09,2.31,2.31,0,0,0-3.15,1.93c-10.67,3.54-20,9.41-29.4,15.32L717.3,953c-2.35-.54-3.88.57-5.06,2.38-2.5-.22-3.92,1.61-5.67,2.8q-44.72,21.93-87.72,46.85c-28.72,14.82-57.6,29.36-85.29,46q-43.83,20.74-85.44,45.44a165.69,165.69,0,0,0-34.41,18.17,13.41,13.41,0,0,0-8.43,4.15c-11.93,4.77-22.87,11.32-34,17.54-2.59-.19-4.17,1.32-5.58,3.11a2.73,2.73,0,0,0-3.21,2.12c-11.4,3.67-21.35,10-31.45,16.1-4.44.22-7.42,3.37-11.05,5.2-4.46.27-7.51,3.48-11.31,5.12-10.49,4.53-19.66,11.94-31.45,13.68-5-2.9-6.63-6.07-2.53-11.33,2.22-2.84,2.72-6.94,4-10.48,12.52-15.63,27.93-28.55,42.28-42.47l2.59-1.58,39-30.76c5.35-3.87,10.64-7.81,16.07-11.58,2.94-2,4.79-4.34,2.42-7.66-8.59-12-14.28-25.8-24.19-37-7.12-16.7-18.38-31-28.47-46-6.88-10.18-9.87-22.47-18.77-31.46-15.66-26.07-31-52.35-47.11-78.14-11.63-18.58-12.13-18.29-31.06-6.19-.28.18-.43.55-.64.82-13.46,6.4-26.76,13.08-39.05,21.49-11.88,5.38-23.59,11.07-34.1,18.81-3.27.7-6.32,1.8-8.54,4.4-6.75,3.44-13.54,6.8-20.23,10.34-10.78,5.68-13.55,4.15-13.58-7.65C115.37,913.57,115.27,911.88,115.22,910.2Zm978.35-347.33c2.06-1,3.54-2.34,3.65-4.71,13.71-12.19,26.93-24.83,38.83-38.72,5.72-2,7.45-8.09,12.09-11.26,3.08-2.1,2-4.61.3-7.17-5.27-8.09-10.43-16.25-15.64-24.37-2.41-3.77-4.53-4.81-7.69-.3-4.74,6.75-10.07,13.11-15.15,19.64a191.82,191.82,0,0,0-25.43,31.14c-2.31.56-3.74,1.85-3.83,4.28a147.27,147.27,0,0,0-19.58,23.41l-2.47,2.52,2.39.82,11.58.5c1.47,1.68,3.14,2.89,5.6,2.28,2.56,1.8,5.56,1.13,8.39,1.4,2.11,3.63,4.4,4.61,7,.45Zm-203,145.39c2.29,2.69,5.23,2.41,8.27,1.75,2.72,1.1,5.46,1.88,8.39.73,7.88-6.53,3.57-17.23,8.9-24.81.92-1.31-3.14-1.95-5-2.59a222.58,222.58,0,0,0-33.77-9.1,138.17,138.17,0,0,0-32.72-9,4.81,4.81,0,0,0-5.81-1.89l-4.26-1.11c-10.22-4.9-21.35-6.35-34.2-10.31,7,13.38,13.16,24.1,18.17,35.33,4.87,10.9,12.94,15.48,24.74,14.9l8.55.72a16.05,16.05,0,0,0,10.64,1.82l6.39.41c3.38,1.5,6.83,2.66,10.64,2C883.15,707.88,886.74,709.07,890.56,708.26ZM674.91,786.37c2.11-.9,3.12-2.42,2.78-4.69q9.19-17.52,18.38-35,15.23-26.79,30.43-53.59c1.41-2.5,2.3-5.08-.37-7.45-9.53-8.43-9.62-19-7.37-30.18,3.34-11.69,11.32-19.64,21.88-25.52a5.81,5.81,0,0,0,5.28-2.22l.08,0c9-13.67,9.56-26.58-1.74-39.84-4.13-4.84-6.64-5.85-11.92-2.62-9.28,5.66-18.89,10.81-28.29,16.3-33.28,19.46-67.59,37.26-100.08,58a109.93,109.93,0,0,0-25.6,14.56q-31.27,17.33-62.57,34.64c-3.85,2.13-5.58,4-2.56,8.76,14.49,22.74,28.49,45.77,42.67,68.7a237.94,237.94,0,0,0,19.19,31.34c1.3,3.9,2.72,7.72,6.54,10.07,13.39,26.16,30.28,50.35,45.2,75.66,11,18.66,11.56,18.35,30.54,6.57a6.85,6.85,0,0,0,6.14-3.85l.69-.15.12-.68c30-15.45,59.08-32.46,87.35-50.73,12.24-4.67,22.89-12.15,33.83-18.9,17.45-10.77,37.09-18.34,52.14-32.71,6.8-.39,10.46-6.07,15.84-8.82,5.59-2.86,5.9-7,3.12-11.82-8.1-14-15.74-28.2-25.34-41.31C824,723.63,815,708.73,792,711.34a242,242,0,0,0-36.38-6.52c-5.27-.49-8.13,1-10.13,6.3-9.35,24.69-18.27,49.49-25.64,74.81-9.39,18.49-18.67,37-28.22,55.43-4.44,8.57-9.15,17-17.07,23.28l-11,6.79c-4.57.63-9,.84-12.7-2.66-4.93-14.49,1.82-27.68,4.91-41.27,5-5.69,6.89-12.63,8.58-19.66,5.66-6.22,8.13-13.92,10.65-21.6Zm460.74-249,0,0c-14.42,13.16-28.51,26.62-41.44,41.16l-1.54,1.62c-4.73,2-2.61,4-.08,6-2,7,1.87,13.09,3.09,19.59a6.68,6.68,0,0,0,1.89,6.17l.58,4.18c.35,16.27,8.14,26.08,25.27,29,3.94.67,7.13,3.7,11.78,1.43,23.72-11.56,47.49-23,71.43-34.15,4.92-2.29,4.19-4.76,2.12-8q-13.92-22.1-27.93-44.14c-1-7.1-5.14-12.76-9.07-18.52-3.67-6.92-7.31-13.85-11-20.75-2-3.71-4.25-5.19-7.86-1.3C1147.32,525.64,1141.42,531.46,1135.65,537.38Zm85.08-83.17a531.17,531.17,0,0,0-42.08,41.87l-.61.19-.08.61c-11,9-11,10.12.06,23.14.43,3.72,2.9,6.36,5.13,9.13.39,2.62,1.27,5,3.84,6.34l1.76,2.14c9.19,19.27,21.53,36.8,32.16,55.27,2.11,3.66,4.61,4,7.78,2.15,8.67-5.14,17.23-10.45,25.84-15.69,3.9-.33,6.33-3.2,9.34-5.06,29.78-15.93,59.16-32.51,88-50,25.55-14.37,51-29,76.71-43,18.29-10,18.5-9.6,6.07-26.55l-11.57-20.65a7.21,7.21,0,0,0-6.78-4c-8.83-.11-17.65-.53-26.47-.82l-15-.93c-3.23-2.18-6.86-2.28-10.58-1.88l-14.85-.4-45-7.7-6.4-.7c-2.4-2.5-5.52-1.9-8.51-1.84l-25.64-4.35c-4-2.34-7-3.59-9.87,2.17-4.93,9.76-11,18.86-19.83,26.13C1229.11,443.89,1225.17,449.34,1220.73,454.21ZM420.4,761.5c-3.55,1.07-7,2.25-9.14,5.54l-5.8,2.88c-9.37,4.56-18.79,9-27,15.45-5.7,2.12-11.44,4.17-15.81,8.59-22.86,12.31-45.92,24.31-68.48,37.11-7.94,4.5-21.53,6.44-22,14.88-.43,7.58,8.86,15.68,13.86,23.55,15.65,28.08,33.16,55.09,50.2,82.37,8.37,14,16,28.49,26,41.59,10.66,20.57,23.78,39.75,35.68,59.62,1.68,2.8,3,4.39,6.5,2.07,10.5-6.93,21.17-13.64,31.77-20.44,4.54-1.94,9.45-3.29,12.63-7.41,19.65-10.83,39.37-21.55,58.94-32.52,25-14,49.81-28.19,74.7-42.3,4.66-2.22,9.41-4.26,13.95-6.69,24.28-13,24.27-13,8.93-35.3-.17-.25-.59-.34-.9-.51-7.37-14.19-15.24-28.09-25.08-40.86l-.25-.51c-15.35-28.32-31.9-56-50-82.73-6.83-14.78-16-28.2-25.58-41.37-3.35-5.76-6.6-11.58-10.08-17.27-1.56-2.56-3.22-5.25-7.19-2.72-12.54,8-26.72,13.32-38.44,22.59C437.8,750.45,429.3,756.33,420.4,761.5ZM1441.19,189.93a142.81,142.81,0,0,0-28.54,16c-3.78.74-6.89,2.72-9.88,4.94a6.71,6.71,0,0,0-5.54,3.17l-5.62,3.54c-11.92,4.44-22.53,11.29-33.39,17.58-8.51,4.93-22.52,6.6-23.92,15.95-1.3,8.7,8.93,17.08,13.82,25.73.15.27.59.38.89.56l0,.86.78.4c-.32,2.63,1.14,4.19,3.37,5.3q1.39,2.54,2.78,5.07c15.75,29,33.35,56.9,50.5,85.09,4,5.14,4.16,13.61,12.68,14.82,6.59.93,13.3,1,20,1.5,8.42.66,16.93,2.31,25.25,1.66,6.74-.52,9.3,2.37,12.34,7,3.48,5.32,1.32,9.32-2.25,12.83s-8.19,6.51-12.22,9.85c-6.15,5.08-19.75,3.75-18.44,14.28,1,8.19,8.44,15.55,12.61,23.47,2.6,5,5.55,2.83,8.55,1,27.19-16.37,56.66-28.95,83-46.66,7.19-4.83,15.86-7.6,21.66-14.37,14.61-6.64,27.82-15.5,41.08-24.28l1-.07.36-.9c6.9-3.94,13.91-7.7,20.69-11.83,20.28-12.35,20.24-12.41,5.86-31.48-.19-.25-.59-.35-.89-.52-15.18-28.51-32.24-56-49.59-83.25-6.55-8.24-8.5-19.09-16.1-26.73-2.77-6.22-5.37-12.53-10.56-17.35-6-13.54-14.53-25.73-22.4-38.26-3.36-5.94-6.89-11.8-10-17.85-1.71-3.34-4.4-3.76-6.9-2.15-14.26,9.25-30.66,15-44.19,25.38a9.76,9.76,0,0,0-6.8,3.26,3.92,3.92,0,0,0-4.12,2.22C1458,179.71,1449,183.88,1441.19,189.93ZM1176.42,471.39c8-7.22,16-14.38,23.92-21.67,2.38-2.2,2.72-4.18-.4-6.68a90.59,90.59,0,0,1-19.65-21.57c-2.6-4-4.57-4.21-7.77-.25-9.14,11.32-18.67,22.34-28,33.48-5.82,6.1.24,10.94,2.67,15.21C1159.62,491.84,1159.87,491.7,1176.42,471.39ZM834.74,649.94c13.64,6,28.23,8.79,42.7,12l2.71.47c13,5.81,27.1,8.06,40.67,12,21.42,6.23,21.36,6.42,34.73-9.59a41.14,41.14,0,0,1,2.56-3.28c2.63-2.6,2.63-5,.66-8.2-15.41-24.92-28.63-51.08-45.16-75.37A336.17,336.17,0,0,0,890,537.52c-3.88-6.88-7.63-13.83-11.66-20.62-8.27-13.94-8.74-14.47-22.45-5.15-7.62,5.17-18.79,6.21-22.67,15.79-12.48,30.83-24.53,61.83-36.74,92.76-1.9,4.05-3.9,8.06-5.65,12.16-1.68,3.93-.49,6.51,4.06,7.51C808.27,642.94,820.87,648.83,834.74,649.94Zm347.41-319.76-4,1.53L1109,369c6.5.67,10.19,3,14.91,3.42,18.74,1.65,37.6,3.14,56,6.68,9.52,1.83,15.7.28,21-6.87l9.55-5.23c16.41-2,28.58,5.73,39.4,16.34,2.83,2.77,5.66,5.05,10,5,15.59-.27,31.19-.43,46.79-.63l42.63.46c9,1.19,17.9,3.8,27.07,2.51,6.74-.94,16.95,4.16,19.22-1s-5.78-12.06-10-17.78c-15.34-28.25-32.61-55.42-49.52-82.78-5.71-9.81-11.55-19.54-17-29.44-2-3.52-3.91-4.39-7.3-1.94-2.78,2-5.71,3.84-8.57,5.74-9.53,2.89-17.53,8.63-26,13.45-18.74,10.71-38.61,19.54-56.35,31.91C1207.2,314.7,1194,321.36,1182.15,330.18Zm-174.57,97.4c-20.34,11.12-40.64,22.29-61,33.33-4.58,2.47-3.21,5.25-1.26,8.52q30.66,51.29,61.2,102.64c4,6.79,6,17.21,15.46,3,4.11-6.16,14-8.48,19-14.31,27.17-31.28,53.62-63.15,80.46-94.7,2.58-3,3.51-5.42,1.3-9-10.47-17.09-20.74-34.28-31.09-51.44-13.26-5-27.77-7.14-40.46-2.24C1035.78,409.32,1022,419.33,1007.58,427.58ZM832.43,712.26,866,768c14-14.49,20.81-33.33,37.4-46.21Zm76-229.27c-1.15.69-3.17,1.24-4,2.52-1.9,3,1,5,2.38,7.28q37.62,62.7,75.41,125.3c1.36,2.24,2.17,7.13,6,5.48,4.39-1.91,2.1-5.81.29-8.86q-37.8-63.76-75.69-127.49C911.91,485.67,911.9,482.91,908.43,483Zm202.26-77.65c7.18,11.43,13.69,21.8,20.19,32.18,2,3.22,4.62,4.67,7.46,1.17,8.6-10.6,17-21.35,26.52-33.35Zm-297.81,292-20.62-33.86c.6,11.7-5.39,19.57-13.21,28ZM775.82,556.49c-6.49,3.36-13,6.66-19.45,10.11-2.63,1.41-6.59,2.67-4.21,6.69,3.6,6.08,7.74,11.86,12.75,19.42C768.69,579.54,772.57,568.53,775.82,556.49Zm222.66,74.85c-8.57,6.47-.74,11.27.65,16.46.54,2,1.69,5.08,5,3.47,3.14-1.54,4.67-4.26,2.61-7.59C1004.23,639.65,1001.46,635.77,998.48,631.34Zm-37.57,44.9,13.5,6c-2.67-5.58-2.73-10.53-6.8-11.94C965,669.44,962.26,672.59,960.91,676.24Z" transform="translate(-115.22 -18.35)"/></svg>